<?xml version="1.0" encoding="UTF-8" standalone="no"?>
<!-- Created with Inkscape (http://www.inkscape.org/) -->

<svg
   xmlns:dc="http://purl.org/dc/elements/1.1/"
   xmlns:cc="http://creativecommons.org/ns#"
   xmlns:rdf="http://www.w3.org/1999/02/22-rdf-syntax-ns#"
   xmlns:svg="http://www.w3.org/2000/svg"
   xmlns="http://www.w3.org/2000/svg"
   xmlns:sodipodi="http://sodipodi.sourceforge.net/DTD/sodipodi-0.dtd"
   xmlns:inkscape="http://www.inkscape.org/namespaces/inkscape"
   version="1.1"
   id="svg2"
   xml:space="preserve"
   width="794.56"
   height="1121.2799"
   viewBox="0 0 794.56 1121.2799"
   sodipodi:docname="mockups-04.svg"
   inkscape:version="0.92.5 (2060ec1f9f, 2020-04-08)"><metadata
     id="metadata8"><rdf:RDF><cc:Work
         rdf:about=""><dc:format>image/svg+xml</dc:format><dc:type
           rdf:resource="http://purl.org/dc/dcmitype/StillImage" /><dc:title></dc:title></cc:Work></rdf:RDF></metadata><defs
     id="defs6"><clipPath
       clipPathUnits="userSpaceOnUse"
       id="clipPath18"><path
         d="M 129.16666,79.166664 H 2351.0417 V 3304.1667 H 129.16666 Z"
         id="path16"
         inkscape:connector-curvature="0"
         style="clip-rule:evenodd" /></clipPath><clipPath
       clipPathUnits="userSpaceOnUse"
       id="clipPath34"><path
         d="M 129.16666,79.166664 H 2354.1665 V 3504.1665 H 129.16666 Z"
         id="path32"
         inkscape:connector-curvature="0"
         style="clip-rule:evenodd" /></clipPath><clipPath
       clipPathUnits="userSpaceOnUse"
       id="clipPath48"><path
         d="M 129.16666,151.04166 H 2347.9167 V 2079.1668 H 129.16666 Z"
         id="path46"
         inkscape:connector-curvature="0"
         style="clip-rule:evenodd" /></clipPath><clipPath
       clipPathUnits="userSpaceOnUse"
       id="clipPath72"><path
         d="m 253.15231,354.33655 h 149.39371 v 76.2356 H 253.15231 Z"
         id="path70"
         inkscape:connector-curvature="0"
         style="clip-rule:evenodd" /></clipPath><clipPath
       clipPathUnits="userSpaceOnUse"
       id="clipPath86"><path
         d="M 129.16666,151.04166 H 2347.9167 V 2079.1668 H 129.16666 Z"
         id="path84"
         inkscape:connector-curvature="0"
         style="clip-rule:evenodd" /></clipPath><linearGradient
       x1="0"
       y1="0"
       x2="0"
       y2="1"
       gradientUnits="userSpaceOnUse"
       gradientTransform="matrix(152.64,0,0,-8.1599994,-60.528665,97.903681)"
       spreadMethod="pad"
       id="linearGradient96"><stop
         style="stop-opacity:1;stop-color:#f2f2f2"
         offset="0"
         id="stop90" /><stop
         style="stop-opacity:1;stop-color:#ffffff"
         offset="0.10000001"
         id="stop92" /><stop
         style="stop-opacity:1;stop-color:#ffffff"
         offset="1"
         id="stop94" /></linearGradient><clipPath
       clipPathUnits="userSpaceOnUse"
       id="clipPath114"><path
         d="M 253.15231,1100.8101 H 2274.7348 v 730.591 H 253.15231 Z"
         id="path112"
         inkscape:connector-curvature="0"
         style="clip-rule:evenodd" /></clipPath><clipPath
       clipPathUnits="userSpaceOnUse"
       id="clipPath212"><path
         d="M 129.16666,151.04166 H 2347.9167 V 2079.1668 H 129.16666 Z"
         id="path210"
         inkscape:connector-curvature="0"
         style="clip-rule:evenodd" /></clipPath><linearGradient
       x1="0"
       y1="0"
       x2="0"
       y2="1"
       gradientUnits="userSpaceOnUse"
       gradientTransform="matrix(152.64,0,0,-24.24,-60.528665,12.343675)"
       spreadMethod="pad"
       id="linearGradient222"><stop
         style="stop-opacity:1;stop-color:#f2f2f2"
         offset="0"
         id="stop216" /><stop
         style="stop-opacity:1;stop-color:#ffffff"
         offset="0.03366337"
         id="stop218" /><stop
         style="stop-opacity:1;stop-color:#ffffff"
         offset="1"
         id="stop220" /></linearGradient><clipPath
       clipPathUnits="userSpaceOnUse"
       id="clipPath240"><path
         d="m 253.15231,573.51385 h 257.46573 v 76.2356 H 253.15231 Z"
         id="path238"
         inkscape:connector-curvature="0"
         style="clip-rule:evenodd" /></clipPath><clipPath
       clipPathUnits="userSpaceOnUse"
       id="clipPath254"><path
         d="M 129.16666,151.04166 H 2347.9167 V 2079.1668 H 129.16666 Z"
         id="path252"
         inkscape:connector-curvature="0"
         style="clip-rule:evenodd" /></clipPath></defs><sodipodi:namedview
     pagecolor="#ffffff"
     bordercolor="#666666"
     borderopacity="1"
     objecttolerance="10"
     gridtolerance="10"
     guidetolerance="10"
     inkscape:pageopacity="0"
     inkscape:pageshadow="2"
     inkscape:window-width="1366"
     inkscape:window-height="707"
     id="namedview4"
     showgrid="false"
     inkscape:zoom="0.84189505"
     inkscape:cx="192.30827"
     inkscape:cy="831.42199"
     inkscape:window-x="0"
     inkscape:window-y="30"
     inkscape:window-maximized="1"
     inkscape:current-layer="g10" /><g
     id="g10"
     inkscape:groupmode="layer"
     inkscape:label="mockups-04"
     transform="matrix(0.31999998,0,0,0.31999998,0,-1.8634668e-5)"><g
       id="g28"><g
         id="g30"
         clip-path="url(#clipPath34)"><g
           id="g36"
           transform="matrix(3.125,0,0,3.125,129.16666,79.166664)"><text
             transform="translate(0,1045)"
             style="font-variant:normal;font-weight:normal;font-size:7.55000019px;font-family:'Liberation Sans';-inkscape-font-specification:LiberationSans;writing-mode:lr-tb;fill:#000000;fill-opacity:1;fill-rule:nonzero;stroke:none"
             id="text40"><tspan
               x="0 5.0337067 8.8071442 13.004364 17.201584 19.714752 21.811523 26.008743 30.205963 32.302734 34.399506 36.912674 41.109894 47.3965 49.493271 54.526978 58.724197 62.921417 66.694855 68.371536 70.048218 72.144989 74.658157 76.754929 81.788635 85.985855 90.183075 92.279846 98.566452 102.76367 106.53711 108.63388 112.8311 117.02832 119.12509 123.32231 127.51953 131.71675 135.91397 138.01074 142.20796 146.40518 148.50195 152.69917 156.89639 158.99316 163.19038 167.3876 169.48438 175.35458 181.64119 185.83455 188.34772 192.54494 196.74216 200.93938 205.1366 207.23337 209.74654 214.78024 217.29341 221.49063 225.26407 226.94075 228.61743 230.29411 234.49133 236.5881 241.62181 243.71858 247.9158 252.11302 256.31024 260.50745 263.02063 267.21783 269.31461 273.64435 275.32104 281.60767 285.80487 288.31805 290.41483 292.92798 295.02475 300.05847 304.25568 308.45288 312.65009 314.74686 318.94409 321.04086 325.2381 327.33487 329.43164"
               y="0"
               sodipodi:role="line"
               id="tspan38">Exported from Pencil - Sun May 01 2022 11:42:39 GMT-0300 (Brasilia Standard Time) - Page 1 of 1</tspan></text>
</g></g></g><g
       id="g42"><g
         id="g44"
         clip-path="url(#clipPath48)"><g
           id="g50"
           transform="matrix(3.1785891,0,0,3.1764827,129.18735,151.04166)"><path
             d="m 4,0 h 691 c 0.53033,0 1.04059,0.10149394 1.53064,0.30448183 0.49005,0.20298788 0.92261,0.4920182 1.29773,0.86709097 0.37506,0.3750726 0.66406,0.807637 0.86706,1.2976931 C 698.89844,2.9593222 698.99994,3.4695668 699,4 V 39 H 0 V 4 C 0,3.4695671 0.10149396,2.9593227 0.30448189,2.4692664 0.50746983,1.9792101 0.79650015,1.5466458 1.1715729,1.1715729 1.5466458,0.79650015 1.9792101,0.50746983 2.4692664,0.30448189 2.9593227,0.10149396 3.4695671,0 4,0 Z"
             style="fill:#337ab7;fill-opacity:1;fill-rule:nonzero;stroke:none"
             id="path52"
             inkscape:connector-curvature="0" /><path
             d="m 4,0 h 691 c 0.53033,0 1.04059,0.10149394 1.53064,0.30448183 0.49005,0.20298788 0.92261,0.4920182 1.29773,0.86709097 0.37506,0.3750726 0.66406,0.807637 0.86706,1.2976931 C 698.89844,2.9593222 698.99994,3.4695668 699,4 V 39 H 0 V 4 C 0,3.4695671 0.10149396,2.9593227 0.30448189,2.4692664 0.50746983,1.9792101 0.79650015,1.5466458 1.1715729,1.1715729 1.5466458,0.79650015 1.9792101,0.50746983 2.4692664,0.30448189 2.9593227,0.10149396 3.4695671,0 4,0 Z"
             style="fill:none;stroke:#337ab7;stroke-width:1;stroke-linecap:butt;stroke-linejoin:miter;stroke-miterlimit:10;stroke-dasharray:none;stroke-opacity:1"
             id="path54"
             inkscape:connector-curvature="0" /><path
             d="m 0,39 h 699 v 564 c -6e-5,0.5304 -0.10156,1.04065 -0.30457,1.5307 -0.203,0.49005 -0.492,0.92261 -0.86706,1.29773 -0.37512,0.37506 -0.80768,0.66406 -1.29773,0.86707 C 696.04059,606.8985 695.53033,607 695,607 H 4 C 3.4695668,607 2.9593222,606.8985 2.4692659,606.6955 1.9792098,606.49249 1.5466454,606.20349 1.1715728,605.82843 0.79650003,605.45331 0.50746971,605.02075 0.30448183,604.5307 0.10149394,604.04065 0,603.5304 0,603 Z"
             style="fill:#f8f8f8;fill-opacity:1;fill-rule:nonzero;stroke:none"
             id="path56"
             inkscape:connector-curvature="0" /><path
             d="m 0,39 h 699 v 564 c -6e-5,0.5304 -0.10156,1.04065 -0.30457,1.5307 -0.203,0.49005 -0.492,0.92261 -0.86706,1.29773 -0.37512,0.37506 -0.80768,0.66406 -1.29773,0.86707 C 696.04059,606.8985 695.53033,607 695,607 H 4 C 3.4695668,607 2.9593222,606.8985 2.4692659,606.6955 1.9792098,606.49249 1.5466454,606.20349 1.1715728,605.82843 0.79650003,605.45331 0.50746971,605.02075 0.30448183,604.5307 0.10149394,604.04065 0,603.5304 0,603 Z"
             style="fill:none;stroke:#337ab7;stroke-width:1;stroke-linecap:butt;stroke-linejoin:miter;stroke-miterlimit:10;stroke-dasharray:none;stroke-opacity:1"
             id="path58"
             inkscape:connector-curvature="0" /></g><g
           id="g60"
           transform="matrix(3.1269932,0,0,3.1249208,176.86618,230.45372)"><text
             style="font-variant:normal;font-weight:normal;font-size:16.26000023px;font-family:Arimo;-inkscape-font-specification:Arimo;writing-mode:lr-tb;fill:#ffffff;fill-opacity:1;fill-rule:nonzero;stroke:none"
             id="text64"><tspan
               x="0 11.735229 20.772705 29.810181 38.847656 46.972656 51.487427 56.898804 65.936279 70.45105 79.488525 88.526001 93.040771 104.776 113.81348 122.85095 131.88843 137.2998 141.81458 150.85205 164.38843 173.4259 182.46338 186.97815 196.01562"
               y="0"
               sodipodi:role="line"
               id="tspan62">Cadastro de Departamentos</tspan></text>
</g></g></g><g
       id="g66"><g
         id="g68"
         clip-path="url(#clipPath72)"><g
           id="g74"
           transform="matrix(3.1785891,0,0,3.1764827,253.15231,354.33655)"><text
             transform="translate(0,17)"
             style="font-variant:normal;font-weight:bold;font-size:17px;font-family:'Liberation Sans';-inkscape-font-specification:LiberationSans-Bold;writing-mode:lr-tb;fill:#000000;fill-opacity:1;fill-rule:nonzero;stroke:none"
             id="text78"><tspan
               x="0 12.276855 22.661133 37.776855"
               y="0"
               sodipodi:role="line"
               id="tspan76">Nome</tspan></text>
</g></g></g><g
       id="g80"><g
         id="g82"
         clip-path="url(#clipPath86)"><g
           id="g88"
           transform="matrix(3.1785891,0,0,3.1764827,253.15231,427.39566)"><path
             d="m 4,0 h 628 c 0.5304,0 1.04059,0.10149394 1.53064,0.30448183 0.49005,0.20298788 0.92267,0.4920182 1.29779,0.86709097 0.37506,0.3750726 0.66406,0.807637 0.867,1.2976931 C 635.89844,2.9593222 635.99994,3.4695668 636,4 v 26 c -6e-5,0.530432 -0.10156,1.040674 -0.30457,1.530729 -0.20294,0.490057 -0.49194,0.922625 -0.867,1.297697 -0.37512,0.375069 -0.80774,0.664097 -1.29779,0.867085 C 633.04059,33.898502 632.5304,33.999996 632,34 H 4 C 3.4695668,33.999996 2.9593222,33.898502 2.4692659,33.695515 1.9792098,33.492523 1.5466454,33.203495 1.1715728,32.828426 0.79650003,32.453354 0.50746971,32.020786 0.30448183,31.530729 0.10149394,31.040674 0,30.530432 0,30 V 4 C 0,3.4695671 0.10149396,2.9593227 0.30448189,2.4692664 0.50746983,1.9792101 0.79650015,1.5466458 1.1715729,1.1715729 1.5466458,0.79650015 1.9792101,0.50746983 2.4692664,0.30448189 2.9593227,0.10149396 3.4695671,0 4,0 Z"
             style="fill:url(#linearGradient96);fill-opacity:1;fill-rule:nonzero;stroke:none"
             id="path98"
             inkscape:connector-curvature="0" /><path
             d="m 4,0 h 628 c 0.5304,0 1.04059,0.10149394 1.53064,0.30448183 0.49005,0.20298788 0.92267,0.4920182 1.29779,0.86709097 0.37506,0.3750726 0.66406,0.807637 0.867,1.2976931 C 635.89844,2.9593222 635.99994,3.4695668 636,4 v 26 c -6e-5,0.530432 -0.10156,1.040674 -0.30457,1.530729 -0.20294,0.490057 -0.49194,0.922625 -0.867,1.297697 -0.37512,0.375069 -0.80774,0.664097 -1.29779,0.867085 C 633.04059,33.898502 632.5304,33.999996 632,34 H 4 C 3.4695668,33.999996 2.9593222,33.898502 2.4692659,33.695515 1.9792098,33.492523 1.5466454,33.203495 1.1715728,32.828426 0.79650003,32.453354 0.50746971,32.020786 0.30448183,31.530729 0.10149394,31.040674 0,30.530432 0,30 V 4 C 0,3.4695671 0.10149396,2.9593227 0.30448189,2.4692664 0.50746983,1.9792101 0.79650015,1.5466458 1.1715729,1.1715729 1.5466458,0.79650015 1.9792101,0.50746983 2.4692664,0.30448189 2.9593227,0.10149396 3.4695671,0 4,0 Z"
             style="fill:none;stroke:#cccccc;stroke-width:1;stroke-linecap:butt;stroke-linejoin:miter;stroke-miterlimit:10;stroke-dasharray:none;stroke-opacity:1"
             id="path100"
             inkscape:connector-curvature="0" /></g><g
           id="g102"
           transform="matrix(3.1269932,0,0,3.1249208,291.29541,497.27826)"><text
             style="font-variant:normal;font-weight:normal;font-size:14.22999954px;font-family:Arimo;-inkscape-font-specification:Arimo;writing-mode:lr-tb;fill:#545454;fill-opacity:1;fill-rule:nonzero;stroke:none"
             id="text106"><tspan
               x="0 10.268326 18.176117 30.020447 37.928238 41.878662 49.786453 57.694244 61.644669 69.55246 77.460251 85.368042 93.275833 98.010788 101.96121 109.869 121.71333 129.62112 137.52892 141.47934 149.38713 153.33755 157.28798 161.2384"
               y="0"
               sodipodi:role="line"
               id="tspan104">Nome do departamento....</tspan></text>
</g></g></g><g
       id="g108"><g
         id="g110"
         clip-path="url(#clipPath114)"><g
           id="g116"
           transform="matrix(3.1785891,0,0,3.1764827,253.15231,1100.8101)"><path
             d="m 563,184 h 73 v 1 h -73 z"
             style="fill:#dddddd;fill-opacity:1;fill-rule:nonzero;stroke:none"
             id="path118"
             inkscape:connector-curvature="0" /><path
             d="m 492,184 h 71 v 1 h -71 z"
             style="fill:#dddddd;fill-opacity:1;fill-rule:nonzero;stroke:none"
             id="path120"
             inkscape:connector-curvature="0" /><path
             d="m 404,184 h 88 v 1 h -88 z"
             style="fill:#dddddd;fill-opacity:1;fill-rule:nonzero;stroke:none"
             id="path122"
             inkscape:connector-curvature="0" /><path
             d="m 243,184 h 161 v 1 H 243 Z"
             style="fill:#dddddd;fill-opacity:1;fill-rule:nonzero;stroke:none"
             id="path124"
             inkscape:connector-curvature="0" /><path
             d="m 0,184 h 243 v 1 H 0 Z"
             style="fill:#dddddd;fill-opacity:1;fill-rule:nonzero;stroke:none"
             id="path126"
             inkscape:connector-curvature="0" /><path
             d="m 563,138 h 73 v 1 h -73 z"
             style="fill:#dddddd;fill-opacity:1;fill-rule:nonzero;stroke:none"
             id="path128"
             inkscape:connector-curvature="0" /><path
             d="m 492,138 h 71 v 1 h -71 z"
             style="fill:#dddddd;fill-opacity:1;fill-rule:nonzero;stroke:none"
             id="path130"
             inkscape:connector-curvature="0" /><path
             d="m 404,138 h 88 v 1 h -88 z"
             style="fill:#dddddd;fill-opacity:1;fill-rule:nonzero;stroke:none"
             id="path132"
             inkscape:connector-curvature="0" /><path
             d="m 243,138 h 161 v 1 H 243 Z"
             style="fill:#dddddd;fill-opacity:1;fill-rule:nonzero;stroke:none"
             id="path134"
             inkscape:connector-curvature="0" /><path
             d="m 0,138 h 243 v 1 H 0 Z"
             style="fill:#dddddd;fill-opacity:1;fill-rule:nonzero;stroke:none"
             id="path136"
             inkscape:connector-curvature="0" /><path
             d="m 563,46 h 73 v 1 h -73 z"
             style="fill:#dddddd;fill-opacity:1;fill-rule:nonzero;stroke:none"
             id="path138"
             inkscape:connector-curvature="0" /><path
             d="m 563,92 h 73 v 1 h -73 z"
             style="fill:#dddddd;fill-opacity:1;fill-rule:nonzero;stroke:none"
             id="path140"
             inkscape:connector-curvature="0" /><path
             d="m 492,46 h 71 v 1 h -71 z"
             style="fill:#dddddd;fill-opacity:1;fill-rule:nonzero;stroke:none"
             id="path142"
             inkscape:connector-curvature="0" /><path
             d="m 492,92 h 71 v 1 h -71 z"
             style="fill:#dddddd;fill-opacity:1;fill-rule:nonzero;stroke:none"
             id="path144"
             inkscape:connector-curvature="0" /><path
             d="m 404,46 h 88 v 1 h -88 z"
             style="fill:#dddddd;fill-opacity:1;fill-rule:nonzero;stroke:none"
             id="path146"
             inkscape:connector-curvature="0" /><path
             d="m 404,92 h 88 v 1 h -88 z"
             style="fill:#dddddd;fill-opacity:1;fill-rule:nonzero;stroke:none"
             id="path148"
             inkscape:connector-curvature="0" /><path
             d="m 243,46 h 161 v 1 H 243 Z"
             style="fill:#dddddd;fill-opacity:1;fill-rule:nonzero;stroke:none"
             id="path150"
             inkscape:connector-curvature="0" /><path
             d="m 243,92 h 161 v 1 H 243 Z"
             style="fill:#dddddd;fill-opacity:1;fill-rule:nonzero;stroke:none"
             id="path152"
             inkscape:connector-curvature="0" /><path
             d="m 0,92 h 243 v 1 H 0 Z"
             style="fill:#dddddd;fill-opacity:1;fill-rule:nonzero;stroke:none"
             id="path154"
             inkscape:connector-curvature="0" /><path
             d="m 0,45 h 243 v 2 H 0 Z"
             style="fill:#dddddd;fill-opacity:1;fill-rule:nonzero;stroke:none"
             id="path156"
             inkscape:connector-curvature="0" /><text
             transform="translate(8,27)"
             style="font-variant:normal;font-weight:bold;font-size:14px;font-family:Arimo;-inkscape-font-specification:Arimo-Bold;writing-mode:lr-tb;fill:#333333;fill-opacity:1;fill-rule:nonzero;stroke:none"
             id="text160"><tspan
               x="0 10.110352 17.896484 26.448242 34.234375 39.682617 44.344727 52.130859 64.579102 72.365234 80.916992 85.579102 94.130859 101.91699 105.80664 114.3584 118.24805 126.03418 134.58594 143.1377 151.68945 155.5791 163.36523 171.15137 175.04102"
               y="0"
               sodipodi:role="line"
               id="tspan158">Departamentos disponíveis</tspan></text>
<text
             transform="translate(8,74)"
             style="font-variant:normal;font-weight:normal;font-size:14px;font-family:Arimo;-inkscape-font-specification:Arimo;writing-mode:lr-tb;fill:#333333;fill-opacity:1;fill-rule:nonzero;stroke:none"
             id="text164"><tspan
               x="0 3.8896484"
               y="0"
               sodipodi:role="line"
               id="tspan162">Id</tspan></text>
<text
             transform="translate(251,74)"
             style="font-variant:normal;font-weight:normal;font-size:14px;font-family:Arimo;-inkscape-font-specification:Arimo;writing-mode:lr-tb;fill:#333333;fill-opacity:1;fill-rule:nonzero;stroke:none"
             id="text168"><tspan
               x="0 10.110352 17.896484 29.558594"
               y="0"
               sodipodi:role="line"
               id="tspan166">Nome</tspan></text>
<text
             transform="translate(412,74)"
             style="font-variant:normal;font-weight:normal;font-size:14px;font-family:Arimo;-inkscape-font-specification:Arimo;writing-mode:lr-tb;fill:#333333;fill-opacity:1;fill-rule:nonzero;stroke:none"
             id="text172"><tspan
               x="0 10.110352 17.896484 21.786133 29.572266 32.682617 40.46875 48.254883"
               y="0"
               sodipodi:role="line"
               id="tspan170">Detalhes</tspan></text>
<text
             transform="translate(500,74)"
             style="font-variant:normal;font-weight:normal;font-size:14px;font-family:Arimo;-inkscape-font-specification:Arimo;writing-mode:lr-tb;fill:#333333;fill-opacity:1;fill-rule:nonzero;stroke:none"
             id="text176"><tspan
               x="0 9.3378906 12.448242 16.337891 24.124023 28.786133 36.572266"
               y="0"
               sodipodi:role="line"
               id="tspan174">Alterar</tspan></text>
<text
             transform="translate(571,74)"
             style="font-variant:normal;font-weight:normal;font-size:14px;font-family:Arimo;-inkscape-font-specification:Arimo;writing-mode:lr-tb;fill:#333333;fill-opacity:1;fill-rule:nonzero;stroke:none"
             id="text180"><tspan
               x="0 9.3378906 16.337891 23.337891 26.448242 34.234375 37.344727"
               y="0"
               sodipodi:role="line"
               id="tspan178">Excluir</tspan></text>
<text
             transform="translate(8,120)"
             style="font-variant:normal;font-weight:normal;font-size:14px;font-family:Arimo;-inkscape-font-specification:Arimo;writing-mode:lr-tb;fill:#333333;fill-opacity:1;fill-rule:nonzero;stroke:none"
             id="text184"><tspan
               x="0"
               y="0"
               id="tspan182">1</tspan></text>
<text
             transform="translate(251,120)"
             style="font-variant:normal;font-weight:normal;font-size:14px;font-family:Arimo;-inkscape-font-specification:Arimo;writing-mode:lr-tb;fill:#333333;fill-opacity:1;fill-rule:nonzero;stroke:none"
             id="text188"><tspan
               x="0 9.3378906 17.124023 24.910156 32.696289"
               y="0"
               sodipodi:role="line"
               id="tspan186">Saúde</tspan></text>
<text
             transform="translate(8,166)"
             style="font-variant:normal;font-weight:normal;font-size:14px;font-family:Arimo;-inkscape-font-specification:Arimo;writing-mode:lr-tb;fill:#333333;fill-opacity:1;fill-rule:nonzero;stroke:none"
             id="text192"><tspan
               x="0"
               y="0"
               id="tspan190">2</tspan></text>
<text
             transform="translate(251,166)"
             style="font-variant:normal;font-weight:normal;font-size:14px;font-family:Arimo;-inkscape-font-specification:Arimo;writing-mode:lr-tb;fill:#333333;fill-opacity:1;fill-rule:nonzero;stroke:none"
             id="text196"><tspan
               x="0 10.110352 13.220703 21.006836 24.117188 31.90332 39.689453 47.475586 51.365234 59.151367 63.041016 70.827148 73.9375 85.599609 93.385742 101.17188 108.17188"
               y="0"
               sodipodi:role="line"
               id="tspan194">Higiene e Limpeza</tspan></text>
<text
             transform="translate(8,212)"
             style="font-variant:normal;font-weight:normal;font-size:14px;font-family:Arimo;-inkscape-font-specification:Arimo;writing-mode:lr-tb;fill:#333333;fill-opacity:1;fill-rule:nonzero;stroke:none"
             id="text200"><tspan
               x="0"
               y="0"
               id="tspan198">3</tspan></text>
<text
             transform="translate(251,212)"
             style="font-variant:normal;font-weight:normal;font-size:14px;font-family:Arimo;-inkscape-font-specification:Arimo;writing-mode:lr-tb;fill:#333333;fill-opacity:1;fill-rule:nonzero;stroke:none"
             id="text204"><tspan
               x="0 9.3378906 12.448242 15.558594 27.220703 35.006836 42.792969 46.682617 54.46875"
               y="0"
               sodipodi:role="line"
               id="tspan202">Alimentos</tspan></text>
</g></g></g><g
       id="g206"><g
         id="g208"
         clip-path="url(#clipPath212)"><g
           id="g214"
           transform="matrix(3.1785891,0,0,3.1764827,253.15231,646.573)"><path
             d="m 4,0 h 628 c 0.5304,0 1.04059,0.10149394 1.53064,0.30448183 0.49005,0.20298788 0.92267,0.4920182 1.29779,0.86709097 0.37506,0.3750726 0.66406,0.807637 0.867,1.2976931 C 635.89844,2.9593222 635.99994,3.4695668 636,4 v 93 c -6e-5,0.530418 -0.10156,1.040657 -0.30457,1.530716 -0.20294,0.490059 -0.49194,0.922623 -0.867,1.297707 -0.37512,0.375067 -0.80774,0.664097 -1.29779,0.867087 C 633.04059,100.8985 632.5304,100.99999 632,101 H 4 c -0.5304332,-1e-5 -1.0406778,-0.1015 -1.5307341,-0.30449 C 1.9792098,100.49252 1.5466454,100.20349 1.1715728,99.828423 0.79650003,99.453339 0.50746971,99.020775 0.30448183,98.530716 0.10149394,98.040657 0,97.530418 0,97 V 4 C 0,3.4695671 0.10149396,2.9593227 0.30448189,2.4692664 0.50746983,1.9792101 0.79650015,1.5466458 1.1715729,1.1715729 1.5466458,0.79650015 1.9792101,0.50746983 2.4692664,0.30448189 2.9593227,0.10149396 3.4695671,0 4,0 Z"
             style="fill:url(#linearGradient222);fill-opacity:1;fill-rule:nonzero;stroke:none"
             id="path224"
             inkscape:connector-curvature="0" /><path
             d="m 4,0 h 628 c 0.5304,0 1.04059,0.10149394 1.53064,0.30448183 0.49005,0.20298788 0.92267,0.4920182 1.29779,0.86709097 0.37506,0.3750726 0.66406,0.807637 0.867,1.2976931 C 635.89844,2.9593222 635.99994,3.4695668 636,4 v 93 c -6e-5,0.530418 -0.10156,1.040657 -0.30457,1.530716 -0.20294,0.490059 -0.49194,0.922623 -0.867,1.297707 -0.37512,0.375067 -0.80774,0.664097 -1.29779,0.867087 C 633.04059,100.8985 632.5304,100.99999 632,101 H 4 c -0.5304332,-1e-5 -1.0406778,-0.1015 -1.5307341,-0.30449 C 1.9792098,100.49252 1.5466454,100.20349 1.1715728,99.828423 0.79650003,99.453339 0.50746971,99.020775 0.30448183,98.530716 0.10149394,98.040657 0,97.530418 0,97 V 4 C 0,3.4695671 0.10149396,2.9593227 0.30448189,2.4692664 0.50746983,1.9792101 0.79650015,1.5466458 1.1715729,1.1715729 1.5466458,0.79650015 1.9792101,0.50746983 2.4692664,0.30448189 2.9593227,0.10149396 3.4695671,0 4,0 Z"
             style="fill:none;stroke:#cccccc;stroke-width:1;stroke-linecap:butt;stroke-linejoin:miter;stroke-miterlimit:10;stroke-dasharray:none;stroke-opacity:1"
             id="path226"
             inkscape:connector-curvature="0" /></g><g
           id="g228"
           transform="matrix(3.1269932,0,0,3.1249208,291.29541,824.45593)"><text
             style="font-variant:normal;font-weight:normal;font-size:14.22999954px;font-family:Arimo;-inkscape-font-specification:Arimo;writing-mode:lr-tb;fill:#545454;fill-opacity:1;fill-rule:nonzero;stroke:none"
             id="text232"><tspan
               x="0 10.268326 18.176117 25.285492 32.394867 37.129822 40.288773 47.398148 55.305939 63.21373 67.164154 75.071945 82.979736 86.930161 94.837952 102.74574 110.65353 118.56133 123.29628 127.2467 135.1545 146.99883 154.90662 162.81441 166.76483 174.67262 178.62305 186.53084 194.43863 198.38905 206.29684 211.0318 218.93959 226.84738 234.75517 238.7056 246.61339 250.56381 254.51424 258.46466"
               y="0"
               sodipodi:role="line"
               id="tspan230">Descrição do departamento de produto....</tspan></text>
</g></g></g><g
       id="g234"><g
         id="g236"
         clip-path="url(#clipPath240)"><g
           id="g242"
           transform="matrix(3.1785891,0,0,3.1764827,253.15231,573.51385)"><text
             transform="translate(0,17)"
             style="font-variant:normal;font-weight:bold;font-size:17px;font-family:'Liberation Sans';-inkscape-font-specification:LiberationSans-Bold;writing-mode:lr-tb;fill:#000000;fill-opacity:1;fill-rule:nonzero;stroke:none"
             id="text246"><tspan
               x="0 12.276855 21.731445 31.186035 40.640625 47.256348 51.979492 61.434082 70.888672"
               y="0"
               sodipodi:role="line"
               id="tspan244">Descrição</tspan></text>
</g></g></g><g
       id="g248"><g
         id="g250"
         clip-path="url(#clipPath254)"><g
           id="g256"
           transform="matrix(3.1785891,0,0,3.1764827,1797.9465,995.98608)"><path
             d="m 4,0 h 63 c 0.530434,0 1.040672,0.10149394 1.530731,0.30448183 0.490059,0.20298788 0.922623,0.4920182 1.297692,0.86709097 0.375068,0.3750726 0.664093,0.807637 0.867088,1.2976931 C 70.898499,2.9593222 70.999992,3.4695668 71,4 v 26 c -8e-6,0.530432 -0.101501,1.040674 -0.304489,1.530729 -0.202995,0.490057 -0.49202,0.922625 -0.867088,1.297697 -0.375069,0.375069 -0.807633,0.664097 -1.297692,0.867085 C 68.040672,33.898502 67.530434,33.999996 67,34 H 4 C 3.4695668,33.999996 2.9593222,33.898502 2.4692659,33.695515 1.9792098,33.492523 1.5466454,33.203495 1.1715728,32.828426 0.79650003,32.453354 0.50746971,32.020786 0.30448183,31.530729 0.10149394,31.040674 0,30.530432 0,30 V 4 C 0,3.4695671 0.10149396,2.9593227 0.30448189,2.4692664 0.50746983,1.9792101 0.79650015,1.5466458 1.1715729,1.1715729 1.5466458,0.79650015 1.9792101,0.50746983 2.4692664,0.30448189 2.9593227,0.10149396 3.4695671,0 4,0 Z"
             style="fill:#ffffff;fill-opacity:1;fill-rule:nonzero;stroke:none"
             id="path258"
             inkscape:connector-curvature="0" /><path
             d="m 4,0 h 63 c 0.530434,0 1.040672,0.10149394 1.530731,0.30448183 0.490059,0.20298788 0.922623,0.4920182 1.297692,0.86709097 0.375068,0.3750726 0.664093,0.807637 0.867088,1.2976931 C 70.898499,2.9593222 70.999992,3.4695668 71,4 v 26 c -8e-6,0.530432 -0.101501,1.040674 -0.304489,1.530729 -0.202995,0.490057 -0.49202,0.922625 -0.867088,1.297697 -0.375069,0.375069 -0.807633,0.664097 -1.297692,0.867085 C 68.040672,33.898502 67.530434,33.999996 67,34 H 4 C 3.4695668,33.999996 2.9593222,33.898502 2.4692659,33.695515 1.9792098,33.492523 1.5466454,33.203495 1.1715728,32.828426 0.79650003,32.453354 0.50746971,32.020786 0.30448183,31.530729 0.10149394,31.040674 0,30.530432 0,30 V 4 C 0,3.4695671 0.10149396,2.9593227 0.30448189,2.4692664 0.50746983,1.9792101 0.79650015,1.5466458 1.1715729,1.1715729 1.5466458,0.79650015 1.9792101,0.50746983 2.4692664,0.30448189 2.9593227,0.10149396 3.4695671,0 4,0 Z"
             style="fill:none;stroke:#f2f2f2;stroke-width:1;stroke-linecap:butt;stroke-linejoin:miter;stroke-miterlimit:10;stroke-dasharray:none;stroke-opacity:1"
             id="path260"
             inkscape:connector-curvature="0" /></g><g
           id="g262"
           transform="matrix(3.1269932,0,0,3.1249208,1836.0897,1065.8687)"><text
             transform="translate(1.9615278)"
             style="font-variant:normal;font-weight:normal;font-size:14.22999954px;font-family:Arimo;-inkscape-font-specification:Arimo;writing-mode:lr-tb;fill:#333333;fill-opacity:1;fill-rule:nonzero;stroke:none"
             id="text266"><tspan
               x="0 7.9077911 11.066742 22.911072 30.818863 38.726654"
               y="0"
               sodipodi:role="line"
               id="tspan264">Limpar</tspan></text>
</g><g
           id="g268"
           transform="matrix(3.1785891,0,0,3.1764827,1502.3378,995.98608)"><path
             d="m 4,0 h 63 c 0.530434,0 1.040672,0.10149394 1.530731,0.30448183 0.490059,0.20298788 0.922623,0.4920182 1.297692,0.86709097 0.375068,0.3750726 0.664093,0.807637 0.867088,1.2976931 C 70.898499,2.9593222 70.999992,3.4695668 71,4 v 26 c -8e-6,0.530432 -0.101501,1.040674 -0.304489,1.530729 -0.202995,0.490057 -0.49202,0.922625 -0.867088,1.297697 -0.375069,0.375069 -0.807633,0.664097 -1.297692,0.867085 C 68.040672,33.898502 67.530434,33.999996 67,34 H 4 C 3.4695668,33.999996 2.9593222,33.898502 2.4692659,33.695515 1.9792098,33.492523 1.5466454,33.203495 1.1715728,32.828426 0.79650003,32.453354 0.50746971,32.020786 0.30448183,31.530729 0.10149394,31.040674 0,30.530432 0,30 V 4 C 0,3.4695671 0.10149396,2.9593227 0.30448189,2.4692664 0.50746983,1.9792101 0.79650015,1.5466458 1.1715729,1.1715729 1.5466458,0.79650015 1.9792101,0.50746983 2.4692664,0.30448189 2.9593227,0.10149396 3.4695671,0 4,0 Z"
             style="fill:#5cb85c;fill-opacity:1;fill-rule:nonzero;stroke:none"
             id="path270"
             inkscape:connector-curvature="0" /><path
             d="m 4,0 h 63 c 0.530434,0 1.040672,0.10149394 1.530731,0.30448183 0.490059,0.20298788 0.922623,0.4920182 1.297692,0.86709097 0.375068,0.3750726 0.664093,0.807637 0.867088,1.2976931 C 70.898499,2.9593222 70.999992,3.4695668 71,4 v 26 c -8e-6,0.530432 -0.101501,1.040674 -0.304489,1.530729 -0.202995,0.490057 -0.49202,0.922625 -0.867088,1.297697 -0.375069,0.375069 -0.807633,0.664097 -1.297692,0.867085 C 68.040672,33.898502 67.530434,33.999996 67,34 H 4 C 3.4695668,33.999996 2.9593222,33.898502 2.4692659,33.695515 1.9792098,33.492523 1.5466454,33.203495 1.1715728,32.828426 0.79650003,32.453354 0.50746971,32.020786 0.30448183,31.530729 0.10149394,31.040674 0,30.530432 0,30 V 4 C 0,3.4695671 0.10149396,2.9593227 0.30448189,2.4692664 0.50746983,1.9792101 0.79650015,1.5466458 1.1715729,1.1715729 1.5466458,0.79650015 1.9792101,0.50746983 2.4692664,0.30448189 2.9593227,0.10149396 3.4695671,0 4,0 Z"
             style="fill:none;stroke:#4cae4c;stroke-width:1;stroke-linecap:butt;stroke-linejoin:miter;stroke-miterlimit:10;stroke-dasharray:none;stroke-opacity:1"
             id="path272"
             inkscape:connector-curvature="0" /></g><g
           id="g274"
           transform="matrix(3.1269932,0,0,3.1249208,1540.4808,1065.8687)"><text
             transform="translate(3.541868)"
             style="font-variant:normal;font-weight:normal;font-size:14.22999954px;font-family:Arimo;-inkscape-font-specification:Arimo;writing-mode:lr-tb;fill:#ffffff;fill-opacity:1;fill-rule:nonzero;stroke:none"
             id="text278"><tspan
               x="0 9.4837952 17.391586 20.550537 27.659912 35.567703"
               y="0"
               sodipodi:role="line"
               id="tspan276">Salvar</tspan></text>
</g><g
           id="g280"
           transform="matrix(3.1785891,0,0,3.1764827,2049.0552,1577.2824)"><path
             d="m 4,0 h 63 c 0.530434,0 1.040672,0.10149394 1.530731,0.30448183 0.490059,0.20298788 0.922623,0.4920182 1.297692,0.86709097 0.375068,0.3750726 0.664093,0.807637 0.867088,1.2976931 C 70.898499,2.9593222 70.999992,3.4695668 71,4 v 13 c -8e-6,0.530432 -0.101501,1.040676 -0.304489,1.530731 -0.202995,0.490055 -0.49202,0.922621 -0.867088,1.297695 -0.375069,0.375071 -0.807633,0.664101 -1.297692,0.867089 C 68.040672,20.898504 67.530434,20.999998 67,21 H 4 C 3.4695668,20.999998 2.9593222,20.898504 2.4692659,20.695515 1.9792098,20.492527 1.5466454,20.203497 1.1715728,19.828426 0.79650003,19.453352 0.50746971,19.020786 0.30448183,18.530731 0.10149394,18.040676 0,17.530432 0,17 V 4 C 0,3.4695671 0.10149396,2.9593227 0.30448189,2.4692664 0.50746983,1.9792101 0.79650015,1.5466458 1.1715729,1.1715729 1.5466458,0.79650015 1.9792101,0.50746983 2.4692664,0.30448189 2.9593227,0.10149396 3.4695671,0 4,0 Z"
             style="fill:#d9534f;fill-opacity:1;fill-rule:nonzero;stroke:none"
             id="path282"
             inkscape:connector-curvature="0" /><path
             d="m 4,0 h 63 c 0.530434,0 1.040672,0.10149394 1.530731,0.30448183 0.490059,0.20298788 0.922623,0.4920182 1.297692,0.86709097 0.375068,0.3750726 0.664093,0.807637 0.867088,1.2976931 C 70.898499,2.9593222 70.999992,3.4695668 71,4 v 13 c -8e-6,0.530432 -0.101501,1.040676 -0.304489,1.530731 -0.202995,0.490055 -0.49202,0.922621 -0.867088,1.297695 -0.375069,0.375071 -0.807633,0.664101 -1.297692,0.867089 C 68.040672,20.898504 67.530434,20.999998 67,21 H 4 C 3.4695668,20.999998 2.9593222,20.898504 2.4692659,20.695515 1.9792098,20.492527 1.5466454,20.203497 1.1715728,19.828426 0.79650003,19.453352 0.50746971,19.020786 0.30448183,18.530731 0.10149394,18.040676 0,17.530432 0,17 V 4 C 0,3.4695671 0.10149396,2.9593227 0.30448189,2.4692664 0.50746983,1.9792101 0.79650015,1.5466458 1.1715729,1.1715729 1.5466458,0.79650015 1.9792101,0.50746983 2.4692664,0.30448189 2.9593227,0.10149396 3.4695671,0 4,0 Z"
             style="fill:none;stroke:#d4403a;stroke-width:1;stroke-linecap:butt;stroke-linejoin:miter;stroke-miterlimit:10;stroke-dasharray:none;stroke-opacity:1"
             id="path284"
             inkscape:connector-curvature="0" /></g><g
           id="g286"
           transform="matrix(3.1269932,0,0,3.1249208,2087.1982,1628.1061)"><text
             transform="translate(3.152739)"
             style="font-variant:normal;font-weight:normal;font-size:14.22999954px;font-family:Arimo;-inkscape-font-specification:Arimo;writing-mode:lr-tb;fill:#ffffff;fill-opacity:1;fill-rule:nonzero;stroke:none"
             id="text290"><tspan
               x="0 7.9077911 15.017166 22.126541 25.285492 33.193283 36.352234"
               y="0"
               sodipodi:role="line"
               id="tspan288">excluir</tspan></text>
</g><g
           id="g292"
           transform="matrix(3.1785891,0,0,3.1764827,2049.0552,1434.3406)"><path
             d="m 4,0 h 63 c 0.530434,0 1.040672,0.10149394 1.530731,0.30448183 0.490059,0.20298788 0.922623,0.4920182 1.297692,0.86709097 0.375068,0.3750726 0.664093,0.807637 0.867088,1.2976931 C 70.898499,2.9593222 70.999992,3.4695668 71,4 v 13 c -8e-6,0.530432 -0.101501,1.040676 -0.304489,1.530731 -0.202995,0.490055 -0.49202,0.922621 -0.867088,1.297695 -0.375069,0.375071 -0.807633,0.664101 -1.297692,0.867089 C 68.040672,20.898504 67.530434,20.999998 67,21 H 4 C 3.4695668,20.999998 2.9593222,20.898504 2.4692659,20.695515 1.9792098,20.492527 1.5466454,20.203497 1.1715728,19.828426 0.79650003,19.453352 0.50746971,19.020786 0.30448183,18.530731 0.10149394,18.040676 0,17.530432 0,17 V 4 C 0,3.4695671 0.10149396,2.9593227 0.30448189,2.4692664 0.50746983,1.9792101 0.79650015,1.5466458 1.1715729,1.1715729 1.5466458,0.79650015 1.9792101,0.50746983 2.4692664,0.30448189 2.9593227,0.10149396 3.4695671,0 4,0 Z"
             style="fill:#d9534f;fill-opacity:1;fill-rule:nonzero;stroke:none"
             id="path294"
             inkscape:connector-curvature="0" /><path
             d="m 4,0 h 63 c 0.530434,0 1.040672,0.10149394 1.530731,0.30448183 0.490059,0.20298788 0.922623,0.4920182 1.297692,0.86709097 0.375068,0.3750726 0.664093,0.807637 0.867088,1.2976931 C 70.898499,2.9593222 70.999992,3.4695668 71,4 v 13 c -8e-6,0.530432 -0.101501,1.040676 -0.304489,1.530731 -0.202995,0.490055 -0.49202,0.922621 -0.867088,1.297695 -0.375069,0.375071 -0.807633,0.664101 -1.297692,0.867089 C 68.040672,20.898504 67.530434,20.999998 67,21 H 4 C 3.4695668,20.999998 2.9593222,20.898504 2.4692659,20.695515 1.9792098,20.492527 1.5466454,20.203497 1.1715728,19.828426 0.79650003,19.453352 0.50746971,19.020786 0.30448183,18.530731 0.10149394,18.040676 0,17.530432 0,17 V 4 C 0,3.4695671 0.10149396,2.9593227 0.30448189,2.4692664 0.50746983,1.9792101 0.79650015,1.5466458 1.1715729,1.1715729 1.5466458,0.79650015 1.9792101,0.50746983 2.4692664,0.30448189 2.9593227,0.10149396 3.4695671,0 4,0 Z"
             style="fill:none;stroke:#d4403a;stroke-width:1;stroke-linecap:butt;stroke-linejoin:miter;stroke-miterlimit:10;stroke-dasharray:none;stroke-opacity:1"
             id="path296"
             inkscape:connector-curvature="0" /></g><g
           id="g298"
           transform="matrix(3.1269932,0,0,3.1249208,2087.1982,1485.1644)"><text
             transform="translate(3.152739)"
             style="font-variant:normal;font-weight:normal;font-size:14.22999954px;font-family:Arimo;-inkscape-font-specification:Arimo;writing-mode:lr-tb;fill:#ffffff;fill-opacity:1;fill-rule:nonzero;stroke:none"
             id="text302"><tspan
               x="0 7.9077911 15.017166 22.126541 25.285492 33.193283 36.352234"
               y="0"
               sodipodi:role="line"
               id="tspan300">excluir</tspan></text>
</g><g
           id="g304"
           transform="matrix(3.1785891,0,0,3.1764827,2049.0552,1720.224)"><path
             d="m 4,0 h 63 c 0.530434,0 1.040672,0.10149394 1.530731,0.30448183 0.490059,0.20298788 0.922623,0.4920182 1.297692,0.86709097 0.375068,0.3750726 0.664093,0.807637 0.867088,1.2976931 C 70.898499,2.9593222 70.999992,3.4695668 71,4 v 13 c -8e-6,0.530432 -0.101501,1.040676 -0.304489,1.530731 -0.202995,0.490055 -0.49202,0.922621 -0.867088,1.297695 -0.375069,0.375071 -0.807633,0.664101 -1.297692,0.867089 C 68.040672,20.898504 67.530434,20.999998 67,21 H 4 C 3.4695668,20.999998 2.9593222,20.898504 2.4692659,20.695515 1.9792098,20.492527 1.5466454,20.203497 1.1715728,19.828426 0.79650003,19.453352 0.50746971,19.020786 0.30448183,18.530731 0.10149394,18.040676 0,17.530432 0,17 V 4 C 0,3.4695671 0.10149396,2.9593227 0.30448189,2.4692664 0.50746983,1.9792101 0.79650015,1.5466458 1.1715729,1.1715729 1.5466458,0.79650015 1.9792101,0.50746983 2.4692664,0.30448189 2.9593227,0.10149396 3.4695671,0 4,0 Z"
             style="fill:#d9534f;fill-opacity:1;fill-rule:nonzero;stroke:none"
             id="path306"
             inkscape:connector-curvature="0" /><path
             d="m 4,0 h 63 c 0.530434,0 1.040672,0.10149394 1.530731,0.30448183 0.490059,0.20298788 0.922623,0.4920182 1.297692,0.86709097 0.375068,0.3750726 0.664093,0.807637 0.867088,1.2976931 C 70.898499,2.9593222 70.999992,3.4695668 71,4 v 13 c -8e-6,0.530432 -0.101501,1.040676 -0.304489,1.530731 -0.202995,0.490055 -0.49202,0.922621 -0.867088,1.297695 -0.375069,0.375071 -0.807633,0.664101 -1.297692,0.867089 C 68.040672,20.898504 67.530434,20.999998 67,21 H 4 C 3.4695668,20.999998 2.9593222,20.898504 2.4692659,20.695515 1.9792098,20.492527 1.5466454,20.203497 1.1715728,19.828426 0.79650003,19.453352 0.50746971,19.020786 0.30448183,18.530731 0.10149394,18.040676 0,17.530432 0,17 V 4 C 0,3.4695671 0.10149396,2.9593227 0.30448189,2.4692664 0.50746983,1.9792101 0.79650015,1.5466458 1.1715729,1.1715729 1.5466458,0.79650015 1.9792101,0.50746983 2.4692664,0.30448189 2.9593227,0.10149396 3.4695671,0 4,0 Z"
             style="fill:none;stroke:#d4403a;stroke-width:1;stroke-linecap:butt;stroke-linejoin:miter;stroke-miterlimit:10;stroke-dasharray:none;stroke-opacity:1"
             id="path308"
             inkscape:connector-curvature="0" /></g><g
           id="g310"
           transform="matrix(3.1269932,0,0,3.1249208,2087.1982,1771.0479)"><text
             transform="translate(3.152739)"
             style="font-variant:normal;font-weight:normal;font-size:14.22999954px;font-family:Arimo;-inkscape-font-specification:Arimo;writing-mode:lr-tb;fill:#ffffff;fill-opacity:1;fill-rule:nonzero;stroke:none"
             id="text314"><tspan
               x="0 7.9077911 15.017166 22.126541 25.285492 33.193283 36.352234"
               y="0"
               sodipodi:role="line"
               id="tspan312">excluir</tspan></text>
</g><g
           id="g316"
           transform="matrix(3.1785891,0,0,3.1764827,1553.1952,1434.3406)"><path
             d="m 4,0 h 62 c 0.530426,0 1.040665,0.10149394 1.530724,0.30448183 0.490058,0.20298788 0.922622,0.4920182 1.297699,0.86709097 0.375068,0.3750726 0.664093,0.807637 0.86708,1.2976931 C 69.898499,2.9593222 69.999992,3.4695668 70,4 v 13 c -8e-6,0.530432 -0.101501,1.040676 -0.304497,1.530731 -0.202987,0.490055 -0.492012,0.922621 -0.86708,1.297695 -0.375077,0.375071 -0.807641,0.664101 -1.297699,0.867089 C 67.040665,20.898504 66.530426,20.999998 66,21 H 4 C 3.4695668,20.999998 2.9593222,20.898504 2.4692659,20.695515 1.9792098,20.492527 1.5466454,20.203497 1.1715728,19.828426 0.79650003,19.453352 0.50746971,19.020786 0.30448183,18.530731 0.10149394,18.040676 0,17.530432 0,17 V 4 C 0,3.4695671 0.10149396,2.9593227 0.30448189,2.4692664 0.50746983,1.9792101 0.79650015,1.5466458 1.1715729,1.1715729 1.5466458,0.79650015 1.9792101,0.50746983 2.4692664,0.30448189 2.9593227,0.10149396 3.4695671,0 4,0 Z"
             style="fill:#5bc0de;fill-opacity:1;fill-rule:nonzero;stroke:none"
             id="path318"
             inkscape:connector-curvature="0" /><path
             d="m 4,0 h 62 c 0.530426,0 1.040665,0.10149394 1.530724,0.30448183 0.490058,0.20298788 0.922622,0.4920182 1.297699,0.86709097 0.375068,0.3750726 0.664093,0.807637 0.86708,1.2976931 C 69.898499,2.9593222 69.999992,3.4695668 70,4 v 13 c -8e-6,0.530432 -0.101501,1.040676 -0.304497,1.530731 -0.202987,0.490055 -0.492012,0.922621 -0.86708,1.297695 -0.375077,0.375071 -0.807641,0.664101 -1.297699,0.867089 C 67.040665,20.898504 66.530426,20.999998 66,21 H 4 C 3.4695668,20.999998 2.9593222,20.898504 2.4692659,20.695515 1.9792098,20.492527 1.5466454,20.203497 1.1715728,19.828426 0.79650003,19.453352 0.50746971,19.020786 0.30448183,18.530731 0.10149394,18.040676 0,17.530432 0,17 V 4 C 0,3.4695671 0.10149396,2.9593227 0.30448189,2.4692664 0.50746983,1.9792101 0.79650015,1.5466458 1.1715729,1.1715729 1.5466458,0.79650015 1.9792101,0.50746983 2.4692664,0.30448189 2.9593227,0.10149396 3.4695671,0 4,0 Z"
             style="fill:none;stroke:#45b6d9;stroke-width:1;stroke-linecap:butt;stroke-linejoin:miter;stroke-miterlimit:10;stroke-dasharray:none;stroke-opacity:1"
             id="path320"
             inkscape:connector-curvature="0" /></g><g
           id="g322"
           transform="matrix(3.1269932,0,0,3.1249208,1591.3383,1485.1644)"><text
             transform="translate(-4.7092552)"
             style="font-variant:normal;font-weight:normal;font-size:14.22999954px;font-family:Arimo;-inkscape-font-specification:Arimo;writing-mode:lr-tb;fill:#ffffff;fill-opacity:1;fill-rule:nonzero;stroke:none"
             id="text326"><tspan
               x="0 10.268326 18.176117 22.126541 30.034332 33.193283 41.101074 49.008865"
               y="0"
               sodipodi:role="line"
               id="tspan324">Detalhes</tspan></text>
</g><g
           id="g328"
           transform="matrix(3.1785891,0,0,3.1764827,1553.1952,1577.2824)"><path
             d="m 4,0 h 62 c 0.530426,0 1.040665,0.10149394 1.530724,0.30448183 0.490058,0.20298788 0.922622,0.4920182 1.297699,0.86709097 0.375068,0.3750726 0.664093,0.807637 0.86708,1.2976931 C 69.898499,2.9593222 69.999992,3.4695668 70,4 v 13 c -8e-6,0.530432 -0.101501,1.040676 -0.304497,1.530731 -0.202987,0.490055 -0.492012,0.922621 -0.86708,1.297695 -0.375077,0.375071 -0.807641,0.664101 -1.297699,0.867089 C 67.040665,20.898504 66.530426,20.999998 66,21 H 4 C 3.4695668,20.999998 2.9593222,20.898504 2.4692659,20.695515 1.9792098,20.492527 1.5466454,20.203497 1.1715728,19.828426 0.79650003,19.453352 0.50746971,19.020786 0.30448183,18.530731 0.10149394,18.040676 0,17.530432 0,17 V 4 C 0,3.4695671 0.10149396,2.9593227 0.30448189,2.4692664 0.50746983,1.9792101 0.79650015,1.5466458 1.1715729,1.1715729 1.5466458,0.79650015 1.9792101,0.50746983 2.4692664,0.30448189 2.9593227,0.10149396 3.4695671,0 4,0 Z"
             style="fill:#5bc0de;fill-opacity:1;fill-rule:nonzero;stroke:none"
             id="path330"
             inkscape:connector-curvature="0" /><path
             d="m 4,0 h 62 c 0.530426,0 1.040665,0.10149394 1.530724,0.30448183 0.490058,0.20298788 0.922622,0.4920182 1.297699,0.86709097 0.375068,0.3750726 0.664093,0.807637 0.86708,1.2976931 C 69.898499,2.9593222 69.999992,3.4695668 70,4 v 13 c -8e-6,0.530432 -0.101501,1.040676 -0.304497,1.530731 -0.202987,0.490055 -0.492012,0.922621 -0.86708,1.297695 -0.375077,0.375071 -0.807641,0.664101 -1.297699,0.867089 C 67.040665,20.898504 66.530426,20.999998 66,21 H 4 C 3.4695668,20.999998 2.9593222,20.898504 2.4692659,20.695515 1.9792098,20.492527 1.5466454,20.203497 1.1715728,19.828426 0.79650003,19.453352 0.50746971,19.020786 0.30448183,18.530731 0.10149394,18.040676 0,17.530432 0,17 V 4 C 0,3.4695671 0.10149396,2.9593227 0.30448189,2.4692664 0.50746983,1.9792101 0.79650015,1.5466458 1.1715729,1.1715729 1.5466458,0.79650015 1.9792101,0.50746983 2.4692664,0.30448189 2.9593227,0.10149396 3.4695671,0 4,0 Z"
             style="fill:none;stroke:#45b6d9;stroke-width:1;stroke-linecap:butt;stroke-linejoin:miter;stroke-miterlimit:10;stroke-dasharray:none;stroke-opacity:1"
             id="path332"
             inkscape:connector-curvature="0" /></g><g
           id="g334"
           transform="matrix(3.1269932,0,0,3.1249208,1591.3383,1628.1061)"><text
             transform="translate(-4.7092552)"
             style="font-variant:normal;font-weight:normal;font-size:14.22999954px;font-family:Arimo;-inkscape-font-specification:Arimo;writing-mode:lr-tb;fill:#ffffff;fill-opacity:1;fill-rule:nonzero;stroke:none"
             id="text338"><tspan
               x="0 10.268326 18.176117 22.126541 30.034332 33.193283 41.101074 49.008865"
               y="0"
               sodipodi:role="line"
               id="tspan336">Detalhes</tspan></text>
</g><g
           id="g340"
           transform="matrix(3.1785891,0,0,3.1764827,1553.1952,1720.224)"><path
             d="m 4,0 h 62 c 0.530426,0 1.040665,0.10149394 1.530724,0.30448183 0.490058,0.20298788 0.922622,0.4920182 1.297699,0.86709097 0.375068,0.3750726 0.664093,0.807637 0.86708,1.2976931 C 69.898499,2.9593222 69.999992,3.4695668 70,4 v 13 c -8e-6,0.530432 -0.101501,1.040676 -0.304497,1.530731 -0.202987,0.490055 -0.492012,0.922621 -0.86708,1.297695 -0.375077,0.375071 -0.807641,0.664101 -1.297699,0.867089 C 67.040665,20.898504 66.530426,20.999998 66,21 H 4 C 3.4695668,20.999998 2.9593222,20.898504 2.4692659,20.695515 1.9792098,20.492527 1.5466454,20.203497 1.1715728,19.828426 0.79650003,19.453352 0.50746971,19.020786 0.30448183,18.530731 0.10149394,18.040676 0,17.530432 0,17 V 4 C 0,3.4695671 0.10149396,2.9593227 0.30448189,2.4692664 0.50746983,1.9792101 0.79650015,1.5466458 1.1715729,1.1715729 1.5466458,0.79650015 1.9792101,0.50746983 2.4692664,0.30448189 2.9593227,0.10149396 3.4695671,0 4,0 Z"
             style="fill:#5bc0de;fill-opacity:1;fill-rule:nonzero;stroke:none"
             id="path342"
             inkscape:connector-curvature="0" /><path
             d="m 4,0 h 62 c 0.530426,0 1.040665,0.10149394 1.530724,0.30448183 0.490058,0.20298788 0.922622,0.4920182 1.297699,0.86709097 0.375068,0.3750726 0.664093,0.807637 0.86708,1.2976931 C 69.898499,2.9593222 69.999992,3.4695668 70,4 v 13 c -8e-6,0.530432 -0.101501,1.040676 -0.304497,1.530731 -0.202987,0.490055 -0.492012,0.922621 -0.86708,1.297695 -0.375077,0.375071 -0.807641,0.664101 -1.297699,0.867089 C 67.040665,20.898504 66.530426,20.999998 66,21 H 4 C 3.4695668,20.999998 2.9593222,20.898504 2.4692659,20.695515 1.9792098,20.492527 1.5466454,20.203497 1.1715728,19.828426 0.79650003,19.453352 0.50746971,19.020786 0.30448183,18.530731 0.10149394,18.040676 0,17.530432 0,17 V 4 C 0,3.4695671 0.10149396,2.9593227 0.30448189,2.4692664 0.50746983,1.9792101 0.79650015,1.5466458 1.1715729,1.1715729 1.5466458,0.79650015 1.9792101,0.50746983 2.4692664,0.30448189 2.9593227,0.10149396 3.4695671,0 4,0 Z"
             style="fill:none;stroke:#45b6d9;stroke-width:1;stroke-linecap:butt;stroke-linejoin:miter;stroke-miterlimit:10;stroke-dasharray:none;stroke-opacity:1"
             id="path344"
             inkscape:connector-curvature="0" /></g><g
           id="g346"
           transform="matrix(3.1269932,0,0,3.1249208,1591.3383,1771.0479)"><text
             transform="translate(-4.7092552)"
             style="font-variant:normal;font-weight:normal;font-size:14.22999954px;font-family:Arimo;-inkscape-font-specification:Arimo;writing-mode:lr-tb;fill:#ffffff;fill-opacity:1;fill-rule:nonzero;stroke:none"
             id="text350"><tspan
               x="0 10.268326 18.176117 22.126541 30.034332 33.193283 41.101074 49.008865"
               y="0"
               sodipodi:role="line"
               id="tspan348">Detalhes</tspan></text>
</g><g
           id="g352"
           transform="matrix(3.1785891,0,0,3.1764827,1797.9465,1434.3406)"><path
             d="m 4,0 h 63 c 0.530434,0 1.040672,0.10149394 1.530731,0.30448183 0.490059,0.20298788 0.922623,0.4920182 1.297692,0.86709097 0.375068,0.3750726 0.664093,0.807637 0.867088,1.2976931 C 70.898499,2.9593222 70.999992,3.4695668 71,4 v 12 c -8e-6,0.530432 -0.101501,1.040676 -0.304489,1.530733 -0.202995,0.490055 -0.49202,0.922619 -0.867088,1.297693 -0.375069,0.375071 -0.807633,0.664101 -1.297692,0.867089 C 68.040672,19.898504 67.530434,19.999998 67,20 H 4 C 3.4695668,19.999998 2.9593222,19.898504 2.4692659,19.695515 1.9792098,19.492527 1.5466454,19.203497 1.1715728,18.828426 0.79650003,18.453352 0.50746971,18.020788 0.30448183,17.530733 0.10149394,17.040676 0,16.530432 0,16 V 4 C 0,3.4695671 0.10149396,2.9593227 0.30448189,2.4692664 0.50746983,1.9792101 0.79650015,1.5466458 1.1715729,1.1715729 1.5466458,0.79650015 1.9792101,0.50746983 2.4692664,0.30448189 2.9593227,0.10149396 3.4695671,0 4,0 Z"
             style="fill:#f0ad4e;fill-opacity:1;fill-rule:nonzero;stroke:none"
             id="path354"
             inkscape:connector-curvature="0" /><path
             d="m 4,0 h 63 c 0.530434,0 1.040672,0.10149394 1.530731,0.30448183 0.490059,0.20298788 0.922623,0.4920182 1.297692,0.86709097 0.375068,0.3750726 0.664093,0.807637 0.867088,1.2976931 C 70.898499,2.9593222 70.999992,3.4695668 71,4 v 12 c -8e-6,0.530432 -0.101501,1.040676 -0.304489,1.530733 -0.202995,0.490055 -0.49202,0.922619 -0.867088,1.297693 -0.375069,0.375071 -0.807633,0.664101 -1.297692,0.867089 C 68.040672,19.898504 67.530434,19.999998 67,20 H 4 C 3.4695668,19.999998 2.9593222,19.898504 2.4692659,19.695515 1.9792098,19.492527 1.5466454,19.203497 1.1715728,18.828426 0.79650003,18.453352 0.50746971,18.020788 0.30448183,17.530733 0.10149394,17.040676 0,16.530432 0,16 V 4 C 0,3.4695671 0.10149396,2.9593227 0.30448189,2.4692664 0.50746983,1.9792101 0.79650015,1.5466458 1.1715729,1.1715729 1.5466458,0.79650015 1.9792101,0.50746983 2.4692664,0.30448189 2.9593227,0.10149396 3.4695671,0 4,0 Z"
             style="fill:none;stroke:#eda135;stroke-width:1;stroke-linecap:butt;stroke-linejoin:miter;stroke-miterlimit:10;stroke-dasharray:none;stroke-opacity:1"
             id="path356"
             inkscape:connector-curvature="0" /></g><g
           id="g358"
           transform="matrix(3.1269932,0,0,3.1249208,1836.0897,1481.9879)"><text
             transform="translate(2.7556686)"
             style="font-variant:normal;font-weight:normal;font-size:14.22999954px;font-family:Arimo;-inkscape-font-specification:Arimo;writing-mode:lr-tb;fill:#ffffff;fill-opacity:1;fill-rule:nonzero;stroke:none"
             id="text362"><tspan
               x="0 9.4837952 12.642746 16.59317 24.500961 29.235916 37.143707"
               y="0"
               sodipodi:role="line"
               id="tspan360">Alterar</tspan></text>
</g><g
           id="g364"
           transform="matrix(3.1785891,0,0,3.1764827,1797.9465,1577.2824)"><path
             d="m 4,0 h 63 c 0.530434,0 1.040672,0.10149394 1.530731,0.30448183 0.490059,0.20298788 0.922623,0.4920182 1.297692,0.86709097 0.375068,0.3750726 0.664093,0.807637 0.867088,1.2976931 C 70.898499,2.9593222 70.999992,3.4695668 71,4 v 12 c -8e-6,0.530432 -0.101501,1.040676 -0.304489,1.530733 -0.202995,0.490055 -0.49202,0.922619 -0.867088,1.297693 -0.375069,0.375071 -0.807633,0.664101 -1.297692,0.867089 C 68.040672,19.898504 67.530434,19.999998 67,20 H 4 C 3.4695668,19.999998 2.9593222,19.898504 2.4692659,19.695515 1.9792098,19.492527 1.5466454,19.203497 1.1715728,18.828426 0.79650003,18.453352 0.50746971,18.020788 0.30448183,17.530733 0.10149394,17.040676 0,16.530432 0,16 V 4 C 0,3.4695671 0.10149396,2.9593227 0.30448189,2.4692664 0.50746983,1.9792101 0.79650015,1.5466458 1.1715729,1.1715729 1.5466458,0.79650015 1.9792101,0.50746983 2.4692664,0.30448189 2.9593227,0.10149396 3.4695671,0 4,0 Z"
             style="fill:#f0ad4e;fill-opacity:1;fill-rule:nonzero;stroke:none"
             id="path366"
             inkscape:connector-curvature="0" /><path
             d="m 4,0 h 63 c 0.530434,0 1.040672,0.10149394 1.530731,0.30448183 0.490059,0.20298788 0.922623,0.4920182 1.297692,0.86709097 0.375068,0.3750726 0.664093,0.807637 0.867088,1.2976931 C 70.898499,2.9593222 70.999992,3.4695668 71,4 v 12 c -8e-6,0.530432 -0.101501,1.040676 -0.304489,1.530733 -0.202995,0.490055 -0.49202,0.922619 -0.867088,1.297693 -0.375069,0.375071 -0.807633,0.664101 -1.297692,0.867089 C 68.040672,19.898504 67.530434,19.999998 67,20 H 4 C 3.4695668,19.999998 2.9593222,19.898504 2.4692659,19.695515 1.9792098,19.492527 1.5466454,19.203497 1.1715728,18.828426 0.79650003,18.453352 0.50746971,18.020788 0.30448183,17.530733 0.10149394,17.040676 0,16.530432 0,16 V 4 C 0,3.4695671 0.10149396,2.9593227 0.30448189,2.4692664 0.50746983,1.9792101 0.79650015,1.5466458 1.1715729,1.1715729 1.5466458,0.79650015 1.9792101,0.50746983 2.4692664,0.30448189 2.9593227,0.10149396 3.4695671,0 4,0 Z"
             style="fill:none;stroke:#eda135;stroke-width:1;stroke-linecap:butt;stroke-linejoin:miter;stroke-miterlimit:10;stroke-dasharray:none;stroke-opacity:1"
             id="path368"
             inkscape:connector-curvature="0" /></g><g
           id="g370"
           transform="matrix(3.1269932,0,0,3.1249208,1836.0897,1624.9296)"><text
             transform="translate(2.7556686)"
             style="font-variant:normal;font-weight:normal;font-size:14.22999954px;font-family:Arimo;-inkscape-font-specification:Arimo;writing-mode:lr-tb;fill:#ffffff;fill-opacity:1;fill-rule:nonzero;stroke:none"
             id="text374"><tspan
               x="0 9.4837952 12.642746 16.59317 24.500961 29.235916 37.143707"
               y="0"
               sodipodi:role="line"
               id="tspan372">Alterar</tspan></text>
</g><g
           id="g376"
           transform="matrix(3.1785891,0,0,3.1764827,1797.9465,1720.224)"><path
             d="m 4,0 h 63 c 0.530434,0 1.040672,0.10149394 1.530731,0.30448183 0.490059,0.20298788 0.922623,0.4920182 1.297692,0.86709097 0.375068,0.3750726 0.664093,0.807637 0.867088,1.2976931 C 70.898499,2.9593222 70.999992,3.4695668 71,4 v 12 c -8e-6,0.530432 -0.101501,1.040676 -0.304489,1.530733 -0.202995,0.490055 -0.49202,0.922619 -0.867088,1.297693 -0.375069,0.375071 -0.807633,0.664101 -1.297692,0.867089 C 68.040672,19.898504 67.530434,19.999998 67,20 H 4 C 3.4695668,19.999998 2.9593222,19.898504 2.4692659,19.695515 1.9792098,19.492527 1.5466454,19.203497 1.1715728,18.828426 0.79650003,18.453352 0.50746971,18.020788 0.30448183,17.530733 0.10149394,17.040676 0,16.530432 0,16 V 4 C 0,3.4695671 0.10149396,2.9593227 0.30448189,2.4692664 0.50746983,1.9792101 0.79650015,1.5466458 1.1715729,1.1715729 1.5466458,0.79650015 1.9792101,0.50746983 2.4692664,0.30448189 2.9593227,0.10149396 3.4695671,0 4,0 Z"
             style="fill:#f0ad4e;fill-opacity:1;fill-rule:nonzero;stroke:none"
             id="path378"
             inkscape:connector-curvature="0" /><path
             d="m 4,0 h 63 c 0.530434,0 1.040672,0.10149394 1.530731,0.30448183 0.490059,0.20298788 0.922623,0.4920182 1.297692,0.86709097 0.375068,0.3750726 0.664093,0.807637 0.867088,1.2976931 C 70.898499,2.9593222 70.999992,3.4695668 71,4 v 12 c -8e-6,0.530432 -0.101501,1.040676 -0.304489,1.530733 -0.202995,0.490055 -0.49202,0.922619 -0.867088,1.297693 -0.375069,0.375071 -0.807633,0.664101 -1.297692,0.867089 C 68.040672,19.898504 67.530434,19.999998 67,20 H 4 C 3.4695668,19.999998 2.9593222,19.898504 2.4692659,19.695515 1.9792098,19.492527 1.5466454,19.203497 1.1715728,18.828426 0.79650003,18.453352 0.50746971,18.020788 0.30448183,17.530733 0.10149394,17.040676 0,16.530432 0,16 V 4 C 0,3.4695671 0.10149396,2.9593227 0.30448189,2.4692664 0.50746983,1.9792101 0.79650015,1.5466458 1.1715729,1.1715729 1.5466458,0.79650015 1.9792101,0.50746983 2.4692664,0.30448189 2.9593227,0.10149396 3.4695671,0 4,0 Z"
             style="fill:none;stroke:#eda135;stroke-width:1;stroke-linecap:butt;stroke-linejoin:miter;stroke-miterlimit:10;stroke-dasharray:none;stroke-opacity:1"
             id="path380"
             inkscape:connector-curvature="0" /></g><g
           id="g382"
           transform="matrix(3.1269932,0,0,3.1249208,1836.0897,1767.8713)"><text
             transform="translate(2.7556686)"
             style="font-variant:normal;font-weight:normal;font-size:14.22999954px;font-family:Arimo;-inkscape-font-specification:Arimo;writing-mode:lr-tb;fill:#ffffff;fill-opacity:1;fill-rule:nonzero;stroke:none"
             id="text386"><tspan
               x="0 9.4837952 12.642746 16.59317 24.500961 29.235916 37.143707"
               y="0"
               sodipodi:role="line"
               id="tspan384">Alterar</tspan></text>
</g><g
           id="g388"
           transform="matrix(3.1785891,0,0,3.1764827,2049.0552,995.98608)"><path
             d="m 4,0 h 63 c 0.530434,0 1.040672,0.10149394 1.530731,0.30448183 0.490059,0.20298788 0.922623,0.4920182 1.297692,0.86709097 0.375068,0.3750726 0.664093,0.807637 0.867088,1.2976931 C 70.898499,2.9593222 70.999992,3.4695668 71,4 v 26 c -8e-6,0.530432 -0.101501,1.040674 -0.304489,1.530729 -0.202995,0.490057 -0.49202,0.922625 -0.867088,1.297697 -0.375069,0.375069 -0.807633,0.664097 -1.297692,0.867085 C 68.040672,33.898502 67.530434,33.999996 67,34 H 4 C 3.4695668,33.999996 2.9593222,33.898502 2.4692659,33.695515 1.9792098,33.492523 1.5466454,33.203495 1.1715728,32.828426 0.79650003,32.453354 0.50746971,32.020786 0.30448183,31.530729 0.10149394,31.040674 0,30.530432 0,30 V 4 C 0,3.4695671 0.10149396,2.9593227 0.30448189,2.4692664 0.50746983,1.9792101 0.79650015,1.5466458 1.1715729,1.1715729 1.5466458,0.79650015 1.9792101,0.50746983 2.4692664,0.30448189 2.9593227,0.10149396 3.4695671,0 4,0 Z"
             style="fill:#ffffff;fill-opacity:1;fill-rule:nonzero;stroke:none"
             id="path390"
             inkscape:connector-curvature="0" /><path
             d="m 4,0 h 63 c 0.530434,0 1.040672,0.10149394 1.530731,0.30448183 0.490059,0.20298788 0.922623,0.4920182 1.297692,0.86709097 0.375068,0.3750726 0.664093,0.807637 0.867088,1.2976931 C 70.898499,2.9593222 70.999992,3.4695668 71,4 v 26 c -8e-6,0.530432 -0.101501,1.040674 -0.304489,1.530729 -0.202995,0.490057 -0.49202,0.922625 -0.867088,1.297697 -0.375069,0.375069 -0.807633,0.664097 -1.297692,0.867085 C 68.040672,33.898502 67.530434,33.999996 67,34 H 4 C 3.4695668,33.999996 2.9593222,33.898502 2.4692659,33.695515 1.9792098,33.492523 1.5466454,33.203495 1.1715728,32.828426 0.79650003,32.453354 0.50746971,32.020786 0.30448183,31.530729 0.10149394,31.040674 0,30.530432 0,30 V 4 C 0,3.4695671 0.10149396,2.9593227 0.30448189,2.4692664 0.50746983,1.9792101 0.79650015,1.5466458 1.1715729,1.1715729 1.5466458,0.79650015 1.9792101,0.50746983 2.4692664,0.30448189 2.9593227,0.10149396 3.4695671,0 4,0 Z"
             style="fill:none;stroke:#f2f2f2;stroke-width:1;stroke-linecap:butt;stroke-linejoin:miter;stroke-miterlimit:10;stroke-dasharray:none;stroke-opacity:1"
             id="path392"
             inkscape:connector-curvature="0" /></g><g
           id="g394"
           transform="matrix(3.1269932,0,0,3.1249208,2087.1982,1065.8687)"><text
             transform="translate(-4.7648449)"
             style="font-variant:normal;font-weight:normal;font-size:14.22999954px;font-family:Arimo;-inkscape-font-specification:Arimo;writing-mode:lr-tb;fill:#333333;fill-opacity:1;fill-rule:nonzero;stroke:none"
             id="text398"><tspan
               x="0 10.268326 18.176117 26.083908 33.193283 41.101074 44.260025 52.167816"
               y="0"
               sodipodi:role="line"
               id="tspan396">Cancelar</tspan></text>
</g><g
           id="g400"
           transform="matrix(3.1785891,0,0,3.1764827,1718.4818,1863.1659)"><path
             d="m 16,0 h 48 c 1.050575,0 2.091049,0.10247849 3.121437,0.30743548 1.030388,0.20495698 2.030884,0.50845424 3.001495,0.91049182 0.970604,0.4020377 1.89267,0.8948905 2.766182,1.4785587 0.873528,0.5836682 1.681725,1.2469363 2.424591,1.9898052 0.742867,0.7428684 1.406128,1.5510631 1.9898,2.4245839 0.583664,0.8735214 1.076515,1.7955838 1.478554,2.7661887 0.402038,0.9706052 0.705536,1.9711012 0.910499,3.0014902 C 79.897514,13.908942 79.999992,14.949424 80,16 c -8e-6,1.050575 -0.102486,2.091057 -0.307442,3.121445 -0.204963,1.030388 -0.508461,2.030883 -0.910499,3.001489 -0.402039,0.970604 -0.89489,1.892666 -1.478554,2.766188 -0.583672,0.873522 -1.246933,1.681717 -1.9898,2.424585 -0.742866,0.742869 -1.551063,1.406136 -2.424583,1.989804 -0.87352,0.583667 -1.795586,1.076521 -2.76619,1.478557 -0.970611,0.402037 -1.971107,0.705536 -3.001495,0.910494 C 66.091049,31.897518 65.050575,31.999998 64,32 H 16 c -1.050576,-2e-6 -2.091058,-0.102482 -3.121447,-0.30744 C 11.848165,31.487602 10.847669,31.184105 9.8770638,30.782068 8.9064589,30.380032 7.9843965,29.887178 7.1108751,29.303511 6.2373543,28.719843 5.4291596,28.056576 4.6862912,27.313707 3.9434223,26.570839 3.280154,25.762644 2.6964858,24.889122 2.1128178,24.0156 1.619965,23.093538 1.2179273,22.122934 0.81588972,21.152328 0.51239246,20.151833 0.30743548,19.121445 0.10247849,18.091057 0,17.050575 0,16 0,14.949424 0.10247849,13.908942 0.30743548,12.878553 0.51239246,11.848165 0.81588972,10.847669 1.2179273,9.8770638 1.619965,8.9064589 2.1128178,7.9843965 2.696486,7.1108751 3.2801542,6.2373543 3.9434223,5.4291596 4.6862912,4.6862912 5.4291596,3.9434223 6.2373543,3.280154 7.1108751,2.6964858 7.9843965,2.1128178 8.9064589,1.619965 9.8770638,1.2179273 10.847669,0.81588972 11.848165,0.51239246 12.878554,0.30743548 13.908942,0.10247849 14.949424,0 16,0 Z"
             style="fill:#ffffff;fill-opacity:1;fill-rule:nonzero;stroke:none"
             id="path402"
             inkscape:connector-curvature="0" /><path
             d="m 16,0 h 48 c 1.050575,0 2.091049,0.10247849 3.121437,0.30743548 1.030388,0.20495698 2.030884,0.50845424 3.001495,0.91049182 0.970604,0.4020377 1.89267,0.8948905 2.766182,1.4785587 0.873528,0.5836682 1.681725,1.2469363 2.424591,1.9898052 0.742867,0.7428684 1.406128,1.5510631 1.9898,2.4245839 0.583664,0.8735214 1.076515,1.7955838 1.478554,2.7661887 0.402038,0.9706052 0.705536,1.9711012 0.910499,3.0014902 C 79.897514,13.908942 79.999992,14.949424 80,16 c -8e-6,1.050575 -0.102486,2.091057 -0.307442,3.121445 -0.204963,1.030388 -0.508461,2.030883 -0.910499,3.001489 -0.402039,0.970604 -0.89489,1.892666 -1.478554,2.766188 -0.583672,0.873522 -1.246933,1.681717 -1.9898,2.424585 -0.742866,0.742869 -1.551063,1.406136 -2.424583,1.989804 -0.87352,0.583667 -1.795586,1.076521 -2.76619,1.478557 -0.970611,0.402037 -1.971107,0.705536 -3.001495,0.910494 C 66.091049,31.897518 65.050575,31.999998 64,32 H 16 c -1.050576,-2e-6 -2.091058,-0.102482 -3.121447,-0.30744 C 11.848165,31.487602 10.847669,31.184105 9.8770638,30.782068 8.9064589,30.380032 7.9843965,29.887178 7.1108751,29.303511 6.2373543,28.719843 5.4291596,28.056576 4.6862912,27.313707 3.9434223,26.570839 3.280154,25.762644 2.6964858,24.889122 2.1128178,24.0156 1.619965,23.093538 1.2179273,22.122934 0.81588972,21.152328 0.51239246,20.151833 0.30743548,19.121445 0.10247849,18.091057 0,17.050575 0,16 0,14.949424 0.10247849,13.908942 0.30743548,12.878553 0.51239246,11.848165 0.81588972,10.847669 1.2179273,9.8770638 1.619965,8.9064589 2.1128178,7.9843965 2.696486,7.1108751 3.2801542,6.2373543 3.9434223,5.4291596 4.6862912,4.6862912 5.4291596,3.9434223 6.2373543,3.280154 7.1108751,2.6964858 7.9843965,2.1128178 8.9064589,1.619965 9.8770638,1.2179273 10.847669,0.81588972 11.848165,0.51239246 12.878554,0.30743548 13.908942,0.10247849 14.949424,0 16,0 Z"
             style="fill:none;stroke:#dddddd;stroke-width:1;stroke-linecap:butt;stroke-linejoin:miter;stroke-miterlimit:10;stroke-dasharray:none;stroke-opacity:1"
             id="path404"
             inkscape:connector-curvature="0" /></g><g
           id="g406"
           transform="matrix(3.1269932,0,0,3.1249208,1762.9821,1929.8719)"><text
             transform="translate(6.9884391)"
             style="font-variant:normal;font-weight:normal;font-size:14.22999954px;font-family:Arimo;-inkscape-font-specification:Arimo;writing-mode:lr-tb;fill:#337ab7;fill-opacity:1;fill-rule:nonzero;stroke:none"
             id="text410"><tspan
               x="0 14.21875 18.169174 27.652969 35.56076"
               y="0"
               sodipodi:role="line"
               id="tspan408">← Ant</tspan></text>
</g><g
           id="g412"
           transform="matrix(3.1785891,0,0,3.1764827,2020.4478,1863.1659)"><path
             d="m 16,0 h 48 c 1.050575,0 2.091049,0.10247849 3.121437,0.30743548 1.030388,0.20495698 2.030884,0.50845424 3.001495,0.91049182 0.970604,0.4020377 1.89267,0.8948905 2.766182,1.4785587 0.873528,0.5836682 1.681725,1.2469363 2.424591,1.9898052 0.742867,0.7428684 1.406128,1.5510631 1.9898,2.4245839 0.583664,0.8735214 1.076515,1.7955838 1.478554,2.7661887 0.402038,0.9706052 0.705536,1.9711012 0.910499,3.0014902 C 79.897514,13.908942 79.999992,14.949424 80,16 c -8e-6,1.050575 -0.102486,2.091057 -0.307442,3.121445 -0.204963,1.030388 -0.508461,2.030883 -0.910499,3.001489 -0.402039,0.970604 -0.89489,1.892666 -1.478554,2.766188 -0.583672,0.873522 -1.246933,1.681717 -1.9898,2.424585 -0.742866,0.742869 -1.551063,1.406136 -2.424583,1.989804 -0.87352,0.583667 -1.795586,1.076521 -2.76619,1.478557 -0.970611,0.402037 -1.971107,0.705536 -3.001495,0.910494 C 66.091049,31.897518 65.050575,31.999998 64,32 H 16 c -1.050576,-2e-6 -2.091058,-0.102482 -3.121447,-0.30744 C 11.848165,31.487602 10.847669,31.184105 9.8770638,30.782068 8.9064589,30.380032 7.9843965,29.887178 7.1108751,29.303511 6.2373543,28.719843 5.4291596,28.056576 4.6862912,27.313707 3.9434223,26.570839 3.280154,25.762644 2.6964858,24.889122 2.1128178,24.0156 1.619965,23.093538 1.2179273,22.122934 0.81588972,21.152328 0.51239246,20.151833 0.30743548,19.121445 0.10247849,18.091057 0,17.050575 0,16 0,14.949424 0.10247849,13.908942 0.30743548,12.878553 0.51239246,11.848165 0.81588972,10.847669 1.2179273,9.8770638 1.619965,8.9064589 2.1128178,7.9843965 2.696486,7.1108751 3.2801542,6.2373543 3.9434223,5.4291596 4.6862912,4.6862912 5.4291596,3.9434223 6.2373543,3.280154 7.1108751,2.6964858 7.9843965,2.1128178 8.9064589,1.619965 9.8770638,1.2179273 10.847669,0.81588972 11.848165,0.51239246 12.878554,0.30743548 13.908942,0.10247849 14.949424,0 16,0 Z"
             style="fill:#ffffff;fill-opacity:1;fill-rule:nonzero;stroke:none"
             id="path414"
             inkscape:connector-curvature="0" /><path
             d="m 16,0 h 48 c 1.050575,0 2.091049,0.10247849 3.121437,0.30743548 1.030388,0.20495698 2.030884,0.50845424 3.001495,0.91049182 0.970604,0.4020377 1.89267,0.8948905 2.766182,1.4785587 0.873528,0.5836682 1.681725,1.2469363 2.424591,1.9898052 0.742867,0.7428684 1.406128,1.5510631 1.9898,2.4245839 0.583664,0.8735214 1.076515,1.7955838 1.478554,2.7661887 0.402038,0.9706052 0.705536,1.9711012 0.910499,3.0014902 C 79.897514,13.908942 79.999992,14.949424 80,16 c -8e-6,1.050575 -0.102486,2.091057 -0.307442,3.121445 -0.204963,1.030388 -0.508461,2.030883 -0.910499,3.001489 -0.402039,0.970604 -0.89489,1.892666 -1.478554,2.766188 -0.583672,0.873522 -1.246933,1.681717 -1.9898,2.424585 -0.742866,0.742869 -1.551063,1.406136 -2.424583,1.989804 -0.87352,0.583667 -1.795586,1.076521 -2.76619,1.478557 -0.970611,0.402037 -1.971107,0.705536 -3.001495,0.910494 C 66.091049,31.897518 65.050575,31.999998 64,32 H 16 c -1.050576,-2e-6 -2.091058,-0.102482 -3.121447,-0.30744 C 11.848165,31.487602 10.847669,31.184105 9.8770638,30.782068 8.9064589,30.380032 7.9843965,29.887178 7.1108751,29.303511 6.2373543,28.719843 5.4291596,28.056576 4.6862912,27.313707 3.9434223,26.570839 3.280154,25.762644 2.6964858,24.889122 2.1128178,24.0156 1.619965,23.093538 1.2179273,22.122934 0.81588972,21.152328 0.51239246,20.151833 0.30743548,19.121445 0.10247849,18.091057 0,17.050575 0,16 0,14.949424 0.10247849,13.908942 0.30743548,12.878553 0.51239246,11.848165 0.81588972,10.847669 1.2179273,9.8770638 1.619965,8.9064589 2.1128178,7.9843965 2.696486,7.1108751 3.2801542,6.2373543 3.9434223,5.4291596 4.6862912,4.6862912 5.4291596,3.9434223 6.2373543,3.280154 7.1108751,2.6964858 7.9843965,2.1128178 8.9064589,1.619965 9.8770638,1.2179273 10.847669,0.81588972 11.848165,0.51239246 12.878554,0.30743548 13.908942,0.10247849 14.949424,0 16,0 Z"
             style="fill:none;stroke:#dddddd;stroke-width:1;stroke-linecap:butt;stroke-linejoin:miter;stroke-miterlimit:10;stroke-dasharray:none;stroke-opacity:1"
             id="path416"
             inkscape:connector-curvature="0" /></g><g
           id="g418"
           transform="matrix(3.1269932,0,0,3.1249208,2064.9482,1929.8719)"><text
             transform="translate(2.7000787)"
             style="font-variant:normal;font-weight:normal;font-size:14.22999954px;font-family:Arimo;-inkscape-font-specification:Arimo;writing-mode:lr-tb;fill:#337ab7;fill-opacity:1;fill-rule:nonzero;stroke:none"
             id="text422"><tspan
               x="0 9.4837952 14.21875 22.126541 29.235916 33.18634"
               y="0"
               sodipodi:role="line"
               id="tspan420">Próx →</tspan></text>
</g></g></g></g></svg>