<?xml version="1.0" encoding="UTF-8" standalone="no"?>
<!-- Created with Inkscape (http://www.inkscape.org/) -->

<svg
   xmlns:dc="http://purl.org/dc/elements/1.1/"
   xmlns:cc="http://creativecommons.org/ns#"
   xmlns:rdf="http://www.w3.org/1999/02/22-rdf-syntax-ns#"
   xmlns:svg="http://www.w3.org/2000/svg"
   xmlns="http://www.w3.org/2000/svg"
   xmlns:sodipodi="http://sodipodi.sourceforge.net/DTD/sodipodi-0.dtd"
   xmlns:inkscape="http://www.inkscape.org/namespaces/inkscape"
   version="1.1"
   id="svg2"
   xml:space="preserve"
   width="794.56"
   height="1121.2799"
   viewBox="0 0 794.56 1121.2799"
   sodipodi:docname="mockups-19.svg"
   inkscape:version="0.92.5 (2060ec1f9f, 2020-04-08)"><metadata
     id="metadata8"><rdf:RDF><cc:Work
         rdf:about=""><dc:format>image/svg+xml</dc:format><dc:type
           rdf:resource="http://purl.org/dc/dcmitype/StillImage" /><dc:title /></cc:Work></rdf:RDF></metadata><defs
     id="defs6"><clipPath
       clipPathUnits="userSpaceOnUse"
       id="clipPath18"><path
         d="M 129.16666,79.166664 H 2351.0417 V 3304.1667 H 129.16666 Z"
         id="path16"
         inkscape:connector-curvature="0"
         style="clip-rule:evenodd" /></clipPath><clipPath
       clipPathUnits="userSpaceOnUse"
       id="clipPath34"><path
         d="M 129.16666,79.166664 H 2354.1665 V 3504.1665 H 129.16666 Z"
         id="path32"
         inkscape:connector-curvature="0"
         style="clip-rule:evenodd" /></clipPath><clipPath
       clipPathUnits="userSpaceOnUse"
       id="clipPath48"><path
         d="M 129.16666,151.04166 H 2347.9167 V 2291.6667 H 129.16666 Z"
         id="path46"
         inkscape:connector-curvature="0"
         style="clip-rule:evenodd" /></clipPath><clipPath
       clipPathUnits="userSpaceOnUse"
       id="clipPath72"><path
         d="m 278.84085,396.56137 h 180.35678 v 92.06988 H 278.84085 Z"
         id="path70"
         inkscape:connector-curvature="0"
         style="clip-rule:evenodd" /></clipPath><clipPath
       clipPathUnits="userSpaceOnUse"
       id="clipPath86"><path
         d="M 129.16666,151.04166 H 2347.9167 V 2291.6667 H 129.16666 Z"
         id="path84"
         inkscape:connector-curvature="0"
         style="clip-rule:evenodd" /></clipPath><linearGradient
       x1="0"
       y1="0"
       x2="0"
       y2="1"
       gradientUnits="userSpaceOnUse"
       gradientTransform="matrix(121.19999,0,0,-8.1599997,-55.224949,62.512715)"
       spreadMethod="pad"
       id="linearGradient96"><stop
         style="stop-opacity:1;stop-color:#f2f2f2"
         offset="0"
         id="stop90" /><stop
         style="stop-opacity:1;stop-color:#ffffff"
         offset="0.10000001"
         id="stop92" /><stop
         style="stop-opacity:1;stop-color:#ffffff"
         offset="1"
         id="stop94" /></linearGradient><clipPath
       clipPathUnits="userSpaceOnUse"
       id="clipPath114"><path
         d="M 278.84085,1298.079 H 2224.3919 v 694.3604 H 278.84085 Z"
         id="path112"
         inkscape:connector-curvature="0"
         style="clip-rule:evenodd" /></clipPath><clipPath
       clipPathUnits="userSpaceOnUse"
       id="clipPath226"><path
         d="M 129.16666,151.04166 H 2347.9167 V 2291.6667 H 129.16666 Z"
         id="path224"
         inkscape:connector-curvature="0"
         style="clip-rule:evenodd" /></clipPath><linearGradient
       x1="0"
       y1="0"
       x2="0"
       y2="1"
       gradientUnits="userSpaceOnUse"
       gradientTransform="matrix(121.19999,0,0,-24.239998,-55.224949,-23.047284)"
       spreadMethod="pad"
       id="linearGradient236"><stop
         style="stop-opacity:1;stop-color:#f2f2f2"
         offset="0"
         id="stop230" /><stop
         style="stop-opacity:1;stop-color:#ffffff"
         offset="0.03366337"
         id="stop232" /><stop
         style="stop-opacity:1;stop-color:#ffffff"
         offset="1"
         id="stop234" /></linearGradient><clipPath
       clipPathUnits="userSpaceOnUse"
       id="clipPath254"><path
         d="m 278.84085,661.26227 h 310.82767 v 92.06988 H 278.84085 Z"
         id="path252"
         inkscape:connector-curvature="0"
         style="clip-rule:evenodd" /></clipPath><clipPath
       clipPathUnits="userSpaceOnUse"
       id="clipPath268"><path
         d="M 129.16666,151.04166 H 2347.9167 V 2291.6667 H 129.16666 Z"
         id="path266"
         inkscape:connector-curvature="0"
         style="clip-rule:evenodd" /></clipPath></defs><sodipodi:namedview
     pagecolor="#ffffff"
     bordercolor="#666666"
     borderopacity="1"
     objecttolerance="10"
     gridtolerance="10"
     guidetolerance="10"
     inkscape:pageopacity="0"
     inkscape:pageshadow="2"
     inkscape:window-width="1366"
     inkscape:window-height="707"
     id="namedview4"
     showgrid="false"
     inkscape:zoom="0.84189505"
     inkscape:cx="260.20447"
     inkscape:cy="198.23604"
     inkscape:window-x="0"
     inkscape:window-y="30"
     inkscape:window-maximized="1"
     inkscape:current-layer="g10" /><g
     id="g10"
     inkscape:groupmode="layer"
     inkscape:label="mockups-19"
     transform="matrix(0.31999998,0,0,0.31999998,0,-1.8634668e-5)"><g
       id="g42"><g
         id="g44"
         clip-path="url(#clipPath48)"><g
           id="g50"
           transform="matrix(3.8373787,0,0,3.8362455,129.18307,151.04166)"><path
             d="m 4,0 h 571 c 0.5304,0 1.04059,0.10149394 1.53064,0.30448183 0.49005,0.20298788 0.92267,0.4920182 1.29773,0.86709097 0.37506,0.3750726 0.66406,0.807637 0.867,1.2976931 C 578.89844,2.9593222 578.99994,3.4695668 579,4 V 39 H 0 V 4 C 0,3.4695671 0.10149396,2.9593227 0.30448189,2.4692664 0.50746983,1.9792101 0.79650015,1.5466458 1.1715729,1.1715729 1.5466458,0.79650015 1.9792101,0.50746983 2.4692664,0.30448189 2.9593227,0.10149396 3.4695671,0 4,0 Z"
             style="fill:#337ab7;fill-opacity:1;fill-rule:nonzero;stroke:none"
             id="path52"
             inkscape:connector-curvature="0" /><path
             d="m 4,0 h 571 c 0.5304,0 1.04059,0.10149394 1.53064,0.30448183 0.49005,0.20298788 0.92267,0.4920182 1.29773,0.86709097 0.37506,0.3750726 0.66406,0.807637 0.867,1.2976931 C 578.89844,2.9593222 578.99994,3.4695668 579,4 V 39 H 0 V 4 C 0,3.4695671 0.10149396,2.9593227 0.30448189,2.4692664 0.50746983,1.9792101 0.79650015,1.5466458 1.1715729,1.1715729 1.5466458,0.79650015 1.9792101,0.50746983 2.4692664,0.30448189 2.9593227,0.10149396 3.4695671,0 4,0 Z"
             style="fill:none;stroke:#337ab7;stroke-width:1;stroke-linecap:butt;stroke-linejoin:miter;stroke-miterlimit:10;stroke-dasharray:none;stroke-opacity:1"
             id="path54"
             inkscape:connector-curvature="0" /><path
             d="m 0,39 h 579 v 515 c -6e-5,0.5304 -0.10156,1.04059 -0.30463,1.53064 -0.20294,0.49005 -0.49194,0.92267 -0.867,1.29773 -0.37506,0.375 -0.80768,0.664 -1.29773,0.86706 C 576.04059,557.89838 575.5304,557.99994 575,558 H 4 c -0.5304332,-6e-5 -1.0406778,-0.10162 -1.5307341,-0.30457 C 1.9792098,557.49237 1.5466454,557.20337 1.1715728,556.82837 0.79650003,556.45331 0.50746971,556.02069 0.30448183,555.53064 0.10149394,555.04059 0,554.5304 0,554 Z"
             style="fill:#f8f8f8;fill-opacity:1;fill-rule:nonzero;stroke:none"
             id="path56"
             inkscape:connector-curvature="0" /><path
             d="m 0,39 h 579 v 515 c -6e-5,0.5304 -0.10156,1.04059 -0.30463,1.53064 -0.20294,0.49005 -0.49194,0.92267 -0.867,1.29773 -0.37506,0.375 -0.80768,0.664 -1.29773,0.86706 C 576.04059,557.89838 575.5304,557.99994 575,558 H 4 c -0.5304332,-6e-5 -1.0406778,-0.10162 -1.5307341,-0.30457 C 1.9792098,557.49237 1.5466454,557.20337 1.1715728,556.82837 0.79650003,556.45331 0.50746971,556.02069 0.30448183,555.53064 0.10149394,555.04059 0,554.5304 0,554 Z"
             style="fill:none;stroke:#337ab7;stroke-width:1;stroke-linecap:butt;stroke-linejoin:miter;stroke-miterlimit:10;stroke-dasharray:none;stroke-opacity:1"
             id="path58"
             inkscape:connector-curvature="0" /></g><g
           id="g60"
           transform="matrix(3.1269929,0,0,3.1260695,186.74376,246.94778)"><text
   style="font-variant:normal;font-weight:normal;font-size:19.62999916px;font-family:Arimo;-inkscape-font-specification:Arimo;writing-mode:lr-tb;fill:#ffffff;fill-opacity:1;fill-rule:nonzero;stroke:none"
   id="text64"><tspan
     x="0 14.172546 25.087036 36.001526 46.916016 56.728516 62.180969 68.716248 79.630737 85.083191 95.997681 106.91217 112.36462 123.27911 134.1936 144.0061 154.92059 159.28064"
     y="0"
     sodipodi:role="line"
     id="tspan62">Cadastro de Locais</tspan></text>

</g></g></g><g
       id="g66"><g
         id="g68"
         clip-path="url(#clipPath72)"><g
           id="g74"
           transform="matrix(3.8373787,0,0,3.8362455,278.84085,396.56137)"><text
   transform="translate(0,17)"
   style="font-variant:normal;font-weight:bold;font-size:17px;font-family:'Liberation Sans';-inkscape-font-specification:LiberationSans-Bold;writing-mode:lr-tb;fill:#000000;fill-opacity:1;fill-rule:nonzero;stroke:none"
   id="text78"><tspan
     x="0 12.276855 22.661133 37.776855"
     y="0"
     sodipodi:role="line"
     id="tspan76">Nome</tspan></text>

</g></g></g><g
       id="g80"><g
         id="g82"
         clip-path="url(#clipPath86)"><g
           id="g88"
           transform="matrix(3.8373787,0,0,3.8362455,278.84085,484.79501)"><path
             d="m 4,0 h 497 c 0.53043,0 1.04065,0.10149394 1.5307,0.30448183 0.49002,0.20298788 0.92261,0.4920182 1.2977,0.86709097 0.37506,0.3750726 0.66406,0.807637 0.86703,1.2976931 C 504.89844,2.9593222 504.99997,3.4695668 505,4 v 26 c -3e-5,0.530432 -0.10156,1.040674 -0.30457,1.530729 -0.20297,0.490057 -0.49197,0.922625 -0.86703,1.297697 -0.37509,0.375069 -0.80768,0.664097 -1.2977,0.867085 C 502.04065,33.898502 501.53043,33.999996 501,34 H 4 C 3.4695668,33.999996 2.9593222,33.898502 2.4692659,33.695515 1.9792098,33.492523 1.5466454,33.203495 1.1715728,32.828426 0.79650003,32.453354 0.50746971,32.020786 0.30448183,31.530729 0.10149394,31.040674 0,30.530432 0,30 V 4 C 0,3.4695671 0.10149396,2.9593227 0.30448189,2.4692664 0.50746983,1.9792101 0.79650015,1.5466458 1.1715729,1.1715729 1.5466458,0.79650015 1.9792101,0.50746983 2.4692664,0.30448189 2.9593227,0.10149396 3.4695671,0 4,0 Z"
             style="fill:url(#linearGradient96);fill-opacity:1;fill-rule:nonzero;stroke:none"
             id="path98"
             inkscape:connector-curvature="0" /><path
             d="m 4,0 h 497 c 0.53043,0 1.04065,0.10149394 1.5307,0.30448183 0.49002,0.20298788 0.92261,0.4920182 1.2977,0.86709097 0.37506,0.3750726 0.66406,0.807637 0.86703,1.2976931 C 504.89844,2.9593222 504.99997,3.4695668 505,4 v 26 c -3e-5,0.530432 -0.10156,1.040674 -0.30457,1.530729 -0.20297,0.490057 -0.49197,0.922625 -0.86703,1.297697 -0.37509,0.375069 -0.80768,0.664097 -1.2977,0.867085 C 502.04065,33.898502 501.53043,33.999996 501,34 H 4 C 3.4695668,33.999996 2.9593222,33.898502 2.4692659,33.695515 1.9792098,33.492523 1.5466454,33.203495 1.1715728,32.828426 0.79650003,32.453354 0.50746971,32.020786 0.30448183,31.530729 0.10149394,31.040674 0,30.530432 0,30 V 4 C 0,3.4695671 0.10149396,2.9593227 0.30448189,2.4692664 0.50746983,1.9792101 0.79650015,1.5466458 1.1715729,1.1715729 1.5466458,0.79650015 1.9792101,0.50746983 2.4692664,0.30448189 2.9593227,0.10149396 3.4695671,0 4,0 Z"
             style="fill:none;stroke:#cccccc;stroke-width:1;stroke-linecap:butt;stroke-linejoin:miter;stroke-miterlimit:10;stroke-dasharray:none;stroke-opacity:1"
             id="path100"
             inkscape:connector-curvature="0" /></g><g
           id="g102"
           transform="matrix(3.1269929,0,0,3.1260695,324.8894,569.19238)"><text
   style="font-variant:normal;font-weight:normal;font-size:17.18000031px;font-family:Arimo;-inkscape-font-specification:Arimo;writing-mode:lr-tb;fill:#545454;fill-opacity:1;fill-rule:nonzero;stroke:none"
   id="text106"><tspan
     x="0 11.453506 15.268555 24.818741 33.404678 42.954865 47.725769 57.275955 62.04686 66.817764"
     y="0"
     sodipodi:role="line"
     id="tspan104">Bloco 2...</tspan></text>

</g></g></g><g
       id="g108"><g
         id="g110"
         clip-path="url(#clipPath114)"><g
           id="g116"
           transform="matrix(3.8373787,0,0,3.8362455,278.84085,1298.079)"><path
   d="m 487,144 h 20 v 1 h -20 z"
   style="fill:#dddddd;fill-opacity:1;fill-rule:nonzero;stroke:none"
   id="path118"
   inkscape:connector-curvature="0" /><path
   d="m 468,144 h 19 v 1 h -19 z"
   style="fill:#dddddd;fill-opacity:1;fill-rule:nonzero;stroke:none"
   id="path120"
   inkscape:connector-curvature="0" /><path
   d="m 398,144 h 70 v 1 h -70 z"
   style="fill:#dddddd;fill-opacity:1;fill-rule:nonzero;stroke:none"
   id="path122"
   inkscape:connector-curvature="0" /><path
   d="m 329,144 h 69 v 1 h -69 z"
   style="fill:#dddddd;fill-opacity:1;fill-rule:nonzero;stroke:none"
   id="path124"
   inkscape:connector-curvature="0" /><path
   d="m 243,144 h 86 v 1 h -86 z"
   style="fill:#dddddd;fill-opacity:1;fill-rule:nonzero;stroke:none"
   id="path126"
   inkscape:connector-curvature="0" /><path
   d="m 169,144 h 74 v 1 h -74 z"
   style="fill:#dddddd;fill-opacity:1;fill-rule:nonzero;stroke:none"
   id="path128"
   inkscape:connector-curvature="0" /><path
   d="m 0,144 h 169 v 1 H 0 Z"
   style="fill:#dddddd;fill-opacity:1;fill-rule:nonzero;stroke:none"
   id="path130"
   inkscape:connector-curvature="0" /><path
   d="m 487,72 h 20 v 1 h -20 z"
   style="fill:#dddddd;fill-opacity:1;fill-rule:nonzero;stroke:none"
   id="path132"
   inkscape:connector-curvature="0" /><path
   d="m 487,108 h 20 v 1 h -20 z"
   style="fill:#dddddd;fill-opacity:1;fill-rule:nonzero;stroke:none"
   id="path134"
   inkscape:connector-curvature="0" /><path
   d="m 468,108 h 19 v 1 h -19 z"
   style="fill:#dddddd;fill-opacity:1;fill-rule:nonzero;stroke:none"
   id="path136"
   inkscape:connector-curvature="0" /><path
   d="m 398,108 h 70 v 1 h -70 z"
   style="fill:#dddddd;fill-opacity:1;fill-rule:nonzero;stroke:none"
   id="path138"
   inkscape:connector-curvature="0" /><path
   d="m 329,108 h 69 v 1 h -69 z"
   style="fill:#dddddd;fill-opacity:1;fill-rule:nonzero;stroke:none"
   id="path140"
   inkscape:connector-curvature="0" /><path
   d="m 243,108 h 86 v 1 h -86 z"
   style="fill:#dddddd;fill-opacity:1;fill-rule:nonzero;stroke:none"
   id="path142"
   inkscape:connector-curvature="0" /><path
   d="m 169,108 h 74 v 1 h -74 z"
   style="fill:#dddddd;fill-opacity:1;fill-rule:nonzero;stroke:none"
   id="path144"
   inkscape:connector-curvature="0" /><path
   d="m 0,108 h 169 v 1 H 0 Z"
   style="fill:#dddddd;fill-opacity:1;fill-rule:nonzero;stroke:none"
   id="path146"
   inkscape:connector-curvature="0" /><path
   d="m 468,36 h 19 v 1 h -19 z"
   style="fill:#dddddd;fill-opacity:1;fill-rule:nonzero;stroke:none"
   id="path148"
   inkscape:connector-curvature="0" /><path
   d="m 468,72 h 19 v 1 h -19 z"
   style="fill:#dddddd;fill-opacity:1;fill-rule:nonzero;stroke:none"
   id="path150"
   inkscape:connector-curvature="0" /><path
   d="m 398,36 h 70 v 1 h -70 z"
   style="fill:#dddddd;fill-opacity:1;fill-rule:nonzero;stroke:none"
   id="path152"
   inkscape:connector-curvature="0" /><path
   d="m 398,72 h 70 v 1 h -70 z"
   style="fill:#dddddd;fill-opacity:1;fill-rule:nonzero;stroke:none"
   id="path154"
   inkscape:connector-curvature="0" /><path
   d="m 329,36 h 69 v 1 h -69 z"
   style="fill:#dddddd;fill-opacity:1;fill-rule:nonzero;stroke:none"
   id="path156"
   inkscape:connector-curvature="0" /><path
   d="m 329,72 h 69 v 1 h -69 z"
   style="fill:#dddddd;fill-opacity:1;fill-rule:nonzero;stroke:none"
   id="path158"
   inkscape:connector-curvature="0" /><path
   d="m 243,36 h 86 v 1 h -86 z"
   style="fill:#dddddd;fill-opacity:1;fill-rule:nonzero;stroke:none"
   id="path160"
   inkscape:connector-curvature="0" /><path
   d="m 243,72 h 86 v 1 h -86 z"
   style="fill:#dddddd;fill-opacity:1;fill-rule:nonzero;stroke:none"
   id="path162"
   inkscape:connector-curvature="0" /><path
   d="m 169,36 h 74 v 1 h -74 z"
   style="fill:#dddddd;fill-opacity:1;fill-rule:nonzero;stroke:none"
   id="path164"
   inkscape:connector-curvature="0" /><path
   d="m 169,72 h 74 v 1 h -74 z"
   style="fill:#dddddd;fill-opacity:1;fill-rule:nonzero;stroke:none"
   id="path166"
   inkscape:connector-curvature="0" /><path
   d="m 0,72 h 169 v 1 H 0 Z"
   style="fill:#dddddd;fill-opacity:1;fill-rule:nonzero;stroke:none"
   id="path168"
   inkscape:connector-curvature="0" /><path
   d="m 0,35 h 169 v 2 H 0 Z"
   style="fill:#dddddd;fill-opacity:1;fill-rule:nonzero;stroke:none"
   id="path170"
   inkscape:connector-curvature="0" /><text
   transform="translate(8,22)"
   style="font-variant:normal;font-weight:bold;font-size:14px;font-family:Arimo;-inkscape-font-specification:Arimo-Bold;writing-mode:lr-tb;fill:#333333;fill-opacity:1;fill-rule:nonzero;stroke:none"
   id="text174"><tspan
     x="0 8.5517578 17.103516 24.889648 32.675781 36.56543 44.351562 48.241211 56.792969 60.682617 68.46875 77.020508 85.572266 94.124023 98.013672 105.7998 113.58594 117.47559"
     y="0"
     sodipodi:role="line"
     id="tspan172">Locais disponíveis</tspan></text>

<text
   transform="translate(8,59)"
   style="font-variant:normal;font-weight:normal;font-size:14px;font-family:Arimo;-inkscape-font-specification:Arimo;writing-mode:lr-tb;fill:#333333;fill-opacity:1;fill-rule:nonzero;stroke:none"
   id="text178"><tspan
     x="0 3.8896484"
     y="0"
     sodipodi:role="line"
     id="tspan176">Id</tspan></text>

<text
   transform="translate(177,59)"
   style="font-variant:normal;font-weight:normal;font-size:14px;font-family:Arimo;-inkscape-font-specification:Arimo;writing-mode:lr-tb;fill:#333333;fill-opacity:1;fill-rule:nonzero;stroke:none"
   id="text182"><tspan
     x="0 10.110352 17.896484 29.558594"
     y="0"
     sodipodi:role="line"
     id="tspan180">Nome</tspan></text>

<text
   transform="translate(251,59)"
   style="font-variant:normal;font-weight:normal;font-size:14px;font-family:Arimo;-inkscape-font-specification:Arimo;writing-mode:lr-tb;fill:#333333;fill-opacity:1;fill-rule:nonzero;stroke:none"
   id="text186"><tspan
     x="0 10.110352 17.896484 21.786133 29.572266 32.682617 40.46875 48.254883"
     y="0"
     sodipodi:role="line"
     id="tspan184">Detalhes</tspan></text>

<text
   transform="translate(337,59)"
   style="font-variant:normal;font-weight:normal;font-size:14px;font-family:Arimo;-inkscape-font-specification:Arimo;writing-mode:lr-tb;fill:#333333;fill-opacity:1;fill-rule:nonzero;stroke:none"
   id="text190"><tspan
     x="0 9.3378906 12.448242 16.337891 24.124023 28.786133 36.572266"
     y="0"
     sodipodi:role="line"
     id="tspan188">Alterar</tspan></text>

<text
   transform="translate(406,59)"
   style="font-variant:normal;font-weight:normal;font-size:14px;font-family:Arimo;-inkscape-font-specification:Arimo;writing-mode:lr-tb;fill:#333333;fill-opacity:1;fill-rule:nonzero;stroke:none"
   id="text194"><tspan
     x="0 9.3378906 16.337891 23.337891 26.448242 34.234375 37.344727"
     y="0"
     sodipodi:role="line"
     id="tspan192">Excluir</tspan></text>

<text
   transform="translate(8,95)"
   style="font-variant:normal;font-weight:normal;font-size:14px;font-family:Arimo;-inkscape-font-specification:Arimo;writing-mode:lr-tb;fill:#333333;fill-opacity:1;fill-rule:nonzero;stroke:none"
   id="text198"><tspan
     x="0"
     y="0"
     id="tspan196">1</tspan></text>

<text
   transform="translate(177,95)"
   style="font-variant:normal;font-weight:normal;font-size:14px;font-family:Arimo;-inkscape-font-specification:Arimo;writing-mode:lr-tb;fill:#333333;fill-opacity:1;fill-rule:nonzero;stroke:none"
   id="text202"><tspan
     x="0 9.3378906 12.448242 20.234375 27.234375 35.020508 38.910156"
     y="0"
     sodipodi:role="line"
     id="tspan200">Bloco 1</tspan></text>

<text
   transform="translate(8,131)"
   style="font-variant:normal;font-weight:normal;font-size:14px;font-family:Arimo;-inkscape-font-specification:Arimo;writing-mode:lr-tb;fill:#333333;fill-opacity:1;fill-rule:nonzero;stroke:none"
   id="text206"><tspan
     x="0"
     y="0"
     id="tspan204">2</tspan></text>

<text
   transform="translate(177,131)"
   style="font-variant:normal;font-weight:normal;font-size:14px;font-family:Arimo;-inkscape-font-specification:Arimo;writing-mode:lr-tb;fill:#333333;fill-opacity:1;fill-rule:nonzero;stroke:none"
   id="text210"><tspan
     x="0 9.3378906 12.448242 20.234375 27.234375 35.020508 38.910156"
     y="0"
     sodipodi:role="line"
     id="tspan208">Bloco 2</tspan></text>

<text
   transform="translate(8,168)"
   style="font-variant:normal;font-weight:normal;font-size:14px;font-family:Arimo;-inkscape-font-specification:Arimo;writing-mode:lr-tb;fill:#333333;fill-opacity:1;fill-rule:nonzero;stroke:none"
   id="text214"><tspan
     x="0"
     y="0"
     id="tspan212">3</tspan></text>

<text
   transform="translate(177,168)"
   style="font-variant:normal;font-weight:normal;font-size:14px;font-family:Arimo;-inkscape-font-specification:Arimo;writing-mode:lr-tb;fill:#333333;fill-opacity:1;fill-rule:nonzero;stroke:none"
   id="text218"><tspan
     x="0 9.3378906 12.448242 20.234375 27.234375 35.020508 38.910156"
     y="0"
     sodipodi:role="line"
     id="tspan216">Bloco 3</tspan></text>

</g></g></g><g
       id="g220"><g
         id="g222"
         clip-path="url(#clipPath226)"><g
           id="g228"
           transform="matrix(3.8373787,0,0,3.8362455,278.84085,749.49597)"><path
             d="m 4,0 h 497 c 0.53043,0 1.04065,0.10149394 1.5307,0.30448183 0.49002,0.20298788 0.92261,0.4920182 1.2977,0.86709097 0.37506,0.3750726 0.66406,0.807637 0.86703,1.2976931 C 504.89844,2.9593222 504.99997,3.4695668 505,4 v 93 c -3e-5,0.530418 -0.10156,1.040657 -0.30457,1.530716 -0.20297,0.490059 -0.49197,0.922623 -0.86703,1.297707 -0.37509,0.375067 -0.80768,0.664097 -1.2977,0.867087 C 502.04065,100.8985 501.53043,100.99999 501,101 H 4 c -0.5304332,-1e-5 -1.0406778,-0.1015 -1.5307341,-0.30449 C 1.9792098,100.49252 1.5466454,100.20349 1.1715728,99.828423 0.79650003,99.453339 0.50746971,99.020775 0.30448183,98.530716 0.10149394,98.040657 0,97.530418 0,97 V 4 C 0,3.4695671 0.10149396,2.9593227 0.30448189,2.4692664 0.50746983,1.9792101 0.79650015,1.5466458 1.1715729,1.1715729 1.5466458,0.79650015 1.9792101,0.50746983 2.4692664,0.30448189 2.9593227,0.10149396 3.4695671,0 4,0 Z"
             style="fill:url(#linearGradient236);fill-opacity:1;fill-rule:nonzero;stroke:none"
             id="path238"
             inkscape:connector-curvature="0" /><path
             d="m 4,0 h 497 c 0.53043,0 1.04065,0.10149394 1.5307,0.30448183 0.49002,0.20298788 0.92261,0.4920182 1.2977,0.86709097 0.37506,0.3750726 0.66406,0.807637 0.86703,1.2976931 C 504.89844,2.9593222 504.99997,3.4695668 505,4 v 93 c -3e-5,0.530418 -0.10156,1.040657 -0.30457,1.530716 -0.20297,0.490059 -0.49197,0.922623 -0.86703,1.297707 -0.37509,0.375067 -0.80768,0.664097 -1.2977,0.867087 C 502.04065,100.8985 501.53043,100.99999 501,101 H 4 c -0.5304332,-1e-5 -1.0406778,-0.1015 -1.5307341,-0.30449 C 1.9792098,100.49252 1.5466454,100.20349 1.1715728,99.828423 0.79650003,99.453339 0.50746971,99.020775 0.30448183,98.530716 0.10149394,98.040657 0,97.530418 0,97 V 4 C 0,3.4695671 0.10149396,2.9593227 0.30448189,2.4692664 0.50746983,1.9792101 0.79650015,1.5466458 1.1715729,1.1715729 1.5466458,0.79650015 1.9792101,0.50746983 2.4692664,0.30448189 2.9593227,0.10149396 3.4695671,0 4,0 Z"
             style="fill:none;stroke:#cccccc;stroke-width:1;stroke-linecap:butt;stroke-linejoin:miter;stroke-miterlimit:10;stroke-dasharray:none;stroke-opacity:1"
             id="path240"
             inkscape:connector-curvature="0" /></g><g
           id="g242"
           transform="matrix(3.1269929,0,0,3.1260695,324.8894,964.32568)"><text
   style="font-variant:normal;font-weight:normal;font-size:17.18000031px;font-family:Arimo;-inkscape-font-specification:Arimo;writing-mode:lr-tb;fill:#545454;fill-opacity:1;fill-rule:nonzero;stroke:none"
   id="text246"><tspan
     x="0 12.400986 21.951172 30.537109 39.123047 44.841415 48.656464 57.242401 66.792587 76.342773 81.113678 90.663864 100.21405 104.98495 108.8 118.35019 126.93613 136.48631 140.30136 144.11641 152.70235 162.25253 170.83847 180.38866 189.93884 194.70975 204.25993 208.07498 217.62517 226.21111 235.76129 240.5322 245.3031 250.07401"
     y="0"
     sodipodi:role="line"
     id="tspan244">Descrição da localização bloco....</tspan></text>

</g></g></g><g
       id="g248"><g
         id="g250"
         clip-path="url(#clipPath254)"><g
           id="g256"
           transform="matrix(3.8373787,0,0,3.8362455,278.84085,661.26227)"><text
   transform="translate(0,17)"
   style="font-variant:normal;font-weight:bold;font-size:17px;font-family:'Liberation Sans';-inkscape-font-specification:LiberationSans-Bold;writing-mode:lr-tb;fill:#000000;fill-opacity:1;fill-rule:nonzero;stroke:none"
   id="text260"><tspan
     x="0 12.276855 21.731445 31.186035 40.640625 47.256348 51.979492 61.434082 70.888672"
     y="0"
     sodipodi:role="line"
     id="tspan258">Descrição</tspan></text>

</g></g></g><g
       id="g262"><g
         id="g264"
         clip-path="url(#clipPath268)"><g
           id="g270"
           transform="matrix(3.8373787,0,0,3.8362455,1637.2728,1171.4829)"><path
             d="m 4,0 h 63 c 0.530434,0 1.040672,0.10149394 1.530731,0.30448183 0.490059,0.20298788 0.922623,0.4920182 1.297692,0.86709097 0.375068,0.3750726 0.664093,0.807637 0.867088,1.2976931 C 70.898499,2.9593222 70.999992,3.4695668 71,4 v 26 c -8e-6,0.530432 -0.101501,1.040674 -0.304489,1.530729 -0.202995,0.490057 -0.49202,0.922625 -0.867088,1.297697 -0.375069,0.375069 -0.807633,0.664097 -1.297692,0.867085 C 68.040672,33.898502 67.530434,33.999996 67,34 H 4 C 3.4695668,33.999996 2.9593222,33.898502 2.4692659,33.695515 1.9792098,33.492523 1.5466454,33.203495 1.1715728,32.828426 0.79650003,32.453354 0.50746971,32.020786 0.30448183,31.530729 0.10149394,31.040674 0,30.530432 0,30 V 4 C 0,3.4695671 0.10149396,2.9593227 0.30448189,2.4692664 0.50746983,1.9792101 0.79650015,1.5466458 1.1715729,1.1715729 1.5466458,0.79650015 1.9792101,0.50746983 2.4692664,0.30448189 2.9593227,0.10149396 3.4695671,0 4,0 Z"
             style="fill:#ffffff;fill-opacity:1;fill-rule:nonzero;stroke:none"
             id="path272"
             inkscape:connector-curvature="0" /><path
             d="m 4,0 h 63 c 0.530434,0 1.040672,0.10149394 1.530731,0.30448183 0.490059,0.20298788 0.922623,0.4920182 1.297692,0.86709097 0.375068,0.3750726 0.664093,0.807637 0.867088,1.2976931 C 70.898499,2.9593222 70.999992,3.4695668 71,4 v 26 c -8e-6,0.530432 -0.101501,1.040674 -0.304489,1.530729 -0.202995,0.490057 -0.49202,0.922625 -0.867088,1.297697 -0.375069,0.375069 -0.807633,0.664097 -1.297692,0.867085 C 68.040672,33.898502 67.530434,33.999996 67,34 H 4 C 3.4695668,33.999996 2.9593222,33.898502 2.4692659,33.695515 1.9792098,33.492523 1.5466454,33.203495 1.1715728,32.828426 0.79650003,32.453354 0.50746971,32.020786 0.30448183,31.530729 0.10149394,31.040674 0,30.530432 0,30 V 4 C 0,3.4695671 0.10149396,2.9593227 0.30448189,2.4692664 0.50746983,1.9792101 0.79650015,1.5466458 1.1715729,1.1715729 1.5466458,0.79650015 1.9792101,0.50746983 2.4692664,0.30448189 2.9593227,0.10149396 3.4695671,0 4,0 Z"
             style="fill:none;stroke:#f2f2f2;stroke-width:1;stroke-linecap:butt;stroke-linejoin:miter;stroke-miterlimit:10;stroke-dasharray:none;stroke-opacity:1"
             id="path274"
             inkscape:connector-curvature="0" /></g><g
           id="g276"
           transform="matrix(3.1269929,0,0,3.1260695,1683.3214,1255.8803)"><text
   transform="translate(2.3680711)"
   style="font-variant:normal;font-weight:normal;font-size:17.18000031px;font-family:Arimo;-inkscape-font-specification:Arimo;writing-mode:lr-tb;fill:#333333;fill-opacity:1;fill-rule:nonzero;stroke:none"
   id="text280"><tspan
     x="0 9.5501862 13.365234 27.66954 37.219727 46.769913"
     y="0"
     sodipodi:role="line"
     id="tspan278">Limpar</tspan></text>

</g><g
           id="g282"
           transform="matrix(3.8373787,0,0,3.8362455,1311.0957,1171.4829)"><path
             d="m 4,0 h 63 c 0.530434,0 1.040672,0.10149394 1.530731,0.30448183 0.490059,0.20298788 0.922623,0.4920182 1.297692,0.86709097 0.375068,0.3750726 0.664093,0.807637 0.867088,1.2976931 C 70.898499,2.9593222 70.999992,3.4695668 71,4 v 26 c -8e-6,0.530432 -0.101501,1.040674 -0.304489,1.530729 -0.202995,0.490057 -0.49202,0.922625 -0.867088,1.297697 -0.375069,0.375069 -0.807633,0.664097 -1.297692,0.867085 C 68.040672,33.898502 67.530434,33.999996 67,34 H 4 C 3.4695668,33.999996 2.9593222,33.898502 2.4692659,33.695515 1.9792098,33.492523 1.5466454,33.203495 1.1715728,32.828426 0.79650003,32.453354 0.50746971,32.020786 0.30448183,31.530729 0.10149394,31.040674 0,30.530432 0,30 V 4 C 0,3.4695671 0.10149396,2.9593227 0.30448189,2.4692664 0.50746983,1.9792101 0.79650015,1.5466458 1.1715729,1.1715729 1.5466458,0.79650015 1.9792101,0.50746983 2.4692664,0.30448189 2.9593227,0.10149396 3.4695671,0 4,0 Z"
             style="fill:#5cb85c;fill-opacity:1;fill-rule:nonzero;stroke:none"
             id="path284"
             inkscape:connector-curvature="0" /><path
             d="m 4,0 h 63 c 0.530434,0 1.040672,0.10149394 1.530731,0.30448183 0.490059,0.20298788 0.922623,0.4920182 1.297692,0.86709097 0.375068,0.3750726 0.664093,0.807637 0.867088,1.2976931 C 70.898499,2.9593222 70.999992,3.4695668 71,4 v 26 c -8e-6,0.530432 -0.101501,1.040674 -0.304489,1.530729 -0.202995,0.490057 -0.49202,0.922625 -0.867088,1.297697 -0.375069,0.375069 -0.807633,0.664097 -1.297692,0.867085 C 68.040672,33.898502 67.530434,33.999996 67,34 H 4 C 3.4695668,33.999996 2.9593222,33.898502 2.4692659,33.695515 1.9792098,33.492523 1.5466454,33.203495 1.1715728,32.828426 0.79650003,32.453354 0.50746971,32.020786 0.30448183,31.530729 0.10149394,31.040674 0,30.530432 0,30 V 4 C 0,3.4695671 0.10149396,2.9593227 0.30448189,2.4692664 0.50746983,1.9792101 0.79650015,1.5466458 1.1715729,1.1715729 1.5466458,0.79650015 1.9792101,0.50746983 2.4692664,0.30448189 2.9593227,0.10149396 3.4695671,0 4,0 Z"
             style="fill:none;stroke:#4cae4c;stroke-width:1;stroke-linecap:butt;stroke-linejoin:miter;stroke-miterlimit:10;stroke-dasharray:none;stroke-opacity:1"
             id="path286"
             inkscape:connector-curvature="0" /></g><g
           id="g288"
           transform="matrix(3.1269929,0,0,3.1260695,1357.1443,1255.8803)"><text
   transform="translate(4.2759504)"
   style="font-variant:normal;font-weight:normal;font-size:17.18000031px;font-family:Arimo;-inkscape-font-specification:Arimo;writing-mode:lr-tb;fill:#ffffff;fill-opacity:1;fill-rule:nonzero;stroke:none"
   id="text292"><tspan
     x="0 11.453506 21.003693 24.818741 33.404678 42.954865"
     y="0"
     sodipodi:role="line"
     id="tspan290">Salvar</tspan></text>

</g><g
           id="g294"
           transform="matrix(3.8373787,0,0,3.8362455,1821.467,1739.2472)"><path
             d="m 4,0 h 63 c 0.530434,0 1.040672,0.10149394 1.530731,0.30448183 0.490059,0.20298788 0.922623,0.4920182 1.297692,0.86709097 0.375068,0.3750726 0.664093,0.807637 0.867088,1.2976931 C 70.898499,2.9593222 70.999992,3.4695668 71,4 v 13 c -8e-6,0.530432 -0.101501,1.040676 -0.304489,1.530731 -0.202995,0.490055 -0.49202,0.922621 -0.867088,1.297695 -0.375069,0.375071 -0.807633,0.664101 -1.297692,0.867089 C 68.040672,20.898504 67.530434,20.999998 67,21 H 4 C 3.4695668,20.999998 2.9593222,20.898504 2.4692659,20.695515 1.9792098,20.492527 1.5466454,20.203497 1.1715728,19.828426 0.79650003,19.453352 0.50746971,19.020786 0.30448183,18.530731 0.10149394,18.040676 0,17.530432 0,17 V 4 C 0,3.4695671 0.10149396,2.9593227 0.30448189,2.4692664 0.50746983,1.9792101 0.79650015,1.5466458 1.1715729,1.1715729 1.5466458,0.79650015 1.9792101,0.50746983 2.4692664,0.30448189 2.9593227,0.10149396 3.4695671,0 4,0 Z"
             style="fill:#d9534f;fill-opacity:1;fill-rule:nonzero;stroke:none"
             id="path296"
             inkscape:connector-curvature="0" /><path
             d="m 4,0 h 63 c 0.530434,0 1.040672,0.10149394 1.530731,0.30448183 0.490059,0.20298788 0.922623,0.4920182 1.297692,0.86709097 0.375068,0.3750726 0.664093,0.807637 0.867088,1.2976931 C 70.898499,2.9593222 70.999992,3.4695668 71,4 v 13 c -8e-6,0.530432 -0.101501,1.040676 -0.304489,1.530731 -0.202995,0.490055 -0.49202,0.922621 -0.867088,1.297695 -0.375069,0.375071 -0.807633,0.664101 -1.297692,0.867089 C 68.040672,20.898504 67.530434,20.999998 67,21 H 4 C 3.4695668,20.999998 2.9593222,20.898504 2.4692659,20.695515 1.9792098,20.492527 1.5466454,20.203497 1.1715728,19.828426 0.79650003,19.453352 0.50746971,19.020786 0.30448183,18.530731 0.10149394,18.040676 0,17.530432 0,17 V 4 C 0,3.4695671 0.10149396,2.9593227 0.30448189,2.4692664 0.50746983,1.9792101 0.79650015,1.5466458 1.1715729,1.1715729 1.5466458,0.79650015 1.9792101,0.50746983 2.4692664,0.30448189 2.9593227,0.10149396 3.4695671,0 4,0 Z"
             style="fill:none;stroke:#d4403a;stroke-width:1;stroke-linecap:butt;stroke-linejoin:miter;stroke-miterlimit:10;stroke-dasharray:none;stroke-opacity:1"
             id="path298"
             inkscape:connector-curvature="0" /></g><g
           id="g300"
           transform="matrix(3.1269929,0,0,3.1260695,1867.5156,1800.6272)"><text
   transform="translate(3.8061709)"
   style="font-variant:normal;font-weight:normal;font-size:17.18000031px;font-family:Arimo;-inkscape-font-specification:Arimo;writing-mode:lr-tb;fill:#ffffff;fill-opacity:1;fill-rule:nonzero;stroke:none"
   id="text304"><tspan
     x="0 9.5501862 18.136124 26.722061 30.537109 40.087296 43.902344"
     y="0"
     sodipodi:role="line"
     id="tspan302">excluir</tspan></text>

</g><g
           id="g306"
           transform="matrix(3.8373787,0,0,3.8362455,1821.467,1604.9786)"><path
             d="m 4,0 h 63 c 0.530434,0 1.040672,0.10149394 1.530731,0.30448183 0.490059,0.20298788 0.922623,0.4920182 1.297692,0.86709097 0.375068,0.3750726 0.664093,0.807637 0.867088,1.2976931 C 70.898499,2.9593222 70.999992,3.4695668 71,4 v 13 c -8e-6,0.530432 -0.101501,1.040676 -0.304489,1.530731 -0.202995,0.490055 -0.49202,0.922621 -0.867088,1.297695 -0.375069,0.375071 -0.807633,0.664101 -1.297692,0.867089 C 68.040672,20.898504 67.530434,20.999998 67,21 H 4 C 3.4695668,20.999998 2.9593222,20.898504 2.4692659,20.695515 1.9792098,20.492527 1.5466454,20.203497 1.1715728,19.828426 0.79650003,19.453352 0.50746971,19.020786 0.30448183,18.530731 0.10149394,18.040676 0,17.530432 0,17 V 4 C 0,3.4695671 0.10149396,2.9593227 0.30448189,2.4692664 0.50746983,1.9792101 0.79650015,1.5466458 1.1715729,1.1715729 1.5466458,0.79650015 1.9792101,0.50746983 2.4692664,0.30448189 2.9593227,0.10149396 3.4695671,0 4,0 Z"
             style="fill:#d9534f;fill-opacity:1;fill-rule:nonzero;stroke:none"
             id="path308"
             inkscape:connector-curvature="0" /><path
             d="m 4,0 h 63 c 0.530434,0 1.040672,0.10149394 1.530731,0.30448183 0.490059,0.20298788 0.922623,0.4920182 1.297692,0.86709097 0.375068,0.3750726 0.664093,0.807637 0.867088,1.2976931 C 70.898499,2.9593222 70.999992,3.4695668 71,4 v 13 c -8e-6,0.530432 -0.101501,1.040676 -0.304489,1.530731 -0.202995,0.490055 -0.49202,0.922621 -0.867088,1.297695 -0.375069,0.375071 -0.807633,0.664101 -1.297692,0.867089 C 68.040672,20.898504 67.530434,20.999998 67,21 H 4 C 3.4695668,20.999998 2.9593222,20.898504 2.4692659,20.695515 1.9792098,20.492527 1.5466454,20.203497 1.1715728,19.828426 0.79650003,19.453352 0.50746971,19.020786 0.30448183,18.530731 0.10149394,18.040676 0,17.530432 0,17 V 4 C 0,3.4695671 0.10149396,2.9593227 0.30448189,2.4692664 0.50746983,1.9792101 0.79650015,1.5466458 1.1715729,1.1715729 1.5466458,0.79650015 1.9792101,0.50746983 2.4692664,0.30448189 2.9593227,0.10149396 3.4695671,0 4,0 Z"
             style="fill:none;stroke:#d4403a;stroke-width:1;stroke-linecap:butt;stroke-linejoin:miter;stroke-miterlimit:10;stroke-dasharray:none;stroke-opacity:1"
             id="path310"
             inkscape:connector-curvature="0" /></g><g
           id="g312"
           transform="matrix(3.1269929,0,0,3.1260695,1867.5156,1666.3586)"><text
   transform="translate(3.8061709)"
   style="font-variant:normal;font-weight:normal;font-size:17.18000031px;font-family:Arimo;-inkscape-font-specification:Arimo;writing-mode:lr-tb;fill:#ffffff;fill-opacity:1;fill-rule:nonzero;stroke:none"
   id="text316"><tspan
     x="0 9.5501862 18.136124 26.722061 30.537109 40.087296 43.902344"
     y="0"
     sodipodi:role="line"
     id="tspan314">excluir</tspan></text>

</g><g
           id="g318"
           transform="matrix(3.8373787,0,0,3.8362455,1821.467,1873.5159)"><path
             d="m 4,0 h 63 c 0.530434,0 1.040672,0.10149394 1.530731,0.30448183 0.490059,0.20298788 0.922623,0.4920182 1.297692,0.86709097 0.375068,0.3750726 0.664093,0.807637 0.867088,1.2976931 C 70.898499,2.9593222 70.999992,3.4695668 71,4 v 13 c -8e-6,0.530432 -0.101501,1.040676 -0.304489,1.530731 -0.202995,0.490055 -0.49202,0.922621 -0.867088,1.297695 -0.375069,0.375071 -0.807633,0.664101 -1.297692,0.867089 C 68.040672,20.898504 67.530434,20.999998 67,21 H 4 C 3.4695668,20.999998 2.9593222,20.898504 2.4692659,20.695515 1.9792098,20.492527 1.5466454,20.203497 1.1715728,19.828426 0.79650003,19.453352 0.50746971,19.020786 0.30448183,18.530731 0.10149394,18.040676 0,17.530432 0,17 V 4 C 0,3.4695671 0.10149396,2.9593227 0.30448189,2.4692664 0.50746983,1.9792101 0.79650015,1.5466458 1.1715729,1.1715729 1.5466458,0.79650015 1.9792101,0.50746983 2.4692664,0.30448189 2.9593227,0.10149396 3.4695671,0 4,0 Z"
             style="fill:#d9534f;fill-opacity:1;fill-rule:nonzero;stroke:none"
             id="path320"
             inkscape:connector-curvature="0" /><path
             d="m 4,0 h 63 c 0.530434,0 1.040672,0.10149394 1.530731,0.30448183 0.490059,0.20298788 0.922623,0.4920182 1.297692,0.86709097 0.375068,0.3750726 0.664093,0.807637 0.867088,1.2976931 C 70.898499,2.9593222 70.999992,3.4695668 71,4 v 13 c -8e-6,0.530432 -0.101501,1.040676 -0.304489,1.530731 -0.202995,0.490055 -0.49202,0.922621 -0.867088,1.297695 -0.375069,0.375071 -0.807633,0.664101 -1.297692,0.867089 C 68.040672,20.898504 67.530434,20.999998 67,21 H 4 C 3.4695668,20.999998 2.9593222,20.898504 2.4692659,20.695515 1.9792098,20.492527 1.5466454,20.203497 1.1715728,19.828426 0.79650003,19.453352 0.50746971,19.020786 0.30448183,18.530731 0.10149394,18.040676 0,17.530432 0,17 V 4 C 0,3.4695671 0.10149396,2.9593227 0.30448189,2.4692664 0.50746983,1.9792101 0.79650015,1.5466458 1.1715729,1.1715729 1.5466458,0.79650015 1.9792101,0.50746983 2.4692664,0.30448189 2.9593227,0.10149396 3.4695671,0 4,0 Z"
             style="fill:none;stroke:#d4403a;stroke-width:1;stroke-linecap:butt;stroke-linejoin:miter;stroke-miterlimit:10;stroke-dasharray:none;stroke-opacity:1"
             id="path322"
             inkscape:connector-curvature="0" /></g><g
           id="g324"
           transform="matrix(3.1269929,0,0,3.1260695,1867.5156,1934.8958)"><text
   transform="translate(3.8061709)"
   style="font-variant:normal;font-weight:normal;font-size:17.18000031px;font-family:Arimo;-inkscape-font-specification:Arimo;writing-mode:lr-tb;fill:#ffffff;fill-opacity:1;fill-rule:nonzero;stroke:none"
   id="text328"><tspan
     x="0 9.5501862 18.136124 26.722061 30.537109 40.087296 43.902344"
     y="0"
     sodipodi:role="line"
     id="tspan326">excluir</tspan></text>

</g><g
           id="g330"
           transform="matrix(3.8373787,0,0,3.8362455,1525.9889,1604.9786)"><path
             d="m 4,0 h 63 c 0.530434,0 1.040672,0.10149394 1.530731,0.30448183 0.490059,0.20298788 0.922623,0.4920182 1.297692,0.86709097 0.375068,0.3750726 0.664093,0.807637 0.867088,1.2976931 C 70.898499,2.9593222 70.999992,3.4695668 71,4 v 13 c -8e-6,0.530432 -0.101501,1.040676 -0.304489,1.530731 -0.202995,0.490055 -0.49202,0.922621 -0.867088,1.297695 -0.375069,0.375071 -0.807633,0.664101 -1.297692,0.867089 C 68.040672,20.898504 67.530434,20.999998 67,21 H 4 C 3.4695668,20.999998 2.9593222,20.898504 2.4692659,20.695515 1.9792098,20.492527 1.5466454,20.203497 1.1715728,19.828426 0.79650003,19.453352 0.50746971,19.020786 0.30448183,18.530731 0.10149394,18.040676 0,17.530432 0,17 V 4 C 0,3.4695671 0.10149396,2.9593227 0.30448189,2.4692664 0.50746983,1.9792101 0.79650015,1.5466458 1.1715729,1.1715729 1.5466458,0.79650015 1.9792101,0.50746983 2.4692664,0.30448189 2.9593227,0.10149396 3.4695671,0 4,0 Z"
             style="fill:#f0ad4e;fill-opacity:1;fill-rule:nonzero;stroke:none"
             id="path332"
             inkscape:connector-curvature="0" /><path
             d="m 4,0 h 63 c 0.530434,0 1.040672,0.10149394 1.530731,0.30448183 0.490059,0.20298788 0.922623,0.4920182 1.297692,0.86709097 0.375068,0.3750726 0.664093,0.807637 0.867088,1.2976931 C 70.898499,2.9593222 70.999992,3.4695668 71,4 v 13 c -8e-6,0.530432 -0.101501,1.040676 -0.304489,1.530731 -0.202995,0.490055 -0.49202,0.922621 -0.867088,1.297695 -0.375069,0.375071 -0.807633,0.664101 -1.297692,0.867089 C 68.040672,20.898504 67.530434,20.999998 67,21 H 4 C 3.4695668,20.999998 2.9593222,20.898504 2.4692659,20.695515 1.9792098,20.492527 1.5466454,20.203497 1.1715728,19.828426 0.79650003,19.453352 0.50746971,19.020786 0.30448183,18.530731 0.10149394,18.040676 0,17.530432 0,17 V 4 C 0,3.4695671 0.10149396,2.9593227 0.30448189,2.4692664 0.50746983,1.9792101 0.79650015,1.5466458 1.1715729,1.1715729 1.5466458,0.79650015 1.9792101,0.50746983 2.4692664,0.30448189 2.9593227,0.10149396 3.4695671,0 4,0 Z"
             style="fill:none;stroke:#eda135;stroke-width:1;stroke-linecap:butt;stroke-linejoin:miter;stroke-miterlimit:10;stroke-dasharray:none;stroke-opacity:1"
             id="path334"
             inkscape:connector-curvature="0" /></g><g
           id="g336"
           transform="matrix(3.1269929,0,0,3.1260695,1572.0375,1666.3586)"><text
   transform="translate(3.3268044)"
   style="font-variant:normal;font-weight:normal;font-size:17.18000031px;font-family:Arimo;-inkscape-font-specification:Arimo;writing-mode:lr-tb;fill:#ffffff;fill-opacity:1;fill-rule:nonzero;stroke:none"
   id="text340"><tspan
     x="0 11.453506 15.268555 20.039459 29.589645 35.308014 44.8582"
     y="0"
     sodipodi:role="line"
     id="tspan338">Alterar</tspan></text>

</g><g
           id="g342"
           transform="matrix(3.8373787,0,0,3.8362455,1525.9889,1739.2472)"><path
             d="m 4,0 h 63 c 0.530434,0 1.040672,0.10149394 1.530731,0.30448183 0.490059,0.20298788 0.922623,0.4920182 1.297692,0.86709097 0.375068,0.3750726 0.664093,0.807637 0.867088,1.2976931 C 70.898499,2.9593222 70.999992,3.4695668 71,4 v 13 c -8e-6,0.530432 -0.101501,1.040676 -0.304489,1.530731 -0.202995,0.490055 -0.49202,0.922621 -0.867088,1.297695 -0.375069,0.375071 -0.807633,0.664101 -1.297692,0.867089 C 68.040672,20.898504 67.530434,20.999998 67,21 H 4 C 3.4695668,20.999998 2.9593222,20.898504 2.4692659,20.695515 1.9792098,20.492527 1.5466454,20.203497 1.1715728,19.828426 0.79650003,19.453352 0.50746971,19.020786 0.30448183,18.530731 0.10149394,18.040676 0,17.530432 0,17 V 4 C 0,3.4695671 0.10149396,2.9593227 0.30448189,2.4692664 0.50746983,1.9792101 0.79650015,1.5466458 1.1715729,1.1715729 1.5466458,0.79650015 1.9792101,0.50746983 2.4692664,0.30448189 2.9593227,0.10149396 3.4695671,0 4,0 Z"
             style="fill:#f0ad4e;fill-opacity:1;fill-rule:nonzero;stroke:none"
             id="path344"
             inkscape:connector-curvature="0" /><path
             d="m 4,0 h 63 c 0.530434,0 1.040672,0.10149394 1.530731,0.30448183 0.490059,0.20298788 0.922623,0.4920182 1.297692,0.86709097 0.375068,0.3750726 0.664093,0.807637 0.867088,1.2976931 C 70.898499,2.9593222 70.999992,3.4695668 71,4 v 13 c -8e-6,0.530432 -0.101501,1.040676 -0.304489,1.530731 -0.202995,0.490055 -0.49202,0.922621 -0.867088,1.297695 -0.375069,0.375071 -0.807633,0.664101 -1.297692,0.867089 C 68.040672,20.898504 67.530434,20.999998 67,21 H 4 C 3.4695668,20.999998 2.9593222,20.898504 2.4692659,20.695515 1.9792098,20.492527 1.5466454,20.203497 1.1715728,19.828426 0.79650003,19.453352 0.50746971,19.020786 0.30448183,18.530731 0.10149394,18.040676 0,17.530432 0,17 V 4 C 0,3.4695671 0.10149396,2.9593227 0.30448189,2.4692664 0.50746983,1.9792101 0.79650015,1.5466458 1.1715729,1.1715729 1.5466458,0.79650015 1.9792101,0.50746983 2.4692664,0.30448189 2.9593227,0.10149396 3.4695671,0 4,0 Z"
             style="fill:none;stroke:#eda135;stroke-width:1;stroke-linecap:butt;stroke-linejoin:miter;stroke-miterlimit:10;stroke-dasharray:none;stroke-opacity:1"
             id="path346"
             inkscape:connector-curvature="0" /></g><g
           id="g348"
           transform="matrix(3.1269929,0,0,3.1260695,1572.0375,1800.6272)"><text
   transform="translate(3.3268044)"
   style="font-variant:normal;font-weight:normal;font-size:17.18000031px;font-family:Arimo;-inkscape-font-specification:Arimo;writing-mode:lr-tb;fill:#ffffff;fill-opacity:1;fill-rule:nonzero;stroke:none"
   id="text352"><tspan
     x="0 11.453506 15.268555 20.039459 29.589645 35.308014 44.8582"
     y="0"
     sodipodi:role="line"
     id="tspan350">Alterar</tspan></text>

</g><g
           id="g354"
           transform="matrix(3.8373787,0,0,3.8362455,1525.9889,1873.5159)"><path
             d="m 4,0 h 63 c 0.530434,0 1.040672,0.10149394 1.530731,0.30448183 0.490059,0.20298788 0.922623,0.4920182 1.297692,0.86709097 0.375068,0.3750726 0.664093,0.807637 0.867088,1.2976931 C 70.898499,2.9593222 70.999992,3.4695668 71,4 v 13 c -8e-6,0.530432 -0.101501,1.040676 -0.304489,1.530731 -0.202995,0.490055 -0.49202,0.922621 -0.867088,1.297695 -0.375069,0.375071 -0.807633,0.664101 -1.297692,0.867089 C 68.040672,20.898504 67.530434,20.999998 67,21 H 4 C 3.4695668,20.999998 2.9593222,20.898504 2.4692659,20.695515 1.9792098,20.492527 1.5466454,20.203497 1.1715728,19.828426 0.79650003,19.453352 0.50746971,19.020786 0.30448183,18.530731 0.10149394,18.040676 0,17.530432 0,17 V 4 C 0,3.4695671 0.10149396,2.9593227 0.30448189,2.4692664 0.50746983,1.9792101 0.79650015,1.5466458 1.1715729,1.1715729 1.5466458,0.79650015 1.9792101,0.50746983 2.4692664,0.30448189 2.9593227,0.10149396 3.4695671,0 4,0 Z"
             style="fill:#f0ad4e;fill-opacity:1;fill-rule:nonzero;stroke:none"
             id="path356"
             inkscape:connector-curvature="0" /><path
             d="m 4,0 h 63 c 0.530434,0 1.040672,0.10149394 1.530731,0.30448183 0.490059,0.20298788 0.922623,0.4920182 1.297692,0.86709097 0.375068,0.3750726 0.664093,0.807637 0.867088,1.2976931 C 70.898499,2.9593222 70.999992,3.4695668 71,4 v 13 c -8e-6,0.530432 -0.101501,1.040676 -0.304489,1.530731 -0.202995,0.490055 -0.49202,0.922621 -0.867088,1.297695 -0.375069,0.375071 -0.807633,0.664101 -1.297692,0.867089 C 68.040672,20.898504 67.530434,20.999998 67,21 H 4 C 3.4695668,20.999998 2.9593222,20.898504 2.4692659,20.695515 1.9792098,20.492527 1.5466454,20.203497 1.1715728,19.828426 0.79650003,19.453352 0.50746971,19.020786 0.30448183,18.530731 0.10149394,18.040676 0,17.530432 0,17 V 4 C 0,3.4695671 0.10149396,2.9593227 0.30448189,2.4692664 0.50746983,1.9792101 0.79650015,1.5466458 1.1715729,1.1715729 1.5466458,0.79650015 1.9792101,0.50746983 2.4692664,0.30448189 2.9593227,0.10149396 3.4695671,0 4,0 Z"
             style="fill:none;stroke:#eda135;stroke-width:1;stroke-linecap:butt;stroke-linejoin:miter;stroke-miterlimit:10;stroke-dasharray:none;stroke-opacity:1"
             id="path358"
             inkscape:connector-curvature="0" /></g><g
           id="g360"
           transform="matrix(3.1269929,0,0,3.1260695,1572.0375,1934.8958)"><text
   transform="translate(3.3268044)"
   style="font-variant:normal;font-weight:normal;font-size:17.18000031px;font-family:Arimo;-inkscape-font-specification:Arimo;writing-mode:lr-tb;fill:#ffffff;fill-opacity:1;fill-rule:nonzero;stroke:none"
   id="text364"><tspan
     x="0 11.453506 15.268555 20.039459 29.589645 35.308014 44.8582"
     y="0"
     sodipodi:role="line"
     id="tspan362">Alterar</tspan></text>

</g><g
           id="g366"
           transform="matrix(3.8373787,0,0,3.8362455,1218.9987,1604.9786)"><path
             d="m 4,0 h 63 c 0.530434,0 1.040672,0.10149394 1.530731,0.30448183 0.490059,0.20298788 0.922623,0.4920182 1.297692,0.86709097 0.375068,0.3750726 0.664093,0.807637 0.867088,1.2976931 C 70.898499,2.9593222 70.999992,3.4695668 71,4 v 13 c -8e-6,0.530432 -0.101501,1.040676 -0.304489,1.530731 -0.202995,0.490055 -0.49202,0.922621 -0.867088,1.297695 -0.375069,0.375071 -0.807633,0.664101 -1.297692,0.867089 C 68.040672,20.898504 67.530434,20.999998 67,21 H 4 C 3.4695668,20.999998 2.9593222,20.898504 2.4692659,20.695515 1.9792098,20.492527 1.5466454,20.203497 1.1715728,19.828426 0.79650003,19.453352 0.50746971,19.020786 0.30448183,18.530731 0.10149394,18.040676 0,17.530432 0,17 V 4 C 0,3.4695671 0.10149396,2.9593227 0.30448189,2.4692664 0.50746983,1.9792101 0.79650015,1.5466458 1.1715729,1.1715729 1.5466458,0.79650015 1.9792101,0.50746983 2.4692664,0.30448189 2.9593227,0.10149396 3.4695671,0 4,0 Z"
             style="fill:#5bc0de;fill-opacity:1;fill-rule:nonzero;stroke:none"
             id="path368"
             inkscape:connector-curvature="0" /><path
             d="m 4,0 h 63 c 0.530434,0 1.040672,0.10149394 1.530731,0.30448183 0.490059,0.20298788 0.922623,0.4920182 1.297692,0.86709097 0.375068,0.3750726 0.664093,0.807637 0.867088,1.2976931 C 70.898499,2.9593222 70.999992,3.4695668 71,4 v 13 c -8e-6,0.530432 -0.101501,1.040676 -0.304489,1.530731 -0.202995,0.490055 -0.49202,0.922621 -0.867088,1.297695 -0.375069,0.375071 -0.807633,0.664101 -1.297692,0.867089 C 68.040672,20.898504 67.530434,20.999998 67,21 H 4 C 3.4695668,20.999998 2.9593222,20.898504 2.4692659,20.695515 1.9792098,20.492527 1.5466454,20.203497 1.1715728,19.828426 0.79650003,19.453352 0.50746971,19.020786 0.30448183,18.530731 0.10149394,18.040676 0,17.530432 0,17 V 4 C 0,3.4695671 0.10149396,2.9593227 0.30448189,2.4692664 0.50746983,1.9792101 0.79650015,1.5466458 1.1715729,1.1715729 1.5466458,0.79650015 1.9792101,0.50746983 2.4692664,0.30448189 2.9593227,0.10149396 3.4695671,0 4,0 Z"
             style="fill:none;stroke:#45b6d9;stroke-width:1;stroke-linecap:butt;stroke-linejoin:miter;stroke-miterlimit:10;stroke-dasharray:none;stroke-opacity:1"
             id="path370"
             inkscape:connector-curvature="0" /></g><g
           id="g372"
           transform="matrix(3.1269929,0,0,3.1260695,1265.0472,1666.3586)"><text
   transform="translate(-5.0716991)"
   style="font-variant:normal;font-weight:normal;font-size:17.18000031px;font-family:Arimo;-inkscape-font-specification:Arimo;writing-mode:lr-tb;fill:#ffffff;fill-opacity:1;fill-rule:nonzero;stroke:none"
   id="text376"><tspan
     x="0 12.400986 21.951172 26.722076 36.272263 40.087311 49.637497 59.187683"
     y="0"
     sodipodi:role="line"
     id="tspan374">Detalhes</tspan></text>

</g><g
           id="g378"
           transform="matrix(3.8373787,0,0,3.8362455,1218.9987,1739.2472)"><path
             d="m 4,0 h 63 c 0.530434,0 1.040672,0.10149394 1.530731,0.30448183 0.490059,0.20298788 0.922623,0.4920182 1.297692,0.86709097 0.375068,0.3750726 0.664093,0.807637 0.867088,1.2976931 C 70.898499,2.9593222 70.999992,3.4695668 71,4 v 13 c -8e-6,0.530432 -0.101501,1.040676 -0.304489,1.530731 -0.202995,0.490055 -0.49202,0.922621 -0.867088,1.297695 -0.375069,0.375071 -0.807633,0.664101 -1.297692,0.867089 C 68.040672,20.898504 67.530434,20.999998 67,21 H 4 C 3.4695668,20.999998 2.9593222,20.898504 2.4692659,20.695515 1.9792098,20.492527 1.5466454,20.203497 1.1715728,19.828426 0.79650003,19.453352 0.50746971,19.020786 0.30448183,18.530731 0.10149394,18.040676 0,17.530432 0,17 V 4 C 0,3.4695671 0.10149396,2.9593227 0.30448189,2.4692664 0.50746983,1.9792101 0.79650015,1.5466458 1.1715729,1.1715729 1.5466458,0.79650015 1.9792101,0.50746983 2.4692664,0.30448189 2.9593227,0.10149396 3.4695671,0 4,0 Z"
             style="fill:#5bc0de;fill-opacity:1;fill-rule:nonzero;stroke:none"
             id="path380"
             inkscape:connector-curvature="0" /><path
             d="m 4,0 h 63 c 0.530434,0 1.040672,0.10149394 1.530731,0.30448183 0.490059,0.20298788 0.922623,0.4920182 1.297692,0.86709097 0.375068,0.3750726 0.664093,0.807637 0.867088,1.2976931 C 70.898499,2.9593222 70.999992,3.4695668 71,4 v 13 c -8e-6,0.530432 -0.101501,1.040676 -0.304489,1.530731 -0.202995,0.490055 -0.49202,0.922621 -0.867088,1.297695 -0.375069,0.375071 -0.807633,0.664101 -1.297692,0.867089 C 68.040672,20.898504 67.530434,20.999998 67,21 H 4 C 3.4695668,20.999998 2.9593222,20.898504 2.4692659,20.695515 1.9792098,20.492527 1.5466454,20.203497 1.1715728,19.828426 0.79650003,19.453352 0.50746971,19.020786 0.30448183,18.530731 0.10149394,18.040676 0,17.530432 0,17 V 4 C 0,3.4695671 0.10149396,2.9593227 0.30448189,2.4692664 0.50746983,1.9792101 0.79650015,1.5466458 1.1715729,1.1715729 1.5466458,0.79650015 1.9792101,0.50746983 2.4692664,0.30448189 2.9593227,0.10149396 3.4695671,0 4,0 Z"
             style="fill:none;stroke:#45b6d9;stroke-width:1;stroke-linecap:butt;stroke-linejoin:miter;stroke-miterlimit:10;stroke-dasharray:none;stroke-opacity:1"
             id="path382"
             inkscape:connector-curvature="0" /></g><g
           id="g384"
           transform="matrix(3.1269929,0,0,3.1260695,1265.0472,1800.6272)"><text
   transform="translate(-5.0716991)"
   style="font-variant:normal;font-weight:normal;font-size:17.18000031px;font-family:Arimo;-inkscape-font-specification:Arimo;writing-mode:lr-tb;fill:#ffffff;fill-opacity:1;fill-rule:nonzero;stroke:none"
   id="text388"><tspan
     x="0 12.400986 21.951172 26.722076 36.272263 40.087311 49.637497 59.187683"
     y="0"
     sodipodi:role="line"
     id="tspan386">Detalhes</tspan></text>

</g><g
           id="g390"
           transform="matrix(3.8373787,0,0,3.8362455,1218.9987,1873.5159)"><path
             d="m 4,0 h 63 c 0.530434,0 1.040672,0.10149394 1.530731,0.30448183 0.490059,0.20298788 0.922623,0.4920182 1.297692,0.86709097 0.375068,0.3750726 0.664093,0.807637 0.867088,1.2976931 C 70.898499,2.9593222 70.999992,3.4695668 71,4 v 13 c -8e-6,0.530432 -0.101501,1.040676 -0.304489,1.530731 -0.202995,0.490055 -0.49202,0.922621 -0.867088,1.297695 -0.375069,0.375071 -0.807633,0.664101 -1.297692,0.867089 C 68.040672,20.898504 67.530434,20.999998 67,21 H 4 C 3.4695668,20.999998 2.9593222,20.898504 2.4692659,20.695515 1.9792098,20.492527 1.5466454,20.203497 1.1715728,19.828426 0.79650003,19.453352 0.50746971,19.020786 0.30448183,18.530731 0.10149394,18.040676 0,17.530432 0,17 V 4 C 0,3.4695671 0.10149396,2.9593227 0.30448189,2.4692664 0.50746983,1.9792101 0.79650015,1.5466458 1.1715729,1.1715729 1.5466458,0.79650015 1.9792101,0.50746983 2.4692664,0.30448189 2.9593227,0.10149396 3.4695671,0 4,0 Z"
             style="fill:#5bc0de;fill-opacity:1;fill-rule:nonzero;stroke:none"
             id="path392"
             inkscape:connector-curvature="0" /><path
             d="m 4,0 h 63 c 0.530434,0 1.040672,0.10149394 1.530731,0.30448183 0.490059,0.20298788 0.922623,0.4920182 1.297692,0.86709097 0.375068,0.3750726 0.664093,0.807637 0.867088,1.2976931 C 70.898499,2.9593222 70.999992,3.4695668 71,4 v 13 c -8e-6,0.530432 -0.101501,1.040676 -0.304489,1.530731 -0.202995,0.490055 -0.49202,0.922621 -0.867088,1.297695 -0.375069,0.375071 -0.807633,0.664101 -1.297692,0.867089 C 68.040672,20.898504 67.530434,20.999998 67,21 H 4 C 3.4695668,20.999998 2.9593222,20.898504 2.4692659,20.695515 1.9792098,20.492527 1.5466454,20.203497 1.1715728,19.828426 0.79650003,19.453352 0.50746971,19.020786 0.30448183,18.530731 0.10149394,18.040676 0,17.530432 0,17 V 4 C 0,3.4695671 0.10149396,2.9593227 0.30448189,2.4692664 0.50746983,1.9792101 0.79650015,1.5466458 1.1715729,1.1715729 1.5466458,0.79650015 1.9792101,0.50746983 2.4692664,0.30448189 2.9593227,0.10149396 3.4695671,0 4,0 Z"
             style="fill:none;stroke:#45b6d9;stroke-width:1;stroke-linecap:butt;stroke-linejoin:miter;stroke-miterlimit:10;stroke-dasharray:none;stroke-opacity:1"
             id="path394"
             inkscape:connector-curvature="0" /></g><g
           id="g396"
           transform="matrix(3.1269929,0,0,3.1260695,1265.0472,1934.8958)"><text
   transform="translate(-5.0716991)"
   style="font-variant:normal;font-weight:normal;font-size:17.18000031px;font-family:Arimo;-inkscape-font-specification:Arimo;writing-mode:lr-tb;fill:#ffffff;fill-opacity:1;fill-rule:nonzero;stroke:none"
   id="text400"><tspan
     x="0 12.400986 21.951172 26.722076 36.272263 40.087311 49.637497 59.187683"
     y="0"
     sodipodi:role="line"
     id="tspan398">Detalhes</tspan></text>

</g><g
           id="g402"
           transform="matrix(3.8373787,0,0,3.8362455,1951.9379,1171.4829)"><path
             d="m 4,0 h 63 c 0.530434,0 1.040672,0.10149394 1.530731,0.30448183 0.490059,0.20298788 0.922623,0.4920182 1.297692,0.86709097 0.375068,0.3750726 0.664093,0.807637 0.867088,1.2976931 C 70.898499,2.9593222 70.999992,3.4695668 71,4 v 26 c -8e-6,0.530432 -0.101501,1.040674 -0.304489,1.530729 -0.202995,0.490057 -0.49202,0.922625 -0.867088,1.297697 -0.375069,0.375069 -0.807633,0.664097 -1.297692,0.867085 C 68.040672,33.898502 67.530434,33.999996 67,34 H 4 C 3.4695668,33.999996 2.9593222,33.898502 2.4692659,33.695515 1.9792098,33.492523 1.5466454,33.203495 1.1715728,32.828426 0.79650003,32.453354 0.50746971,32.020786 0.30448183,31.530729 0.10149394,31.040674 0,30.530432 0,30 V 4 C 0,3.4695671 0.10149396,2.9593227 0.30448189,2.4692664 0.50746983,1.9792101 0.79650015,1.5466458 1.1715729,1.1715729 1.5466458,0.79650015 1.9792101,0.50746983 2.4692664,0.30448189 2.9593227,0.10149396 3.4695671,0 4,0 Z"
             style="fill:#ffffff;fill-opacity:1;fill-rule:nonzero;stroke:none"
             id="path404"
             inkscape:connector-curvature="0" /><path
             d="m 4,0 h 63 c 0.530434,0 1.040672,0.10149394 1.530731,0.30448183 0.490059,0.20298788 0.922623,0.4920182 1.297692,0.86709097 0.375068,0.3750726 0.664093,0.807637 0.867088,1.2976931 C 70.898499,2.9593222 70.999992,3.4695668 71,4 v 26 c -8e-6,0.530432 -0.101501,1.040674 -0.304489,1.530729 -0.202995,0.490057 -0.49202,0.922625 -0.867088,1.297697 -0.375069,0.375069 -0.807633,0.664097 -1.297692,0.867085 C 68.040672,33.898502 67.530434,33.999996 67,34 H 4 C 3.4695668,33.999996 2.9593222,33.898502 2.4692659,33.695515 1.9792098,33.492523 1.5466454,33.203495 1.1715728,32.828426 0.79650003,32.453354 0.50746971,32.020786 0.30448183,31.530729 0.10149394,31.040674 0,30.530432 0,30 V 4 C 0,3.4695671 0.10149396,2.9593227 0.30448189,2.4692664 0.50746983,1.9792101 0.79650015,1.5466458 1.1715729,1.1715729 1.5466458,0.79650015 1.9792101,0.50746983 2.4692664,0.30448189 2.9593227,0.10149396 3.4695671,0 4,0 Z"
             style="fill:none;stroke:#f2f2f2;stroke-width:1;stroke-linecap:butt;stroke-linejoin:miter;stroke-miterlimit:10;stroke-dasharray:none;stroke-opacity:1"
             id="path406"
             inkscape:connector-curvature="0" /></g><g
           id="g408"
           transform="matrix(3.1269929,0,0,3.1260695,1997.9865,1255.8803)"><text
   transform="translate(-5.7523994)"
   style="font-variant:normal;font-weight:normal;font-size:17.18000031px;font-family:Arimo;-inkscape-font-specification:Arimo;writing-mode:lr-tb;fill:#333333;fill-opacity:1;fill-rule:nonzero;stroke:none"
   id="text412"><tspan
     x="0 12.400986 21.951172 31.501358 40.087296 49.637482 53.45253 63.002716"
     y="0"
     sodipodi:role="line"
     id="tspan410">Cancelar</tspan></text>

</g><g
           id="g414"
           transform="matrix(3.8373787,0,0,3.8362455,1525.9889,2061.4919)"><path
             d="m 16,0 h 48 c 1.050575,0 2.091049,0.10247849 3.121437,0.30743548 1.030388,0.20495698 2.030884,0.50845424 3.001495,0.91049182 0.970604,0.4020377 1.89267,0.8948905 2.766182,1.4785587 0.873528,0.5836682 1.681725,1.2469363 2.424591,1.9898052 0.742867,0.7428684 1.406128,1.5510631 1.9898,2.4245839 0.583664,0.8735214 1.076515,1.7955838 1.478554,2.7661887 0.402038,0.9706052 0.705536,1.9711012 0.910499,3.0014902 C 79.897514,13.908942 79.999992,14.949424 80,16 c -8e-6,1.050575 -0.102486,2.091057 -0.307442,3.121445 -0.204963,1.030388 -0.508461,2.030883 -0.910499,3.001489 -0.402039,0.970604 -0.89489,1.892666 -1.478554,2.766188 -0.583672,0.873522 -1.246933,1.681717 -1.9898,2.424585 -0.742866,0.742869 -1.551063,1.406136 -2.424583,1.989804 -0.87352,0.583667 -1.795586,1.076521 -2.76619,1.478557 -0.970611,0.402037 -1.971107,0.705536 -3.001495,0.910494 C 66.091049,31.897518 65.050575,31.999998 64,32 H 16 c -1.050576,-2e-6 -2.091058,-0.102482 -3.121447,-0.30744 C 11.848165,31.487602 10.847669,31.184105 9.8770638,30.782068 8.9064589,30.380032 7.9843965,29.887178 7.1108751,29.303511 6.2373543,28.719843 5.4291596,28.056576 4.6862912,27.313707 3.9434223,26.570839 3.280154,25.762644 2.6964858,24.889122 2.1128178,24.0156 1.619965,23.093538 1.2179273,22.122934 0.81588972,21.152328 0.51239246,20.151833 0.30743548,19.121445 0.10247849,18.091057 0,17.050575 0,16 0,14.949424 0.10247849,13.908942 0.30743548,12.878553 0.51239246,11.848165 0.81588972,10.847669 1.2179273,9.8770638 1.619965,8.9064589 2.1128178,7.9843965 2.696486,7.1108751 3.2801542,6.2373543 3.9434223,5.4291596 4.6862912,4.6862912 5.4291596,3.9434223 6.2373543,3.280154 7.1108751,2.6964858 7.9843965,2.1128178 8.9064589,1.619965 9.8770638,1.2179273 10.847669,0.81588972 11.848165,0.51239246 12.878554,0.30743548 13.908942,0.10247849 14.949424,0 16,0 Z"
             style="fill:#ffffff;fill-opacity:1;fill-rule:nonzero;stroke:none"
             id="path416"
             inkscape:connector-curvature="0" /><path
             d="m 16,0 h 48 c 1.050575,0 2.091049,0.10247849 3.121437,0.30743548 1.030388,0.20495698 2.030884,0.50845424 3.001495,0.91049182 0.970604,0.4020377 1.89267,0.8948905 2.766182,1.4785587 0.873528,0.5836682 1.681725,1.2469363 2.424591,1.9898052 0.742867,0.7428684 1.406128,1.5510631 1.9898,2.4245839 0.583664,0.8735214 1.076515,1.7955838 1.478554,2.7661887 0.402038,0.9706052 0.705536,1.9711012 0.910499,3.0014902 C 79.897514,13.908942 79.999992,14.949424 80,16 c -8e-6,1.050575 -0.102486,2.091057 -0.307442,3.121445 -0.204963,1.030388 -0.508461,2.030883 -0.910499,3.001489 -0.402039,0.970604 -0.89489,1.892666 -1.478554,2.766188 -0.583672,0.873522 -1.246933,1.681717 -1.9898,2.424585 -0.742866,0.742869 -1.551063,1.406136 -2.424583,1.989804 -0.87352,0.583667 -1.795586,1.076521 -2.76619,1.478557 -0.970611,0.402037 -1.971107,0.705536 -3.001495,0.910494 C 66.091049,31.897518 65.050575,31.999998 64,32 H 16 c -1.050576,-2e-6 -2.091058,-0.102482 -3.121447,-0.30744 C 11.848165,31.487602 10.847669,31.184105 9.8770638,30.782068 8.9064589,30.380032 7.9843965,29.887178 7.1108751,29.303511 6.2373543,28.719843 5.4291596,28.056576 4.6862912,27.313707 3.9434223,26.570839 3.280154,25.762644 2.6964858,24.889122 2.1128178,24.0156 1.619965,23.093538 1.2179273,22.122934 0.81588972,21.152328 0.51239246,20.151833 0.30743548,19.121445 0.10247849,18.091057 0,17.050575 0,16 0,14.949424 0.10247849,13.908942 0.30743548,12.878553 0.51239246,11.848165 0.81588972,10.847669 1.2179273,9.8770638 1.619965,8.9064589 2.1128178,7.9843965 2.696486,7.1108751 3.2801542,6.2373543 3.9434223,5.4291596 4.6862912,4.6862912 5.4291596,3.9434223 6.2373543,3.280154 7.1108751,2.6964858 7.9843965,2.1128178 8.9064589,1.619965 9.8770638,1.2179273 10.847669,0.81588972 11.848165,0.51239246 12.878554,0.30743548 13.908942,0.10247849 14.949424,0 16,0 Z"
             style="fill:none;stroke:#dddddd;stroke-width:1;stroke-linecap:butt;stroke-linejoin:miter;stroke-miterlimit:10;stroke-dasharray:none;stroke-opacity:1"
             id="path418"
             inkscape:connector-curvature="0" /></g><g
           id="g420"
           transform="matrix(3.1269929,0,0,3.1260695,1579.7123,2142.0532)"><text
   transform="translate(8.4368525)"
   style="font-variant:normal;font-weight:normal;font-size:17.18000031px;font-family:Arimo;-inkscape-font-specification:Arimo;writing-mode:lr-tb;fill:#337ab7;fill-opacity:1;fill-rule:nonzero;stroke:none"
   id="text424"><tspan
     x="0 17.171875 21.94278 33.396286 42.946472"
     y="0"
     sodipodi:role="line"
     id="tspan422">← Ant</tspan></text>

</g><g
           id="g426"
           transform="matrix(3.8373787,0,0,3.8362455,1917.4015,2061.4919)"><path
             d="m 16,0 h 48 c 1.050575,0 2.091049,0.10247849 3.121437,0.30743548 1.030388,0.20495698 2.030884,0.50845424 3.001495,0.91049182 0.970604,0.4020377 1.89267,0.8948905 2.766182,1.4785587 0.873528,0.5836682 1.681725,1.2469363 2.424591,1.9898052 0.742867,0.7428684 1.406128,1.5510631 1.9898,2.4245839 0.583664,0.8735214 1.076515,1.7955838 1.478554,2.7661887 0.402038,0.9706052 0.705536,1.9711012 0.910499,3.0014902 C 79.897514,13.908942 79.999992,14.949424 80,16 c -8e-6,1.050575 -0.102486,2.091057 -0.307442,3.121445 -0.204963,1.030388 -0.508461,2.030883 -0.910499,3.001489 -0.402039,0.970604 -0.89489,1.892666 -1.478554,2.766188 -0.583672,0.873522 -1.246933,1.681717 -1.9898,2.424585 -0.742866,0.742869 -1.551063,1.406136 -2.424583,1.989804 -0.87352,0.583667 -1.795586,1.076521 -2.76619,1.478557 -0.970611,0.402037 -1.971107,0.705536 -3.001495,0.910494 C 66.091049,31.897518 65.050575,31.999998 64,32 H 16 c -1.050576,-2e-6 -2.091058,-0.102482 -3.121447,-0.30744 C 11.848165,31.487602 10.847669,31.184105 9.8770638,30.782068 8.9064589,30.380032 7.9843965,29.887178 7.1108751,29.303511 6.2373543,28.719843 5.4291596,28.056576 4.6862912,27.313707 3.9434223,26.570839 3.280154,25.762644 2.6964858,24.889122 2.1128178,24.0156 1.619965,23.093538 1.2179273,22.122934 0.81588972,21.152328 0.51239246,20.151833 0.30743548,19.121445 0.10247849,18.091057 0,17.050575 0,16 0,14.949424 0.10247849,13.908942 0.30743548,12.878553 0.51239246,11.848165 0.81588972,10.847669 1.2179273,9.8770638 1.619965,8.9064589 2.1128178,7.9843965 2.696486,7.1108751 3.2801542,6.2373543 3.9434223,5.4291596 4.6862912,4.6862912 5.4291596,3.9434223 6.2373543,3.280154 7.1108751,2.6964858 7.9843965,2.1128178 8.9064589,1.619965 9.8770638,1.2179273 10.847669,0.81588972 11.848165,0.51239246 12.878554,0.30743548 13.908942,0.10247849 14.949424,0 16,0 Z"
             style="fill:#ffffff;fill-opacity:1;fill-rule:nonzero;stroke:none"
             id="path428"
             inkscape:connector-curvature="0" /><path
             d="m 16,0 h 48 c 1.050575,0 2.091049,0.10247849 3.121437,0.30743548 1.030388,0.20495698 2.030884,0.50845424 3.001495,0.91049182 0.970604,0.4020377 1.89267,0.8948905 2.766182,1.4785587 0.873528,0.5836682 1.681725,1.2469363 2.424591,1.9898052 0.742867,0.7428684 1.406128,1.5510631 1.9898,2.4245839 0.583664,0.8735214 1.076515,1.7955838 1.478554,2.7661887 0.402038,0.9706052 0.705536,1.9711012 0.910499,3.0014902 C 79.897514,13.908942 79.999992,14.949424 80,16 c -8e-6,1.050575 -0.102486,2.091057 -0.307442,3.121445 -0.204963,1.030388 -0.508461,2.030883 -0.910499,3.001489 -0.402039,0.970604 -0.89489,1.892666 -1.478554,2.766188 -0.583672,0.873522 -1.246933,1.681717 -1.9898,2.424585 -0.742866,0.742869 -1.551063,1.406136 -2.424583,1.989804 -0.87352,0.583667 -1.795586,1.076521 -2.76619,1.478557 -0.970611,0.402037 -1.971107,0.705536 -3.001495,0.910494 C 66.091049,31.897518 65.050575,31.999998 64,32 H 16 c -1.050576,-2e-6 -2.091058,-0.102482 -3.121447,-0.30744 C 11.848165,31.487602 10.847669,31.184105 9.8770638,30.782068 8.9064589,30.380032 7.9843965,29.887178 7.1108751,29.303511 6.2373543,28.719843 5.4291596,28.056576 4.6862912,27.313707 3.9434223,26.570839 3.280154,25.762644 2.6964858,24.889122 2.1128178,24.0156 1.619965,23.093538 1.2179273,22.122934 0.81588972,21.152328 0.51239246,20.151833 0.30743548,19.121445 0.10247849,18.091057 0,17.050575 0,16 0,14.949424 0.10247849,13.908942 0.30743548,12.878553 0.51239246,11.848165 0.81588972,10.847669 1.2179273,9.8770638 1.619965,8.9064589 2.1128178,7.9843965 2.696486,7.1108751 3.2801542,6.2373543 3.9434223,5.4291596 4.6862912,4.6862912 5.4291596,3.9434223 6.2373543,3.280154 7.1108751,2.6964858 7.9843965,2.1128178 8.9064589,1.619965 9.8770638,1.2179273 10.847669,0.81588972 11.848165,0.51239246 12.878554,0.30743548 13.908942,0.10247849 14.949424,0 16,0 Z"
             style="fill:none;stroke:#dddddd;stroke-width:1;stroke-linecap:butt;stroke-linejoin:miter;stroke-miterlimit:10;stroke-dasharray:none;stroke-opacity:1"
             id="path430"
             inkscape:connector-curvature="0" /></g><g
           id="g432"
           transform="matrix(3.1269929,0,0,3.1260695,1971.1249,2142.0532)"><text
   transform="translate(3.2596931)"
   style="font-variant:normal;font-weight:normal;font-size:17.18000031px;font-family:Arimo;-inkscape-font-specification:Arimo;writing-mode:lr-tb;fill:#337ab7;fill-opacity:1;fill-rule:nonzero;stroke:none"
   id="text436"><tspan
     x="0 11.453506 17.171875 26.722061 35.307999 40.078903"
     y="0"
     sodipodi:role="line"
     id="tspan434">Próx →</tspan></text>

</g></g></g></g></svg>