<?xml version="1.0" encoding="UTF-8" standalone="no"?>
<!-- Created with Inkscape (http://www.inkscape.org/) -->

<svg
   xmlns:dc="http://purl.org/dc/elements/1.1/"
   xmlns:cc="http://creativecommons.org/ns#"
   xmlns:rdf="http://www.w3.org/1999/02/22-rdf-syntax-ns#"
   xmlns:svg="http://www.w3.org/2000/svg"
   xmlns="http://www.w3.org/2000/svg"
   xmlns:sodipodi="http://sodipodi.sourceforge.net/DTD/sodipodi-0.dtd"
   xmlns:inkscape="http://www.inkscape.org/namespaces/inkscape"
   version="1.1"
   id="svg2"
   xml:space="preserve"
   width="794.56"
   height="1121.2799"
   viewBox="0 0 794.56 1121.2799"
   sodipodi:docname="mockups-03.svg"
   inkscape:version="0.92.5 (2060ec1f9f, 2020-04-08)"><metadata
     id="metadata8"><rdf:RDF><cc:Work
         rdf:about=""><dc:format>image/svg+xml</dc:format><dc:type
           rdf:resource="http://purl.org/dc/dcmitype/StillImage" /><dc:title></dc:title></cc:Work></rdf:RDF></metadata><defs
     id="defs6"><clipPath
       clipPathUnits="userSpaceOnUse"
       id="clipPath18"><path
         d="M 129.16666,79.166664 H 2351.0417 V 3304.1667 H 129.16666 Z"
         id="path16"
         inkscape:connector-curvature="0"
         style="clip-rule:evenodd" /></clipPath><clipPath
       clipPathUnits="userSpaceOnUse"
       id="clipPath34"><path
         d="M 129.16666,79.166664 H 2354.1665 V 3504.1665 H 129.16666 Z"
         id="path32"
         inkscape:connector-curvature="0"
         style="clip-rule:evenodd" /></clipPath><clipPath
       clipPathUnits="userSpaceOnUse"
       id="clipPath48"><path
         d="M 129.16666,151.04166 H 2347.9167 V 1751.0417 H 129.16666 Z"
         id="path46"
         inkscape:connector-curvature="0"
         style="clip-rule:evenodd" /></clipPath><clipPath
       clipPathUnits="userSpaceOnUse"
       id="clipPath72"><path
         d="M 210.81174,339.06827 H 377.62812 V 424.2124 H 210.81174 Z"
         id="path70"
         inkscape:connector-curvature="0"
         style="clip-rule:evenodd" /></clipPath><clipPath
       clipPathUnits="userSpaceOnUse"
       id="clipPath86"><path
         d="M 129.16666,151.04166 H 2347.9167 V 1751.0417 H 129.16666 Z"
         id="path84"
         inkscape:connector-curvature="0"
         style="clip-rule:evenodd" /></clipPath><linearGradient
       x1="0"
       y1="0"
       x2="0"
       y2="1"
       gradientUnits="userSpaceOnUse"
       gradientTransform="matrix(137.28,0,0,-8.1599997,-45.140627,75.132762)"
       spreadMethod="pad"
       id="linearGradient96"><stop
         style="stop-opacity:1;stop-color:#f2f2f2"
         offset="0"
         id="stop90" /><stop
         style="stop-opacity:1;stop-color:#ffffff"
         offset="0.10000001"
         id="stop92" /><stop
         style="stop-opacity:1;stop-color:#ffffff"
         offset="1"
         id="stop94" /></linearGradient><clipPath
       clipPathUnits="userSpaceOnUse"
       id="clipPath114"><path
         d="m 210.81174,1151.4851 h 173.91495 v 85.1442 H 210.81174 Z"
         id="path112"
         inkscape:connector-curvature="0"
         style="clip-rule:evenodd" /></clipPath><clipPath
       clipPathUnits="userSpaceOnUse"
       id="clipPath128"><path
         d="M 129.16666,151.04166 H 2347.9167 V 1751.0417 H 129.16666 Z"
         id="path126"
         inkscape:connector-curvature="0"
         style="clip-rule:evenodd" /></clipPath><linearGradient
       x1="0"
       y1="0"
       x2="0"
       y2="1"
       gradientUnits="userSpaceOnUse"
       gradientTransform="matrix(41.28,0,0,-8.1599997,-45.140627,-198.90724)"
       spreadMethod="pad"
       id="linearGradient138"><stop
         style="stop-opacity:1;stop-color:#f2f2f2"
         offset="0"
         id="stop132" /><stop
         style="stop-opacity:1;stop-color:#ffffff"
         offset="0.10000001"
         id="stop134" /><stop
         style="stop-opacity:1;stop-color:#ffffff"
         offset="1"
         id="stop136" /></linearGradient><linearGradient
       x1="0"
       y1="0"
       x2="0"
       y2="1"
       gradientUnits="userSpaceOnUse"
       gradientTransform="matrix(41.28,0,0,-8.1599997,3.0993712,-198.90724)"
       spreadMethod="pad"
       id="linearGradient158"><stop
         style="stop-opacity:1;stop-color:#f2f2f2"
         offset="0"
         id="stop152" /><stop
         style="stop-opacity:1;stop-color:#ffffff"
         offset="0.10000001"
         id="stop154" /><stop
         style="stop-opacity:1;stop-color:#ffffff"
         offset="1"
         id="stop156" /></linearGradient><clipPath
       clipPathUnits="userSpaceOnUse"
       id="clipPath176"><path
         d="M 920.66858,1151.4851 H 1325.287 v 85.1442 H 920.66858 Z"
         id="path174"
         inkscape:connector-curvature="0"
         style="clip-rule:evenodd" /></clipPath><clipPath
       clipPathUnits="userSpaceOnUse"
       id="clipPath190"><path
         d="M 129.16666,151.04166 H 2347.9167 V 1751.0417 H 129.16666 Z"
         id="path188"
         inkscape:connector-curvature="0"
         style="clip-rule:evenodd" /></clipPath><linearGradient
       x1="0"
       y1="0"
       x2="0"
       y2="1"
       gradientUnits="userSpaceOnUse"
       gradientTransform="matrix(137.28,0,0,-24.239999,-45.140627,-11.667257)"
       spreadMethod="pad"
       id="linearGradient200"><stop
         style="stop-opacity:1;stop-color:#f2f2f2"
         offset="0"
         id="stop194" /><stop
         style="stop-opacity:1;stop-color:#ffffff"
         offset="0.03366337"
         id="stop196" /><stop
         style="stop-opacity:1;stop-color:#ffffff"
         offset="1"
         id="stop198" /></linearGradient><clipPath
       clipPathUnits="userSpaceOnUse"
       id="clipPath218"><path
         d="m 210.81174,605.14368 h 287.49203 v 85.1441 H 210.81174 Z"
         id="path216"
         inkscape:connector-curvature="0"
         style="clip-rule:evenodd" /></clipPath><clipPath
       clipPathUnits="userSpaceOnUse"
       id="clipPath232"><path
         d="M 129.16666,151.04166 H 2347.9167 V 1751.0417 H 129.16666 Z"
         id="path230"
         inkscape:connector-curvature="0"
         style="clip-rule:evenodd" /></clipPath><clipPath
       clipPathUnits="userSpaceOnUse"
       id="clipPath276"><path
         d="m 1626.9762,1151.4851 h 386.872 v 85.1442 h -386.872 z"
         id="path274"
         inkscape:connector-curvature="0"
         style="clip-rule:evenodd" /></clipPath><clipPath
       clipPathUnits="userSpaceOnUse"
       id="clipPath290"><path
         d="M 129.16666,151.04166 H 2347.9167 V 1751.0417 H 129.16666 Z"
         id="path288"
         inkscape:connector-curvature="0"
         style="clip-rule:evenodd" /></clipPath><linearGradient
       x1="0"
       y1="0"
       x2="0"
       y2="1"
       gradientUnits="userSpaceOnUse"
       gradientTransform="matrix(41.28,0,0,-8.1599997,-348.38062,-197.66726)"
       spreadMethod="pad"
       id="linearGradient300"><stop
         style="stop-opacity:1;stop-color:#f2f2f2"
         offset="0"
         id="stop294" /><stop
         style="stop-opacity:1;stop-color:#ffffff"
         offset="0.10000001"
         id="stop296" /><stop
         style="stop-opacity:1;stop-color:#ffffff"
         offset="1"
         id="stop298" /></linearGradient></defs><sodipodi:namedview
     pagecolor="#ffffff"
     bordercolor="#666666"
     borderopacity="1"
     objecttolerance="10"
     gridtolerance="10"
     guidetolerance="10"
     inkscape:pageopacity="0"
     inkscape:pageshadow="2"
     inkscape:window-width="1366"
     inkscape:window-height="707"
     id="namedview4"
     showgrid="false"
     inkscape:zoom="0.84189505"
     inkscape:cx="316.78463"
     inkscape:cy="845.69003"
     inkscape:window-x="0"
     inkscape:window-y="30"
     inkscape:window-maximized="1"
     inkscape:current-layer="g10" /><g
     id="g10"
     inkscape:groupmode="layer"
     inkscape:label="mockups-03"
     transform="matrix(0.31999998,0,0,0.31999998,0,-1.8634668e-5)"><g
       id="g28"><g
         id="g30"
         clip-path="url(#clipPath34)"><g
           id="g36"
           transform="matrix(3.125,0,0,3.125,129.16666,79.166664)"><text
             transform="translate(0,1045)"
             style="font-variant:normal;font-weight:normal;font-size:7.55000019px;font-family:'Liberation Sans';-inkscape-font-specification:LiberationSans;writing-mode:lr-tb;fill:#000000;fill-opacity:1;fill-rule:nonzero;stroke:none"
             id="text40"><tspan
               x="0 5.0337067 8.8071442 13.004364 17.201584 19.714752 21.811523 26.008743 30.205963 32.302734 34.399506 36.912674 41.109894 47.3965 49.493271 54.526978 58.724197 62.921417 66.694855 68.371536 70.048218 72.144989 74.658157 76.754929 81.788635 85.985855 90.183075 92.279846 98.566452 102.76367 106.53711 108.63388 112.8311 117.02832 119.12509 123.32231 127.51953 131.71675 135.91397 138.01074 142.20796 146.40518 148.50195 152.69917 156.89639 158.99316 163.19038 167.3876 169.48438 175.35458 181.64119 185.83455 188.34772 192.54494 196.74216 200.93938 205.1366 207.23337 209.74654 214.78024 217.29341 221.49063 225.26407 226.94075 228.61743 230.29411 234.49133 236.5881 241.62181 243.71858 247.9158 252.11302 256.31024 260.50745 263.02063 267.21783 269.31461 273.64435 275.32104 281.60767 285.80487 288.31805 290.41483 292.92798 295.02475 300.05847 304.25568 308.45288 312.65009 314.74686 318.94409 321.04086 325.2381 327.33487 329.43164"
               y="0"
               sodipodi:role="line"
               id="tspan38">Exported from Pencil - Sun May 01 2022 11:38:38 GMT-0300 (Brasilia Standard Time) - Page 1 of 1</tspan></text>
</g></g></g><g
       id="g42"><g
         id="g44"
         clip-path="url(#clipPath48)"><g
           id="g50"
           transform="matrix(3.5492845,0,0,3.5476718,129.17819,151.04166)"><path
             d="m 4,0 h 618 c 0.5304,0 1.04059,0.10149394 1.53064,0.30448183 0.49005,0.20298788 0.92267,0.4920182 1.29773,0.86709097 0.37506,0.3750726 0.66412,0.807637 0.86706,1.2976931 C 625.8985,2.9593222 626,3.4695668 626,4 V 39 H 0 V 4 C 0,3.4695671 0.10149396,2.9593227 0.30448189,2.4692664 0.50746983,1.9792101 0.79650015,1.5466458 1.1715729,1.1715729 1.5466458,0.79650015 1.9792101,0.50746983 2.4692664,0.30448189 2.9593227,0.10149396 3.4695671,0 4,0 Z"
             style="fill:#337ab7;fill-opacity:1;fill-rule:nonzero;stroke:none"
             id="path52"
             inkscape:connector-curvature="0" /><path
             d="m 4,0 h 618 c 0.5304,0 1.04059,0.10149394 1.53064,0.30448183 0.49005,0.20298788 0.92267,0.4920182 1.29773,0.86709097 0.37506,0.3750726 0.66412,0.807637 0.86706,1.2976931 C 625.8985,2.9593222 626,3.4695668 626,4 V 39 H 0 V 4 C 0,3.4695671 0.10149396,2.9593227 0.30448189,2.4692664 0.50746983,1.9792101 0.79650015,1.5466458 1.1715729,1.1715729 1.5466458,0.79650015 1.9792101,0.50746983 2.4692664,0.30448189 2.9593227,0.10149396 3.4695671,0 4,0 Z"
             style="fill:none;stroke:#337ab7;stroke-width:1;stroke-linecap:butt;stroke-linejoin:miter;stroke-miterlimit:10;stroke-dasharray:none;stroke-opacity:1"
             id="path54"
             inkscape:connector-curvature="0" /><path
             d="m 0,39 h 626 v 408 c 0,0.53043 -0.1015,1.04065 -0.30457,1.53067 -0.20294,0.49005 -0.492,0.92264 -0.86706,1.29773 -0.37506,0.37503 -0.80768,0.66406 -1.29773,0.86707 -0.49005,0.203 -1.00024,0.3045 -1.53064,0.30453 H 4 c -0.5304332,-3e-5 -1.0406778,-0.10153 -1.5307341,-0.30453 C 1.9792098,450.49246 1.5466454,450.20343 1.1715728,449.8284 0.79650003,449.45331 0.50746971,449.02072 0.30448183,448.53067 0.10149394,448.04065 0,447.53043 0,447 Z"
             style="fill:#f8f8f8;fill-opacity:1;fill-rule:nonzero;stroke:none"
             id="path56"
             inkscape:connector-curvature="0" /><path
             d="m 0,39 h 626 v 408 c 0,0.53043 -0.1015,1.04065 -0.30457,1.53067 -0.20294,0.49005 -0.492,0.92264 -0.86706,1.29773 -0.37506,0.37503 -0.80768,0.66406 -1.29773,0.86707 -0.49005,0.203 -1.00024,0.3045 -1.53064,0.30453 H 4 c -0.5304332,-3e-5 -1.0406778,-0.10153 -1.5307341,-0.30453 C 1.9792098,450.49246 1.5466454,450.20343 1.1715728,449.8284 0.79650003,449.45331 0.50746971,449.02072 0.30448183,448.53067 0.10149394,448.04065 0,447.53043 0,447 Z"
             style="fill:none;stroke:#337ab7;stroke-width:1;stroke-linecap:butt;stroke-linejoin:miter;stroke-miterlimit:10;stroke-dasharray:none;stroke-opacity:1"
             id="path58"
             inkscape:connector-curvature="0" /></g><g
           id="g60"
           transform="matrix(3.1269932,0,0,3.1255724,182.41745,239.73346)"><text
             style="font-variant:normal;font-weight:normal;font-size:18.15999985px;font-family:Arimo;-inkscape-font-specification:Arimo;writing-mode:lr-tb;fill:#ffffff;fill-opacity:1;fill-rule:nonzero;stroke:none"
             id="text64"><tspan
               x="0 13.111862 23.209503 33.307144 43.404785 52.48291 57.527298 63.573471 73.671112 78.7155 88.813141 98.910782 103.95517 116.06525 122.11142 132.20906 142.3067 152.40434 157.44873 167.54637"
               y="0"
               sodipodi:role="line"
               id="tspan62">Cadastro de Produtos</tspan></text>
</g></g></g><g
       id="g66"><g
         id="g68"
         clip-path="url(#clipPath72)"><g
           id="g74"
           transform="matrix(3.5492845,0,0,3.5476718,210.81174,339.06827)"><text
             transform="translate(0,17)"
             style="font-variant:normal;font-weight:bold;font-size:17px;font-family:'Liberation Sans';-inkscape-font-specification:LiberationSans-Bold;writing-mode:lr-tb;fill:#000000;fill-opacity:1;fill-rule:nonzero;stroke:none"
             id="text78"><tspan
               x="0 12.276855 22.661133 37.776855"
               y="0"
               sodipodi:role="line"
               id="tspan76">Nome</tspan></text>
</g></g></g><g
       id="g80"><g
         id="g82"
         clip-path="url(#clipPath86)"><g
           id="g88"
           transform="matrix(3.5492845,0,0,3.5476718,210.81174,463.23676)"><path
             d="m 4,0 h 564 c 0.53033,0 1.04059,0.10149394 1.5307,0.30448183 0.48999,0.20298788 0.92255,0.4920182 1.29767,0.86709097 0.37506,0.3750726 0.66412,0.807637 0.86706,1.2976931 C 571.89844,2.9593222 571.99994,3.4695668 572,4 v 26 c -6e-5,0.530432 -0.10156,1.040674 -0.30457,1.530729 -0.20294,0.490057 -0.492,0.922625 -0.86706,1.297697 -0.37512,0.375069 -0.80768,0.664097 -1.29767,0.867085 C 569.04059,33.898502 568.53033,33.999996 568,34 H 4 C 3.4695668,33.999996 2.9593222,33.898502 2.4692659,33.695515 1.9792098,33.492523 1.5466454,33.203495 1.1715728,32.828426 0.79650003,32.453354 0.50746971,32.020786 0.30448183,31.530729 0.10149394,31.040674 0,30.530432 0,30 V 4 C 0,3.4695671 0.10149396,2.9593227 0.30448189,2.4692664 0.50746983,1.9792101 0.79650015,1.5466458 1.1715729,1.1715729 1.5466458,0.79650015 1.9792101,0.50746983 2.4692664,0.30448189 2.9593227,0.10149396 3.4695671,0 4,0 Z"
             style="fill:url(#linearGradient96);fill-opacity:1;fill-rule:nonzero;stroke:none"
             id="path98"
             inkscape:connector-curvature="0" /><path
             d="m 4,0 h 564 c 0.53033,0 1.04059,0.10149394 1.5307,0.30448183 0.48999,0.20298788 0.92255,0.4920182 1.29767,0.86709097 0.37506,0.3750726 0.66412,0.807637 0.86706,1.2976931 C 571.89844,2.9593222 571.99994,3.4695668 572,4 v 26 c -6e-5,0.530432 -0.10156,1.040674 -0.30457,1.530729 -0.20294,0.490057 -0.492,0.922625 -0.86706,1.297697 -0.37512,0.375069 -0.80768,0.664097 -1.29767,0.867085 C 569.04059,33.898502 568.53033,33.999996 568,34 H 4 C 3.4695668,33.999996 2.9593222,33.898502 2.4692659,33.695515 1.9792098,33.492523 1.5466454,33.203495 1.1715728,32.828426 0.79650003,32.453354 0.50746971,32.020786 0.30448183,31.530729 0.10149394,31.040674 0,30.530432 0,30 V 4 C 0,3.4695671 0.10149396,2.9593227 0.30448189,2.4692664 0.50746983,1.9792101 0.79650015,1.5466458 1.1715729,1.1715729 1.5466458,0.79650015 1.9792101,0.50746983 2.4692664,0.30448189 2.9593227,0.10149396 3.4695671,0 4,0 Z"
             style="fill:none;stroke:#cccccc;stroke-width:1;stroke-linecap:butt;stroke-linejoin:miter;stroke-miterlimit:10;stroke-dasharray:none;stroke-opacity:1"
             id="path100"
             inkscape:connector-curvature="0" /></g><g
           id="g102"
           transform="matrix(3.1269932,0,0,3.1255724,253.40314,541.28552)"><text
             style="font-variant:normal;font-weight:normal;font-size:15.89000034px;font-family:Arimo;-inkscape-font-specification:Arimo;writing-mode:lr-tb;fill:#545454;fill-opacity:1;fill-rule:nonzero;stroke:none"
             id="text106"><tspan
               x="0 11.464417 20.293335 33.517334 42.346252 46.756836 55.585754 64.414673 68.825256 77.654175 82.940674 91.769592 100.59851 109.42743 113.83801"
               y="0"
               sodipodi:role="line"
               id="tspan104">Nome do produto</tspan></text>
</g></g></g><g
       id="g108"><g
         id="g110"
         clip-path="url(#clipPath114)"><g
           id="g116"
           transform="matrix(3.5492845,0,0,3.5476718,210.81174,1151.4851)"><text
             transform="translate(0,17)"
             style="font-variant:normal;font-weight:bold;font-size:17px;font-family:'Liberation Sans';-inkscape-font-specification:LiberationSans-Bold;writing-mode:lr-tb;fill:#000000;fill-opacity:1;fill-rule:nonzero;stroke:none"
             id="text120"><tspan
               x="0 14.161133 23.615723 30.231445 39.686035"
               y="0"
               sodipodi:role="line"
               id="tspan118">Marca</tspan></text>
</g></g></g><g
       id="g122"><g
         id="g124"
         clip-path="url(#clipPath128)"><g
           id="g130"
           transform="matrix(3.5492845,0,0,3.5476718,210.81174,1247.2722)"><path
             d="m 4,0 h 164 c 0.53043,0 1.04066,0.10149394 1.53072,0.30448183 0.49006,0.20298788 0.92262,0.4920182 1.29769,0.86709097 0.37508,0.3750726 0.66411,0.807637 0.8671,1.2976931 C 171.8985,2.9593222 171.99998,3.4695668 172,4 v 26 c -2e-5,0.530432 -0.1015,1.040674 -0.30449,1.530729 -0.20299,0.490057 -0.49202,0.922625 -0.8671,1.297697 -0.37507,0.375069 -0.80763,0.664097 -1.29769,0.867085 C 169.04066,33.898502 168.53043,33.999996 168,34 H 4 C 3.4695668,33.999996 2.9593222,33.898502 2.4692659,33.695515 1.9792098,33.492523 1.5466454,33.203495 1.1715728,32.828426 0.79650003,32.453354 0.50746971,32.020786 0.30448183,31.530729 0.10149394,31.040674 0,30.530432 0,30 V 4 C 0,3.4695671 0.10149396,2.9593227 0.30448189,2.4692664 0.50746983,1.9792101 0.79650015,1.5466458 1.1715729,1.1715729 1.5466458,0.79650015 1.9792101,0.50746983 2.4692664,0.30448189 2.9593227,0.10149396 3.4695671,0 4,0 Z"
             style="fill:url(#linearGradient138);fill-opacity:1;fill-rule:nonzero;stroke:none"
             id="path140"
             inkscape:connector-curvature="0" /><path
             d="m 4,0 h 164 c 0.53043,0 1.04066,0.10149394 1.53072,0.30448183 0.49006,0.20298788 0.92262,0.4920182 1.29769,0.86709097 0.37508,0.3750726 0.66411,0.807637 0.8671,1.2976931 C 171.8985,2.9593222 171.99998,3.4695668 172,4 v 26 c -2e-5,0.530432 -0.1015,1.040674 -0.30449,1.530729 -0.20299,0.490057 -0.49202,0.922625 -0.8671,1.297697 -0.37507,0.375069 -0.80763,0.664097 -1.29769,0.867085 C 169.04066,33.898502 168.53043,33.999996 168,34 H 4 C 3.4695668,33.999996 2.9593222,33.898502 2.4692659,33.695515 1.9792098,33.492523 1.5466454,33.203495 1.1715728,32.828426 0.79650003,32.453354 0.50746971,32.020786 0.30448183,31.530729 0.10149394,31.040674 0,30.530432 0,30 V 4 C 0,3.4695671 0.10149396,2.9593227 0.30448189,2.4692664 0.50746983,1.9792101 0.79650015,1.5466458 1.1715729,1.1715729 1.5466458,0.79650015 1.9792101,0.50746983 2.4692664,0.30448189 2.9593227,0.10149396 3.4695671,0 4,0 Z"
             style="fill:none;stroke:#cccccc;stroke-width:1;stroke-linecap:butt;stroke-linejoin:miter;stroke-miterlimit:10;stroke-dasharray:none;stroke-opacity:1"
             id="path142"
             inkscape:connector-curvature="0" /></g><g
           id="g144"
           transform="matrix(3.1269932,0,0,3.1255724,253.40314,1325.3209)"><text
             style="font-variant:normal;font-weight:normal;font-size:15.89000034px;font-family:Arimo;-inkscape-font-specification:Arimo;writing-mode:lr-tb;fill:#545454;fill-opacity:1;fill-rule:nonzero;stroke:none"
             id="text148"><tspan
               x="0 13.223999 22.052917 27.339417 35.276917 44.105835 48.516418"
               y="0"
               sodipodi:role="line"
               id="tspan146">Marca 1</tspan></text>
</g><g
           id="g150"
           transform="matrix(3.5492845,0,0,3.5476718,924.2179,1247.2722)"><path
             d="m 4,0 h 164 c 0.53043,0 1.04066,0.10149394 1.53072,0.30448183 0.49006,0.20298788 0.92262,0.4920182 1.29769,0.86709097 0.37508,0.3750726 0.66411,0.807637 0.8671,1.2976931 C 171.8985,2.9593222 171.99998,3.4695668 172,4 v 26 c -2e-5,0.530432 -0.1015,1.040674 -0.30449,1.530729 -0.20299,0.490057 -0.49202,0.922625 -0.8671,1.297697 -0.37507,0.375069 -0.80763,0.664097 -1.29769,0.867085 C 169.04066,33.898502 168.53043,33.999996 168,34 H 4 C 3.4695668,33.999996 2.9593222,33.898502 2.4692659,33.695515 1.9792098,33.492523 1.5466454,33.203495 1.1715728,32.828426 0.79650003,32.453354 0.50746971,32.020786 0.30448183,31.530729 0.10149394,31.040674 0,30.530432 0,30 V 4 C 0,3.4695671 0.10149396,2.9593227 0.30448189,2.4692664 0.50746983,1.9792101 0.79650015,1.5466458 1.1715729,1.1715729 1.5466458,0.79650015 1.9792101,0.50746983 2.4692664,0.30448189 2.9593227,0.10149396 3.4695671,0 4,0 Z"
             style="fill:url(#linearGradient158);fill-opacity:1;fill-rule:nonzero;stroke:none"
             id="path160"
             inkscape:connector-curvature="0" /><path
             d="m 4,0 h 164 c 0.53043,0 1.04066,0.10149394 1.53072,0.30448183 0.49006,0.20298788 0.92262,0.4920182 1.29769,0.86709097 0.37508,0.3750726 0.66411,0.807637 0.8671,1.2976931 C 171.8985,2.9593222 171.99998,3.4695668 172,4 v 26 c -2e-5,0.530432 -0.1015,1.040674 -0.30449,1.530729 -0.20299,0.490057 -0.49202,0.922625 -0.8671,1.297697 -0.37507,0.375069 -0.80763,0.664097 -1.29769,0.867085 C 169.04066,33.898502 168.53043,33.999996 168,34 H 4 C 3.4695668,33.999996 2.9593222,33.898502 2.4692659,33.695515 1.9792098,33.492523 1.5466454,33.203495 1.1715728,32.828426 0.79650003,32.453354 0.50746971,32.020786 0.30448183,31.530729 0.10149394,31.040674 0,30.530432 0,30 V 4 C 0,3.4695671 0.10149396,2.9593227 0.30448189,2.4692664 0.50746983,1.9792101 0.79650015,1.5466458 1.1715729,1.1715729 1.5466458,0.79650015 1.9792101,0.50746983 2.4692664,0.30448189 2.9593227,0.10149396 3.4695671,0 4,0 Z"
             style="fill:none;stroke:#cccccc;stroke-width:1;stroke-linecap:butt;stroke-linejoin:miter;stroke-miterlimit:10;stroke-dasharray:none;stroke-opacity:1"
             id="path162"
             inkscape:connector-curvature="0" /></g><g
           id="g164"
           transform="matrix(3.1269932,0,0,3.1255724,966.80933,1325.3209)"><text
             style="font-variant:normal;font-weight:normal;font-size:15.89000034px;font-family:Arimo;-inkscape-font-specification:Arimo;writing-mode:lr-tb;fill:#545454;fill-opacity:1;fill-rule:nonzero;stroke:none"
             id="text168"><tspan
               x="0 11.464417 20.293335 29.122253 37.951172 43.237671 47.648254 56.477173 69.701172 78.53009 87.359009 91.769592 100.59851 105.00909"
               y="0"
               sodipodi:role="line"
               id="tspan166">Departamento 1</tspan></text>
</g></g></g><g
       id="g170"><g
         id="g172"
         clip-path="url(#clipPath176)"><g
           id="g178"
           transform="matrix(3.5492845,0,0,3.5476718,920.66858,1151.4851)"><text
             transform="translate(0,17)"
             style="font-variant:normal;font-weight:bold;font-size:17px;font-family:'Liberation Sans';-inkscape-font-specification:LiberationSans-Bold;writing-mode:lr-tb;fill:#000000;fill-opacity:1;fill-rule:nonzero;stroke:none"
             id="text182"><tspan
               x="0 12.276855 21.731445 32.115723 41.570312 48.186035 53.847168 63.301758 78.41748 87.87207 98.256348 103.91748"
               y="0"
               sodipodi:role="line"
               id="tspan180">Departamento</tspan></text>
</g></g></g><g
       id="g184"><g
         id="g186"
         clip-path="url(#clipPath190)"><g
           id="g192"
           transform="matrix(3.5492845,0,0,3.5476718,210.81174,711.57385)"><path
             d="m 4,0 h 564 c 0.53033,0 1.04059,0.10149394 1.5307,0.30448183 0.48999,0.20298788 0.92255,0.4920182 1.29767,0.86709097 0.37506,0.3750726 0.66412,0.807637 0.86706,1.2976931 C 571.89844,2.9593222 571.99994,3.4695668 572,4 v 93 c -6e-5,0.530418 -0.10156,1.040657 -0.30457,1.530716 -0.20294,0.490059 -0.492,0.922623 -0.86706,1.297707 -0.37512,0.375067 -0.80768,0.664097 -1.29767,0.867087 C 569.04059,100.8985 568.53033,100.99999 568,101 H 4 c -0.5304332,-1e-5 -1.0406778,-0.1015 -1.5307341,-0.30449 C 1.9792098,100.49252 1.5466454,100.20349 1.1715728,99.828423 0.79650003,99.453339 0.50746971,99.020775 0.30448183,98.530716 0.10149394,98.040657 0,97.530418 0,97 V 4 C 0,3.4695671 0.10149396,2.9593227 0.30448189,2.4692664 0.50746983,1.9792101 0.79650015,1.5466458 1.1715729,1.1715729 1.5466458,0.79650015 1.9792101,0.50746983 2.4692664,0.30448189 2.9593227,0.10149396 3.4695671,0 4,0 Z"
             style="fill:url(#linearGradient200);fill-opacity:1;fill-rule:nonzero;stroke:none"
             id="path202"
             inkscape:connector-curvature="0" /><path
             d="m 4,0 h 564 c 0.53033,0 1.04059,0.10149394 1.5307,0.30448183 0.48999,0.20298788 0.92255,0.4920182 1.29767,0.86709097 0.37506,0.3750726 0.66412,0.807637 0.86706,1.2976931 C 571.89844,2.9593222 571.99994,3.4695668 572,4 v 93 c -6e-5,0.530418 -0.10156,1.040657 -0.30457,1.530716 -0.20294,0.490059 -0.492,0.922623 -0.86706,1.297707 -0.37512,0.375067 -0.80768,0.664097 -1.29767,0.867087 C 569.04059,100.8985 568.53033,100.99999 568,101 H 4 c -0.5304332,-1e-5 -1.0406778,-0.1015 -1.5307341,-0.30449 C 1.9792098,100.49252 1.5466454,100.20349 1.1715728,99.828423 0.79650003,99.453339 0.50746971,99.020775 0.30448183,98.530716 0.10149394,98.040657 0,97.530418 0,97 V 4 C 0,3.4695671 0.10149396,2.9593227 0.30448189,2.4692664 0.50746983,1.9792101 0.79650015,1.5466458 1.1715729,1.1715729 1.5466458,0.79650015 1.9792101,0.50746983 2.4692664,0.30448189 2.9593227,0.10149396 3.4695671,0 4,0 Z"
             style="fill:none;stroke:#cccccc;stroke-width:1;stroke-linecap:butt;stroke-linejoin:miter;stroke-miterlimit:10;stroke-dasharray:none;stroke-opacity:1"
             id="path204"
             inkscape:connector-curvature="0" /></g><g
           id="g206"
           transform="matrix(3.1269932,0,0,3.1255724,253.40314,910.24341)"><text
             style="font-variant:normal;font-weight:normal;font-size:15.89000034px;font-family:Arimo;-inkscape-font-specification:Arimo;writing-mode:lr-tb;fill:#545454;fill-opacity:1;fill-rule:nonzero;stroke:none"
             id="text210"><tspan
               x="0 11.464417 20.293335 28.230835 36.168335 41.454834 44.98175 52.91925 61.748169 70.577087 74.987671 83.816589 92.645508 97.056091 105.88501 119.10901 123.51959 132.34851 137.63501 146.46393 155.29285 164.12177 168.53235 177.36127 181.77185 186.18243 190.59302"
               y="0"
               sodipodi:role="line"
               id="tspan208">Descrição de um produto....</tspan></text>
</g></g></g><g
       id="g212"><g
         id="g214"
         clip-path="url(#clipPath218)"><g
           id="g220"
           transform="matrix(3.5492845,0,0,3.5476718,210.81174,605.14368)"><text
             transform="translate(0,17)"
             style="font-variant:normal;font-weight:bold;font-size:17px;font-family:'Liberation Sans';-inkscape-font-specification:LiberationSans-Bold;writing-mode:lr-tb;fill:#000000;fill-opacity:1;fill-rule:nonzero;stroke:none"
             id="text224"><tspan
               x="0 12.276855 21.731445 31.186035 40.640625 47.256348 51.979492 61.434082 70.888672"
               y="0"
               sodipodi:role="line"
               id="tspan222">Descrição</tspan></text>
</g></g></g><g
       id="g226"><g
         id="g228"
         clip-path="url(#clipPath232)"><g
           id="g234"
           transform="matrix(3.5492845,0,0,3.5476718,1687.3141,1541.7289)"><path
             d="m 4,0 h 63 c 0.530434,0 1.040672,0.10149394 1.530731,0.30448183 0.490059,0.20298788 0.922623,0.4920182 1.297692,0.86709097 0.375068,0.3750726 0.664093,0.807637 0.867088,1.2976931 C 70.898499,2.9593222 70.999992,3.4695668 71,4 v 26 c -8e-6,0.530432 -0.101501,1.040674 -0.304489,1.530729 -0.202995,0.490057 -0.49202,0.922625 -0.867088,1.297697 -0.375069,0.375069 -0.807633,0.664097 -1.297692,0.867085 C 68.040672,33.898502 67.530434,33.999996 67,34 H 4 C 3.4695668,33.999996 2.9593222,33.898502 2.4692659,33.695515 1.9792098,33.492523 1.5466454,33.203495 1.1715728,32.828426 0.79650003,32.453354 0.50746971,32.020786 0.30448183,31.530729 0.10149394,31.040674 0,30.530432 0,30 V 4 C 0,3.4695671 0.10149396,2.9593227 0.30448189,2.4692664 0.50746983,1.9792101 0.79650015,1.5466458 1.1715729,1.1715729 1.5466458,0.79650015 1.9792101,0.50746983 2.4692664,0.30448189 2.9593227,0.10149396 3.4695671,0 4,0 Z"
             style="fill:#ffffff;fill-opacity:1;fill-rule:nonzero;stroke:none"
             id="path236"
             inkscape:connector-curvature="0" /><path
             d="m 4,0 h 63 c 0.530434,0 1.040672,0.10149394 1.530731,0.30448183 0.490059,0.20298788 0.922623,0.4920182 1.297692,0.86709097 0.375068,0.3750726 0.664093,0.807637 0.867088,1.2976931 C 70.898499,2.9593222 70.999992,3.4695668 71,4 v 26 c -8e-6,0.530432 -0.101501,1.040674 -0.304489,1.530729 -0.202995,0.490057 -0.49202,0.922625 -0.867088,1.297697 -0.375069,0.375069 -0.807633,0.664097 -1.297692,0.867085 C 68.040672,33.898502 67.530434,33.999996 67,34 H 4 C 3.4695668,33.999996 2.9593222,33.898502 2.4692659,33.695515 1.9792098,33.492523 1.5466454,33.203495 1.1715728,32.828426 0.79650003,32.453354 0.50746971,32.020786 0.30448183,31.530729 0.10149394,31.040674 0,30.530432 0,30 V 4 C 0,3.4695671 0.10149396,2.9593227 0.30448189,2.4692664 0.50746983,1.9792101 0.79650015,1.5466458 1.1715729,1.1715729 1.5466458,0.79650015 1.9792101,0.50746983 2.4692664,0.30448189 2.9593227,0.10149396 3.4695671,0 4,0 Z"
             style="fill:none;stroke:#f2f2f2;stroke-width:1;stroke-linecap:butt;stroke-linejoin:miter;stroke-miterlimit:10;stroke-dasharray:none;stroke-opacity:1"
             id="path238"
             inkscape:connector-curvature="0" /></g><g
           id="g240"
           transform="matrix(3.1269932,0,0,3.1255724,1729.9055,1619.7777)"><text
             transform="translate(2.1902862)"
             style="font-variant:normal;font-weight:normal;font-size:15.89000034px;font-family:Arimo;-inkscape-font-specification:Arimo;writing-mode:lr-tb;fill:#333333;fill-opacity:1;fill-rule:nonzero;stroke:none"
             id="text244"><tspan
               x="0 8.8289185 12.355835 25.579834 34.408752 43.237671"
               y="0"
               sodipodi:role="line"
               id="tspan242">Limpar</tspan></text>
</g><g
           id="g246"
           transform="matrix(3.5492845,0,0,3.5476718,1367.8784,1541.7289)"><path
             d="m 4,0 h 63 c 0.530434,0 1.040672,0.10149394 1.530731,0.30448183 0.490059,0.20298788 0.922623,0.4920182 1.297692,0.86709097 0.375068,0.3750726 0.664093,0.807637 0.867088,1.2976931 C 70.898499,2.9593222 70.999992,3.4695668 71,4 v 26 c -8e-6,0.530432 -0.101501,1.040674 -0.304489,1.530729 -0.202995,0.490057 -0.49202,0.922625 -0.867088,1.297697 -0.375069,0.375069 -0.807633,0.664097 -1.297692,0.867085 C 68.040672,33.898502 67.530434,33.999996 67,34 H 4 C 3.4695668,33.999996 2.9593222,33.898502 2.4692659,33.695515 1.9792098,33.492523 1.5466454,33.203495 1.1715728,32.828426 0.79650003,32.453354 0.50746971,32.020786 0.30448183,31.530729 0.10149394,31.040674 0,30.530432 0,30 V 4 C 0,3.4695671 0.10149396,2.9593227 0.30448189,2.4692664 0.50746983,1.9792101 0.79650015,1.5466458 1.1715729,1.1715729 1.5466458,0.79650015 1.9792101,0.50746983 2.4692664,0.30448189 2.9593227,0.10149396 3.4695671,0 4,0 Z"
             style="fill:#5cb85c;fill-opacity:1;fill-rule:nonzero;stroke:none"
             id="path248"
             inkscape:connector-curvature="0" /><path
             d="m 4,0 h 63 c 0.530434,0 1.040672,0.10149394 1.530731,0.30448183 0.490059,0.20298788 0.922623,0.4920182 1.297692,0.86709097 0.375068,0.3750726 0.664093,0.807637 0.867088,1.2976931 C 70.898499,2.9593222 70.999992,3.4695668 71,4 v 26 c -8e-6,0.530432 -0.101501,1.040674 -0.304489,1.530729 -0.202995,0.490057 -0.49202,0.922625 -0.867088,1.297697 -0.375069,0.375069 -0.807633,0.664097 -1.297692,0.867085 C 68.040672,33.898502 67.530434,33.999996 67,34 H 4 C 3.4695668,33.999996 2.9593222,33.898502 2.4692659,33.695515 1.9792098,33.492523 1.5466454,33.203495 1.1715728,32.828426 0.79650003,32.453354 0.50746971,32.020786 0.30448183,31.530729 0.10149394,31.040674 0,30.530432 0,30 V 4 C 0,3.4695671 0.10149396,2.9593227 0.30448189,2.4692664 0.50746983,1.9792101 0.79650015,1.5466458 1.1715729,1.1715729 1.5466458,0.79650015 1.9792101,0.50746983 2.4692664,0.30448189 2.9593227,0.10149396 3.4695671,0 4,0 Z"
             style="fill:none;stroke:#4cae4c;stroke-width:1;stroke-linecap:butt;stroke-linejoin:miter;stroke-miterlimit:10;stroke-dasharray:none;stroke-opacity:1"
             id="path250"
             inkscape:connector-curvature="0" /></g><g
           id="g252"
           transform="matrix(3.1269932,0,0,3.1255724,1410.4699,1619.7777)"><text
             transform="translate(3.9549296)"
             style="font-variant:normal;font-weight:normal;font-size:15.89000034px;font-family:Arimo;-inkscape-font-specification:Arimo;writing-mode:lr-tb;fill:#ffffff;fill-opacity:1;fill-rule:nonzero;stroke:none"
             id="text256"><tspan
               x="0 10.588501 19.417419 22.944336 30.881836 39.710754"
               y="0"
               sodipodi:role="line"
               id="tspan254">Salvar</tspan></text>
</g><g
           id="g258"
           transform="matrix(3.5492845,0,0,3.5476718,1989.0032,1541.7289)"><path
             d="m 4,0 h 63 c 0.530434,0 1.040672,0.10149394 1.530731,0.30448183 0.490059,0.20298788 0.922623,0.4920182 1.297692,0.86709097 0.375068,0.3750726 0.664093,0.807637 0.867088,1.2976931 C 70.898499,2.9593222 70.999992,3.4695668 71,4 v 26 c -8e-6,0.530432 -0.101501,1.040674 -0.304489,1.530729 -0.202995,0.490057 -0.49202,0.922625 -0.867088,1.297697 -0.375069,0.375069 -0.807633,0.664097 -1.297692,0.867085 C 68.040672,33.898502 67.530434,33.999996 67,34 H 4 C 3.4695668,33.999996 2.9593222,33.898502 2.4692659,33.695515 1.9792098,33.492523 1.5466454,33.203495 1.1715728,32.828426 0.79650003,32.453354 0.50746971,32.020786 0.30448183,31.530729 0.10149394,31.040674 0,30.530432 0,30 V 4 C 0,3.4695671 0.10149396,2.9593227 0.30448189,2.4692664 0.50746983,1.9792101 0.79650015,1.5466458 1.1715729,1.1715729 1.5466458,0.79650015 1.9792101,0.50746983 2.4692664,0.30448189 2.9593227,0.10149396 3.4695671,0 4,0 Z"
             style="fill:#ffffff;fill-opacity:1;fill-rule:nonzero;stroke:none"
             id="path260"
             inkscape:connector-curvature="0" /><path
             d="m 4,0 h 63 c 0.530434,0 1.040672,0.10149394 1.530731,0.30448183 0.490059,0.20298788 0.922623,0.4920182 1.297692,0.86709097 0.375068,0.3750726 0.664093,0.807637 0.867088,1.2976931 C 70.898499,2.9593222 70.999992,3.4695668 71,4 v 26 c -8e-6,0.530432 -0.101501,1.040674 -0.304489,1.530729 -0.202995,0.490057 -0.49202,0.922625 -0.867088,1.297697 -0.375069,0.375069 -0.807633,0.664097 -1.297692,0.867085 C 68.040672,33.898502 67.530434,33.999996 67,34 H 4 C 3.4695668,33.999996 2.9593222,33.898502 2.4692659,33.695515 1.9792098,33.492523 1.5466454,33.203495 1.1715728,32.828426 0.79650003,32.453354 0.50746971,32.020786 0.30448183,31.530729 0.10149394,31.040674 0,30.530432 0,30 V 4 C 0,3.4695671 0.10149396,2.9593227 0.30448189,2.4692664 0.50746983,1.9792101 0.79650015,1.5466458 1.1715729,1.1715729 1.5466458,0.79650015 1.9792101,0.50746983 2.4692664,0.30448189 2.9593227,0.10149396 3.4695671,0 4,0 Z"
             style="fill:none;stroke:#f2f2f2;stroke-width:1;stroke-linecap:butt;stroke-linejoin:miter;stroke-miterlimit:10;stroke-dasharray:none;stroke-opacity:1"
             id="path262"
             inkscape:connector-curvature="0" /></g><g
           id="g264"
           transform="matrix(3.1269932,0,0,3.1255724,2031.5947,1619.7777)"><text
             transform="translate(-5.3205333)"
             style="font-variant:normal;font-weight:normal;font-size:15.89000034px;font-family:Arimo;-inkscape-font-specification:Arimo;writing-mode:lr-tb;fill:#333333;fill-opacity:1;fill-rule:nonzero;stroke:none"
             id="text268"><tspan
               x="0 11.464417 20.293335 29.122253 37.059753 45.888672 49.415588 58.244507"
               y="0"
               sodipodi:role="line"
               id="tspan266">Cancelar</tspan></text>
</g></g></g><g
       id="g270"><g
         id="g272"
         clip-path="url(#clipPath276)"><g
           id="g278"
           transform="matrix(3.5492845,0,0,3.5476718,1626.9762,1151.4851)"><text
             transform="translate(0,17)"
             style="font-variant:normal;font-weight:bold;font-size:17px;font-family:'Liberation Sans';-inkscape-font-specification:LiberationSans-Bold;writing-mode:lr-tb;fill:#000000;fill-opacity:1;fill-rule:nonzero;stroke:none"
             id="text282"><tspan
               x="0 10.400879 19.855469 24.578613 34.962891 41.578613 46.301758 56.686035 67.070312 71.793457 77.45459 86.90918 93.524902 98.248047"
               y="0"
               sodipodi:role="line"
               id="tspan280">Valor unitário</tspan></text>
</g></g></g><g
       id="g284"><g
         id="g286"
         clip-path="url(#clipPath290)"><g
           id="g292"
           transform="matrix(3.5492845,0,0,3.5476718,1626.9762,1243.7246)"><path
             d="m 4,0 h 164 c 0.53043,0 1.04066,0.10149394 1.53072,0.30448183 0.49006,0.20298788 0.92262,0.4920182 1.29769,0.86709097 0.37508,0.3750726 0.66411,0.807637 0.8671,1.2976931 C 171.8985,2.9593222 171.99998,3.4695668 172,4 v 26 c -2e-5,0.530432 -0.1015,1.040674 -0.30449,1.530729 -0.20299,0.490057 -0.49202,0.922625 -0.8671,1.297697 -0.37507,0.375069 -0.80763,0.664097 -1.29769,0.867085 C 169.04066,33.898502 168.53043,33.999996 168,34 H 4 C 3.4695668,33.999996 2.9593222,33.898502 2.4692659,33.695515 1.9792098,33.492523 1.5466454,33.203495 1.1715728,32.828426 0.79650003,32.453354 0.50746971,32.020786 0.30448183,31.530729 0.10149394,31.040674 0,30.530432 0,30 V 4 C 0,3.4695671 0.10149396,2.9593227 0.30448189,2.4692664 0.50746983,1.9792101 0.79650015,1.5466458 1.1715729,1.1715729 1.5466458,0.79650015 1.9792101,0.50746983 2.4692664,0.30448189 2.9593227,0.10149396 3.4695671,0 4,0 Z"
             style="fill:url(#linearGradient300);fill-opacity:1;fill-rule:nonzero;stroke:none"
             id="path302"
             inkscape:connector-curvature="0" /><path
             d="m 4,0 h 164 c 0.53043,0 1.04066,0.10149394 1.53072,0.30448183 0.49006,0.20298788 0.92262,0.4920182 1.29769,0.86709097 0.37508,0.3750726 0.66411,0.807637 0.8671,1.2976931 C 171.8985,2.9593222 171.99998,3.4695668 172,4 v 26 c -2e-5,0.530432 -0.1015,1.040674 -0.30449,1.530729 -0.20299,0.490057 -0.49202,0.922625 -0.8671,1.297697 -0.37507,0.375069 -0.80763,0.664097 -1.29769,0.867085 C 169.04066,33.898502 168.53043,33.999996 168,34 H 4 C 3.4695668,33.999996 2.9593222,33.898502 2.4692659,33.695515 1.9792098,33.492523 1.5466454,33.203495 1.1715728,32.828426 0.79650003,32.453354 0.50746971,32.020786 0.30448183,31.530729 0.10149394,31.040674 0,30.530432 0,30 V 4 C 0,3.4695671 0.10149396,2.9593227 0.30448189,2.4692664 0.50746983,1.9792101 0.79650015,1.5466458 1.1715729,1.1715729 1.5466458,0.79650015 1.9792101,0.50746983 2.4692664,0.30448189 2.9593227,0.10149396 3.4695671,0 4,0 Z"
             style="fill:none;stroke:#cccccc;stroke-width:1;stroke-linecap:butt;stroke-linejoin:miter;stroke-miterlimit:10;stroke-dasharray:none;stroke-opacity:1"
             id="path304"
             inkscape:connector-curvature="0" /></g><g
           id="g306"
           transform="matrix(3.1269932,0,0,3.1255724,1669.5676,1321.7733)"><text
             style="font-variant:normal;font-weight:normal;font-size:15.89000034px;font-family:Arimo;-inkscape-font-specification:Arimo;writing-mode:lr-tb;fill:#545454;fill-opacity:1;fill-rule:nonzero;stroke:none"
             id="text310"><tspan
               x="0 11.464417 20.293335 24.703918 33.532837 37.94342 46.772339"
               y="0"
               sodipodi:role="line"
               id="tspan308">R$ 3,95</tspan></text>
</g></g></g></g></svg>