<?xml version="1.0" encoding="UTF-8" standalone="no"?>
<!-- Created with Inkscape (http://www.inkscape.org/) -->

<svg
   xmlns:dc="http://purl.org/dc/elements/1.1/"
   xmlns:cc="http://creativecommons.org/ns#"
   xmlns:rdf="http://www.w3.org/1999/02/22-rdf-syntax-ns#"
   xmlns:svg="http://www.w3.org/2000/svg"
   xmlns="http://www.w3.org/2000/svg"
   xmlns:sodipodi="http://sodipodi.sourceforge.net/DTD/sodipodi-0.dtd"
   xmlns:inkscape="http://www.inkscape.org/namespaces/inkscape"
   version="1.1"
   id="svg2"
   xml:space="preserve"
   width="794.56"
   height="1121.2799"
   viewBox="0 0 794.56 1121.2799"
   sodipodi:docname="mockups-18.svg"
   inkscape:version="0.92.5 (2060ec1f9f, 2020-04-08)"><metadata
     id="metadata8"><rdf:RDF><cc:Work
         rdf:about=""><dc:format>image/svg+xml</dc:format><dc:type
           rdf:resource="http://purl.org/dc/dcmitype/StillImage" /><dc:title /></cc:Work></rdf:RDF></metadata><defs
     id="defs6"><clipPath
       clipPathUnits="userSpaceOnUse"
       id="clipPath18"><path
         d="M 129.16666,79.166664 H 2351.0417 V 3304.1667 H 129.16666 Z"
         id="path16"
         inkscape:connector-curvature="0"
         style="clip-rule:evenodd" /></clipPath><clipPath
       clipPathUnits="userSpaceOnUse"
       id="clipPath34"><path
         d="M 129.16666,79.166664 H 2354.1665 V 3504.1665 H 129.16666 Z"
         id="path32"
         inkscape:connector-curvature="0"
         style="clip-rule:evenodd" /></clipPath><clipPath
       clipPathUnits="userSpaceOnUse"
       id="clipPath48"><path
         d="M 129.16666,151.04166 H 2347.9167 V 2276.0417 H 129.16666 Z"
         id="path46"
         inkscape:connector-curvature="0"
         style="clip-rule:evenodd" /></clipPath><linearGradient
       x1="0"
       y1="0"
       x2="0"
       y2="1"
       gradientUnits="userSpaceOnUse"
       gradientTransform="matrix(113.04001,0,0,-8.1600002,-18.117316,133.49561)"
       spreadMethod="pad"
       id="linearGradient74"><stop
         style="stop-opacity:1;stop-color:#f2f2f2"
         offset="0"
         id="stop68" /><stop
         style="stop-opacity:1;stop-color:#ffffff"
         offset="0.10000001"
         id="stop70" /><stop
         style="stop-opacity:1;stop-color:#ffffff"
         offset="1"
         id="stop72" /></linearGradient><clipPath
       clipPathUnits="userSpaceOnUse"
       id="clipPath92"><path
         d="m 224.68652,445.71939 h 245.02924 v 99.60934 H 224.68652 Z"
         id="path90"
         inkscape:connector-curvature="0"
         style="clip-rule:evenodd" /></clipPath><clipPath
       clipPathUnits="userSpaceOnUse"
       id="clipPath106"><path
         d="M 129.16666,151.04166 H 2347.9167 V 2276.0417 H 129.16666 Z"
         id="path104"
         inkscape:connector-curvature="0"
         style="clip-rule:evenodd" /></clipPath><clipPath
       clipPathUnits="userSpaceOnUse"
       id="clipPath138"><path
         d="M 224.68652,1209.3912 H 2180.7671 v 871.5819 H 224.68652 Z"
         id="path136"
         inkscape:connector-curvature="0"
         style="clip-rule:evenodd" /></clipPath><clipPath
       clipPathUnits="userSpaceOnUse"
       id="clipPath192"><path
         d="M 129.16666,151.04166 H 2347.9167 V 2276.0417 H 129.16666 Z"
         id="path190"
         inkscape:connector-curvature="0"
         style="clip-rule:evenodd" /></clipPath><linearGradient
       x1="0"
       y1="0"
       x2="0"
       y2="1"
       gradientUnits="userSpaceOnUse"
       gradientTransform="matrix(54.72,0,0,-8.1600002,-441.11731,-206.10438)"
       spreadMethod="pad"
       id="linearGradient274"><stop
         style="stop-opacity:1;stop-color:#f2f2f2"
         offset="0"
         id="stop268" /><stop
         style="stop-opacity:1;stop-color:#ffffff"
         offset="0.10000001"
         id="stop270" /><stop
         style="stop-opacity:1;stop-color:#ffffff"
         offset="1"
         id="stop272" /></linearGradient><linearGradient
       x1="0"
       y1="0"
       x2="0"
       y2="1"
       gradientUnits="userSpaceOnUse"
       gradientTransform="matrix(53.760001,0,0,-8.1600002,-381.83731,-206.10438)"
       spreadMethod="pad"
       id="linearGradient306"><stop
         style="stop-opacity:1;stop-color:#f2f2f2"
         offset="0"
         id="stop300" /><stop
         style="stop-opacity:1;stop-color:#ffffff"
         offset="0.10000001"
         id="stop302" /><stop
         style="stop-opacity:1;stop-color:#ffffff"
         offset="1"
         id="stop304" /></linearGradient></defs><sodipodi:namedview
     pagecolor="#ffffff"
     bordercolor="#666666"
     borderopacity="1"
     objecttolerance="10"
     gridtolerance="10"
     guidetolerance="10"
     inkscape:pageopacity="0"
     inkscape:pageshadow="2"
     inkscape:window-width="1366"
     inkscape:window-height="707"
     id="namedview4"
     showgrid="false"
     inkscape:zoom="0.84189505"
     inkscape:cx="338.43269"
     inkscape:cy="287.63547"
     inkscape:window-x="0"
     inkscape:window-y="30"
     inkscape:window-maximized="1"
     inkscape:current-layer="g10" /><g
     id="g10"
     inkscape:groupmode="layer"
     inkscape:label="mockups-17"
     transform="matrix(0.31999998,0,0,0.31999998,0,-1.8634668e-5)"><g
       id="g42"><g
         id="g44"
         clip-path="url(#clipPath48)"><g
           id="g50"
           transform="matrix(4.1530375,0,0,4.1503906,129.16666,151.04166)"><path
             d="m 4,0 h 527 c 0.26263,0 0.52277,0.02561962 0.78033,0.07685887 0.25757,0.05123925 0.50769,0.12711356 0.75031,0.22762296 0.24261,0.10050941 0.47314,0.22372261 0.69159,0.36963967 0.21838,0.14591706 0.42041,0.31173408 0.60614,0.4974513 0.18573,0.1857171 0.3515,0.3877658 0.49744,0.606146 0.14593,0.2183803 0.2691,0.4488959 0.36962,0.6915471 0.10053,0.2426513 0.1764,0.4927755 0.22767,0.7503727 C 534.97437,3.4772356 535,3.7373559 535,4 V 39 H 0 V 4 C 0,3.7373562 0.02561963,3.4772358 0.07685889,3.2196386 0.12809815,2.9620416 0.20397247,2.7119176 0.30448189,2.4692664 0.4049913,2.2266152 0.5282045,1.9960995 0.67412156,1.777719 0.82003856,1.5593388 0.9858557,1.3572901 1.1715729,1.1715729 1.3572901,0.9858557 1.5593388,0.82003862 1.7777191,0.67412162 1.9960995,0.52820456 2.2266152,0.4049913 2.4692664,0.30448189 2.7119176,0.20397247 2.9620416,0.12809815 3.2196386,0.07685889 3.4772358,0.02561963 3.7373562,0 4,0 Z"
             style="fill:#337ab7;fill-opacity:1;fill-rule:nonzero;stroke:none"
             id="path52"
             inkscape:connector-curvature="0" /><path
             d="m 4,0 h 527 c 0.26263,0 0.52277,0.02561962 0.78033,0.07685887 0.25757,0.05123925 0.50769,0.12711356 0.75031,0.22762296 0.24261,0.10050941 0.47314,0.22372261 0.69159,0.36963967 0.21838,0.14591706 0.42041,0.31173408 0.60614,0.4974513 0.18573,0.1857171 0.3515,0.3877658 0.49744,0.606146 0.14593,0.2183803 0.2691,0.4488959 0.36962,0.6915471 0.10053,0.2426513 0.1764,0.4927755 0.22767,0.7503727 C 534.97437,3.4772356 535,3.7373559 535,4 V 39 H 0 V 4 C 0,3.7373562 0.02561963,3.4772358 0.07685889,3.2196386 0.12809815,2.9620416 0.20397247,2.7119176 0.30448189,2.4692664 0.4049913,2.2266152 0.5282045,1.9960995 0.67412156,1.777719 0.82003856,1.5593388 0.9858557,1.3572901 1.1715729,1.1715729 1.3572901,0.9858557 1.5593388,0.82003862 1.7777191,0.67412162 1.9960995,0.52820456 2.2266152,0.4049913 2.4692664,0.30448189 2.7119176,0.20397247 2.9620416,0.12809815 3.2196386,0.07685889 3.4772358,0.02561963 3.7373562,0 4,0 Z"
             style="fill:none;stroke:#337ab7;stroke-width:1;stroke-linecap:butt;stroke-linejoin:miter;stroke-miterlimit:10;stroke-dasharray:none;stroke-opacity:1"
             id="path54"
             inkscape:connector-curvature="0" /><path
             d="m 0,39 h 535 v 469 c 0,0.26263 -0.0256,0.52277 -0.0769,0.78036 -0.0513,0.25757 -0.12714,0.5077 -0.22767,0.75034 -0.10052,0.24265 -0.22369,0.47318 -0.36962,0.69156 -0.14594,0.21835 -0.31171,0.42041 -0.49744,0.60614 -0.18573,0.1857 -0.38776,0.3515 -0.60614,0.49741 -0.21845,0.14593 -0.44898,0.26916 -0.69159,0.36966 -0.24262,0.10049 -0.49274,0.17639 -0.75031,0.22763 C 531.52277,511.9743 531.26263,512 531,512 L 4,512 c -0.2626441,-3e-5 -0.5227644,-0.0257 -0.7803617,-0.0769 -0.2575972,-0.0512 -0.5077211,-0.12711 -0.7503724,-0.2276 -0.2426512,-0.1005 -0.4731668,-0.22373 -0.6915471,-0.36966 -0.2183802,-0.14591 -0.4204289,-0.31171 -0.606146,-0.49741 -0.18571722,-0.18573 -0.3515343,-0.38779 -0.49745136,-0.60614 -0.145917,-0.21838 -0.2691302,-0.44891 -0.36963961,-0.69156 -0.1005094,-0.24264 -0.17638371,-0.49277 -0.22762296,-0.75034 C 0.02561962,508.52277 0,508.26263 0,508 Z"
             style="fill:#f8f8f8;fill-opacity:1;fill-rule:nonzero;stroke:none"
             id="path56"
             inkscape:connector-curvature="0" /><path
             d="m 0,39 h 535 v 469 c 0,0.26263 -0.0256,0.52277 -0.0769,0.78036 -0.0513,0.25757 -0.12714,0.5077 -0.22767,0.75034 -0.10052,0.24265 -0.22369,0.47318 -0.36962,0.69156 -0.14594,0.21835 -0.31171,0.42041 -0.49744,0.60614 -0.18573,0.1857 -0.38776,0.3515 -0.60614,0.49741 -0.21845,0.14593 -0.44898,0.26916 -0.69159,0.36966 -0.24262,0.10049 -0.49274,0.17639 -0.75031,0.22763 C 531.52277,511.9743 531.26263,512 531,512 L 4,512 c -0.2626441,-3e-5 -0.5227644,-0.0257 -0.7803617,-0.0769 -0.2575972,-0.0512 -0.5077211,-0.12711 -0.7503724,-0.2276 -0.2426512,-0.1005 -0.4731668,-0.22373 -0.6915471,-0.36966 -0.2183802,-0.14591 -0.4204289,-0.31171 -0.606146,-0.49741 -0.18571722,-0.18573 -0.3515343,-0.38779 -0.49745136,-0.60614 -0.145917,-0.21838 -0.2691302,-0.44891 -0.36963961,-0.69156 -0.1005094,-0.24264 -0.17638371,-0.49277 -0.22762296,-0.75034 C 0.02561962,508.52277 0,508.26263 0,508 Z"
             style="fill:none;stroke:#337ab7;stroke-width:1;stroke-linecap:butt;stroke-linejoin:miter;stroke-miterlimit:10;stroke-dasharray:none;stroke-opacity:1"
             id="path58"
             inkscape:connector-curvature="0" /></g><g
           id="g60"
           transform="matrix(3.1269929,0,0,3.125,191.46222,254.80142)"><text
   style="font-variant:normal;font-weight:normal;font-size:21.25px;font-family:Arimo;-inkscape-font-specification:Arimo;writing-mode:lr-tb;fill:#ffffff;fill-opacity:1;fill-rule:nonzero;stroke:none"
   id="text64"><tspan
     x="0 15.346069 27.164307 38.982544 50.800781 61.425781 67.329712 74.406128 86.224365 92.128296 103.94653 115.76477 121.6687 133.48694 145.30518 151.20911 163.02734"
     y="0"
     sodipodi:role="line"
     id="tspan62">Cadastro de Lotes</tspan></text>

</g><g
           id="g66"
           transform="matrix(4.1530375,0,0,4.1503906,224.68652,566.08069)"><path
             d="m 4,0 h 463 c 0.2626,0 0.52271,0.02561962 0.78027,0.07685887 0.2576,0.05123925 0.50772,0.12711356 0.75037,0.22762296 0.24264,0.10050941 0.47317,0.22372261 0.69156,0.36963967 0.21841,0.14591706 0.4205,0.31173408 0.6062,0.4974513 0.1857,0.1857171 0.3515,0.3877658 0.49741,0.606146 0.1459,0.2183803 0.26913,0.4488959 0.36966,0.6915471 0.10049,0.2426513 0.17639,0.4927755 0.22763,0.7503727 C 470.97433,3.4772356 470.99997,3.7373559 471,4 v 26 c -3e-5,0.262644 -0.0257,0.522762 -0.0769,0.780359 -0.0512,0.257597 -0.12714,0.507719 -0.22767,0.75037 -0.10049,0.242651 -0.22372,0.47317 -0.36962,0.69155 -0.14591,0.21838 -0.31171,0.420429 -0.49741,0.606147 -0.1857,0.185715 -0.38779,0.351529 -0.6062,0.497445 -0.21835,0.145919 -0.44888,0.269134 -0.69153,0.36964 -0.24265,0.10051 -0.49277,0.176384 -0.75037,0.227627 C 467.52271,33.974377 467.2626,33.999996 467,34 H 4 C 3.7373559,33.999996 3.4772356,33.97438 3.2196383,33.92314 2.9620411,33.871895 2.7119172,33.796021 2.4692659,33.695515 2.2266147,33.595005 1.9960991,33.47179 1.7777188,33.325874 1.5593386,33.179958 1.3572899,33.014141 1.1715728,32.828426 0.98585558,32.642708 0.8200385,32.440659 0.67412144,32.222279 0.52820444,32.003899 0.40499124,31.77338 0.30448183,31.530729 0.20397243,31.288078 0.12809812,31.037956 0.07685887,30.780359 0.02561962,30.522762 0,30.262644 0,30 V 4 C 0,3.7373562 0.02561963,3.4772358 0.07685889,3.2196386 0.12809815,2.9620416 0.20397247,2.7119176 0.30448189,2.4692664 0.4049913,2.2266152 0.5282045,1.9960995 0.67412156,1.777719 0.82003856,1.5593388 0.9858557,1.3572901 1.1715729,1.1715729 1.3572901,0.9858557 1.5593388,0.82003862 1.7777191,0.67412162 1.9960995,0.52820456 2.2266152,0.4049913 2.4692664,0.30448189 2.7119176,0.20397247 2.9620416,0.12809815 3.2196386,0.07685889 3.4772358,0.02561963 3.7373562,0 4,0 Z"
             style="fill:url(#linearGradient74);fill-opacity:1;fill-rule:nonzero;stroke:none"
             id="path76"
             inkscape:connector-curvature="0" /><path
             d="m 4,0 h 463 c 0.2626,0 0.52271,0.02561962 0.78027,0.07685887 0.2576,0.05123925 0.50772,0.12711356 0.75037,0.22762296 0.24264,0.10050941 0.47317,0.22372261 0.69156,0.36963967 0.21841,0.14591706 0.4205,0.31173408 0.6062,0.4974513 0.1857,0.1857171 0.3515,0.3877658 0.49741,0.606146 0.1459,0.2183803 0.26913,0.4488959 0.36966,0.6915471 0.10049,0.2426513 0.17639,0.4927755 0.22763,0.7503727 C 470.97433,3.4772356 470.99997,3.7373559 471,4 v 26 c -3e-5,0.262644 -0.0257,0.522762 -0.0769,0.780359 -0.0512,0.257597 -0.12714,0.507719 -0.22767,0.75037 -0.10049,0.242651 -0.22372,0.47317 -0.36962,0.69155 -0.14591,0.21838 -0.31171,0.420429 -0.49741,0.606147 -0.1857,0.185715 -0.38779,0.351529 -0.6062,0.497445 -0.21835,0.145919 -0.44888,0.269134 -0.69153,0.36964 -0.24265,0.10051 -0.49277,0.176384 -0.75037,0.227627 C 467.52271,33.974377 467.2626,33.999996 467,34 H 4 C 3.7373559,33.999996 3.4772356,33.97438 3.2196383,33.92314 2.9620411,33.871895 2.7119172,33.796021 2.4692659,33.695515 2.2266147,33.595005 1.9960991,33.47179 1.7777188,33.325874 1.5593386,33.179958 1.3572899,33.014141 1.1715728,32.828426 0.98585558,32.642708 0.8200385,32.440659 0.67412144,32.222279 0.52820444,32.003899 0.40499124,31.77338 0.30448183,31.530729 0.20397243,31.288078 0.12809812,31.037956 0.07685887,30.780359 0.02561962,30.522762 0,30.262644 0,30 V 4 C 0,3.7373562 0.02561963,3.4772358 0.07685889,3.2196386 0.12809815,2.9620416 0.20397247,2.7119176 0.30448189,2.4692664 0.4049913,2.2266152 0.5282045,1.9960995 0.67412156,1.777719 0.82003856,1.5593388 0.9858557,1.3572901 1.1715729,1.1715729 1.3572901,0.9858557 1.5593388,0.82003862 1.7777191,0.67412162 1.9960995,0.52820456 2.2266152,0.4049913 2.4692664,0.30448189 2.7119176,0.20397247 2.9620416,0.12809815 3.2196386,0.07685889 3.4772358,0.02561963 3.7373562,0 4,0 Z"
             style="fill:none;stroke:#cccccc;stroke-width:1;stroke-linecap:butt;stroke-linejoin:miter;stroke-miterlimit:10;stroke-dasharray:none;stroke-opacity:1"
             id="path78"
             inkscape:connector-curvature="0" /></g><g
           id="g80"
           transform="matrix(3.1269929,0,0,3.125,274.52298,657.38928)"><text
   style="font-variant:normal;font-weight:normal;font-size:18.59000015px;font-family:Arimo;-inkscape-font-specification:Arimo;writing-mode:lr-tb;fill:#545454;fill-opacity:1;fill-rule:nonzero;stroke:none"
   id="text84"><tspan
     x="0 10.332275 22.72374 35.115204 47.506668 53.693329 64.025604 74.35788 87.774414"
     y="0"
     sodipodi:role="line"
     id="tspan82">0ABX-32CD</tspan></text>

</g></g></g><g
       id="g86"><g
         id="g88"
         clip-path="url(#clipPath92)"><g
           id="g94"
           transform="matrix(4.1530375,0,0,4.1503906,224.68652,445.71939)"><text
   transform="translate(0,17)"
   style="font-variant:normal;font-weight:bold;font-size:17px;font-family:'Liberation Sans';-inkscape-font-specification:LiberationSans-Bold;writing-mode:lr-tb;fill:#000000;fill-opacity:1;fill-rule:nonzero;stroke:none"
   id="text98"><tspan
     x="0 12.276855 22.661133 33.04541 37.768555 48.152832"
     y="0"
     sodipodi:role="line"
     id="tspan96">Código</tspan></text>

</g></g></g><g
       id="g100"><g
         id="g102"
         clip-path="url(#clipPath106)"><g
           id="g108"
           transform="matrix(4.1530375,0,0,4.1503906,1196.4973,1080.7291)"><path
             d="m 4,0 h 63 c 0.262642,0 0.522766,0.02561962 0.780357,0.07685887 0.257599,0.05123925 0.507721,0.12711356 0.750374,0.22762296 0.242653,0.10050941 0.473168,0.22372261 0.691544,0.36963967 0.218384,0.14591706 0.420433,0.31173408 0.606148,0.4974513 0.185714,0.1857171 0.351532,0.3877658 0.497444,0.606146 0.145919,0.2183803 0.269134,0.4488959 0.369644,0.6915471 0.10051,0.2426513 0.176384,0.4927755 0.227623,0.7503727 C 70.974373,3.4772356 70.999992,3.7373559 71,4 v 26 c -8e-6,0.262644 -0.02563,0.522762 -0.07687,0.780359 -0.05124,0.257597 -0.127113,0.507719 -0.227623,0.75037 -0.10051,0.242651 -0.223725,0.47317 -0.369644,0.69155 -0.145912,0.21838 -0.31173,0.420429 -0.497444,0.606147 -0.185715,0.185715 -0.387764,0.351529 -0.606148,0.497445 -0.218376,0.145919 -0.448891,0.269134 -0.691544,0.36964 -0.242653,0.10051 -0.492775,0.176384 -0.750374,0.227627 C 67.522766,33.974377 67.262642,33.999996 67,34 H 4 C 3.7373559,33.999996 3.4772356,33.97438 3.2196383,33.92314 2.9620411,33.871895 2.7119172,33.796021 2.4692659,33.695515 2.2266147,33.595005 1.9960991,33.47179 1.7777188,33.325874 1.5593386,33.179958 1.3572899,33.014141 1.1715728,32.828426 0.98585558,32.642708 0.8200385,32.440659 0.67412144,32.222279 0.52820444,32.003899 0.40499124,31.77338 0.30448183,31.530729 0.20397243,31.288078 0.12809812,31.037956 0.07685887,30.780359 0.02561962,30.522762 0,30.262644 0,30 V 4 C 0,3.7373562 0.02561963,3.4772358 0.07685889,3.2196386 0.12809815,2.9620416 0.20397247,2.7119176 0.30448189,2.4692664 0.4049913,2.2266152 0.5282045,1.9960995 0.67412156,1.777719 0.82003856,1.5593388 0.9858557,1.3572901 1.1715729,1.1715729 1.3572901,0.9858557 1.5593388,0.82003862 1.7777191,0.67412162 1.9960995,0.52820456 2.2266152,0.4049913 2.4692664,0.30448189 2.7119176,0.20397247 2.9620416,0.12809815 3.2196386,0.07685889 3.4772358,0.02561963 3.7373562,0 4,0 Z"
             style="fill:#5cb85c;fill-opacity:1;fill-rule:nonzero;stroke:none"
             id="path110"
             inkscape:connector-curvature="0" /><path
             d="m 4,0 h 63 c 0.262642,0 0.522766,0.02561962 0.780357,0.07685887 0.257599,0.05123925 0.507721,0.12711356 0.750374,0.22762296 0.242653,0.10050941 0.473168,0.22372261 0.691544,0.36963967 0.218384,0.14591706 0.420433,0.31173408 0.606148,0.4974513 0.185714,0.1857171 0.351532,0.3877658 0.497444,0.606146 0.145919,0.2183803 0.269134,0.4488959 0.369644,0.6915471 0.10051,0.2426513 0.176384,0.4927755 0.227623,0.7503727 C 70.974373,3.4772356 70.999992,3.7373559 71,4 v 26 c -8e-6,0.262644 -0.02563,0.522762 -0.07687,0.780359 -0.05124,0.257597 -0.127113,0.507719 -0.227623,0.75037 -0.10051,0.242651 -0.223725,0.47317 -0.369644,0.69155 -0.145912,0.21838 -0.31173,0.420429 -0.497444,0.606147 -0.185715,0.185715 -0.387764,0.351529 -0.606148,0.497445 -0.218376,0.145919 -0.448891,0.269134 -0.691544,0.36964 -0.242653,0.10051 -0.492775,0.176384 -0.750374,0.227627 C 67.522766,33.974377 67.262642,33.999996 67,34 H 4 C 3.7373559,33.999996 3.4772356,33.97438 3.2196383,33.92314 2.9620411,33.871895 2.7119172,33.796021 2.4692659,33.695515 2.2266147,33.595005 1.9960991,33.47179 1.7777188,33.325874 1.5593386,33.179958 1.3572899,33.014141 1.1715728,32.828426 0.98585558,32.642708 0.8200385,32.440659 0.67412144,32.222279 0.52820444,32.003899 0.40499124,31.77338 0.30448183,31.530729 0.20397243,31.288078 0.12809812,31.037956 0.07685887,30.780359 0.02561962,30.522762 0,30.262644 0,30 V 4 C 0,3.7373562 0.02561963,3.4772358 0.07685889,3.2196386 0.12809815,2.9620416 0.20397247,2.7119176 0.30448189,2.4692664 0.4049913,2.2266152 0.5282045,1.9960995 0.67412156,1.777719 0.82003856,1.5593388 0.9858557,1.3572901 1.1715729,1.1715729 1.3572901,0.9858557 1.5593388,0.82003862 1.7777191,0.67412162 1.9960995,0.52820456 2.2266152,0.4049913 2.4692664,0.30448189 2.7119176,0.20397247 2.9620416,0.12809815 3.2196386,0.07685889 3.4772358,0.02561963 3.7373562,0 4,0 Z"
             style="fill:none;stroke:#4cae4c;stroke-width:1;stroke-linecap:butt;stroke-linejoin:miter;stroke-miterlimit:10;stroke-dasharray:none;stroke-opacity:1"
             id="path112"
             inkscape:connector-curvature="0" /></g><g
           id="g114"
           transform="matrix(3.1269929,0,0,3.125,1246.3337,1172.0377)"><text
   transform="translate(4.6276855)"
   style="font-variant:normal;font-weight:normal;font-size:18.59000015px;font-family:Arimo;-inkscape-font-specification:Arimo;writing-mode:lr-tb;fill:#ffffff;fill-opacity:1;fill-rule:nonzero;stroke:none"
   id="text118"><tspan
     x="0 12.391464 22.72374 26.851212 36.140274 46.472549"
     y="0"
     sodipodi:role="line"
     id="tspan116">Salvar</tspan></text>

</g><g
           id="g120"
           transform="matrix(4.1530375,0,0,4.1503906,1532.8933,1080.7291)"><path
             d="m 4,0 h 63 c 0.262642,0 0.522766,0.02561962 0.780357,0.07685887 0.257599,0.05123925 0.507721,0.12711356 0.750374,0.22762296 0.242653,0.10050941 0.473168,0.22372261 0.691544,0.36963967 0.218384,0.14591706 0.420433,0.31173408 0.606148,0.4974513 0.185714,0.1857171 0.351532,0.3877658 0.497444,0.606146 0.145919,0.2183803 0.269134,0.4488959 0.369644,0.6915471 0.10051,0.2426513 0.176384,0.4927755 0.227623,0.7503727 C 70.974373,3.4772356 70.999992,3.7373559 71,4 v 26 c -8e-6,0.262644 -0.02563,0.522762 -0.07687,0.780359 -0.05124,0.257597 -0.127113,0.507719 -0.227623,0.75037 -0.10051,0.242651 -0.223725,0.47317 -0.369644,0.69155 -0.145912,0.21838 -0.31173,0.420429 -0.497444,0.606147 -0.185715,0.185715 -0.387764,0.351529 -0.606148,0.497445 -0.218376,0.145919 -0.448891,0.269134 -0.691544,0.36964 -0.242653,0.10051 -0.492775,0.176384 -0.750374,0.227627 C 67.522766,33.974377 67.262642,33.999996 67,34 H 4 C 3.7373559,33.999996 3.4772356,33.97438 3.2196383,33.92314 2.9620411,33.871895 2.7119172,33.796021 2.4692659,33.695515 2.2266147,33.595005 1.9960991,33.47179 1.7777188,33.325874 1.5593386,33.179958 1.3572899,33.014141 1.1715728,32.828426 0.98585558,32.642708 0.8200385,32.440659 0.67412144,32.222279 0.52820444,32.003899 0.40499124,31.77338 0.30448183,31.530729 0.20397243,31.288078 0.12809812,31.037956 0.07685887,30.780359 0.02561962,30.522762 0,30.262644 0,30 V 4 C 0,3.7373562 0.02561963,3.4772358 0.07685889,3.2196386 0.12809815,2.9620416 0.20397247,2.7119176 0.30448189,2.4692664 0.4049913,2.2266152 0.5282045,1.9960995 0.67412156,1.777719 0.82003856,1.5593388 0.9858557,1.3572901 1.1715729,1.1715729 1.3572901,0.9858557 1.5593388,0.82003862 1.7777191,0.67412162 1.9960995,0.52820456 2.2266152,0.4049913 2.4692664,0.30448189 2.7119176,0.20397247 2.9620416,0.12809815 3.2196386,0.07685889 3.4772358,0.02561963 3.7373562,0 4,0 Z"
             style="fill:#ffffff;fill-opacity:1;fill-rule:nonzero;stroke:none"
             id="path122"
             inkscape:connector-curvature="0" /><path
             d="m 4,0 h 63 c 0.262642,0 0.522766,0.02561962 0.780357,0.07685887 0.257599,0.05123925 0.507721,0.12711356 0.750374,0.22762296 0.242653,0.10050941 0.473168,0.22372261 0.691544,0.36963967 0.218384,0.14591706 0.420433,0.31173408 0.606148,0.4974513 0.185714,0.1857171 0.351532,0.3877658 0.497444,0.606146 0.145919,0.2183803 0.269134,0.4488959 0.369644,0.6915471 0.10051,0.2426513 0.176384,0.4927755 0.227623,0.7503727 C 70.974373,3.4772356 70.999992,3.7373559 71,4 v 26 c -8e-6,0.262644 -0.02563,0.522762 -0.07687,0.780359 -0.05124,0.257597 -0.127113,0.507719 -0.227623,0.75037 -0.10051,0.242651 -0.223725,0.47317 -0.369644,0.69155 -0.145912,0.21838 -0.31173,0.420429 -0.497444,0.606147 -0.185715,0.185715 -0.387764,0.351529 -0.606148,0.497445 -0.218376,0.145919 -0.448891,0.269134 -0.691544,0.36964 -0.242653,0.10051 -0.492775,0.176384 -0.750374,0.227627 C 67.522766,33.974377 67.262642,33.999996 67,34 H 4 C 3.7373559,33.999996 3.4772356,33.97438 3.2196383,33.92314 2.9620411,33.871895 2.7119172,33.796021 2.4692659,33.695515 2.2266147,33.595005 1.9960991,33.47179 1.7777188,33.325874 1.5593386,33.179958 1.3572899,33.014141 1.1715728,32.828426 0.98585558,32.642708 0.8200385,32.440659 0.67412144,32.222279 0.52820444,32.003899 0.40499124,31.77338 0.30448183,31.530729 0.20397243,31.288078 0.12809812,31.037956 0.07685887,30.780359 0.02561962,30.522762 0,30.262644 0,30 V 4 C 0,3.7373562 0.02561963,3.4772358 0.07685889,3.2196386 0.12809815,2.9620416 0.20397247,2.7119176 0.30448189,2.4692664 0.4049913,2.2266152 0.5282045,1.9960995 0.67412156,1.777719 0.82003856,1.5593388 0.9858557,1.3572901 1.1715729,1.1715729 1.3572901,0.9858557 1.5593388,0.82003862 1.7777191,0.67412162 1.9960995,0.52820456 2.2266152,0.4049913 2.4692664,0.30448189 2.7119176,0.20397247 2.9620416,0.12809815 3.2196386,0.07685889 3.4772358,0.02561963 3.7373562,0 4,0 Z"
             style="fill:none;stroke:#f2f2f2;stroke-width:1;stroke-linecap:butt;stroke-linejoin:miter;stroke-miterlimit:10;stroke-dasharray:none;stroke-opacity:1"
             id="path124"
             inkscape:connector-curvature="0" /></g><g
           id="g126"
           transform="matrix(3.1269929,0,0,3.125,1582.7299,1172.0377)"><text
   transform="translate(2.5628662)"
   style="font-variant:normal;font-weight:normal;font-size:18.59000015px;font-family:Arimo;-inkscape-font-specification:Arimo;writing-mode:lr-tb;fill:#333333;fill-opacity:1;fill-rule:nonzero;stroke:none"
   id="text130"><tspan
     x="0 10.332275 14.459747 29.935471 40.267746 50.600021"
     y="0"
     sodipodi:role="line"
     id="tspan128">Limpar</tspan></text>

</g></g></g><g
       id="g132"><g
         id="g134"
         clip-path="url(#clipPath138)"><g
           id="g140"
           transform="matrix(4.1530375,0,0,4.1503906,224.68652,1209.3912)"><path
   d="m 111,157 h 360 v 1 H 111 Z"
   style="fill:#dddddd;fill-opacity:1;fill-rule:nonzero;stroke:none"
   id="path142"
   inkscape:connector-curvature="0" /><path
   d="m 0,157 h 111 v 1 H 0 Z"
   style="fill:#dddddd;fill-opacity:1;fill-rule:nonzero;stroke:none"
   id="path144"
   inkscape:connector-curvature="0" /><path
   d="m 111,104 h 360 v 1 H 111 Z"
   style="fill:#dddddd;fill-opacity:1;fill-rule:nonzero;stroke:none"
   id="path146"
   inkscape:connector-curvature="0" /><path
   d="m 0,104 h 111 v 1 H 0 Z"
   style="fill:#dddddd;fill-opacity:1;fill-rule:nonzero;stroke:none"
   id="path148"
   inkscape:connector-curvature="0" /><path
   d="m 111,51 h 360 v 2 H 111 Z"
   style="fill:#dddddd;fill-opacity:1;fill-rule:nonzero;stroke:none"
   id="path150"
   inkscape:connector-curvature="0" /><path
   d="m 0,51 h 111 v 2 H 0 Z"
   style="fill:#dddddd;fill-opacity:1;fill-rule:nonzero;stroke:none"
   id="path152"
   inkscape:connector-curvature="0" /><text
   transform="translate(8,30)"
   style="font-variant:normal;font-weight:bold;font-size:14px;font-family:Arimo;-inkscape-font-specification:Arimo-Bold;writing-mode:lr-tb;fill:#333333;fill-opacity:1;fill-rule:nonzero;stroke:none"
   id="text156"><tspan
     x="0 3.8896484"
     y="0"
     sodipodi:role="line"
     id="tspan154">Id</tspan></text>

<text
   transform="translate(119,30)"
   style="font-variant:normal;font-weight:bold;font-size:14px;font-family:Arimo;-inkscape-font-specification:Arimo-Bold;writing-mode:lr-tb;fill:#333333;fill-opacity:1;fill-rule:nonzero;stroke:none"
   id="text160"><tspan
     x="0 10.110352 18.662109 27.213867 31.103516 39.655273"
     y="0"
     sodipodi:role="line"
     id="tspan158">Código</tspan></text>

<text
   transform="translate(8,83)"
   style="font-variant:normal;font-weight:normal;font-size:14px;font-family:Arimo;-inkscape-font-specification:Arimo;writing-mode:lr-tb;fill:#333333;fill-opacity:1;fill-rule:nonzero;stroke:none"
   id="text164"><tspan
     x="0"
     y="0"
     id="tspan162">1</tspan></text>

<text
   transform="translate(119,83)"
   style="font-variant:normal;font-weight:normal;font-size:14px;font-family:Arimo;-inkscape-font-specification:Arimo;writing-mode:lr-tb;fill:#333333;fill-opacity:1;fill-rule:nonzero;stroke:none"
   id="text168"><tspan
     x="0 7.7861328 17.124023 26.461914 35.799805 40.461914 48.248047 56.03418 66.144531"
     y="0"
     sodipodi:role="line"
     id="tspan166">0ABX-32CD</tspan></text>

<text
   transform="translate(8,136)"
   style="font-variant:normal;font-weight:normal;font-size:14px;font-family:Arimo;-inkscape-font-specification:Arimo;writing-mode:lr-tb;fill:#333333;fill-opacity:1;fill-rule:nonzero;stroke:none"
   id="text172"><tspan
     x="0"
     y="0"
     id="tspan170">2</tspan></text>

<text
   transform="translate(119,136)"
   style="font-variant:normal;font-weight:normal;font-size:14px;font-family:Arimo;-inkscape-font-specification:Arimo;writing-mode:lr-tb;fill:#333333;fill-opacity:1;fill-rule:nonzero;stroke:none"
   id="text176"><tspan
     x="0 9.3378906 18.675781 28.786133 33.448242 41.234375 50.572266 58.358398 66.144531"
     y="0"
     sodipodi:role="line"
     id="tspan174">ABC-0AbeF</tspan></text>

<text
   transform="translate(8,189)"
   style="font-variant:normal;font-weight:normal;font-size:14px;font-family:Arimo;-inkscape-font-specification:Arimo;writing-mode:lr-tb;fill:#333333;fill-opacity:1;fill-rule:nonzero;stroke:none"
   id="text180"><tspan
     x="0"
     y="0"
     id="tspan178">3</tspan></text>

<text
   transform="translate(119,189)"
   style="font-variant:normal;font-weight:normal;font-size:14px;font-family:Arimo;-inkscape-font-specification:Arimo;writing-mode:lr-tb;fill:#333333;fill-opacity:1;fill-rule:nonzero;stroke:none"
   id="text184"><tspan
     x="0 9.3378906 18.675781 28.786133 33.448242 41.234375 49.020508 58.358398 66.910156"
     y="0"
     sodipodi:role="line"
     id="tspan182">ASD-43XZA</tspan></text>

</g></g></g><g
       id="g186"><g
         id="g188"
         clip-path="url(#clipPath192)"><g
           id="g194"
           transform="matrix(4.1530375,0,0,4.1503906,1885.9015,1495.7682)"><path
             d="m 4,0 h 63 c 0.262642,0 0.522766,0.02561962 0.780357,0.07685887 0.257599,0.05123925 0.507721,0.12711356 0.750374,0.22762296 0.242653,0.10050941 0.473168,0.22372261 0.691544,0.36963967 0.218384,0.14591706 0.420433,0.31173408 0.606148,0.4974513 0.185714,0.1857171 0.351532,0.3877658 0.497444,0.606146 0.145919,0.2183803 0.269134,0.4488959 0.369644,0.6915471 0.10051,0.2426513 0.176384,0.4927755 0.227623,0.7503727 C 70.974373,3.4772356 70.999992,3.7373559 71,4 v 13 c -8e-6,0.262644 -0.02563,0.522764 -0.07687,0.780361 -0.05124,0.257597 -0.127113,0.507719 -0.227623,0.75037 -0.10051,0.242651 -0.223725,0.473168 -0.369644,0.691548 -0.145912,0.21838 -0.31173,0.420429 -0.497444,0.606147 -0.185715,0.185717 -0.387764,0.351532 -0.606148,0.49745 -0.218376,0.145916 -0.448891,0.269129 -0.691544,0.369639 -0.242653,0.100509 -0.492775,0.176384 -0.750374,0.227623 C 67.522766,20.974379 67.262642,20.999998 67,21 H 4 C 3.7373559,20.999998 3.4772356,20.97438 3.2196383,20.92314 2.9620411,20.871899 2.7119172,20.796024 2.4692659,20.695515 2.2266147,20.595005 1.9960991,20.471792 1.7777188,20.325876 1.5593386,20.179958 1.3572899,20.014143 1.1715728,19.828426 0.98585558,19.642708 0.8200385,19.440659 0.67412144,19.222279 0.52820444,19.003899 0.40499124,18.773382 0.30448183,18.530731 0.20397243,18.28808 0.12809812,18.037958 0.07685887,17.780361 0.02561962,17.522764 0,17.262644 0,17 V 4 C 0,3.7373562 0.02561963,3.4772358 0.07685889,3.2196386 0.12809815,2.9620416 0.20397247,2.7119176 0.30448189,2.4692664 0.4049913,2.2266152 0.5282045,1.9960995 0.67412156,1.777719 0.82003856,1.5593388 0.9858557,1.3572901 1.1715729,1.1715729 1.3572901,0.9858557 1.5593388,0.82003862 1.7777191,0.67412162 1.9960995,0.52820456 2.2266152,0.4049913 2.4692664,0.30448189 2.7119176,0.20397247 2.9620416,0.12809815 3.2196386,0.07685889 3.4772358,0.02561963 3.7373562,0 4,0 Z"
             style="fill:#d9534f;fill-opacity:1;fill-rule:nonzero;stroke:none"
             id="path196"
             inkscape:connector-curvature="0" /><path
             d="m 4,0 h 63 c 0.262642,0 0.522766,0.02561962 0.780357,0.07685887 0.257599,0.05123925 0.507721,0.12711356 0.750374,0.22762296 0.242653,0.10050941 0.473168,0.22372261 0.691544,0.36963967 0.218384,0.14591706 0.420433,0.31173408 0.606148,0.4974513 0.185714,0.1857171 0.351532,0.3877658 0.497444,0.606146 0.145919,0.2183803 0.269134,0.4488959 0.369644,0.6915471 0.10051,0.2426513 0.176384,0.4927755 0.227623,0.7503727 C 70.974373,3.4772356 70.999992,3.7373559 71,4 v 13 c -8e-6,0.262644 -0.02563,0.522764 -0.07687,0.780361 -0.05124,0.257597 -0.127113,0.507719 -0.227623,0.75037 -0.10051,0.242651 -0.223725,0.473168 -0.369644,0.691548 -0.145912,0.21838 -0.31173,0.420429 -0.497444,0.606147 -0.185715,0.185717 -0.387764,0.351532 -0.606148,0.49745 -0.218376,0.145916 -0.448891,0.269129 -0.691544,0.369639 -0.242653,0.100509 -0.492775,0.176384 -0.750374,0.227623 C 67.522766,20.974379 67.262642,20.999998 67,21 H 4 C 3.7373559,20.999998 3.4772356,20.97438 3.2196383,20.92314 2.9620411,20.871899 2.7119172,20.796024 2.4692659,20.695515 2.2266147,20.595005 1.9960991,20.471792 1.7777188,20.325876 1.5593386,20.179958 1.3572899,20.014143 1.1715728,19.828426 0.98585558,19.642708 0.8200385,19.440659 0.67412144,19.222279 0.52820444,19.003899 0.40499124,18.773382 0.30448183,18.530731 0.20397243,18.28808 0.12809812,18.037958 0.07685887,17.780361 0.02561962,17.522764 0,17.262644 0,17 V 4 C 0,3.7373562 0.02561963,3.4772358 0.07685889,3.2196386 0.12809815,2.9620416 0.20397247,2.7119176 0.30448189,2.4692664 0.4049913,2.2266152 0.5282045,1.9960995 0.67412156,1.777719 0.82003856,1.5593388 0.9858557,1.3572901 1.1715729,1.1715729 1.3572901,0.9858557 1.5593388,0.82003862 1.7777191,0.67412162 1.9960995,0.52820456 2.2266152,0.4049913 2.4692664,0.30448189 2.7119176,0.20397247 2.9620416,0.12809815 3.2196386,0.07685889 3.4772358,0.02561963 3.7373562,0 4,0 Z"
             style="fill:none;stroke:#d4403a;stroke-width:1;stroke-linecap:butt;stroke-linejoin:miter;stroke-miterlimit:10;stroke-dasharray:none;stroke-opacity:1"
             id="path198"
             inkscape:connector-curvature="0" /></g><g
           id="g200"
           transform="matrix(3.1269929,0,0,3.125,1935.738,1562.1744)"><text
   transform="translate(4.1192627)"
   style="font-variant:normal;font-weight:normal;font-size:18.59000015px;font-family:Arimo;-inkscape-font-specification:Arimo;writing-mode:lr-tb;fill:#ffffff;fill-opacity:1;fill-rule:nonzero;stroke:none"
   id="text204"><tspan
     x="0 10.332275 19.621338 28.9104 33.037872 43.370148 47.49762"
     y="0"
     sodipodi:role="line"
     id="tspan202">excluir</tspan></text>

</g><g
           id="g206"
           transform="matrix(4.1530375,0,0,4.1503906,1885.9015,1703.2877)"><path
             d="m 4,0 h 63 c 0.262642,0 0.522766,0.02561962 0.780357,0.07685887 0.257599,0.05123925 0.507721,0.12711356 0.750374,0.22762296 0.242653,0.10050941 0.473168,0.22372261 0.691544,0.36963967 0.218384,0.14591706 0.420433,0.31173408 0.606148,0.4974513 0.185714,0.1857171 0.351532,0.3877658 0.497444,0.606146 0.145919,0.2183803 0.269134,0.4488959 0.369644,0.6915471 0.10051,0.2426513 0.176384,0.4927755 0.227623,0.7503727 C 70.974373,3.4772356 70.999992,3.7373559 71,4 v 13 c -8e-6,0.262644 -0.02563,0.522764 -0.07687,0.780361 -0.05124,0.257597 -0.127113,0.507719 -0.227623,0.75037 -0.10051,0.242651 -0.223725,0.473168 -0.369644,0.691548 -0.145912,0.21838 -0.31173,0.420429 -0.497444,0.606147 -0.185715,0.185717 -0.387764,0.351532 -0.606148,0.49745 -0.218376,0.145916 -0.448891,0.269129 -0.691544,0.369639 -0.242653,0.100509 -0.492775,0.176384 -0.750374,0.227623 C 67.522766,20.974379 67.262642,20.999998 67,21 H 4 C 3.7373559,20.999998 3.4772356,20.97438 3.2196383,20.92314 2.9620411,20.871899 2.7119172,20.796024 2.4692659,20.695515 2.2266147,20.595005 1.9960991,20.471792 1.7777188,20.325876 1.5593386,20.179958 1.3572899,20.014143 1.1715728,19.828426 0.98585558,19.642708 0.8200385,19.440659 0.67412144,19.222279 0.52820444,19.003899 0.40499124,18.773382 0.30448183,18.530731 0.20397243,18.28808 0.12809812,18.037958 0.07685887,17.780361 0.02561962,17.522764 0,17.262644 0,17 V 4 C 0,3.7373562 0.02561963,3.4772358 0.07685889,3.2196386 0.12809815,2.9620416 0.20397247,2.7119176 0.30448189,2.4692664 0.4049913,2.2266152 0.5282045,1.9960995 0.67412156,1.777719 0.82003856,1.5593388 0.9858557,1.3572901 1.1715729,1.1715729 1.3572901,0.9858557 1.5593388,0.82003862 1.7777191,0.67412162 1.9960995,0.52820456 2.2266152,0.4049913 2.4692664,0.30448189 2.7119176,0.20397247 2.9620416,0.12809815 3.2196386,0.07685889 3.4772358,0.02561963 3.7373562,0 4,0 Z"
             style="fill:#d9534f;fill-opacity:1;fill-rule:nonzero;stroke:none"
             id="path208"
             inkscape:connector-curvature="0" /><path
             d="m 4,0 h 63 c 0.262642,0 0.522766,0.02561962 0.780357,0.07685887 0.257599,0.05123925 0.507721,0.12711356 0.750374,0.22762296 0.242653,0.10050941 0.473168,0.22372261 0.691544,0.36963967 0.218384,0.14591706 0.420433,0.31173408 0.606148,0.4974513 0.185714,0.1857171 0.351532,0.3877658 0.497444,0.606146 0.145919,0.2183803 0.269134,0.4488959 0.369644,0.6915471 0.10051,0.2426513 0.176384,0.4927755 0.227623,0.7503727 C 70.974373,3.4772356 70.999992,3.7373559 71,4 v 13 c -8e-6,0.262644 -0.02563,0.522764 -0.07687,0.780361 -0.05124,0.257597 -0.127113,0.507719 -0.227623,0.75037 -0.10051,0.242651 -0.223725,0.473168 -0.369644,0.691548 -0.145912,0.21838 -0.31173,0.420429 -0.497444,0.606147 -0.185715,0.185717 -0.387764,0.351532 -0.606148,0.49745 -0.218376,0.145916 -0.448891,0.269129 -0.691544,0.369639 -0.242653,0.100509 -0.492775,0.176384 -0.750374,0.227623 C 67.522766,20.974379 67.262642,20.999998 67,21 H 4 C 3.7373559,20.999998 3.4772356,20.97438 3.2196383,20.92314 2.9620411,20.871899 2.7119172,20.796024 2.4692659,20.695515 2.2266147,20.595005 1.9960991,20.471792 1.7777188,20.325876 1.5593386,20.179958 1.3572899,20.014143 1.1715728,19.828426 0.98585558,19.642708 0.8200385,19.440659 0.67412144,19.222279 0.52820444,19.003899 0.40499124,18.773382 0.30448183,18.530731 0.20397243,18.28808 0.12809812,18.037958 0.07685887,17.780361 0.02561962,17.522764 0,17.262644 0,17 V 4 C 0,3.7373562 0.02561963,3.4772358 0.07685889,3.2196386 0.12809815,2.9620416 0.20397247,2.7119176 0.30448189,2.4692664 0.4049913,2.2266152 0.5282045,1.9960995 0.67412156,1.777719 0.82003856,1.5593388 0.9858557,1.3572901 1.1715729,1.1715729 1.3572901,0.9858557 1.5593388,0.82003862 1.7777191,0.67412162 1.9960995,0.52820456 2.2266152,0.4049913 2.4692664,0.30448189 2.7119176,0.20397247 2.9620416,0.12809815 3.2196386,0.07685889 3.4772358,0.02561963 3.7373562,0 4,0 Z"
             style="fill:none;stroke:#d4403a;stroke-width:1;stroke-linecap:butt;stroke-linejoin:miter;stroke-miterlimit:10;stroke-dasharray:none;stroke-opacity:1"
             id="path210"
             inkscape:connector-curvature="0" /></g><g
           id="g212"
           transform="matrix(3.1269929,0,0,3.125,1935.738,1769.694)"><text
   transform="translate(4.1192627)"
   style="font-variant:normal;font-weight:normal;font-size:18.59000015px;font-family:Arimo;-inkscape-font-specification:Arimo;writing-mode:lr-tb;fill:#ffffff;fill-opacity:1;fill-rule:nonzero;stroke:none"
   id="text216"><tspan
     x="0 10.332275 19.621338 28.9104 33.037872 43.370148 47.49762"
     y="0"
     sodipodi:role="line"
     id="tspan214">excluir</tspan></text>

</g><g
           id="g218"
           transform="matrix(4.1530375,0,0,4.1503906,1885.9015,1914.9576)"><path
             d="m 4,0 h 63 c 0.262642,0 0.522766,0.02561962 0.780357,0.07685887 0.257599,0.05123925 0.507721,0.12711356 0.750374,0.22762296 0.242653,0.10050941 0.473168,0.22372261 0.691544,0.36963967 0.218384,0.14591706 0.420433,0.31173408 0.606148,0.4974513 0.185714,0.1857171 0.351532,0.3877658 0.497444,0.606146 0.145919,0.2183803 0.269134,0.4488959 0.369644,0.6915471 0.10051,0.2426513 0.176384,0.4927755 0.227623,0.7503727 C 70.974373,3.4772356 70.999992,3.7373559 71,4 v 13 c -8e-6,0.262644 -0.02563,0.522764 -0.07687,0.780361 -0.05124,0.257597 -0.127113,0.507719 -0.227623,0.75037 -0.10051,0.242651 -0.223725,0.473168 -0.369644,0.691548 -0.145912,0.21838 -0.31173,0.420429 -0.497444,0.606147 -0.185715,0.185717 -0.387764,0.351532 -0.606148,0.49745 -0.218376,0.145916 -0.448891,0.269129 -0.691544,0.369639 -0.242653,0.100509 -0.492775,0.176384 -0.750374,0.227623 C 67.522766,20.974379 67.262642,20.999998 67,21 H 4 C 3.7373559,20.999998 3.4772356,20.97438 3.2196383,20.92314 2.9620411,20.871899 2.7119172,20.796024 2.4692659,20.695515 2.2266147,20.595005 1.9960991,20.471792 1.7777188,20.325876 1.5593386,20.179958 1.3572899,20.014143 1.1715728,19.828426 0.98585558,19.642708 0.8200385,19.440659 0.67412144,19.222279 0.52820444,19.003899 0.40499124,18.773382 0.30448183,18.530731 0.20397243,18.28808 0.12809812,18.037958 0.07685887,17.780361 0.02561962,17.522764 0,17.262644 0,17 V 4 C 0,3.7373562 0.02561963,3.4772358 0.07685889,3.2196386 0.12809815,2.9620416 0.20397247,2.7119176 0.30448189,2.4692664 0.4049913,2.2266152 0.5282045,1.9960995 0.67412156,1.777719 0.82003856,1.5593388 0.9858557,1.3572901 1.1715729,1.1715729 1.3572901,0.9858557 1.5593388,0.82003862 1.7777191,0.67412162 1.9960995,0.52820456 2.2266152,0.4049913 2.4692664,0.30448189 2.7119176,0.20397247 2.9620416,0.12809815 3.2196386,0.07685889 3.4772358,0.02561963 3.7373562,0 4,0 Z"
             style="fill:#d9534f;fill-opacity:1;fill-rule:nonzero;stroke:none"
             id="path220"
             inkscape:connector-curvature="0" /><path
             d="m 4,0 h 63 c 0.262642,0 0.522766,0.02561962 0.780357,0.07685887 0.257599,0.05123925 0.507721,0.12711356 0.750374,0.22762296 0.242653,0.10050941 0.473168,0.22372261 0.691544,0.36963967 0.218384,0.14591706 0.420433,0.31173408 0.606148,0.4974513 0.185714,0.1857171 0.351532,0.3877658 0.497444,0.606146 0.145919,0.2183803 0.269134,0.4488959 0.369644,0.6915471 0.10051,0.2426513 0.176384,0.4927755 0.227623,0.7503727 C 70.974373,3.4772356 70.999992,3.7373559 71,4 v 13 c -8e-6,0.262644 -0.02563,0.522764 -0.07687,0.780361 -0.05124,0.257597 -0.127113,0.507719 -0.227623,0.75037 -0.10051,0.242651 -0.223725,0.473168 -0.369644,0.691548 -0.145912,0.21838 -0.31173,0.420429 -0.497444,0.606147 -0.185715,0.185717 -0.387764,0.351532 -0.606148,0.49745 -0.218376,0.145916 -0.448891,0.269129 -0.691544,0.369639 -0.242653,0.100509 -0.492775,0.176384 -0.750374,0.227623 C 67.522766,20.974379 67.262642,20.999998 67,21 H 4 C 3.7373559,20.999998 3.4772356,20.97438 3.2196383,20.92314 2.9620411,20.871899 2.7119172,20.796024 2.4692659,20.695515 2.2266147,20.595005 1.9960991,20.471792 1.7777188,20.325876 1.5593386,20.179958 1.3572899,20.014143 1.1715728,19.828426 0.98585558,19.642708 0.8200385,19.440659 0.67412144,19.222279 0.52820444,19.003899 0.40499124,18.773382 0.30448183,18.530731 0.20397243,18.28808 0.12809812,18.037958 0.07685887,17.780361 0.02561962,17.522764 0,17.262644 0,17 V 4 C 0,3.7373562 0.02561963,3.4772358 0.07685889,3.2196386 0.12809815,2.9620416 0.20397247,2.7119176 0.30448189,2.4692664 0.4049913,2.2266152 0.5282045,1.9960995 0.67412156,1.777719 0.82003856,1.5593388 0.9858557,1.3572901 1.1715729,1.1715729 1.3572901,0.9858557 1.5593388,0.82003862 1.7777191,0.67412162 1.9960995,0.52820456 2.2266152,0.4049913 2.4692664,0.30448189 2.7119176,0.20397247 2.9620416,0.12809815 3.2196386,0.07685889 3.4772358,0.02561963 3.7373562,0 4,0 Z"
             style="fill:none;stroke:#d4403a;stroke-width:1;stroke-linecap:butt;stroke-linejoin:miter;stroke-miterlimit:10;stroke-dasharray:none;stroke-opacity:1"
             id="path222"
             inkscape:connector-curvature="0" /></g><g
           id="g224"
           transform="matrix(3.1269929,0,0,3.125,1935.738,1981.3639)"><text
   transform="translate(4.1192627)"
   style="font-variant:normal;font-weight:normal;font-size:18.59000015px;font-family:Arimo;-inkscape-font-specification:Arimo;writing-mode:lr-tb;fill:#ffffff;fill-opacity:1;fill-rule:nonzero;stroke:none"
   id="text228"><tspan
     x="0 10.332275 19.621338 28.9104 33.037872 43.370148 47.49762"
     y="0"
     sodipodi:role="line"
     id="tspan226">excluir</tspan></text>

</g><g
           id="g230"
           transform="matrix(4.1530375,0,0,4.1503906,1885.9015,1080.7291)"><path
             d="m 4,0 h 63 c 0.262642,0 0.522766,0.02561962 0.780357,0.07685887 0.257599,0.05123925 0.507721,0.12711356 0.750374,0.22762296 0.242653,0.10050941 0.473168,0.22372261 0.691544,0.36963967 0.218384,0.14591706 0.420433,0.31173408 0.606148,0.4974513 0.185714,0.1857171 0.351532,0.3877658 0.497444,0.606146 0.145919,0.2183803 0.269134,0.4488959 0.369644,0.6915471 0.10051,0.2426513 0.176384,0.4927755 0.227623,0.7503727 C 70.974373,3.4772356 70.999992,3.7373559 71,4 v 26 c -8e-6,0.262644 -0.02563,0.522762 -0.07687,0.780359 -0.05124,0.257597 -0.127113,0.507719 -0.227623,0.75037 -0.10051,0.242651 -0.223725,0.47317 -0.369644,0.69155 -0.145912,0.21838 -0.31173,0.420429 -0.497444,0.606147 -0.185715,0.185715 -0.387764,0.351529 -0.606148,0.497445 -0.218376,0.145919 -0.448891,0.269134 -0.691544,0.36964 -0.242653,0.10051 -0.492775,0.176384 -0.750374,0.227627 C 67.522766,33.974377 67.262642,33.999996 67,34 H 4 C 3.7373559,33.999996 3.4772356,33.97438 3.2196383,33.92314 2.9620411,33.871895 2.7119172,33.796021 2.4692659,33.695515 2.2266147,33.595005 1.9960991,33.47179 1.7777188,33.325874 1.5593386,33.179958 1.3572899,33.014141 1.1715728,32.828426 0.98585558,32.642708 0.8200385,32.440659 0.67412144,32.222279 0.52820444,32.003899 0.40499124,31.77338 0.30448183,31.530729 0.20397243,31.288078 0.12809812,31.037956 0.07685887,30.780359 0.02561962,30.522762 0,30.262644 0,30 V 4 C 0,3.7373562 0.02561963,3.4772358 0.07685889,3.2196386 0.12809815,2.9620416 0.20397247,2.7119176 0.30448189,2.4692664 0.4049913,2.2266152 0.5282045,1.9960995 0.67412156,1.777719 0.82003856,1.5593388 0.9858557,1.3572901 1.1715729,1.1715729 1.3572901,0.9858557 1.5593388,0.82003862 1.7777191,0.67412162 1.9960995,0.52820456 2.2266152,0.4049913 2.4692664,0.30448189 2.7119176,0.20397247 2.9620416,0.12809815 3.2196386,0.07685889 3.4772358,0.02561963 3.7373562,0 4,0 Z"
             style="fill:#ffffff;fill-opacity:1;fill-rule:nonzero;stroke:none"
             id="path232"
             inkscape:connector-curvature="0" /><path
             d="m 4,0 h 63 c 0.262642,0 0.522766,0.02561962 0.780357,0.07685887 0.257599,0.05123925 0.507721,0.12711356 0.750374,0.22762296 0.242653,0.10050941 0.473168,0.22372261 0.691544,0.36963967 0.218384,0.14591706 0.420433,0.31173408 0.606148,0.4974513 0.185714,0.1857171 0.351532,0.3877658 0.497444,0.606146 0.145919,0.2183803 0.269134,0.4488959 0.369644,0.6915471 0.10051,0.2426513 0.176384,0.4927755 0.227623,0.7503727 C 70.974373,3.4772356 70.999992,3.7373559 71,4 v 26 c -8e-6,0.262644 -0.02563,0.522762 -0.07687,0.780359 -0.05124,0.257597 -0.127113,0.507719 -0.227623,0.75037 -0.10051,0.242651 -0.223725,0.47317 -0.369644,0.69155 -0.145912,0.21838 -0.31173,0.420429 -0.497444,0.606147 -0.185715,0.185715 -0.387764,0.351529 -0.606148,0.497445 -0.218376,0.145919 -0.448891,0.269134 -0.691544,0.36964 -0.242653,0.10051 -0.492775,0.176384 -0.750374,0.227627 C 67.522766,33.974377 67.262642,33.999996 67,34 H 4 C 3.7373559,33.999996 3.4772356,33.97438 3.2196383,33.92314 2.9620411,33.871895 2.7119172,33.796021 2.4692659,33.695515 2.2266147,33.595005 1.9960991,33.47179 1.7777188,33.325874 1.5593386,33.179958 1.3572899,33.014141 1.1715728,32.828426 0.98585558,32.642708 0.8200385,32.440659 0.67412144,32.222279 0.52820444,32.003899 0.40499124,31.77338 0.30448183,31.530729 0.20397243,31.288078 0.12809812,31.037956 0.07685887,30.780359 0.02561962,30.522762 0,30.262644 0,30 V 4 C 0,3.7373562 0.02561963,3.4772358 0.07685889,3.2196386 0.12809815,2.9620416 0.20397247,2.7119176 0.30448189,2.4692664 0.4049913,2.2266152 0.5282045,1.9960995 0.67412156,1.777719 0.82003856,1.5593388 0.9858557,1.3572901 1.1715729,1.1715729 1.3572901,0.9858557 1.5593388,0.82003862 1.7777191,0.67412162 1.9960995,0.52820456 2.2266152,0.4049913 2.4692664,0.30448189 2.7119176,0.20397247 2.9620416,0.12809815 3.2196386,0.07685889 3.4772358,0.02561963 3.7373562,0 4,0 Z"
             style="fill:none;stroke:#f2f2f2;stroke-width:1;stroke-linecap:butt;stroke-linejoin:miter;stroke-miterlimit:10;stroke-dasharray:none;stroke-opacity:1"
             id="path234"
             inkscape:connector-curvature="0" /></g><g
           id="g236"
           transform="matrix(3.1269929,0,0,3.125,1935.738,1172.0377)"><text
   transform="translate(-6.2255859)"
   style="font-variant:normal;font-weight:normal;font-size:18.59000015px;font-family:Arimo;-inkscape-font-specification:Arimo;writing-mode:lr-tb;fill:#333333;fill-opacity:1;fill-rule:nonzero;stroke:none"
   id="text240"><tspan
     x="0 13.416534 23.74881 34.081085 43.370148 53.702423 57.829895 68.16217"
     y="0"
     sodipodi:role="line"
     id="tspan238">Cancelar</tspan></text>

</g><g
           id="g242"
           transform="matrix(4.1530375,0,0,4.1503906,1512.1282,2105.8757)"><path
             d="m 16,0 h 48 c 0.524025,0 1.046783,0.02568146 1.568275,0.07704437 0.521492,0.05136292 1.039216,0.12815994 1.553162,0.23039111 0.513954,0.10223118 1.021652,0.22940418 1.52311,0.38151911 0.501457,0.15211493 0.994247,0.32843911 1.478385,0.52897271 0.484139,0.2005338 0.957276,0.4243112 1.419419,0.6713324 0.462143,0.2470213 0.911064,0.5160967 1.346763,0.8072263 0.435715,0.2911298 0.85611,0.6029122 1.261177,0.9353468 0.405076,0.3324345 0.792878,0.6839207 1.163414,1.0544584 0.370537,0.3705383 0.722023,0.7583432 1.054459,1.1634159 0.332436,0.4050727 0.644219,0.8254619 0.935341,1.261168 0.29113,0.4357066 0.560203,0.8846326 0.807228,1.346777 0.247017,0.4621439 0.470787,0.9352817 0.671326,1.4194117 0.200538,0.4841322 0.376861,0.9769262 0.528976,1.4783812 0.152115,0.501456 0.279289,1.009159 0.381523,1.523109 0.102234,0.513952 0.179032,1.031675 0.230393,1.553171 C 79.974319,14.953222 80.000008,15.47598 80,16 c 8e-6,0.524019 -0.02568,1.046778 -0.07705,1.568275 -0.05136,0.521496 -0.128159,1.039219 -0.230393,1.55317 -0.102234,0.513952 -0.229408,1.021654 -0.381515,1.523109 -0.152123,0.501457 -0.328446,0.994251 -0.528984,1.47838 -0.200539,0.484131 -0.424317,0.957268 -0.671334,1.419413 -0.247017,0.462145 -0.51609,0.91107 -0.80722,1.346775 -0.291122,0.435707 -0.602905,0.856096 -0.935341,1.261169 -0.332436,0.405074 -0.683922,0.79288 -1.054459,1.163416 -0.370536,0.370539 -0.758338,0.722025 -1.163406,1.054461 -0.405075,0.332434 -0.82547,0.644215 -1.261177,0.935343 -0.435707,0.291132 -0.884628,0.560207 -1.346779,0.807228 -0.462135,0.247019 -0.935272,0.470796 -1.419411,0.671329 -0.484138,0.200535 -0.976928,0.37686 -1.478385,0.528977 -0.501458,0.152115 -1.009156,0.279287 -1.52311,0.381517 -0.513946,0.102232 -1.03167,0.17903 -1.553162,0.230393 C 65.046783,31.974318 64.524025,32 64,32 H 16 C 15.47598,32 14.953222,31.97432 14.431725,31.92296 13.910229,31.8716 13.392505,31.794797 12.878553,31.692565 12.364603,31.59033 11.8569,31.463158 11.355445,31.311043 10.85399,31.158928 10.361196,30.982603 9.8770638,30.782068 9.3929338,30.581535 8.919796,30.357758 8.4576521,30.110739 7.9955077,29.863718 7.5465817,29.594643 7.1108751,29.303511 6.675169,29.012383 6.2547798,28.7006 5.8497071,28.368166 5.4446344,28.035732 5.0568295,27.684246 4.6862912,27.313707 4.3157535,26.943171 3.9642673,26.555365 3.6318326,26.150291 3.2993979,25.745218 2.9876156,25.324829 2.6964858,24.889122 2.4053562,24.453417 2.1362808,24.004492 1.8892597,23.542347 1.6422385,23.080202 1.4184611,22.607065 1.2179273,22.122934 1.0173937,21.638805 0.84106952,21.146011 0.68895459,20.644554 0.53683966,20.143099 0.40966666,19.635397 0.30743548,19.121445 0.20520431,18.607494 0.12840729,18.089771 0.07704437,17.568275 0.02568146,17.046778 0,16.524019 0,16 0,15.47598 0.02568146,14.953222 0.07704437,14.431725 0.12840729,13.910229 0.20520431,13.392505 0.30743548,12.878553 0.40966666,12.364603 0.53683966,11.8569 0.68895459,11.355445 0.84106952,10.85399 1.0173937,10.361196 1.2179273,9.8770638 1.4184611,9.3929338 1.6422385,8.919796 1.8892597,8.4576521 2.136281,7.9955077 2.4053564,7.5465817 2.696486,7.1108751 2.9876158,6.675169 3.2993982,6.2547798 3.6318328,5.8497071 3.9642673,5.4446344 4.3157535,5.0568295 4.6862912,4.6862912 5.0568295,4.3157535 5.4446344,3.9642673 5.8497071,3.6318326 6.2547798,3.2993979 6.675169,2.9876156 7.1108751,2.6964858 7.5465817,2.4053562 7.9955077,2.1362808 8.4576521,1.8892597 8.919796,1.6422385 9.3929338,1.4184611 9.8770638,1.2179273 10.361196,1.0173937 10.85399,0.84106952 11.355445,0.68895459 11.856901,0.53683966 12.364604,0.40966666 12.878554,0.30743548 13.392506,0.20520431 13.910229,0.12840729 14.431725,0.07704437 14.953222,0.02568146 15.47598,0 16,0 Z"
             style="fill:#ffffff;fill-opacity:1;fill-rule:nonzero;stroke:none"
             id="path244"
             inkscape:connector-curvature="0" /><path
             d="m 16,0 h 48 c 0.524025,0 1.046783,0.02568146 1.568275,0.07704437 0.521492,0.05136292 1.039216,0.12815994 1.553162,0.23039111 0.513954,0.10223118 1.021652,0.22940418 1.52311,0.38151911 0.501457,0.15211493 0.994247,0.32843911 1.478385,0.52897271 0.484139,0.2005338 0.957276,0.4243112 1.419419,0.6713324 0.462143,0.2470213 0.911064,0.5160967 1.346763,0.8072263 0.435715,0.2911298 0.85611,0.6029122 1.261177,0.9353468 0.405076,0.3324345 0.792878,0.6839207 1.163414,1.0544584 0.370537,0.3705383 0.722023,0.7583432 1.054459,1.1634159 0.332436,0.4050727 0.644219,0.8254619 0.935341,1.261168 0.29113,0.4357066 0.560203,0.8846326 0.807228,1.346777 0.247017,0.4621439 0.470787,0.9352817 0.671326,1.4194117 0.200538,0.4841322 0.376861,0.9769262 0.528976,1.4783812 0.152115,0.501456 0.279289,1.009159 0.381523,1.523109 0.102234,0.513952 0.179032,1.031675 0.230393,1.553171 C 79.974319,14.953222 80.000008,15.47598 80,16 c 8e-6,0.524019 -0.02568,1.046778 -0.07705,1.568275 -0.05136,0.521496 -0.128159,1.039219 -0.230393,1.55317 -0.102234,0.513952 -0.229408,1.021654 -0.381515,1.523109 -0.152123,0.501457 -0.328446,0.994251 -0.528984,1.47838 -0.200539,0.484131 -0.424317,0.957268 -0.671334,1.419413 -0.247017,0.462145 -0.51609,0.91107 -0.80722,1.346775 -0.291122,0.435707 -0.602905,0.856096 -0.935341,1.261169 -0.332436,0.405074 -0.683922,0.79288 -1.054459,1.163416 -0.370536,0.370539 -0.758338,0.722025 -1.163406,1.054461 -0.405075,0.332434 -0.82547,0.644215 -1.261177,0.935343 -0.435707,0.291132 -0.884628,0.560207 -1.346779,0.807228 -0.462135,0.247019 -0.935272,0.470796 -1.419411,0.671329 -0.484138,0.200535 -0.976928,0.37686 -1.478385,0.528977 -0.501458,0.152115 -1.009156,0.279287 -1.52311,0.381517 -0.513946,0.102232 -1.03167,0.17903 -1.553162,0.230393 C 65.046783,31.974318 64.524025,32 64,32 H 16 C 15.47598,32 14.953222,31.97432 14.431725,31.92296 13.910229,31.8716 13.392505,31.794797 12.878553,31.692565 12.364603,31.59033 11.8569,31.463158 11.355445,31.311043 10.85399,31.158928 10.361196,30.982603 9.8770638,30.782068 9.3929338,30.581535 8.919796,30.357758 8.4576521,30.110739 7.9955077,29.863718 7.5465817,29.594643 7.1108751,29.303511 6.675169,29.012383 6.2547798,28.7006 5.8497071,28.368166 5.4446344,28.035732 5.0568295,27.684246 4.6862912,27.313707 4.3157535,26.943171 3.9642673,26.555365 3.6318326,26.150291 3.2993979,25.745218 2.9876156,25.324829 2.6964858,24.889122 2.4053562,24.453417 2.1362808,24.004492 1.8892597,23.542347 1.6422385,23.080202 1.4184611,22.607065 1.2179273,22.122934 1.0173937,21.638805 0.84106952,21.146011 0.68895459,20.644554 0.53683966,20.143099 0.40966666,19.635397 0.30743548,19.121445 0.20520431,18.607494 0.12840729,18.089771 0.07704437,17.568275 0.02568146,17.046778 0,16.524019 0,16 0,15.47598 0.02568146,14.953222 0.07704437,14.431725 0.12840729,13.910229 0.20520431,13.392505 0.30743548,12.878553 0.40966666,12.364603 0.53683966,11.8569 0.68895459,11.355445 0.84106952,10.85399 1.0173937,10.361196 1.2179273,9.8770638 1.4184611,9.3929338 1.6422385,8.919796 1.8892597,8.4576521 2.136281,7.9955077 2.4053564,7.5465817 2.696486,7.1108751 2.9876158,6.675169 3.2993982,6.2547798 3.6318328,5.8497071 3.9642673,5.4446344 4.3157535,5.0568295 4.6862912,4.6862912 5.0568295,4.3157535 5.4446344,3.9642673 5.8497071,3.6318326 6.2547798,3.2993979 6.675169,2.9876156 7.1108751,2.6964858 7.5465817,2.4053562 7.9955077,2.1362808 8.4576521,1.8892597 8.919796,1.6422385 9.3929338,1.4184611 9.8770638,1.2179273 10.361196,1.0173937 10.85399,0.84106952 11.355445,0.68895459 11.856901,0.53683966 12.364604,0.40966666 12.878554,0.30743548 13.392506,0.20520431 13.910229,0.12840729 14.431725,0.07704437 14.953222,0.02568146 15.47598,0 16,0 Z"
             style="fill:none;stroke:#dddddd;stroke-width:1;stroke-linecap:butt;stroke-linejoin:miter;stroke-miterlimit:10;stroke-dasharray:none;stroke-opacity:1"
             id="path246"
             inkscape:connector-curvature="0" /></g><g
           id="g248"
           transform="matrix(3.1269929,0,0,3.125,1570.2706,2193.0339)"><text
   transform="translate(9.1308594)"
   style="font-variant:normal;font-weight:normal;font-size:18.59000015px;font-family:Arimo;-inkscape-font-specification:Arimo;writing-mode:lr-tb;fill:#337ab7;fill-opacity:1;fill-rule:nonzero;stroke:none"
   id="text252"><tspan
     x="0 18.578125 23.739731 36.131195 46.46347"
     y="0"
     sodipodi:role="line"
     id="tspan250">← Ant</tspan></text>

</g><g
           id="g254"
           transform="matrix(4.1530375,0,0,4.1503906,1885.9015,2105.8757)"><path
             d="m 16,0 h 48 c 0.524025,0 1.046783,0.02568146 1.568275,0.07704437 0.521492,0.05136292 1.039216,0.12815994 1.553162,0.23039111 0.513954,0.10223118 1.021652,0.22940418 1.52311,0.38151911 0.501457,0.15211493 0.994247,0.32843911 1.478385,0.52897271 0.484139,0.2005338 0.957276,0.4243112 1.419419,0.6713324 0.462143,0.2470213 0.911064,0.5160967 1.346763,0.8072263 0.435715,0.2911298 0.85611,0.6029122 1.261177,0.9353468 0.405076,0.3324345 0.792878,0.6839207 1.163414,1.0544584 0.370537,0.3705383 0.722023,0.7583432 1.054459,1.1634159 0.332436,0.4050727 0.644219,0.8254619 0.935341,1.261168 0.29113,0.4357066 0.560203,0.8846326 0.807228,1.346777 0.247017,0.4621439 0.470787,0.9352817 0.671326,1.4194117 0.200538,0.4841322 0.376861,0.9769262 0.528976,1.4783812 0.152115,0.501456 0.279289,1.009159 0.381523,1.523109 0.102234,0.513952 0.179032,1.031675 0.230393,1.553171 C 79.974319,14.953222 80.000008,15.47598 80,16 c 8e-6,0.524019 -0.02568,1.046778 -0.07705,1.568275 -0.05136,0.521496 -0.128159,1.039219 -0.230393,1.55317 -0.102234,0.513952 -0.229408,1.021654 -0.381515,1.523109 -0.152123,0.501457 -0.328446,0.994251 -0.528984,1.47838 -0.200539,0.484131 -0.424317,0.957268 -0.671334,1.419413 -0.247017,0.462145 -0.51609,0.91107 -0.80722,1.346775 -0.291122,0.435707 -0.602905,0.856096 -0.935341,1.261169 -0.332436,0.405074 -0.683922,0.79288 -1.054459,1.163416 -0.370536,0.370539 -0.758338,0.722025 -1.163406,1.054461 -0.405075,0.332434 -0.82547,0.644215 -1.261177,0.935343 -0.435707,0.291132 -0.884628,0.560207 -1.346779,0.807228 -0.462135,0.247019 -0.935272,0.470796 -1.419411,0.671329 -0.484138,0.200535 -0.976928,0.37686 -1.478385,0.528977 -0.501458,0.152115 -1.009156,0.279287 -1.52311,0.381517 -0.513946,0.102232 -1.03167,0.17903 -1.553162,0.230393 C 65.046783,31.974318 64.524025,32 64,32 H 16 C 15.47598,32 14.953222,31.97432 14.431725,31.92296 13.910229,31.8716 13.392505,31.794797 12.878553,31.692565 12.364603,31.59033 11.8569,31.463158 11.355445,31.311043 10.85399,31.158928 10.361196,30.982603 9.8770638,30.782068 9.3929338,30.581535 8.919796,30.357758 8.4576521,30.110739 7.9955077,29.863718 7.5465817,29.594643 7.1108751,29.303511 6.675169,29.012383 6.2547798,28.7006 5.8497071,28.368166 5.4446344,28.035732 5.0568295,27.684246 4.6862912,27.313707 4.3157535,26.943171 3.9642673,26.555365 3.6318326,26.150291 3.2993979,25.745218 2.9876156,25.324829 2.6964858,24.889122 2.4053562,24.453417 2.1362808,24.004492 1.8892597,23.542347 1.6422385,23.080202 1.4184611,22.607065 1.2179273,22.122934 1.0173937,21.638805 0.84106952,21.146011 0.68895459,20.644554 0.53683966,20.143099 0.40966666,19.635397 0.30743548,19.121445 0.20520431,18.607494 0.12840729,18.089771 0.07704437,17.568275 0.02568146,17.046778 0,16.524019 0,16 0,15.47598 0.02568146,14.953222 0.07704437,14.431725 0.12840729,13.910229 0.20520431,13.392505 0.30743548,12.878553 0.40966666,12.364603 0.53683966,11.8569 0.68895459,11.355445 0.84106952,10.85399 1.0173937,10.361196 1.2179273,9.8770638 1.4184611,9.3929338 1.6422385,8.919796 1.8892597,8.4576521 2.136281,7.9955077 2.4053564,7.5465817 2.696486,7.1108751 2.9876158,6.675169 3.2993982,6.2547798 3.6318328,5.8497071 3.9642673,5.4446344 4.3157535,5.0568295 4.6862912,4.6862912 5.0568295,4.3157535 5.4446344,3.9642673 5.8497071,3.6318326 6.2547798,3.2993979 6.675169,2.9876156 7.1108751,2.6964858 7.5465817,2.4053562 7.9955077,2.1362808 8.4576521,1.8892597 8.919796,1.6422385 9.3929338,1.4184611 9.8770638,1.2179273 10.361196,1.0173937 10.85399,0.84106952 11.355445,0.68895459 11.856901,0.53683966 12.364604,0.40966666 12.878554,0.30743548 13.392506,0.20520431 13.910229,0.12840729 14.431725,0.07704437 14.953222,0.02568146 15.47598,0 16,0 Z"
             style="fill:#ffffff;fill-opacity:1;fill-rule:nonzero;stroke:none"
             id="path256"
             inkscape:connector-curvature="0" /><path
             d="m 16,0 h 48 c 0.524025,0 1.046783,0.02568146 1.568275,0.07704437 0.521492,0.05136292 1.039216,0.12815994 1.553162,0.23039111 0.513954,0.10223118 1.021652,0.22940418 1.52311,0.38151911 0.501457,0.15211493 0.994247,0.32843911 1.478385,0.52897271 0.484139,0.2005338 0.957276,0.4243112 1.419419,0.6713324 0.462143,0.2470213 0.911064,0.5160967 1.346763,0.8072263 0.435715,0.2911298 0.85611,0.6029122 1.261177,0.9353468 0.405076,0.3324345 0.792878,0.6839207 1.163414,1.0544584 0.370537,0.3705383 0.722023,0.7583432 1.054459,1.1634159 0.332436,0.4050727 0.644219,0.8254619 0.935341,1.261168 0.29113,0.4357066 0.560203,0.8846326 0.807228,1.346777 0.247017,0.4621439 0.470787,0.9352817 0.671326,1.4194117 0.200538,0.4841322 0.376861,0.9769262 0.528976,1.4783812 0.152115,0.501456 0.279289,1.009159 0.381523,1.523109 0.102234,0.513952 0.179032,1.031675 0.230393,1.553171 C 79.974319,14.953222 80.000008,15.47598 80,16 c 8e-6,0.524019 -0.02568,1.046778 -0.07705,1.568275 -0.05136,0.521496 -0.128159,1.039219 -0.230393,1.55317 -0.102234,0.513952 -0.229408,1.021654 -0.381515,1.523109 -0.152123,0.501457 -0.328446,0.994251 -0.528984,1.47838 -0.200539,0.484131 -0.424317,0.957268 -0.671334,1.419413 -0.247017,0.462145 -0.51609,0.91107 -0.80722,1.346775 -0.291122,0.435707 -0.602905,0.856096 -0.935341,1.261169 -0.332436,0.405074 -0.683922,0.79288 -1.054459,1.163416 -0.370536,0.370539 -0.758338,0.722025 -1.163406,1.054461 -0.405075,0.332434 -0.82547,0.644215 -1.261177,0.935343 -0.435707,0.291132 -0.884628,0.560207 -1.346779,0.807228 -0.462135,0.247019 -0.935272,0.470796 -1.419411,0.671329 -0.484138,0.200535 -0.976928,0.37686 -1.478385,0.528977 -0.501458,0.152115 -1.009156,0.279287 -1.52311,0.381517 -0.513946,0.102232 -1.03167,0.17903 -1.553162,0.230393 C 65.046783,31.974318 64.524025,32 64,32 H 16 C 15.47598,32 14.953222,31.97432 14.431725,31.92296 13.910229,31.8716 13.392505,31.794797 12.878553,31.692565 12.364603,31.59033 11.8569,31.463158 11.355445,31.311043 10.85399,31.158928 10.361196,30.982603 9.8770638,30.782068 9.3929338,30.581535 8.919796,30.357758 8.4576521,30.110739 7.9955077,29.863718 7.5465817,29.594643 7.1108751,29.303511 6.675169,29.012383 6.2547798,28.7006 5.8497071,28.368166 5.4446344,28.035732 5.0568295,27.684246 4.6862912,27.313707 4.3157535,26.943171 3.9642673,26.555365 3.6318326,26.150291 3.2993979,25.745218 2.9876156,25.324829 2.6964858,24.889122 2.4053562,24.453417 2.1362808,24.004492 1.8892597,23.542347 1.6422385,23.080202 1.4184611,22.607065 1.2179273,22.122934 1.0173937,21.638805 0.84106952,21.146011 0.68895459,20.644554 0.53683966,20.143099 0.40966666,19.635397 0.30743548,19.121445 0.20520431,18.607494 0.12840729,18.089771 0.07704437,17.568275 0.02568146,17.046778 0,16.524019 0,16 0,15.47598 0.02568146,14.953222 0.07704437,14.431725 0.12840729,13.910229 0.20520431,13.392505 0.30743548,12.878553 0.40966666,12.364603 0.53683966,11.8569 0.68895459,11.355445 0.84106952,10.85399 1.0173937,10.361196 1.2179273,9.8770638 1.4184611,9.3929338 1.6422385,8.919796 1.8892597,8.4576521 2.136281,7.9955077 2.4053564,7.5465817 2.696486,7.1108751 2.9876158,6.675169 3.2993982,6.2547798 3.6318328,5.8497071 3.9642673,5.4446344 4.3157535,5.0568295 4.6862912,4.6862912 5.0568295,4.3157535 5.4446344,3.9642673 5.8497071,3.6318326 6.2547798,3.2993979 6.675169,2.9876156 7.1108751,2.6964858 7.5465817,2.4053562 7.9955077,2.1362808 8.4576521,1.8892597 8.919796,1.6422385 9.3929338,1.4184611 9.8770638,1.2179273 10.361196,1.0173937 10.85399,0.84106952 11.355445,0.68895459 11.856901,0.53683966 12.364604,0.40966666 12.878554,0.30743548 13.392506,0.20520431 13.910229,0.12840729 14.431725,0.07704437 14.953222,0.02568146 15.47598,0 16,0 Z"
             style="fill:none;stroke:#dddddd;stroke-width:1;stroke-linecap:butt;stroke-linejoin:miter;stroke-miterlimit:10;stroke-dasharray:none;stroke-opacity:1"
             id="path258"
             inkscape:connector-curvature="0" /></g><g
           id="g260"
           transform="matrix(3.1269929,0,0,3.125,1944.0442,2193.0339)"><text
   transform="translate(3.527832)"
   style="font-variant:normal;font-weight:normal;font-size:18.59000015px;font-family:Arimo;-inkscape-font-specification:Arimo;writing-mode:lr-tb;fill:#337ab7;fill-opacity:1;fill-rule:nonzero;stroke:none"
   id="text264"><tspan
     x="0 12.391464 18.578125 28.9104 38.199463 43.361069"
     y="0"
     sodipodi:role="line"
     id="tspan262">Próx →</tspan></text>

</g><g
           id="g266"
           transform="matrix(4.1530375,0,0,4.1503906,224.68652,835.85608)"><path
             d="m 4,0 h 220 c 0.26263,0 0.52275,0.02561962 0.78035,0.07685887 0.25758,0.05123925 0.50771,0.12711356 0.75037,0.22762296 0.24264,0.10050941 0.47316,0.22372261 0.69155,0.36963967 0.21837,0.14591706 0.42043,0.31173408 0.60614,0.4974513 0.18572,0.1857171 0.35154,0.3877658 0.49744,0.606146 0.14592,0.2183803 0.26914,0.4488959 0.36965,0.6915471 0.10051,0.2426513 0.17637,0.4927755 0.22763,0.7503727 C 227.97437,3.4772356 227.99998,3.7373559 228,4 v 26 c -2e-5,0.262644 -0.0256,0.522762 -0.0769,0.780359 -0.0512,0.257597 -0.1271,0.507719 -0.22761,0.75037 -0.10051,0.242651 -0.22373,0.47317 -0.36965,0.69155 -0.1459,0.21838 -0.31172,0.420429 -0.49744,0.606147 -0.18571,0.185715 -0.38777,0.351529 -0.60615,0.497445 -0.21838,0.145919 -0.4489,0.269134 -0.69154,0.36964 -0.24266,0.10051 -0.49279,0.176384 -0.75037,0.227627 C 224.52275,33.974377 224.26263,33.999996 224,34 H 4 C 3.7373559,33.999996 3.4772356,33.97438 3.2196383,33.92314 2.9620411,33.871895 2.7119172,33.796021 2.4692659,33.695515 2.2266147,33.595005 1.9960991,33.47179 1.7777188,33.325874 1.5593386,33.179958 1.3572899,33.014141 1.1715728,32.828426 0.98585558,32.642708 0.8200385,32.440659 0.67412144,32.222279 0.52820444,32.003899 0.40499124,31.77338 0.30448183,31.530729 0.20397243,31.288078 0.12809812,31.037956 0.07685887,30.780359 0.02561962,30.522762 0,30.262644 0,30 V 4 C 0,3.7373562 0.02561963,3.4772358 0.07685889,3.2196386 0.12809815,2.9620416 0.20397247,2.7119176 0.30448189,2.4692664 0.4049913,2.2266152 0.5282045,1.9960995 0.67412156,1.777719 0.82003856,1.5593388 0.9858557,1.3572901 1.1715729,1.1715729 1.3572901,0.9858557 1.5593388,0.82003862 1.7777191,0.67412162 1.9960995,0.52820456 2.2266152,0.4049913 2.4692664,0.30448189 2.7119176,0.20397247 2.9620416,0.12809815 3.2196386,0.07685889 3.4772358,0.02561963 3.7373562,0 4,0 Z"
             style="fill:url(#linearGradient274);fill-opacity:1;fill-rule:nonzero;stroke:none"
             id="path276"
             inkscape:connector-curvature="0" /><path
             d="m 4,0 h 220 c 0.26263,0 0.52275,0.02561962 0.78035,0.07685887 0.25758,0.05123925 0.50771,0.12711356 0.75037,0.22762296 0.24264,0.10050941 0.47316,0.22372261 0.69155,0.36963967 0.21837,0.14591706 0.42043,0.31173408 0.60614,0.4974513 0.18572,0.1857171 0.35154,0.3877658 0.49744,0.606146 0.14592,0.2183803 0.26914,0.4488959 0.36965,0.6915471 0.10051,0.2426513 0.17637,0.4927755 0.22763,0.7503727 C 227.97437,3.4772356 227.99998,3.7373559 228,4 v 26 c -2e-5,0.262644 -0.0256,0.522762 -0.0769,0.780359 -0.0512,0.257597 -0.1271,0.507719 -0.22761,0.75037 -0.10051,0.242651 -0.22373,0.47317 -0.36965,0.69155 -0.1459,0.21838 -0.31172,0.420429 -0.49744,0.606147 -0.18571,0.185715 -0.38777,0.351529 -0.60615,0.497445 -0.21838,0.145919 -0.4489,0.269134 -0.69154,0.36964 -0.24266,0.10051 -0.49279,0.176384 -0.75037,0.227627 C 224.52275,33.974377 224.26263,33.999996 224,34 H 4 C 3.7373559,33.999996 3.4772356,33.97438 3.2196383,33.92314 2.9620411,33.871895 2.7119172,33.796021 2.4692659,33.695515 2.2266147,33.595005 1.9960991,33.47179 1.7777188,33.325874 1.5593386,33.179958 1.3572899,33.014141 1.1715728,32.828426 0.98585558,32.642708 0.8200385,32.440659 0.67412144,32.222279 0.52820444,32.003899 0.40499124,31.77338 0.30448183,31.530729 0.20397243,31.288078 0.12809812,31.037956 0.07685887,30.780359 0.02561962,30.522762 0,30.262644 0,30 V 4 C 0,3.7373562 0.02561963,3.4772358 0.07685889,3.2196386 0.12809815,2.9620416 0.20397247,2.7119176 0.30448189,2.4692664 0.4049913,2.2266152 0.5282045,1.9960995 0.67412156,1.777719 0.82003856,1.5593388 0.9858557,1.3572901 1.1715729,1.1715729 1.3572901,0.9858557 1.5593388,0.82003862 1.7777191,0.67412162 1.9960995,0.52820456 2.2266152,0.4049913 2.4692664,0.30448189 2.7119176,0.20397247 2.9620416,0.12809815 3.2196386,0.07685889 3.4772358,0.02561963 3.7373562,0 4,0 Z"
             style="fill:none;stroke:#cccccc;stroke-width:1;stroke-linecap:butt;stroke-linejoin:miter;stroke-miterlimit:10;stroke-dasharray:none;stroke-opacity:1"
             id="path278"
             inkscape:connector-curvature="0" /></g><g
           id="g280"
           transform="matrix(3.1269929,0,0,3.125,274.52298,927.16467)"><text
   style="font-variant:normal;font-weight:normal;font-size:18.59000015px;font-family:Arimo;-inkscape-font-specification:Arimo;writing-mode:lr-tb;fill:#545454;fill-opacity:1;fill-rule:nonzero;stroke:none"
   id="text284"><tspan
     x="0 10.332275 20.664551 25.826157 36.158432 46.490707 51.652313 61.984589 72.316864 82.649139"
     y="0"
     sodipodi:role="line"
     id="tspan282">12/02/2020</tspan></text>

</g><g
           id="g286"
           transform="matrix(3.1269929,0,0,3.125,237.14563,769.44983)"><text
   transform="translate(0,12.750001)"
   style="font-variant:normal;font-weight:bold;font-size:17.26000023px;font-family:'Liberation Sans';-inkscape-font-specification:LiberationSans-Bold;writing-mode:lr-tb;fill:#000000;fill-opacity:1;fill-rule:nonzero;stroke:none"
   id="text290"><tspan
     x="0 12.457397 22.051025 27.79541 37.389038 42.181641 52.718628 62.312256 72.849243 79.562256 84.354858 93.948486 103.54211 113.13574 122.72937"
     y="0"
     sodipodi:role="line"
     id="tspan288">Data Fabricação</tspan></text>

</g><g
           id="g292"
           transform="matrix(3.1269929,0,0,3.125,1262.9459,769.44983)"><text
   transform="translate(0,12.750001)"
   style="font-variant:normal;font-weight:bold;font-size:17.26000023px;font-family:'Liberation Sans';-inkscape-font-specification:LiberationSans-Bold;writing-mode:lr-tb;fill:#000000;fill-opacity:1;fill-rule:nonzero;stroke:none"
   id="text296"><tspan
     x="0 12.457397 22.051025 27.79541 37.389038 42.181641 52.734924 62.328552 67.121155 71.913757 82.450745 92.044373 102.58136"
     y="0"
     sodipodi:role="line"
     id="tspan294">Data Validade</tspan></text>

</g><g
           id="g298"
           transform="matrix(4.1530375,0,0,4.1503906,1250.4868,835.85608)"><path
             d="m 4,0 h 216 c 0.26263,0 0.52275,0.02561962 0.78033,0.07685887 0.25759,0.05123925 0.50771,0.12711356 0.75037,0.22762296 0.24265,0.10050941 0.47316,0.22372261 0.69154,0.36963967 0.21839,0.14591706 0.42044,0.31173408 0.60616,0.4974513 0.18571,0.1857171 0.35153,0.3877658 0.49745,0.606146 0.14592,0.2183803 0.26914,0.4488959 0.36965,0.6915471 0.10051,0.2426513 0.17637,0.4927755 0.22763,0.7503727 C 223.97435,3.4772356 223.99998,3.7373559 224,4 v 26 c -2e-5,0.262644 -0.0257,0.522762 -0.0769,0.780359 -0.0512,0.257597 -0.1271,0.507719 -0.22761,0.75037 -0.10051,0.242651 -0.22374,0.47317 -0.36966,0.69155 -0.14592,0.21838 -0.31173,0.420429 -0.49744,0.606147 -0.18572,0.185715 -0.38777,0.351529 -0.60616,0.497445 -0.21838,0.145919 -0.44889,0.269134 -0.69154,0.36964 -0.24266,0.10051 -0.49278,0.176384 -0.75037,0.227627 C 220.52275,33.974377 220.26263,33.999996 220,34 H 4 C 3.7373559,33.999996 3.4772356,33.97438 3.2196383,33.92314 2.9620411,33.871895 2.7119172,33.796021 2.4692659,33.695515 2.2266147,33.595005 1.9960991,33.47179 1.7777188,33.325874 1.5593386,33.179958 1.3572899,33.014141 1.1715728,32.828426 0.98585558,32.642708 0.8200385,32.440659 0.67412144,32.222279 0.52820444,32.003899 0.40499124,31.77338 0.30448183,31.530729 0.20397243,31.288078 0.12809812,31.037956 0.07685887,30.780359 0.02561962,30.522762 0,30.262644 0,30 V 4 C 0,3.7373562 0.02561963,3.4772358 0.07685889,3.2196386 0.12809815,2.9620416 0.20397247,2.7119176 0.30448189,2.4692664 0.4049913,2.2266152 0.5282045,1.9960995 0.67412156,1.777719 0.82003856,1.5593388 0.9858557,1.3572901 1.1715729,1.1715729 1.3572901,0.9858557 1.5593388,0.82003862 1.7777191,0.67412162 1.9960995,0.52820456 2.2266152,0.4049913 2.4692664,0.30448189 2.7119176,0.20397247 2.9620416,0.12809815 3.2196386,0.07685889 3.4772358,0.02561963 3.7373562,0 4,0 Z"
             style="fill:url(#linearGradient306);fill-opacity:1;fill-rule:nonzero;stroke:none"
             id="path308"
             inkscape:connector-curvature="0" /><path
             d="m 4,0 h 216 c 0.26263,0 0.52275,0.02561962 0.78033,0.07685887 0.25759,0.05123925 0.50771,0.12711356 0.75037,0.22762296 0.24265,0.10050941 0.47316,0.22372261 0.69154,0.36963967 0.21839,0.14591706 0.42044,0.31173408 0.60616,0.4974513 0.18571,0.1857171 0.35153,0.3877658 0.49745,0.606146 0.14592,0.2183803 0.26914,0.4488959 0.36965,0.6915471 0.10051,0.2426513 0.17637,0.4927755 0.22763,0.7503727 C 223.97435,3.4772356 223.99998,3.7373559 224,4 v 26 c -2e-5,0.262644 -0.0257,0.522762 -0.0769,0.780359 -0.0512,0.257597 -0.1271,0.507719 -0.22761,0.75037 -0.10051,0.242651 -0.22374,0.47317 -0.36966,0.69155 -0.14592,0.21838 -0.31173,0.420429 -0.49744,0.606147 -0.18572,0.185715 -0.38777,0.351529 -0.60616,0.497445 -0.21838,0.145919 -0.44889,0.269134 -0.69154,0.36964 -0.24266,0.10051 -0.49278,0.176384 -0.75037,0.227627 C 220.52275,33.974377 220.26263,33.999996 220,34 H 4 C 3.7373559,33.999996 3.4772356,33.97438 3.2196383,33.92314 2.9620411,33.871895 2.7119172,33.796021 2.4692659,33.695515 2.2266147,33.595005 1.9960991,33.47179 1.7777188,33.325874 1.5593386,33.179958 1.3572899,33.014141 1.1715728,32.828426 0.98585558,32.642708 0.8200385,32.440659 0.67412144,32.222279 0.52820444,32.003899 0.40499124,31.77338 0.30448183,31.530729 0.20397243,31.288078 0.12809812,31.037956 0.07685887,30.780359 0.02561962,30.522762 0,30.262644 0,30 V 4 C 0,3.7373562 0.02561963,3.4772358 0.07685889,3.2196386 0.12809815,2.9620416 0.20397247,2.7119176 0.30448189,2.4692664 0.4049913,2.2266152 0.5282045,1.9960995 0.67412156,1.777719 0.82003856,1.5593388 0.9858557,1.3572901 1.1715729,1.1715729 1.3572901,0.9858557 1.5593388,0.82003862 1.7777191,0.67412162 1.9960995,0.52820456 2.2266152,0.4049913 2.4692664,0.30448189 2.7119176,0.20397247 2.9620416,0.12809815 3.2196386,0.07685889 3.4772358,0.02561963 3.7373562,0 4,0 Z"
             style="fill:none;stroke:#cccccc;stroke-width:1;stroke-linecap:butt;stroke-linejoin:miter;stroke-miterlimit:10;stroke-dasharray:none;stroke-opacity:1"
             id="path310"
             inkscape:connector-curvature="0" /></g><g
           id="g312"
           transform="matrix(3.1269929,0,0,3.125,1300.3232,927.16467)"><text
   style="font-variant:normal;font-weight:normal;font-size:18.59000015px;font-family:Arimo;-inkscape-font-specification:Arimo;writing-mode:lr-tb;fill:#545454;fill-opacity:1;fill-rule:nonzero;stroke:none"
   id="text316"><tspan
     x="0 10.332275 20.664551 25.826157 36.158432 46.490707 51.652313 61.984589 72.316864 82.649139"
     y="0"
     sodipodi:role="line"
     id="tspan314">12/02/2023</tspan></text>

</g></g></g></g></svg>