<?xml version="1.0" encoding="UTF-8" standalone="no"?>
<!-- Created with Inkscape (http://www.inkscape.org/) -->

<svg
   xmlns:dc="http://purl.org/dc/elements/1.1/"
   xmlns:cc="http://creativecommons.org/ns#"
   xmlns:rdf="http://www.w3.org/1999/02/22-rdf-syntax-ns#"
   xmlns:svg="http://www.w3.org/2000/svg"
   xmlns="http://www.w3.org/2000/svg"
   xmlns:sodipodi="http://sodipodi.sourceforge.net/DTD/sodipodi-0.dtd"
   xmlns:inkscape="http://www.inkscape.org/namespaces/inkscape"
   version="1.1"
   id="svg2"
   xml:space="preserve"
   width="794.56"
   height="1121.2799"
   viewBox="0 0 794.56 1121.2799"
   sodipodi:docname="mockups-15.svg"
   inkscape:version="0.92.5 (2060ec1f9f, 2020-04-08)"><metadata
     id="metadata8"><rdf:RDF><cc:Work
         rdf:about=""><dc:format>image/svg+xml</dc:format><dc:type
           rdf:resource="http://purl.org/dc/dcmitype/StillImage" /><dc:title /></cc:Work></rdf:RDF></metadata><defs
     id="defs6"><clipPath
       clipPathUnits="userSpaceOnUse"
       id="clipPath18"><path
         d="M 129.16666,79.166664 H 2351.0417 V 3304.1667 H 129.16666 Z"
         id="path16"
         inkscape:connector-curvature="0"
         style="clip-rule:evenodd" /></clipPath><clipPath
       clipPathUnits="userSpaceOnUse"
       id="clipPath34"><path
         d="M 129.16666,79.166664 H 2354.1665 V 3504.1665 H 129.16666 Z"
         id="path32"
         inkscape:connector-curvature="0"
         style="clip-rule:evenodd" /></clipPath><clipPath
       clipPathUnits="userSpaceOnUse"
       id="clipPath48"><path
         d="M 129.16666,151.04166 H 2347.9167 V 1341.6667 H 129.16666 Z"
         id="path46"
         inkscape:connector-curvature="0"
         style="clip-rule:evenodd" /></clipPath><linearGradient
       x1="0"
       y1="0"
       x2="0"
       y2="1"
       gradientUnits="userSpaceOnUse"
       gradientTransform="matrix(47.040002,0,0,-8.1599998,-14.075614,119.59825)"
       spreadMethod="pad"
       id="linearGradient74"><stop
         style="stop-opacity:1;stop-color:#f2f2f2"
         offset="0"
         id="stop68" /><stop
         style="stop-opacity:1;stop-color:#ffffff"
         offset="0.10000001"
         id="stop70" /><stop
         style="stop-opacity:1;stop-color:#ffffff"
         offset="1"
         id="stop72" /></linearGradient><linearGradient
       x1="0"
       y1="0"
       x2="0"
       y2="1"
       gradientUnits="userSpaceOnUse"
       gradientTransform="matrix(46.08,0,0,-8.1599998,-14.075614,103.75825)"
       spreadMethod="pad"
       id="linearGradient100"><stop
         style="stop-opacity:1;stop-color:#f2f2f2"
         offset="0"
         id="stop94" /><stop
         style="stop-opacity:1;stop-color:#ffffff"
         offset="0.10000001"
         id="stop96" /><stop
         style="stop-opacity:1;stop-color:#ffffff"
         offset="1"
         id="stop98" /></linearGradient><linearGradient
       x1="0"
       y1="0"
       x2="0"
       y2="1"
       gradientUnits="userSpaceOnUse"
       gradientTransform="matrix(47.040002,0,0,-8.1599998,39.924384,119.59825)"
       spreadMethod="pad"
       id="linearGradient126"><stop
         style="stop-opacity:1;stop-color:#f2f2f2"
         offset="0"
         id="stop120" /><stop
         style="stop-opacity:1;stop-color:#ffffff"
         offset="0.10000001"
         id="stop122" /><stop
         style="stop-opacity:1;stop-color:#ffffff"
         offset="1"
         id="stop124" /></linearGradient><linearGradient
       x1="0"
       y1="0"
       x2="0"
       y2="1"
       gradientUnits="userSpaceOnUse"
       gradientTransform="matrix(47.040002,0,0,-8.1599998,39.924384,103.75825)"
       spreadMethod="pad"
       id="linearGradient152"><stop
         style="stop-opacity:1;stop-color:#f2f2f2"
         offset="0"
         id="stop146" /><stop
         style="stop-opacity:1;stop-color:#ffffff"
         offset="0.10000001"
         id="stop148" /><stop
         style="stop-opacity:1;stop-color:#ffffff"
         offset="1"
         id="stop150" /></linearGradient></defs><sodipodi:namedview
     pagecolor="#ffffff"
     bordercolor="#666666"
     borderopacity="1"
     objecttolerance="10"
     gridtolerance="10"
     guidetolerance="10"
     inkscape:pageopacity="0"
     inkscape:pageshadow="2"
     inkscape:window-width="1366"
     inkscape:window-height="707"
     id="namedview4"
     showgrid="false"
     inkscape:zoom="1.1906194"
     inkscape:cx="226.78374"
     inkscape:cy="236.3509"
     inkscape:window-x="0"
     inkscape:window-y="30"
     inkscape:window-maximized="1"
     inkscape:current-layer="g10" /><g
     id="g10"
     inkscape:groupmode="layer"
     inkscape:label="mockups-15"
     transform="matrix(0.31999998,0,0,0.31999998,0,-1.8634668e-5)"><g
       id="g42"><g
         id="g44"
         clip-path="url(#clipPath48)"><g
           id="g50"
           transform="matrix(4.6676884,0,0,4.6691175,129.19434,151.04166)"><path
             d="m 4,0 h 468 c 0.2626,0 0.52271,0.02561962 0.7803,0.07685887 0.2576,0.05123925 0.50772,0.12711356 0.75037,0.22762296 0.24265,0.10050941 0.47318,0.22372261 0.69153,0.36963967 0.21841,0.14591706 0.4205,0.31173408 0.6062,0.4974513 0.1857,0.1857171 0.3515,0.3877658 0.49741,0.606146 0.1459,0.2183803 0.26913,0.4488959 0.36966,0.6915471 0.10049,0.2426513 0.17639,0.4927755 0.22763,0.7503727 C 475.97433,3.4772356 475.99997,3.7373559 476,4 V 39 H 0 V 4 C 0,3.7373562 0.02561963,3.4772358 0.07685889,3.2196386 0.12809815,2.9620416 0.20397247,2.7119176 0.30448189,2.4692664 0.4049913,2.2266152 0.5282045,1.9960995 0.67412156,1.777719 0.82003856,1.5593388 0.9858557,1.3572901 1.1715729,1.1715729 1.3572901,0.9858557 1.5593388,0.82003862 1.7777191,0.67412162 1.9960995,0.52820456 2.2266152,0.4049913 2.4692664,0.30448189 2.7119176,0.20397247 2.9620416,0.12809815 3.2196386,0.07685889 3.4772358,0.02561963 3.7373562,0 4,0 Z"
             style="fill:#d9edf7;fill-opacity:1;fill-rule:nonzero;stroke:none"
             id="path52"
             inkscape:connector-curvature="0" /><path
             d="m 4,0 h 468 c 0.2626,0 0.52271,0.02561962 0.7803,0.07685887 0.2576,0.05123925 0.50772,0.12711356 0.75037,0.22762296 0.24265,0.10050941 0.47318,0.22372261 0.69153,0.36963967 0.21841,0.14591706 0.4205,0.31173408 0.6062,0.4974513 0.1857,0.1857171 0.3515,0.3877658 0.49741,0.606146 0.1459,0.2183803 0.26913,0.4488959 0.36966,0.6915471 0.10049,0.2426513 0.17639,0.4927755 0.22763,0.7503727 C 475.97433,3.4772356 475.99997,3.7373559 476,4 V 39 H 0 V 4 C 0,3.7373562 0.02561963,3.4772358 0.07685889,3.2196386 0.12809815,2.9620416 0.20397247,2.7119176 0.30448189,2.4692664 0.4049913,2.2266152 0.5282045,1.9960995 0.67412156,1.777719 0.82003856,1.5593388 0.9858557,1.3572901 1.1715729,1.1715729 1.3572901,0.9858557 1.5593388,0.82003862 1.7777191,0.67412162 1.9960995,0.52820456 2.2266152,0.4049913 2.4692664,0.30448189 2.7119176,0.20397247 2.9620416,0.12809815 3.2196386,0.07685889 3.4772358,0.02561963 3.7373562,0 4,0 Z"
             style="fill:none;stroke:#c4ebf3;stroke-width:1;stroke-linecap:butt;stroke-linejoin:miter;stroke-miterlimit:10;stroke-dasharray:none;stroke-opacity:1"
             id="path54"
             inkscape:connector-curvature="0" /><path
             d="m 0,39 h 476 v 212 c -3e-5,0.26263 -0.0257,0.52275 -0.0769,0.78035 -0.0512,0.25758 -0.12714,0.50771 -0.22767,0.75037 -0.10049,0.24263 -0.22372,0.47314 -0.36962,0.69152 -0.14591,0.2184 -0.31171,0.42046 -0.49741,0.60617 -0.1857,0.18572 -0.38779,0.35152 -0.6062,0.49744 -0.21835,0.14592 -0.44888,0.26914 -0.69153,0.36965 -0.24265,0.10051 -0.49277,0.17637 -0.75034,0.22763 -0.25759,0.0512 -0.51773,0.0769 -0.78033,0.0769 L 4,255 c -0.2626441,-2e-5 -0.5227644,-0.0256 -0.7803617,-0.0769 -0.2575972,-0.0512 -0.5077211,-0.12709 -0.7503724,-0.2276 -0.2426512,-0.10051 -0.4731668,-0.22374 -0.6915471,-0.36966 -0.2183802,-0.14592 -0.4204289,-0.31172 -0.606146,-0.49744 -0.18571722,-0.18571 -0.3515343,-0.38777 -0.49745136,-0.60617 -0.145917,-0.21838 -0.2691302,-0.44889 -0.36963961,-0.69154 -0.1005094,-0.24264 -0.17638371,-0.49277 -0.22762296,-0.75037 C 0.02561962,251.52275 0,251.26263 0,251 Z"
             style="fill:#ffffff;fill-opacity:1;fill-rule:nonzero;stroke:none"
             id="path56"
             inkscape:connector-curvature="0" /><path
             d="m 0,39 h 476 v 212 c -3e-5,0.26263 -0.0257,0.52275 -0.0769,0.78035 -0.0512,0.25758 -0.12714,0.50771 -0.22767,0.75037 -0.10049,0.24263 -0.22372,0.47314 -0.36962,0.69152 -0.14591,0.2184 -0.31171,0.42046 -0.49741,0.60617 -0.1857,0.18572 -0.38779,0.35152 -0.6062,0.49744 -0.21835,0.14592 -0.44888,0.26914 -0.69153,0.36965 -0.24265,0.10051 -0.49277,0.17637 -0.75034,0.22763 -0.25759,0.0512 -0.51773,0.0769 -0.78033,0.0769 L 4,255 c -0.2626441,-2e-5 -0.5227644,-0.0256 -0.7803617,-0.0769 -0.2575972,-0.0512 -0.5077211,-0.12709 -0.7503724,-0.2276 -0.2426512,-0.10051 -0.4731668,-0.22374 -0.6915471,-0.36966 -0.2183802,-0.14592 -0.4204289,-0.31172 -0.606146,-0.49744 -0.18571722,-0.18571 -0.3515343,-0.38777 -0.49745136,-0.60617 -0.145917,-0.21838 -0.2691302,-0.44889 -0.36963961,-0.69154 -0.1005094,-0.24264 -0.17638371,-0.49277 -0.22762296,-0.75037 C 0.02561962,251.52275 0,251.26263 0,251 Z"
             style="fill:none;stroke:#c4ebf3;stroke-width:1;stroke-linecap:butt;stroke-linejoin:miter;stroke-miterlimit:10;stroke-dasharray:none;stroke-opacity:1"
             id="path58"
             inkscape:connector-curvature="0" /></g><g
           id="g60"
           transform="matrix(3.1269929,0,0,3.1279504,199.20967,267.76959)"><text
   style="font-variant:normal;font-weight:normal;font-size:23.87999916px;font-family:Arimo;-inkscape-font-specification:Arimo;writing-mode:lr-tb;fill:#1f6d93;fill-opacity:1;fill-rule:nonzero;stroke:none"
   id="text64"><tspan
     x="0 17.24176 30.519897 37.153137 50.431274 55.735535 69.013672 82.291809 94.229309 100.86255 116.78699 130.06512 136.69836 149.9765"
     y="0"
     sodipodi:role="line"
     id="tspan62">Detalhes Saída</tspan></text>

</g><g
           id="g66"
           transform="matrix(4.6676884,0,0,4.6691175,264.55731,547.91663)"><path
             d="m 4,0 h 188 c 0.26263,0 0.52275,0.02561962 0.78035,0.07685887 0.25758,0.05123925 0.50771,0.12711356 0.75037,0.22762296 0.24264,0.10050941 0.47316,0.22372261 0.69155,0.36963967 0.21837,0.14591706 0.42043,0.31173408 0.60614,0.4974513 0.18572,0.1857171 0.35154,0.3877658 0.49744,0.606146 0.14592,0.2183803 0.26914,0.4488959 0.36965,0.6915471 0.10051,0.2426513 0.17637,0.4927755 0.22763,0.7503727 C 195.97437,3.4772356 195.99998,3.7373559 196,4 v 26 c -2e-5,0.262644 -0.0256,0.522762 -0.0769,0.780359 -0.0512,0.257597 -0.1271,0.507719 -0.22761,0.75037 -0.10051,0.242651 -0.22373,0.47317 -0.36965,0.69155 -0.1459,0.21838 -0.31172,0.420429 -0.49744,0.606147 -0.18571,0.185715 -0.38777,0.351529 -0.60615,0.497445 -0.21838,0.145919 -0.4489,0.269134 -0.69154,0.36964 -0.24266,0.10051 -0.49279,0.176384 -0.75037,0.227627 C 192.52275,33.974377 192.26263,33.999996 192,34 H 4 C 3.7373559,33.999996 3.4772356,33.97438 3.2196383,33.92314 2.9620411,33.871895 2.7119172,33.796021 2.4692659,33.695515 2.2266147,33.595005 1.9960991,33.47179 1.7777188,33.325874 1.5593386,33.179958 1.3572899,33.014141 1.1715728,32.828426 0.98585558,32.642708 0.8200385,32.440659 0.67412144,32.222279 0.52820444,32.003899 0.40499124,31.77338 0.30448183,31.530729 0.20397243,31.288078 0.12809812,31.037956 0.07685887,30.780359 0.02561962,30.522762 0,30.262644 0,30 V 4 C 0,3.7373562 0.02561963,3.4772358 0.07685889,3.2196386 0.12809815,2.9620416 0.20397247,2.7119176 0.30448189,2.4692664 0.4049913,2.2266152 0.5282045,1.9960995 0.67412156,1.777719 0.82003856,1.5593388 0.9858557,1.3572901 1.1715729,1.1715729 1.3572901,0.9858557 1.5593388,0.82003862 1.7777191,0.67412162 1.9960995,0.52820456 2.2266152,0.4049913 2.4692664,0.30448189 2.7119176,0.20397247 2.9620416,0.12809815 3.2196386,0.07685889 3.4772358,0.02561963 3.7373562,0 4,0 Z"
             style="fill:url(#linearGradient74);fill-opacity:1;fill-rule:nonzero;stroke:none"
             id="path76"
             inkscape:connector-curvature="0" /><path
             d="m 4,0 h 188 c 0.26263,0 0.52275,0.02561962 0.78035,0.07685887 0.25758,0.05123925 0.50771,0.12711356 0.75037,0.22762296 0.24264,0.10050941 0.47316,0.22372261 0.69155,0.36963967 0.21837,0.14591706 0.42043,0.31173408 0.60614,0.4974513 0.18572,0.1857171 0.35154,0.3877658 0.49744,0.606146 0.14592,0.2183803 0.26914,0.4488959 0.36965,0.6915471 0.10051,0.2426513 0.17637,0.4927755 0.22763,0.7503727 C 195.97437,3.4772356 195.99998,3.7373559 196,4 v 26 c -2e-5,0.262644 -0.0256,0.522762 -0.0769,0.780359 -0.0512,0.257597 -0.1271,0.507719 -0.22761,0.75037 -0.10051,0.242651 -0.22373,0.47317 -0.36965,0.69155 -0.1459,0.21838 -0.31172,0.420429 -0.49744,0.606147 -0.18571,0.185715 -0.38777,0.351529 -0.60615,0.497445 -0.21838,0.145919 -0.4489,0.269134 -0.69154,0.36964 -0.24266,0.10051 -0.49279,0.176384 -0.75037,0.227627 C 192.52275,33.974377 192.26263,33.999996 192,34 H 4 C 3.7373559,33.999996 3.4772356,33.97438 3.2196383,33.92314 2.9620411,33.871895 2.7119172,33.796021 2.4692659,33.695515 2.2266147,33.595005 1.9960991,33.47179 1.7777188,33.325874 1.5593386,33.179958 1.3572899,33.014141 1.1715728,32.828426 0.98585558,32.642708 0.8200385,32.440659 0.67412144,32.222279 0.52820444,32.003899 0.40499124,31.77338 0.30448183,31.530729 0.20397243,31.288078 0.12809812,31.037956 0.07685887,30.780359 0.02561962,30.522762 0,30.262644 0,30 V 4 C 0,3.7373562 0.02561963,3.4772358 0.07685889,3.2196386 0.12809815,2.9620416 0.20397247,2.7119176 0.30448189,2.4692664 0.4049913,2.2266152 0.5282045,1.9960995 0.67412156,1.777719 0.82003856,1.5593388 0.9858557,1.3572901 1.1715729,1.1715729 1.3572901,0.9858557 1.5593388,0.82003862 1.7777191,0.67412162 1.9960995,0.52820456 2.2266152,0.4049913 2.4692664,0.30448189 2.7119176,0.20397247 2.9620416,0.12809815 3.2196386,0.07685889 3.4772358,0.02561963 3.7373562,0 4,0 Z"
             style="fill:none;stroke:#cccccc;stroke-width:1;stroke-linecap:butt;stroke-linejoin:miter;stroke-miterlimit:10;stroke-dasharray:none;stroke-opacity:1"
             id="path78"
             inkscape:connector-curvature="0" /></g><g
           id="g80"
           transform="matrix(3.1269929,0,0,3.1279504,320.56958,650.63721)"><text
   style="font-variant:normal;font-weight:normal;font-size:20.88999939px;font-family:Arimo;-inkscape-font-specification:Arimo;writing-mode:lr-tb;fill:#545454;fill-opacity:1;fill-rule:nonzero;stroke:none"
   id="text84"><tspan
     x="0 11.60968 17.409424 24.360962 30.160706 44.084167 51.035706 62.645386 74.255066 85.864746 91.66449 103.27417 109.07391 120.68359"
     y="0"
     sodipodi:role="line"
     id="tspan82">1 - Produto 01</tspan></text>

</g><g
           id="g86"
           transform="matrix(3.1269929,0,0,3.1279504,264.55731,449.86517)"><text
   transform="translate(0,14.330001)"
   style="font-variant:normal;font-weight:bold;font-size:19.39999962px;font-family:'Liberation Sans';-inkscape-font-specification:LiberationSans-Bold;writing-mode:lr-tb;fill:#000000;fill-opacity:1;fill-rule:nonzero;stroke:none"
   id="text90"><tspan
     x="0 12.933395 20.479462 32.324036 44.16861 56.013184 62.470413"
     y="0"
     sodipodi:role="line"
     id="tspan88">Produto</tspan></text>

</g><g
           id="g92"
           transform="matrix(4.6676884,0,0,4.6691175,264.55731,856.07849)"><path
             d="m 4,0 h 184 c 0.26263,0 0.52275,0.02561962 0.78033,0.07685887 0.2576,0.05123925 0.50773,0.12711356 0.75039,0.22762296 0.24266,0.10050941 0.47317,0.22372261 0.69154,0.36963967 0.21837,0.14591706 0.42042,0.31173408 0.60615,0.4974513 0.1857,0.1857171 0.35152,0.3877658 0.49744,0.606146 0.14592,0.2183803 0.26914,0.4488959 0.36965,0.6915471 0.10051,0.2426513 0.17637,0.4927755 0.22763,0.7503727 C 191.97435,3.4772356 191.99998,3.7373559 192,4 v 26 c -2e-5,0.262644 -0.0257,0.522762 -0.0769,0.780359 -0.0512,0.257597 -0.1271,0.507719 -0.22761,0.75037 -0.10051,0.242651 -0.22373,0.47317 -0.36965,0.69155 -0.14592,0.21838 -0.31174,0.420429 -0.49744,0.606147 -0.18573,0.185715 -0.38778,0.351529 -0.60615,0.497445 -0.21838,0.145919 -0.4489,0.269134 -0.69156,0.36964 -0.24266,0.10051 -0.49277,0.176384 -0.75035,0.227627 C 188.52275,33.974377 188.26263,33.999996 188,34 H 4 C 3.7373559,33.999996 3.4772356,33.97438 3.2196383,33.92314 2.9620411,33.871895 2.7119172,33.796021 2.4692659,33.695515 2.2266147,33.595005 1.9960991,33.47179 1.7777188,33.325874 1.5593386,33.179958 1.3572899,33.014141 1.1715728,32.828426 0.98585558,32.642708 0.8200385,32.440659 0.67412144,32.222279 0.52820444,32.003899 0.40499124,31.77338 0.30448183,31.530729 0.20397243,31.288078 0.12809812,31.037956 0.07685887,30.780359 0.02561962,30.522762 0,30.262644 0,30 V 4 C 0,3.7373562 0.02561963,3.4772358 0.07685889,3.2196386 0.12809815,2.9620416 0.20397247,2.7119176 0.30448189,2.4692664 0.4049913,2.2266152 0.5282045,1.9960995 0.67412156,1.777719 0.82003856,1.5593388 0.9858557,1.3572901 1.1715729,1.1715729 1.3572901,0.9858557 1.5593388,0.82003862 1.7777191,0.67412162 1.9960995,0.52820456 2.2266152,0.4049913 2.4692664,0.30448189 2.7119176,0.20397247 2.9620416,0.12809815 3.2196386,0.07685889 3.4772358,0.02561963 3.7373562,0 4,0 Z"
             style="fill:url(#linearGradient100);fill-opacity:1;fill-rule:nonzero;stroke:none"
             id="path102"
             inkscape:connector-curvature="0" /><path
             d="m 4,0 h 184 c 0.26263,0 0.52275,0.02561962 0.78033,0.07685887 0.2576,0.05123925 0.50773,0.12711356 0.75039,0.22762296 0.24266,0.10050941 0.47317,0.22372261 0.69154,0.36963967 0.21837,0.14591706 0.42042,0.31173408 0.60615,0.4974513 0.1857,0.1857171 0.35152,0.3877658 0.49744,0.606146 0.14592,0.2183803 0.26914,0.4488959 0.36965,0.6915471 0.10051,0.2426513 0.17637,0.4927755 0.22763,0.7503727 C 191.97435,3.4772356 191.99998,3.7373559 192,4 v 26 c -2e-5,0.262644 -0.0257,0.522762 -0.0769,0.780359 -0.0512,0.257597 -0.1271,0.507719 -0.22761,0.75037 -0.10051,0.242651 -0.22373,0.47317 -0.36965,0.69155 -0.14592,0.21838 -0.31174,0.420429 -0.49744,0.606147 -0.18573,0.185715 -0.38778,0.351529 -0.60615,0.497445 -0.21838,0.145919 -0.4489,0.269134 -0.69156,0.36964 -0.24266,0.10051 -0.49277,0.176384 -0.75035,0.227627 C 188.52275,33.974377 188.26263,33.999996 188,34 H 4 C 3.7373559,33.999996 3.4772356,33.97438 3.2196383,33.92314 2.9620411,33.871895 2.7119172,33.796021 2.4692659,33.695515 2.2266147,33.595005 1.9960991,33.47179 1.7777188,33.325874 1.5593386,33.179958 1.3572899,33.014141 1.1715728,32.828426 0.98585558,32.642708 0.8200385,32.440659 0.67412144,32.222279 0.52820444,32.003899 0.40499124,31.77338 0.30448183,31.530729 0.20397243,31.288078 0.12809812,31.037956 0.07685887,30.780359 0.02561962,30.522762 0,30.262644 0,30 V 4 C 0,3.7373562 0.02561963,3.4772358 0.07685889,3.2196386 0.12809815,2.9620416 0.20397247,2.7119176 0.30448189,2.4692664 0.4049913,2.2266152 0.5282045,1.9960995 0.67412156,1.777719 0.82003856,1.5593388 0.9858557,1.3572901 1.1715729,1.1715729 1.3572901,0.9858557 1.5593388,0.82003862 1.7777191,0.67412162 1.9960995,0.52820456 2.2266152,0.4049913 2.4692664,0.30448189 2.7119176,0.20397247 2.9620416,0.12809815 3.2196386,0.07685889 3.4772358,0.02561963 3.7373562,0 4,0 Z"
             style="fill:none;stroke:#cccccc;stroke-width:1;stroke-linecap:butt;stroke-linejoin:miter;stroke-miterlimit:10;stroke-dasharray:none;stroke-opacity:1"
             id="path104"
             inkscape:connector-curvature="0" /></g><g
           id="g106"
           transform="matrix(3.1269929,0,0,3.1279504,320.56958,958.79907)"><text
   style="font-variant:normal;font-weight:normal;font-size:20.88999939px;font-family:Arimo;-inkscape-font-specification:Arimo;writing-mode:lr-tb;fill:#545454;fill-opacity:1;fill-rule:nonzero;stroke:none"
   id="text110"><tspan
     x="0 11.60968 23.21936 33.65686 45.266541 49.904297 55.704041 67.313721"
     y="0"
     sodipodi:role="line"
     id="tspan108">Local 01</tspan></text>

</g><g
           id="g112"
           transform="matrix(3.1269929,0,0,3.1279504,264.55731,776.70337)"><text
   transform="translate(0,14.330001)"
   style="font-variant:normal;font-weight:bold;font-size:19.39999962px;font-family:'Liberation Sans';-inkscape-font-specification:LiberationSans-Bold;writing-mode:lr-tb;fill:#000000;fill-opacity:1;fill-rule:nonzero;stroke:none"
   id="text116"><tspan
     x="0 11.844574 23.689148 34.473297 45.257446 50.644791 56.032135 67.876709 78.660858 84.048203 99.130859 106.67693 112.06427 123.90884 134.69299"
     y="0"
     sodipodi:role="line"
     id="tspan114">Local de Origem</tspan></text>

</g><g
           id="g118"
           transform="matrix(4.6676884,0,0,4.6691175,1314.7872,547.91663)"><path
             d="m 4,0 h 188 c 0.26263,0 0.52275,0.02561962 0.78035,0.07685887 0.25758,0.05123925 0.50771,0.12711356 0.75037,0.22762296 0.24264,0.10050941 0.47316,0.22372261 0.69155,0.36963967 0.21837,0.14591706 0.42043,0.31173408 0.60614,0.4974513 0.18572,0.1857171 0.35154,0.3877658 0.49744,0.606146 0.14592,0.2183803 0.26914,0.4488959 0.36965,0.6915471 0.10051,0.2426513 0.17637,0.4927755 0.22763,0.7503727 C 195.97437,3.4772356 195.99998,3.7373559 196,4 v 26 c -2e-5,0.262644 -0.0256,0.522762 -0.0769,0.780359 -0.0512,0.257597 -0.1271,0.507719 -0.22761,0.75037 -0.10051,0.242651 -0.22373,0.47317 -0.36965,0.69155 -0.1459,0.21838 -0.31172,0.420429 -0.49744,0.606147 -0.18571,0.185715 -0.38777,0.351529 -0.60615,0.497445 -0.21838,0.145919 -0.4489,0.269134 -0.69154,0.36964 -0.24266,0.10051 -0.49279,0.176384 -0.75037,0.227627 C 192.52275,33.974377 192.26263,33.999996 192,34 H 4 C 3.7373559,33.999996 3.4772356,33.97438 3.2196383,33.92314 2.9620411,33.871895 2.7119172,33.796021 2.4692659,33.695515 2.2266147,33.595005 1.9960991,33.47179 1.7777188,33.325874 1.5593386,33.179958 1.3572899,33.014141 1.1715728,32.828426 0.98585558,32.642708 0.8200385,32.440659 0.67412144,32.222279 0.52820444,32.003899 0.40499124,31.77338 0.30448183,31.530729 0.20397243,31.288078 0.12809812,31.037956 0.07685887,30.780359 0.02561962,30.522762 0,30.262644 0,30 V 4 C 0,3.7373562 0.02561963,3.4772358 0.07685889,3.2196386 0.12809815,2.9620416 0.20397247,2.7119176 0.30448189,2.4692664 0.4049913,2.2266152 0.5282045,1.9960995 0.67412156,1.777719 0.82003856,1.5593388 0.9858557,1.3572901 1.1715729,1.1715729 1.3572901,0.9858557 1.5593388,0.82003862 1.7777191,0.67412162 1.9960995,0.52820456 2.2266152,0.4049913 2.4692664,0.30448189 2.7119176,0.20397247 2.9620416,0.12809815 3.2196386,0.07685889 3.4772358,0.02561963 3.7373562,0 4,0 Z"
             style="fill:url(#linearGradient126);fill-opacity:1;fill-rule:nonzero;stroke:none"
             id="path128"
             inkscape:connector-curvature="0" /><path
             d="m 4,0 h 188 c 0.26263,0 0.52275,0.02561962 0.78035,0.07685887 0.25758,0.05123925 0.50771,0.12711356 0.75037,0.22762296 0.24264,0.10050941 0.47316,0.22372261 0.69155,0.36963967 0.21837,0.14591706 0.42043,0.31173408 0.60614,0.4974513 0.18572,0.1857171 0.35154,0.3877658 0.49744,0.606146 0.14592,0.2183803 0.26914,0.4488959 0.36965,0.6915471 0.10051,0.2426513 0.17637,0.4927755 0.22763,0.7503727 C 195.97437,3.4772356 195.99998,3.7373559 196,4 v 26 c -2e-5,0.262644 -0.0256,0.522762 -0.0769,0.780359 -0.0512,0.257597 -0.1271,0.507719 -0.22761,0.75037 -0.10051,0.242651 -0.22373,0.47317 -0.36965,0.69155 -0.1459,0.21838 -0.31172,0.420429 -0.49744,0.606147 -0.18571,0.185715 -0.38777,0.351529 -0.60615,0.497445 -0.21838,0.145919 -0.4489,0.269134 -0.69154,0.36964 -0.24266,0.10051 -0.49279,0.176384 -0.75037,0.227627 C 192.52275,33.974377 192.26263,33.999996 192,34 H 4 C 3.7373559,33.999996 3.4772356,33.97438 3.2196383,33.92314 2.9620411,33.871895 2.7119172,33.796021 2.4692659,33.695515 2.2266147,33.595005 1.9960991,33.47179 1.7777188,33.325874 1.5593386,33.179958 1.3572899,33.014141 1.1715728,32.828426 0.98585558,32.642708 0.8200385,32.440659 0.67412144,32.222279 0.52820444,32.003899 0.40499124,31.77338 0.30448183,31.530729 0.20397243,31.288078 0.12809812,31.037956 0.07685887,30.780359 0.02561962,30.522762 0,30.262644 0,30 V 4 C 0,3.7373562 0.02561963,3.4772358 0.07685889,3.2196386 0.12809815,2.9620416 0.20397247,2.7119176 0.30448189,2.4692664 0.4049913,2.2266152 0.5282045,1.9960995 0.67412156,1.777719 0.82003856,1.5593388 0.9858557,1.3572901 1.1715729,1.1715729 1.3572901,0.9858557 1.5593388,0.82003862 1.7777191,0.67412162 1.9960995,0.52820456 2.2266152,0.4049913 2.4692664,0.30448189 2.7119176,0.20397247 2.9620416,0.12809815 3.2196386,0.07685889 3.4772358,0.02561963 3.7373562,0 4,0 Z"
             style="fill:none;stroke:#cccccc;stroke-width:1;stroke-linecap:butt;stroke-linejoin:miter;stroke-miterlimit:10;stroke-dasharray:none;stroke-opacity:1"
             id="path130"
             inkscape:connector-curvature="0" /></g><g
           id="g132"
           transform="matrix(3.1269929,0,0,3.1279504,1370.7994,650.63721)"><text
   style="font-variant:normal;font-weight:normal;font-size:20.88999939px;font-family:Arimo;-inkscape-font-specification:Arimo;writing-mode:lr-tb;fill:#545454;fill-opacity:1;fill-rule:nonzero;stroke:none"
   id="text136"><tspan
     x="0 11.60968 23.21936"
     y="0"
     sodipodi:role="line"
     id="tspan134">174</tspan></text>

</g><g
           id="g138"
           transform="matrix(3.1269929,0,0,3.1279504,1314.7872,449.86517)"><text
   transform="translate(0,14.330001)"
   style="font-variant:normal;font-weight:bold;font-size:19.39999962px;font-family:'Liberation Sans';-inkscape-font-specification:LiberationSans-Bold;writing-mode:lr-tb;fill:#000000;fill-opacity:1;fill-rule:nonzero;stroke:none"
   id="text142"><tspan
     x="0 15.082657 26.927231 37.71138 49.555954 56.013184 61.400528 73.245102 84.029251 95.873825"
     y="0"
     sodipodi:role="line"
     id="tspan140">Quantidade</tspan></text>

</g><g
           id="g144"
           transform="matrix(4.6676884,0,0,4.6691175,1314.7872,856.07849)"><path
             d="m 4,0 h 188 c 0.26263,0 0.52275,0.02561962 0.78035,0.07685887 0.25758,0.05123925 0.50771,0.12711356 0.75037,0.22762296 0.24264,0.10050941 0.47316,0.22372261 0.69155,0.36963967 0.21837,0.14591706 0.42043,0.31173408 0.60614,0.4974513 0.18572,0.1857171 0.35154,0.3877658 0.49744,0.606146 0.14592,0.2183803 0.26914,0.4488959 0.36965,0.6915471 0.10051,0.2426513 0.17637,0.4927755 0.22763,0.7503727 C 195.97437,3.4772356 195.99998,3.7373559 196,4 v 26 c -2e-5,0.262644 -0.0256,0.522762 -0.0769,0.780359 -0.0512,0.257597 -0.1271,0.507719 -0.22761,0.75037 -0.10051,0.242651 -0.22373,0.47317 -0.36965,0.69155 -0.1459,0.21838 -0.31172,0.420429 -0.49744,0.606147 -0.18571,0.185715 -0.38777,0.351529 -0.60615,0.497445 -0.21838,0.145919 -0.4489,0.269134 -0.69154,0.36964 -0.24266,0.10051 -0.49279,0.176384 -0.75037,0.227627 C 192.52275,33.974377 192.26263,33.999996 192,34 H 4 C 3.7373559,33.999996 3.4772356,33.97438 3.2196383,33.92314 2.9620411,33.871895 2.7119172,33.796021 2.4692659,33.695515 2.2266147,33.595005 1.9960991,33.47179 1.7777188,33.325874 1.5593386,33.179958 1.3572899,33.014141 1.1715728,32.828426 0.98585558,32.642708 0.8200385,32.440659 0.67412144,32.222279 0.52820444,32.003899 0.40499124,31.77338 0.30448183,31.530729 0.20397243,31.288078 0.12809812,31.037956 0.07685887,30.780359 0.02561962,30.522762 0,30.262644 0,30 V 4 C 0,3.7373562 0.02561963,3.4772358 0.07685889,3.2196386 0.12809815,2.9620416 0.20397247,2.7119176 0.30448189,2.4692664 0.4049913,2.2266152 0.5282045,1.9960995 0.67412156,1.777719 0.82003856,1.5593388 0.9858557,1.3572901 1.1715729,1.1715729 1.3572901,0.9858557 1.5593388,0.82003862 1.7777191,0.67412162 1.9960995,0.52820456 2.2266152,0.4049913 2.4692664,0.30448189 2.7119176,0.20397247 2.9620416,0.12809815 3.2196386,0.07685889 3.4772358,0.02561963 3.7373562,0 4,0 Z"
             style="fill:url(#linearGradient152);fill-opacity:1;fill-rule:nonzero;stroke:none"
             id="path154"
             inkscape:connector-curvature="0" /><path
             d="m 4,0 h 188 c 0.26263,0 0.52275,0.02561962 0.78035,0.07685887 0.25758,0.05123925 0.50771,0.12711356 0.75037,0.22762296 0.24264,0.10050941 0.47316,0.22372261 0.69155,0.36963967 0.21837,0.14591706 0.42043,0.31173408 0.60614,0.4974513 0.18572,0.1857171 0.35154,0.3877658 0.49744,0.606146 0.14592,0.2183803 0.26914,0.4488959 0.36965,0.6915471 0.10051,0.2426513 0.17637,0.4927755 0.22763,0.7503727 C 195.97437,3.4772356 195.99998,3.7373559 196,4 v 26 c -2e-5,0.262644 -0.0256,0.522762 -0.0769,0.780359 -0.0512,0.257597 -0.1271,0.507719 -0.22761,0.75037 -0.10051,0.242651 -0.22373,0.47317 -0.36965,0.69155 -0.1459,0.21838 -0.31172,0.420429 -0.49744,0.606147 -0.18571,0.185715 -0.38777,0.351529 -0.60615,0.497445 -0.21838,0.145919 -0.4489,0.269134 -0.69154,0.36964 -0.24266,0.10051 -0.49279,0.176384 -0.75037,0.227627 C 192.52275,33.974377 192.26263,33.999996 192,34 H 4 C 3.7373559,33.999996 3.4772356,33.97438 3.2196383,33.92314 2.9620411,33.871895 2.7119172,33.796021 2.4692659,33.695515 2.2266147,33.595005 1.9960991,33.47179 1.7777188,33.325874 1.5593386,33.179958 1.3572899,33.014141 1.1715728,32.828426 0.98585558,32.642708 0.8200385,32.440659 0.67412144,32.222279 0.52820444,32.003899 0.40499124,31.77338 0.30448183,31.530729 0.20397243,31.288078 0.12809812,31.037956 0.07685887,30.780359 0.02561962,30.522762 0,30.262644 0,30 V 4 C 0,3.7373562 0.02561963,3.4772358 0.07685889,3.2196386 0.12809815,2.9620416 0.20397247,2.7119176 0.30448189,2.4692664 0.4049913,2.2266152 0.5282045,1.9960995 0.67412156,1.777719 0.82003856,1.5593388 0.9858557,1.3572901 1.1715729,1.1715729 1.3572901,0.9858557 1.5593388,0.82003862 1.7777191,0.67412162 1.9960995,0.52820456 2.2266152,0.4049913 2.4692664,0.30448189 2.7119176,0.20397247 2.9620416,0.12809815 3.2196386,0.07685889 3.4772358,0.02561963 3.7373562,0 4,0 Z"
             style="fill:none;stroke:#cccccc;stroke-width:1;stroke-linecap:butt;stroke-linejoin:miter;stroke-miterlimit:10;stroke-dasharray:none;stroke-opacity:1"
             id="path156"
             inkscape:connector-curvature="0" /></g><g
           id="g158"
           transform="matrix(3.1269929,0,0,3.1279504,1370.7994,958.79907)"><text
   style="font-variant:normal;font-weight:normal;font-size:20.88999939px;font-family:Arimo;-inkscape-font-specification:Arimo;writing-mode:lr-tb;fill:#545454;fill-opacity:1;fill-rule:nonzero;stroke:none"
   id="text162"><tspan
     x="0 11.60968 23.21936 29.019104 40.628784 46.428528 58.038208"
     y="0"
     sodipodi:role="line"
     id="tspan160">Lote 01</tspan></text>

</g><g
           id="g164"
           transform="matrix(3.1269929,0,0,3.1279504,1314.7872,776.70337)"><text
   transform="translate(0,14.330001)"
   style="font-variant:normal;font-weight:bold;font-size:19.39999962px;font-family:'Liberation Sans';-inkscape-font-specification:LiberationSans-Bold;writing-mode:lr-tb;fill:#000000;fill-opacity:1;fill-rule:nonzero;stroke:none"
   id="text168"><tspan
     x="0 11.844574 23.689148 30.146378"
     y="0"
     sodipodi:role="line"
     id="tspan166">Lote</tspan></text>

</g></g></g></g></svg>