<?xml version="1.0" encoding="UTF-8" standalone="no"?>
<!-- Created with Inkscape (http://www.inkscape.org/) -->

<svg
   xmlns:dc="http://purl.org/dc/elements/1.1/"
   xmlns:cc="http://creativecommons.org/ns#"
   xmlns:rdf="http://www.w3.org/1999/02/22-rdf-syntax-ns#"
   xmlns:svg="http://www.w3.org/2000/svg"
   xmlns="http://www.w3.org/2000/svg"
   xmlns:sodipodi="http://sodipodi.sourceforge.net/DTD/sodipodi-0.dtd"
   xmlns:inkscape="http://www.inkscape.org/namespaces/inkscape"
   version="1.1"
   id="svg2"
   xml:space="preserve"
   width="794.56"
   height="1121.2799"
   viewBox="0 0 794.56 1121.2799"
   sodipodi:docname="mockups-08.svg"
   inkscape:version="0.92.5 (2060ec1f9f, 2020-04-08)"><metadata
     id="metadata8"><rdf:RDF><cc:Work
         rdf:about=""><dc:format>image/svg+xml</dc:format><dc:type
           rdf:resource="http://purl.org/dc/dcmitype/StillImage" /><dc:title /></cc:Work></rdf:RDF></metadata><defs
     id="defs6"><clipPath
       clipPathUnits="userSpaceOnUse"
       id="clipPath18"><path
         d="M 129.16666,79.166664 H 2351.0417 V 3304.1667 H 129.16666 Z"
         id="path16"
         inkscape:connector-curvature="0"
         style="clip-rule:evenodd" /></clipPath><clipPath
       clipPathUnits="userSpaceOnUse"
       id="clipPath34"><path
         d="M 129.16666,79.166664 H 2354.1665 V 3504.1665 H 129.16666 Z"
         id="path32"
         inkscape:connector-curvature="0"
         style="clip-rule:evenodd" /></clipPath><clipPath
       clipPathUnits="userSpaceOnUse"
       id="clipPath48"><path
         d="M 129.16666,151.04166 H 2347.9167 V 1576.0417 H 129.16666 Z"
         id="path46"
         inkscape:connector-curvature="0"
         style="clip-rule:evenodd" /></clipPath><clipPath
       clipPathUnits="userSpaceOnUse"
       id="clipPath82"><path
         d="M 199.12164,557.27771 H 752.1933 v 60.30066 H 199.12164 Z"
         id="path80"
         inkscape:connector-curvature="0"
         style="clip-rule:evenodd" /></clipPath><clipPath
       clipPathUnits="userSpaceOnUse"
       id="clipPath96"><path
         d="M 129.16666,151.04166 H 2347.9167 V 1576.0417 H 129.16666 Z"
         id="path94"
         inkscape:connector-curvature="0"
         style="clip-rule:evenodd" /></clipPath><linearGradient
       x1="0"
       y1="0"
       x2="0"
       y2="1"
       gradientUnits="userSpaceOnUse"
       gradientTransform="matrix(95.760003,0,0,-8.1600002,-47.610189,2.6028577)"
       spreadMethod="pad"
       id="linearGradient106"><stop
         style="stop-opacity:1;stop-color:#f2f2f2"
         offset="0"
         id="stop100" /><stop
         style="stop-opacity:1;stop-color:#ffffff"
         offset="0.10000001"
         id="stop102" /><stop
         style="stop-opacity:1;stop-color:#ffffff"
         offset="1"
         id="stop104" /></linearGradient><clipPath
       clipPathUnits="userSpaceOnUse"
       id="clipPath124"><path
         d="M 199.12164,919.08179 H 1788.408 V 1347.5339 H 199.12164 Z"
         id="path122"
         inkscape:connector-curvature="0"
         style="clip-rule:evenodd" /></clipPath><clipPath
       clipPathUnits="userSpaceOnUse"
       id="clipPath194"><path
         d="M 129.16666,151.04166 H 2347.9167 V 1576.0417 H 129.16666 Z"
         id="path192"
         inkscape:connector-curvature="0"
         style="clip-rule:evenodd" /></clipPath></defs><sodipodi:namedview
     pagecolor="#ffffff"
     bordercolor="#666666"
     borderopacity="1"
     objecttolerance="10"
     gridtolerance="10"
     guidetolerance="10"
     inkscape:pageopacity="0"
     inkscape:pageshadow="2"
     inkscape:window-width="1366"
     inkscape:window-height="707"
     id="namedview4"
     showgrid="false"
     inkscape:zoom="1.1906194"
     inkscape:cx="125.19766"
     inkscape:cy="178.75001"
     inkscape:window-x="0"
     inkscape:window-y="30"
     inkscape:window-maximized="1"
     inkscape:current-layer="g10" /><g
     id="g10"
     inkscape:groupmode="layer"
     inkscape:label="mockups-08"
     transform="matrix(0.31999998,0,0,0.31999998,0,-1.8634668e-5)"><g
       id="g42"><g
         id="g44"
         clip-path="url(#clipPath48)"><g
           id="g50"
           transform="matrix(3.1785727,0,0,3.1737194,129.19304,151.04166)"><path
             d="m 4,0 h 691 c 0.53033,0 1.04059,0.10149394 1.53064,0.30448183 0.49005,0.20298788 0.92261,0.4920182 1.29773,0.86709097 0.37506,0.3750726 0.66406,0.807637 0.86706,1.2976931 C 698.89844,2.9593222 698.99994,3.4695668 699,4 V 39 H 0 V 4 C 0,3.4695671 0.10149396,2.9593227 0.30448189,2.4692664 0.50746983,1.9792101 0.79650015,1.5466458 1.1715729,1.1715729 1.5466458,0.79650015 1.9792101,0.50746983 2.4692664,0.30448189 2.9593227,0.10149396 3.4695671,0 4,0 Z"
             style="fill:#337ab7;fill-opacity:1;fill-rule:nonzero;stroke:none"
             id="path52"
             inkscape:connector-curvature="0" /><path
             d="m 4,0 h 691 c 0.53033,0 1.04059,0.10149394 1.53064,0.30448183 0.49005,0.20298788 0.92261,0.4920182 1.29773,0.86709097 0.37506,0.3750726 0.66406,0.807637 0.86706,1.2976931 C 698.89844,2.9593222 698.99994,3.4695668 699,4 V 39 H 0 V 4 C 0,3.4695671 0.10149396,2.9593227 0.30448189,2.4692664 0.50746983,1.9792101 0.79650015,1.5466458 1.1715729,1.1715729 1.5466458,0.79650015 1.9792101,0.50746983 2.4692664,0.30448189 2.9593227,0.10149396 3.4695671,0 4,0 Z"
             style="fill:none;stroke:#337ab7;stroke-width:1;stroke-linecap:butt;stroke-linejoin:miter;stroke-miterlimit:10;stroke-dasharray:none;stroke-opacity:1"
             id="path54"
             inkscape:connector-curvature="0" /><path
             d="m 0,39 h 699 v 406 c -6e-5,0.5304 -0.10156,1.04062 -0.30457,1.53067 -0.203,0.49005 -0.492,0.92264 -0.86706,1.29773 -0.37512,0.37506 -0.80768,0.66409 -1.29773,0.8671 C 696.04059,448.89847 695.53033,448.99997 695,449 H 4 c -0.5304332,-3e-5 -1.0406778,-0.10153 -1.5307341,-0.30453 C 1.9792098,448.49249 1.5466454,448.20346 1.1715728,447.8284 0.79650003,447.45331 0.50746971,447.02072 0.30448183,446.53067 0.10149394,446.04062 0,445.5304 0,445 Z"
             style="fill:#f8f8f8;fill-opacity:1;fill-rule:nonzero;stroke:none"
             id="path56"
             inkscape:connector-curvature="0" /><path
             d="m 0,39 h 699 v 406 c -6e-5,0.5304 -0.10156,1.04062 -0.30457,1.53067 -0.203,0.49005 -0.492,0.92264 -0.86706,1.29773 -0.37512,0.37506 -0.80768,0.66409 -1.29773,0.8671 C 696.04059,448.89847 695.53033,448.99997 695,449 H 4 c -0.5304332,-3e-5 -1.0406778,-0.10153 -1.5307341,-0.30453 C 1.9792098,448.49249 1.5466454,448.20346 1.1715728,447.8284 0.79650003,447.45331 0.50746971,447.02072 0.30448183,446.53067 0.10149394,446.04062 0,445.5304 0,445 Z"
             style="fill:none;stroke:#337ab7;stroke-width:1;stroke-linecap:butt;stroke-linejoin:miter;stroke-miterlimit:10;stroke-dasharray:none;stroke-opacity:1"
             id="path58"
             inkscape:connector-curvature="0" /></g><g
           id="g60"
           transform="matrix(3.1269929,0,0,3.1222186,176.87164,230.38464)"><text
   style="font-variant:normal;font-weight:normal;font-size:16.26000023px;font-family:Arimo;-inkscape-font-specification:Arimo;writing-mode:lr-tb;fill:#ffffff;fill-opacity:1;fill-rule:nonzero;stroke:none"
   id="text64"><tspan
     x="0 11.735229 20.772705 29.810181 37.935181 46.972656 50.582886 55.097656 64.135132 68.649902 77.687378 86.724854 91.239624 100.2771 109.31458 117.43958 126.47705 130.08728"
     y="0"
     sodipodi:role="line"
     id="tspan62">Consulta de Locais</tspan></text>

</g><g
           id="g66"
           transform="matrix(3.1785727,0,0,3.1737194,189.58594,420.8078)"><path
             d="m 2,0 h 657 c 0.2652,0 0.52026,0.05074697 0.76532,0.15224092 0.24499,0.10149394 0.4613,0.24600909 0.64886,0.43354548 0.1875,0.1875363 0.33197,0.40381849 0.43348,0.6488466 C 660.94916,1.4796611 660.99994,1.7347834 661,2 v 25 c -6e-5,0.265215 -0.0508,0.520336 -0.15234,0.765364 -0.10151,0.245027 -0.24598,0.461309 -0.43348,0.648847 -0.18756,0.187537 -0.40387,0.332051 -0.64886,0.433544 C 659.52026,28.949249 659.2652,28.999998 659,29 H 2 C 1.7347834,28.999998 1.4796611,28.949249 1.234633,28.847755 0.98960489,28.746262 0.7733227,28.601748 0.5857864,28.414211 0.39825001,28.226673 0.25373486,28.010391 0.15224092,27.765364 0.05074697,27.520336 0,27.265215 0,27 V 2 C 0,1.7347834 0.05074697,1.4796611 0.15224092,1.234633 0.25373486,0.98960489 0.39825001,0.7733227 0.5857864,0.5857864 0.7733227,0.39825001 0.98960489,0.25373486 1.234633,0.15224092 1.4796611,0.05074697 1.7347834,0 2,0 Z"
             style="fill:#337ab7;fill-opacity:1;fill-rule:nonzero;stroke:none"
             id="path68"
             inkscape:connector-curvature="0" /></g><g
           id="g70"
           transform="matrix(3.1269929,0,0,3.1222186,208.65736,481.10846)"><text
   style="font-variant:normal;font-weight:bold;font-size:12.18999958px;font-family:Arimo;-inkscape-font-specification:Arimo-Bold;writing-mode:lr-tb;fill:#ffffff;fill-opacity:1;fill-rule:nonzero;stroke:none"
   id="text74"><tspan
     x="0 8.8014221 16.246033 23.690643 30.46875 37.913361 41.299438 45.357971 52.136078"
     y="0"
     sodipodi:role="line"
     id="tspan72">Consultar</tspan></text>

</g></g></g><g
       id="g76"><g
         id="g78"
         clip-path="url(#clipPath82)"><g
           id="g84"
           transform="matrix(3.1785727,0,0,3.1737194,199.12164,557.27771)"><text
   transform="translate(0,14)"
   style="font-variant:normal;font-weight:bold;font-size:14px;font-family:'Liberation Sans';-inkscape-font-specification:LiberationSans-Bold;writing-mode:lr-tb;fill:#cccccc;fill-opacity:1;fill-rule:nonzero;stroke:none"
   id="text88"><tspan
     x="0 10.110352 18.662109 27.213867 35 43.551758 47.441406 52.103516 59.889648 65.337891 69.227539 77.779297 86.331055 91.779297 95.668945 104.2207 112.77246 125.2207 133.00684 136.89648 145.44824 154 157.88965 161.7793 170.33105"
     y="0"
     sodipodi:role="line"
     id="tspan86">Consultar por nome ou id </tspan></text>

</g></g></g><g
       id="g90"><g
         id="g92"
         clip-path="url(#clipPath96)"><g
           id="g98"
           transform="matrix(3.1785727,0,0,3.1737194,199.12164,671.53162)"><path
             d="m 4,0 h 391 c 0.5304,0 1.04062,0.10149394 1.53067,0.30448183 0.49005,0.20298788 0.92264,0.4920182 1.29773,0.86709097 0.37503,0.3750726 0.66406,0.807637 0.86707,1.2976931 C 398.89847,2.9593222 398.99997,3.4695668 399,4 v 26 c -3e-5,0.530432 -0.10153,1.040674 -0.30453,1.530729 -0.20301,0.490057 -0.49204,0.922625 -0.86707,1.297697 -0.37509,0.375069 -0.80768,0.664097 -1.29773,0.867085 C 396.04062,33.898502 395.5304,33.999996 395,34 H 4 C 3.4695668,33.999996 2.9593222,33.898502 2.4692659,33.695515 1.9792098,33.492523 1.5466454,33.203495 1.1715728,32.828426 0.79650003,32.453354 0.50746971,32.020786 0.30448183,31.530729 0.10149394,31.040674 0,30.530432 0,30 V 4 C 0,3.4695671 0.10149396,2.9593227 0.30448189,2.4692664 0.50746983,1.9792101 0.79650015,1.5466458 1.1715729,1.1715729 1.5466458,0.79650015 1.9792101,0.50746983 2.4692664,0.30448189 2.9593227,0.10149396 3.4695671,0 4,0 Z"
             style="fill:url(#linearGradient106);fill-opacity:1;fill-rule:nonzero;stroke:none"
             id="path108"
             inkscape:connector-curvature="0" /><path
             d="m 4,0 h 391 c 0.5304,0 1.04062,0.10149394 1.53067,0.30448183 0.49005,0.20298788 0.92264,0.4920182 1.29773,0.86709097 0.37503,0.3750726 0.66406,0.807637 0.86707,1.2976931 C 398.89847,2.9593222 398.99997,3.4695668 399,4 v 26 c -3e-5,0.530432 -0.10153,1.040674 -0.30453,1.530729 -0.20301,0.490057 -0.49204,0.922625 -0.86707,1.297697 -0.37509,0.375069 -0.80768,0.664097 -1.29773,0.867085 C 396.04062,33.898502 395.5304,33.999996 395,34 H 4 C 3.4695668,33.999996 2.9593222,33.898502 2.4692659,33.695515 1.9792098,33.492523 1.5466454,33.203495 1.1715728,32.828426 0.79650003,32.453354 0.50746971,32.020786 0.30448183,31.530729 0.10149394,31.040674 0,30.530432 0,30 V 4 C 0,3.4695671 0.10149396,2.9593227 0.30448189,2.4692664 0.50746983,1.9792101 0.79650015,1.5466458 1.1715729,1.1715729 1.5466458,0.79650015 1.9792101,0.50746983 2.4692664,0.30448189 2.9593227,0.10149396 3.4695671,0 4,0 Z"
             style="fill:none;stroke:#cccccc;stroke-width:1;stroke-linecap:butt;stroke-linejoin:miter;stroke-miterlimit:10;stroke-dasharray:none;stroke-opacity:1"
             id="path110"
             inkscape:connector-curvature="0" /></g><g
           id="g112"
           transform="matrix(3.1269929,0,0,3.1222186,237.26453,741.35339)"><text
   style="font-variant:normal;font-weight:normal;font-size:14.22999954px;font-family:Arimo;-inkscape-font-specification:Arimo;writing-mode:lr-tb;fill:#545454;fill-opacity:1;fill-rule:nonzero;stroke:none"
   id="text116"><tspan
     x="0 7.9077911 15.815582 22.924957 30.832748 33.991699 37.942123 41.892548 45.842972"
     y="0"
     sodipodi:role="line"
     id="tspan114">Local....</tspan></text>

</g></g></g><g
       id="g118"><g
         id="g120"
         clip-path="url(#clipPath124)"><g
           id="g126"
           transform="matrix(3.1785727,0,0,3.1737194,199.12164,919.08179)"><path
   d="m 455,101 h 45 v 1 h -45 z"
   style="fill:#dddddd;fill-opacity:1;fill-rule:nonzero;stroke:none"
   id="path128"
   inkscape:connector-curvature="0" /><path
   d="m 249,101 h 206 v 1 H 249 Z"
   style="fill:#dddddd;fill-opacity:1;fill-rule:nonzero;stroke:none"
   id="path130"
   inkscape:connector-curvature="0" /><path
   d="m 79,101 h 170 v 1 H 79 Z"
   style="fill:#dddddd;fill-opacity:1;fill-rule:nonzero;stroke:none"
   id="path132"
   inkscape:connector-curvature="0" /><path
   d="m 0,101 h 79 v 1 H 0 Z"
   style="fill:#dddddd;fill-opacity:1;fill-rule:nonzero;stroke:none"
   id="path134"
   inkscape:connector-curvature="0" /><path
   d="m 455,67 h 45 v 1 h -45 z"
   style="fill:#dddddd;fill-opacity:1;fill-rule:nonzero;stroke:none"
   id="path136"
   inkscape:connector-curvature="0" /><path
   d="m 249,67 h 206 v 1 H 249 Z"
   style="fill:#dddddd;fill-opacity:1;fill-rule:nonzero;stroke:none"
   id="path138"
   inkscape:connector-curvature="0" /><path
   d="m 79,67 h 170 v 1 H 79 Z"
   style="fill:#dddddd;fill-opacity:1;fill-rule:nonzero;stroke:none"
   id="path140"
   inkscape:connector-curvature="0" /><path
   d="m 0,67 h 79 v 1 H 0 Z"
   style="fill:#dddddd;fill-opacity:1;fill-rule:nonzero;stroke:none"
   id="path142"
   inkscape:connector-curvature="0" /><path
   d="m 455,32 h 45 v 2 h -45 z"
   style="fill:#dddddd;fill-opacity:1;fill-rule:nonzero;stroke:none"
   id="path144"
   inkscape:connector-curvature="0" /><path
   d="m 249,32 h 206 v 2 H 249 Z"
   style="fill:#dddddd;fill-opacity:1;fill-rule:nonzero;stroke:none"
   id="path146"
   inkscape:connector-curvature="0" /><path
   d="m 79,32 h 170 v 2 H 79 Z"
   style="fill:#dddddd;fill-opacity:1;fill-rule:nonzero;stroke:none"
   id="path148"
   inkscape:connector-curvature="0" /><path
   d="m 0,32 h 79 v 2 H 0 Z"
   style="fill:#dddddd;fill-opacity:1;fill-rule:nonzero;stroke:none"
   id="path150"
   inkscape:connector-curvature="0" /><text
   transform="translate(8,21)"
   style="font-variant:normal;font-weight:bold;font-size:14px;font-family:Arimo;-inkscape-font-specification:Arimo-Bold;writing-mode:lr-tb;fill:#333333;fill-opacity:1;fill-rule:nonzero;stroke:none"
   id="text154"><tspan
     x="0 3.8896484"
     y="0"
     sodipodi:role="line"
     id="tspan152">Id</tspan></text>

<text
   transform="translate(87,21)"
   style="font-variant:normal;font-weight:bold;font-size:14px;font-family:Arimo;-inkscape-font-specification:Arimo-Bold;writing-mode:lr-tb;fill:#333333;fill-opacity:1;fill-rule:nonzero;stroke:none"
   id="text158"><tspan
     x="0 10.110352 18.662109 31.110352"
     y="0"
     sodipodi:role="line"
     id="tspan156">Nome</tspan></text>

<text
   transform="translate(257,21)"
   style="font-variant:normal;font-weight:bold;font-size:14px;font-family:Arimo;-inkscape-font-specification:Arimo-Bold;writing-mode:lr-tb;fill:#333333;fill-opacity:1;fill-rule:nonzero;stroke:none"
   id="text162"><tspan
     x="0 10.110352 17.896484 22.558594 30.344727 34.234375 42.786133 50.572266"
     y="0"
     sodipodi:role="line"
     id="tspan160">Detalhes</tspan></text>

<text
   transform="translate(8,55)"
   style="font-variant:normal;font-weight:normal;font-size:14px;font-family:Arimo;-inkscape-font-specification:Arimo;writing-mode:lr-tb;fill:#333333;fill-opacity:1;fill-rule:nonzero;stroke:none"
   id="text166"><tspan
     x="0"
     y="0"
     id="tspan164">1</tspan></text>

<text
   transform="translate(87,55)"
   style="font-variant:normal;font-weight:normal;font-size:14px;font-family:Arimo;-inkscape-font-specification:Arimo;writing-mode:lr-tb;fill:#333333;fill-opacity:1;fill-rule:nonzero;stroke:none"
   id="text170"><tspan
     x="0 7.7861328 15.572266 22.572266 30.358398 33.46875 37.358398"
     y="0"
     sodipodi:role="line"
     id="tspan168">Local 1</tspan></text>

<text
   transform="translate(8,89)"
   style="font-variant:normal;font-weight:normal;font-size:14px;font-family:Arimo;-inkscape-font-specification:Arimo;writing-mode:lr-tb;fill:#333333;fill-opacity:1;fill-rule:nonzero;stroke:none"
   id="text174"><tspan
     x="0"
     y="0"
     id="tspan172">2</tspan></text>

<text
   transform="translate(87,89)"
   style="font-variant:normal;font-weight:normal;font-size:14px;font-family:Arimo;-inkscape-font-specification:Arimo;writing-mode:lr-tb;fill:#333333;fill-opacity:1;fill-rule:nonzero;stroke:none"
   id="text178"><tspan
     x="0 7.7861328 15.572266 22.572266 30.358398 33.46875 37.358398"
     y="0"
     sodipodi:role="line"
     id="tspan176">Local 2</tspan></text>

<text
   transform="translate(8,123)"
   style="font-variant:normal;font-weight:normal;font-size:14px;font-family:Arimo;-inkscape-font-specification:Arimo;writing-mode:lr-tb;fill:#333333;fill-opacity:1;fill-rule:nonzero;stroke:none"
   id="text182"><tspan
     x="0"
     y="0"
     id="tspan180">3</tspan></text>

<text
   transform="translate(87,123)"
   style="font-variant:normal;font-weight:normal;font-size:14px;font-family:Arimo;-inkscape-font-specification:Arimo;writing-mode:lr-tb;fill:#333333;fill-opacity:1;fill-rule:nonzero;stroke:none"
   id="text186"><tspan
     x="0 7.7861328 15.572266 22.572266 30.358398 33.46875 37.358398"
     y="0"
     sodipodi:role="line"
     id="tspan184">Local 3</tspan></text>

</g></g></g><g
       id="g188"><g
         id="g190"
         clip-path="url(#clipPath194)"><g
           id="g196"
           transform="matrix(3.1785727,0,0,3.1737194,1534.1222,1366.5762)"><path
             d="m 16,0 h 48 c 1.050575,0 2.091049,0.10247849 3.121437,0.30743548 1.030388,0.20495698 2.030884,0.50845424 3.001495,0.91049182 0.970604,0.4020377 1.89267,0.8948905 2.766182,1.4785587 0.873528,0.5836682 1.681725,1.2469363 2.424591,1.9898052 0.742867,0.7428684 1.406128,1.5510631 1.9898,2.4245839 0.583664,0.8735214 1.076515,1.7955838 1.478554,2.7661887 0.402038,0.9706052 0.705536,1.9711012 0.910499,3.0014902 C 79.897514,13.908942 79.999992,14.949424 80,16 c -8e-6,1.050575 -0.102486,2.091057 -0.307442,3.121445 -0.204963,1.030388 -0.508461,2.030883 -0.910499,3.001489 -0.402039,0.970604 -0.89489,1.892666 -1.478554,2.766188 -0.583672,0.873522 -1.246933,1.681717 -1.9898,2.424585 -0.742866,0.742869 -1.551063,1.406136 -2.424583,1.989804 -0.87352,0.583667 -1.795586,1.076521 -2.76619,1.478557 -0.970611,0.402037 -1.971107,0.705536 -3.001495,0.910494 C 66.091049,31.897518 65.050575,31.999998 64,32 H 16 c -1.050576,-2e-6 -2.091058,-0.102482 -3.121447,-0.30744 C 11.848165,31.487602 10.847669,31.184105 9.8770638,30.782068 8.9064589,30.380032 7.9843965,29.887178 7.1108751,29.303511 6.2373543,28.719843 5.4291596,28.056576 4.6862912,27.313707 3.9434223,26.570839 3.280154,25.762644 2.6964858,24.889122 2.1128178,24.0156 1.619965,23.093538 1.2179273,22.122934 0.81588972,21.152328 0.51239246,20.151833 0.30743548,19.121445 0.10247849,18.091057 0,17.050575 0,16 0,14.949424 0.10247849,13.908942 0.30743548,12.878553 0.51239246,11.848165 0.81588972,10.847669 1.2179273,9.8770638 1.619965,8.9064589 2.1128178,7.9843965 2.696486,7.1108751 3.2801542,6.2373543 3.9434223,5.4291596 4.6862912,4.6862912 5.4291596,3.9434223 6.2373543,3.280154 7.1108751,2.6964858 7.9843965,2.1128178 8.9064589,1.619965 9.8770638,1.2179273 10.847669,0.81588972 11.848165,0.51239246 12.878554,0.30743548 13.908942,0.10247849 14.949424,0 16,0 Z"
             style="fill:#ffffff;fill-opacity:1;fill-rule:nonzero;stroke:none"
             id="path198"
             inkscape:connector-curvature="0" /><path
             d="m 16,0 h 48 c 1.050575,0 2.091049,0.10247849 3.121437,0.30743548 1.030388,0.20495698 2.030884,0.50845424 3.001495,0.91049182 0.970604,0.4020377 1.89267,0.8948905 2.766182,1.4785587 0.873528,0.5836682 1.681725,1.2469363 2.424591,1.9898052 0.742867,0.7428684 1.406128,1.5510631 1.9898,2.4245839 0.583664,0.8735214 1.076515,1.7955838 1.478554,2.7661887 0.402038,0.9706052 0.705536,1.9711012 0.910499,3.0014902 C 79.897514,13.908942 79.999992,14.949424 80,16 c -8e-6,1.050575 -0.102486,2.091057 -0.307442,3.121445 -0.204963,1.030388 -0.508461,2.030883 -0.910499,3.001489 -0.402039,0.970604 -0.89489,1.892666 -1.478554,2.766188 -0.583672,0.873522 -1.246933,1.681717 -1.9898,2.424585 -0.742866,0.742869 -1.551063,1.406136 -2.424583,1.989804 -0.87352,0.583667 -1.795586,1.076521 -2.76619,1.478557 -0.970611,0.402037 -1.971107,0.705536 -3.001495,0.910494 C 66.091049,31.897518 65.050575,31.999998 64,32 H 16 c -1.050576,-2e-6 -2.091058,-0.102482 -3.121447,-0.30744 C 11.848165,31.487602 10.847669,31.184105 9.8770638,30.782068 8.9064589,30.380032 7.9843965,29.887178 7.1108751,29.303511 6.2373543,28.719843 5.4291596,28.056576 4.6862912,27.313707 3.9434223,26.570839 3.280154,25.762644 2.6964858,24.889122 2.1128178,24.0156 1.619965,23.093538 1.2179273,22.122934 0.81588972,21.152328 0.51239246,20.151833 0.30743548,19.121445 0.10247849,18.091057 0,17.050575 0,16 0,14.949424 0.10247849,13.908942 0.30743548,12.878553 0.51239246,11.848165 0.81588972,10.847669 1.2179273,9.8770638 1.619965,8.9064589 2.1128178,7.9843965 2.696486,7.1108751 3.2801542,6.2373543 3.9434223,5.4291596 4.6862912,4.6862912 5.4291596,3.9434223 6.2373543,3.280154 7.1108751,2.6964858 7.9843965,2.1128178 8.9064589,1.619965 9.8770638,1.2179273 10.847669,0.81588972 11.848165,0.51239246 12.878554,0.30743548 13.908942,0.10247849 14.949424,0 16,0 Z"
             style="fill:none;stroke:#dddddd;stroke-width:1;stroke-linecap:butt;stroke-linejoin:miter;stroke-miterlimit:10;stroke-dasharray:none;stroke-opacity:1"
             id="path200"
             inkscape:connector-curvature="0" /></g><g
           id="g202"
           transform="matrix(3.1269929,0,0,3.1222186,1578.6222,1433.2242)"><text
   transform="translate(2.7000649)"
   style="font-variant:normal;font-weight:normal;font-size:14.22999954px;font-family:Arimo;-inkscape-font-specification:Arimo;writing-mode:lr-tb;fill:#337ab7;fill-opacity:1;fill-rule:nonzero;stroke:none"
   id="text206"><tspan
     x="0 9.4837952 14.21875 22.126541 29.235916 33.18634"
     y="0"
     sodipodi:role="line"
     id="tspan204">Próx →</tspan></text>

</g><g
           id="g208"
           transform="matrix(3.1785727,0,0,3.1737194,1219.4435,1366.5762)"><path
             d="m 16,0 h 46 c 1.050571,0 2.091049,0.10247849 3.121429,0.30743548 1.030388,0.20495698 2.030884,0.50845424 3.001488,0.91049182 0.970604,0.4020377 1.89267,0.8948905 2.76619,1.4785587 0.873527,0.5836682 1.681724,1.2469363 2.424598,1.9898052 0.742867,0.7428684 1.406136,1.5510631 1.9898,2.4245839 0.583672,0.8735214 1.076523,1.7955838 1.478561,2.7661887 0.402031,0.9706052 0.705529,1.9711012 0.910492,3.0014902 C 77.897514,13.908942 77.999992,14.949424 78,16 c -8e-6,1.050575 -0.102486,2.091057 -0.307442,3.121445 -0.204963,1.030388 -0.508461,2.030883 -0.910492,3.001489 -0.402038,0.970604 -0.894889,1.892666 -1.478553,2.766188 -0.583672,0.873522 -1.246941,1.681717 -1.989808,2.424585 -0.742874,0.742869 -1.551071,1.406136 -2.424591,1.989804 -0.87352,0.583667 -1.795585,1.076521 -2.766189,1.478557 -0.970604,0.402037 -1.971108,0.705536 -3.001496,0.910494 C 64.091049,31.897518 63.050571,31.999998 62,32 H 16 c -1.050576,-2e-6 -2.091058,-0.102482 -3.121447,-0.30744 C 11.848165,31.487602 10.847669,31.184105 9.8770638,30.782068 8.9064589,30.380032 7.9843965,29.887178 7.1108751,29.303511 6.2373543,28.719843 5.4291596,28.056576 4.6862912,27.313707 3.9434223,26.570839 3.280154,25.762644 2.6964858,24.889122 2.1128178,24.0156 1.619965,23.093538 1.2179273,22.122934 0.81588972,21.152328 0.51239246,20.151833 0.30743548,19.121445 0.10247849,18.091057 0,17.050575 0,16 0,14.949424 0.10247849,13.908942 0.30743548,12.878553 0.51239246,11.848165 0.81588972,10.847669 1.2179273,9.8770638 1.619965,8.9064589 2.1128178,7.9843965 2.696486,7.1108751 3.2801542,6.2373543 3.9434223,5.4291596 4.6862912,4.6862912 5.4291596,3.9434223 6.2373543,3.280154 7.1108751,2.6964858 7.9843965,2.1128178 8.9064589,1.619965 9.8770638,1.2179273 10.847669,0.81588972 11.848165,0.51239246 12.878554,0.30743548 13.908942,0.10247849 14.949424,0 16,0 Z"
             style="fill:#ffffff;fill-opacity:1;fill-rule:nonzero;stroke:none"
             id="path210"
             inkscape:connector-curvature="0" /><path
             d="m 16,0 h 46 c 1.050571,0 2.091049,0.10247849 3.121429,0.30743548 1.030388,0.20495698 2.030884,0.50845424 3.001488,0.91049182 0.970604,0.4020377 1.89267,0.8948905 2.76619,1.4785587 0.873527,0.5836682 1.681724,1.2469363 2.424598,1.9898052 0.742867,0.7428684 1.406136,1.5510631 1.9898,2.4245839 0.583672,0.8735214 1.076523,1.7955838 1.478561,2.7661887 0.402031,0.9706052 0.705529,1.9711012 0.910492,3.0014902 C 77.897514,13.908942 77.999992,14.949424 78,16 c -8e-6,1.050575 -0.102486,2.091057 -0.307442,3.121445 -0.204963,1.030388 -0.508461,2.030883 -0.910492,3.001489 -0.402038,0.970604 -0.894889,1.892666 -1.478553,2.766188 -0.583672,0.873522 -1.246941,1.681717 -1.989808,2.424585 -0.742874,0.742869 -1.551071,1.406136 -2.424591,1.989804 -0.87352,0.583667 -1.795585,1.076521 -2.766189,1.478557 -0.970604,0.402037 -1.971108,0.705536 -3.001496,0.910494 C 64.091049,31.897518 63.050571,31.999998 62,32 H 16 c -1.050576,-2e-6 -2.091058,-0.102482 -3.121447,-0.30744 C 11.848165,31.487602 10.847669,31.184105 9.8770638,30.782068 8.9064589,30.380032 7.9843965,29.887178 7.1108751,29.303511 6.2373543,28.719843 5.4291596,28.056576 4.6862912,27.313707 3.9434223,26.570839 3.280154,25.762644 2.6964858,24.889122 2.1128178,24.0156 1.619965,23.093538 1.2179273,22.122934 0.81588972,21.152328 0.51239246,20.151833 0.30743548,19.121445 0.10247849,18.091057 0,17.050575 0,16 0,14.949424 0.10247849,13.908942 0.30743548,12.878553 0.51239246,11.848165 0.81588972,10.847669 1.2179273,9.8770638 1.619965,8.9064589 2.1128178,7.9843965 2.696486,7.1108751 3.2801542,6.2373543 3.9434223,5.4291596 4.6862912,4.6862912 5.4291596,3.9434223 6.2373543,3.280154 7.1108751,2.6964858 7.9843965,2.1128178 8.9064589,1.619965 9.8770638,1.2179273 10.847669,0.81588972 11.848165,0.51239246 12.878554,0.30743548 13.908942,0.10247849 14.949424,0 16,0 Z"
             style="fill:none;stroke:#dddddd;stroke-width:1;stroke-linecap:butt;stroke-linejoin:miter;stroke-miterlimit:10;stroke-dasharray:none;stroke-opacity:1"
             id="path212"
             inkscape:connector-curvature="0" /></g><g
           id="g214"
           transform="matrix(3.1269929,0,0,3.1222186,1263.9435,1433.2242)"><text
   transform="translate(5.9719081)"
   style="font-variant:normal;font-weight:normal;font-size:14.22999954px;font-family:Arimo;-inkscape-font-specification:Arimo;writing-mode:lr-tb;fill:#337ab7;fill-opacity:1;fill-rule:nonzero;stroke:none"
   id="text218"><tspan
     x="0 14.21875 18.169174 27.652969 35.56076"
     y="0"
     sodipodi:role="line"
     id="tspan216">← Ant</tspan></text>

</g><g
           id="g220"
           transform="matrix(3.1785727,0,0,3.1737194,961.979,1061.8991)"><path
             d="m 2,0 h 89 c 0.265205,0 0.520325,0.05074697 0.76535,0.15224092 0.245026,0.10149394 0.461312,0.24600909 0.648857,0.43354548 0.187531,0.1875363 0.332047,0.40381849 0.433541,0.6488466 C 92.949242,1.4796611 92.999992,1.7347834 93,2 v 17 c -8e-6,0.265215 -0.05076,0.520336 -0.152252,0.765366 -0.101494,0.245027 -0.24601,0.461311 -0.433541,0.648847 -0.187545,0.187535 -0.403831,0.332049 -0.648857,0.433544 C 91.520325,20.949251 91.265205,20.999998 91,21 H 2 C 1.7347834,20.999998 1.4796611,20.949251 1.234633,20.847757 0.98960489,20.746262 0.7733227,20.601748 0.5857864,20.414213 0.39825001,20.226677 0.25373486,20.010393 0.15224092,19.765366 0.05074697,19.520336 0,19.265215 0,19 V 2 C 0,1.7347834 0.05074697,1.4796611 0.15224092,1.234633 0.25373486,0.98960489 0.39825001,0.7733227 0.5857864,0.5857864 0.7733227,0.39825001 0.98960489,0.25373486 1.234633,0.15224092 1.4796611,0.05074697 1.7347834,0 2,0 Z"
             style="fill:#f0ad4e;fill-opacity:1;fill-rule:nonzero;stroke:none"
             id="path222"
             inkscape:connector-curvature="0" /></g><g
           id="g224"
           transform="matrix(3.1269929,0,0,3.1222186,981.05054,1106.3311)"><text
   transform="translate(19.758121)"
   style="font-variant:normal;font-weight:bold;font-size:10.15999985px;font-family:Arimo;-inkscape-font-specification:Arimo-Bold;writing-mode:lr-tb;fill:#ffffff;fill-opacity:1;fill-rule:nonzero;stroke:none"
   id="text228"><tspan
     x="0 7.3345184 12.982941 16.365051 22.013474 24.835205 31.039047 36.687469"
     y="0"
     sodipodi:role="line"
     id="tspan226">Detalhes</tspan></text>

</g><g
           id="g230"
           transform="matrix(3.1785727,0,0,3.1737194,961.979,1176.153)"><path
             d="m 2,0 h 89 c 0.265205,0 0.520325,0.05074697 0.76535,0.15224092 0.245026,0.10149394 0.461312,0.24600909 0.648857,0.43354548 0.187531,0.1875363 0.332047,0.40381849 0.433541,0.6488466 C 92.949242,1.4796611 92.999992,1.7347834 93,2 v 17 c -8e-6,0.265215 -0.05076,0.520336 -0.152252,0.765366 -0.101494,0.245027 -0.24601,0.461311 -0.433541,0.648847 -0.187545,0.187535 -0.403831,0.332049 -0.648857,0.433544 C 91.520325,20.949251 91.265205,20.999998 91,21 H 2 C 1.7347834,20.999998 1.4796611,20.949251 1.234633,20.847757 0.98960489,20.746262 0.7733227,20.601748 0.5857864,20.414213 0.39825001,20.226677 0.25373486,20.010393 0.15224092,19.765366 0.05074697,19.520336 0,19.265215 0,19 V 2 C 0,1.7347834 0.05074697,1.4796611 0.15224092,1.234633 0.25373486,0.98960489 0.39825001,0.7733227 0.5857864,0.5857864 0.7733227,0.39825001 0.98960489,0.25373486 1.234633,0.15224092 1.4796611,0.05074697 1.7347834,0 2,0 Z"
             style="fill:#f0ad4e;fill-opacity:1;fill-rule:nonzero;stroke:none"
             id="path232"
             inkscape:connector-curvature="0" /></g><g
           id="g234"
           transform="matrix(3.1269929,0,0,3.1222186,981.05054,1220.585)"><text
   transform="translate(19.758121)"
   style="font-variant:normal;font-weight:bold;font-size:10.15999985px;font-family:Arimo;-inkscape-font-specification:Arimo-Bold;writing-mode:lr-tb;fill:#ffffff;fill-opacity:1;fill-rule:nonzero;stroke:none"
   id="text238"><tspan
     x="0 7.3345184 12.982941 16.365051 22.013474 24.835205 31.039047 36.687469"
     y="0"
     sodipodi:role="line"
     id="tspan236">Detalhes</tspan></text>

</g><g
           id="g240"
           transform="matrix(3.1785727,0,0,3.1737194,961.979,1280.8857)"><path
             d="m 2,0 h 89 c 0.265205,0 0.520325,0.05074697 0.76535,0.15224092 0.245026,0.10149394 0.461312,0.24600909 0.648857,0.43354548 0.187531,0.1875363 0.332047,0.40381849 0.433541,0.6488466 C 92.949242,1.4796611 92.999992,1.7347834 93,2 v 17 c -8e-6,0.265215 -0.05076,0.520336 -0.152252,0.765366 -0.101494,0.245027 -0.24601,0.461311 -0.433541,0.648847 -0.187545,0.187535 -0.403831,0.332049 -0.648857,0.433544 C 91.520325,20.949251 91.265205,20.999998 91,21 H 2 C 1.7347834,20.999998 1.4796611,20.949251 1.234633,20.847757 0.98960489,20.746262 0.7733227,20.601748 0.5857864,20.414213 0.39825001,20.226677 0.25373486,20.010393 0.15224092,19.765366 0.05074697,19.520336 0,19.265215 0,19 V 2 C 0,1.7347834 0.05074697,1.4796611 0.15224092,1.234633 0.25373486,0.98960489 0.39825001,0.7733227 0.5857864,0.5857864 0.7733227,0.39825001 0.98960489,0.25373486 1.234633,0.15224092 1.4796611,0.05074697 1.7347834,0 2,0 Z"
             style="fill:#f0ad4e;fill-opacity:1;fill-rule:nonzero;stroke:none"
             id="path242"
             inkscape:connector-curvature="0" /></g><g
           id="g244"
           transform="matrix(3.1269929,0,0,3.1222186,981.05054,1325.3178)"><text
   transform="translate(19.758121)"
   style="font-variant:normal;font-weight:bold;font-size:10.15999985px;font-family:Arimo;-inkscape-font-specification:Arimo-Bold;writing-mode:lr-tb;fill:#ffffff;fill-opacity:1;fill-rule:nonzero;stroke:none"
   id="text248"><tspan
     x="0 7.3345184 12.982941 16.365051 22.013474 24.835205 31.039047 36.687469"
     y="0"
     sodipodi:role="line"
     id="tspan246">Detalhes</tspan></text>

</g><g
           id="g250"
           transform="matrix(3.1785727,0,0,3.1737194,189.58594,309.7276)"><path
             d="m 2,0 h 46 c 0.265213,0 0.520332,0.05074697 0.765362,0.15224092 0.245025,0.10149394 0.461307,0.24600909 0.648849,0.43354548 0.187535,0.1875363 0.332047,0.40381849 0.433541,0.6488466 C 49.949245,1.4796611 49.999996,1.7347834 50,2 v 17 c -4e-6,0.265215 -0.05076,0.520336 -0.152248,0.765366 -0.101494,0.245027 -0.246006,0.461311 -0.433541,0.648847 -0.187542,0.187535 -0.403824,0.332049 -0.648849,0.433544 C 48.520332,20.949251 48.265213,20.999998 48,21 H 2 C 1.7347834,20.999998 1.4796611,20.949251 1.234633,20.847757 0.98960489,20.746262 0.7733227,20.601748 0.5857864,20.414213 0.39825001,20.226677 0.25373486,20.010393 0.15224092,19.765366 0.05074697,19.520336 0,19.265215 0,19 V 2 C 0,1.7347834 0.05074697,1.4796611 0.15224092,1.234633 0.25373486,0.98960489 0.39825001,0.7733227 0.5857864,0.5857864 0.7733227,0.39825001 0.98960489,0.25373486 1.234633,0.15224092 1.4796611,0.05074697 1.7347834,0 2,0 Z"
             style="fill:#777777;fill-opacity:1;fill-rule:nonzero;stroke:none"
             id="path252"
             inkscape:connector-curvature="0" /></g><g
           id="g254"
           transform="matrix(3.1269929,0,0,3.1222186,208.65736,354.1597)"><text
   transform="translate(5.2254195)"
   style="font-variant:normal;font-weight:bold;font-size:10.15999985px;font-family:Arimo;-inkscape-font-specification:Arimo-Bold;writing-mode:lr-tb;fill:#ffffff;fill-opacity:1;fill-rule:nonzero;stroke:none"
   id="text258"><tspan
     x="0 6.0200806 12.223923 15.045654 18.427765 24.076187"
     y="0"
     sodipodi:role="line"
     id="tspan256">Voltar</tspan></text>

</g></g></g></g></svg>