<?xml version="1.0" encoding="UTF-8" standalone="no"?>
<!-- Created with Inkscape (http://www.inkscape.org/) -->

<svg
   xmlns:dc="http://purl.org/dc/elements/1.1/"
   xmlns:cc="http://creativecommons.org/ns#"
   xmlns:rdf="http://www.w3.org/1999/02/22-rdf-syntax-ns#"
   xmlns:svg="http://www.w3.org/2000/svg"
   xmlns="http://www.w3.org/2000/svg"
   xmlns:sodipodi="http://sodipodi.sourceforge.net/DTD/sodipodi-0.dtd"
   xmlns:inkscape="http://www.inkscape.org/namespaces/inkscape"
   width="210mm"
   height="297mm"
   viewBox="0 0 210 297"
   version="1.1"
   id="svg434"
   inkscape:version="0.92.5 (2060ec1f9f, 2020-04-08)"
   sodipodi:docname="mockups-02.svg">
  <defs
     id="defs428">
    <clipPath
       clipPathUnits="userSpaceOnUse"
       id="clipPath200">
      <path
         d="M 129.16666,151.04166 H 2347.9167 V 2029.1667 H 129.16666 Z"
         id="path198"
         inkscape:connector-curvature="0"
         style="clip-rule:evenodd" />
    </clipPath>
    <clipPath
       clipPathUnits="userSpaceOnUse"
       id="clipPath138">
      <path
         d="M 263.4769,975.11731 H 2209.0566 V 1668.8716 H 263.4769 Z"
         id="path136"
         inkscape:connector-curvature="0"
         style="clip-rule:evenodd" />
    </clipPath>
    <clipPath
       clipPathUnits="userSpaceOnUse"
       id="clipPath106">
      <path
         d="M 129.16666,151.04166 H 2347.9167 V 2029.1667 H 129.16666 Z"
         id="path104"
         inkscape:connector-curvature="0"
         style="clip-rule:evenodd" />
    </clipPath>
    <clipPath
       clipPathUnits="userSpaceOnUse"
       id="clipPath92">
      <path
         d="m 274.9892,377.18533 h 180.35944 v 91.98953 H 274.9892 Z"
         id="path90"
         inkscape:connector-curvature="0"
         style="clip-rule:evenodd" />
    </clipPath>
    <clipPath
       clipPathUnits="userSpaceOnUse"
       id="clipPath48">
      <path
         d="M 129.16666,151.04166 H 2347.9167 V 2029.1667 H 129.16666 Z"
         id="path46"
         inkscape:connector-curvature="0"
         style="clip-rule:evenodd" />
    </clipPath>
    <linearGradient
       x1="0"
       y1="0"
       x2="0"
       y2="1"
       gradientUnits="userSpaceOnUse"
       gradientTransform="matrix(121.2,0,0,-8.1599997,-16.70132,147.74071)"
       spreadMethod="pad"
       id="linearGradient74">
      <stop
         style="stop-opacity:1;stop-color:#f2f2f2"
         offset="0"
         id="stop68" />
      <stop
         style="stop-opacity:1;stop-color:#ffffff"
         offset="0.10000001"
         id="stop70" />
      <stop
         style="stop-opacity:1;stop-color:#ffffff"
         offset="1"
         id="stop72" />
    </linearGradient>
  </defs>
  <sodipodi:namedview
     id="base"
     pagecolor="#ffffff"
     bordercolor="#666666"
     borderopacity="1.0"
     inkscape:pageopacity="0.0"
     inkscape:pageshadow="2"
     inkscape:zoom="0.49497475"
     inkscape:cx="446.02608"
     inkscape:cy="802.43661"
     inkscape:document-units="mm"
     inkscape:current-layer="layer1"
     showgrid="false"
     inkscape:window-width="1366"
     inkscape:window-height="707"
     inkscape:window-x="0"
     inkscape:window-y="30"
     inkscape:window-maximized="1" />
  <metadata
     id="metadata431">
    <rdf:RDF>
      <cc:Work
         rdf:about="">
        <dc:format>image/svg+xml</dc:format>
        <dc:type
           rdf:resource="http://purl.org/dc/dcmitype/StillImage" />
        <dc:title></dc:title>
      </cc:Work>
    </rdf:RDF>
  </metadata>
  <g
     inkscape:label="Layer 1"
     inkscape:groupmode="layer"
     id="layer1">
    <g
       transform="matrix(0.08466666,0,0,0.08466666,-0.54175905,2.8652347)"
       id="g42">
      <g
         id="g44"
         clip-path="url(#clipPath48)">
        <g
           id="g50"
           transform="matrix(3.8374352,0,0,3.8328967,129.16666,151.0444)">
          <path
             d="m 4,0 h 571 c 0.5304,0 1.04059,0.10149394 1.53064,0.30448183 0.49005,0.20298788 0.92267,0.4920182 1.29773,0.86709097 0.37506,0.3750726 0.66406,0.807637 0.867,1.2976931 C 578.89844,2.9593222 578.99994,3.4695668 579,4 V 39 H 0 V 4 C 0,3.4695671 0.10149396,2.9593227 0.30448189,2.4692664 0.50746983,1.9792101 0.79650015,1.5466458 1.1715729,1.1715729 1.5466458,0.79650015 1.9792101,0.50746983 2.4692664,0.30448189 2.9593227,0.10149396 3.4695671,0 4,0 Z"
             style="fill:#337ab7;fill-opacity:1;fill-rule:nonzero;stroke:none"
             id="path52"
             inkscape:connector-curvature="0" />
          <path
             d="m 4,0 h 571 c 0.5304,0 1.04059,0.10149394 1.53064,0.30448183 0.49005,0.20298788 0.92267,0.4920182 1.29773,0.86709097 0.37506,0.3750726 0.66406,0.807637 0.867,1.2976931 C 578.89844,2.9593222 578.99994,3.4695668 579,4 V 39 H 0 V 4 C 0,3.4695671 0.10149396,2.9593227 0.30448189,2.4692664 0.50746983,1.9792101 0.79650015,1.5466458 1.1715729,1.1715729 1.5466458,0.79650015 1.9792101,0.50746983 2.4692664,0.30448189 2.9593227,0.10149396 3.4695671,0 4,0 Z"
             style="fill:none;stroke:#337ab7;stroke-width:1;stroke-linecap:butt;stroke-linejoin:miter;stroke-miterlimit:10;stroke-dasharray:none;stroke-opacity:1"
             id="path54"
             inkscape:connector-curvature="0" />
          <path
             d="m 0,39 h 579 v 447 c -6e-5,0.5304 -0.10156,1.04062 -0.30463,1.53064 -0.20294,0.49005 -0.49194,0.92264 -0.867,1.29773 -0.37506,0.37503 -0.80768,0.66406 -1.29773,0.86706 C 576.04059,489.89844 575.5304,489.99997 575,490 H 4 c -0.5304332,-3e-5 -1.0406778,-0.10156 -1.5307341,-0.30457 -0.4900561,-0.203 -0.9226205,-0.49203 -1.2976931,-0.86706 C 0.79650003,488.45328 0.50746971,488.02069 0.30448183,487.53064 0.10149394,487.04062 0,486.5304 0,486 Z"
             style="fill:#f8f8f8;fill-opacity:1;fill-rule:nonzero;stroke:none"
             id="path56"
             inkscape:connector-curvature="0" />
          <path
             d="m 0,39 h 579 v 447 c -6e-5,0.5304 -0.10156,1.04062 -0.30463,1.53064 -0.20294,0.49005 -0.49194,0.92264 -0.867,1.29773 -0.37506,0.37503 -0.80768,0.66406 -1.29773,0.86706 C 576.04059,489.89844 575.5304,489.99997 575,490 H 4 c -0.5304332,-3e-5 -1.0406778,-0.10156 -1.5307341,-0.30457 -0.4900561,-0.203 -0.9226205,-0.49203 -1.2976931,-0.86706 C 0.79650003,488.45328 0.50746971,488.02069 0.30448183,487.53064 0.10149394,487.04062 0,486.5304 0,486 Z"
             style="fill:none;stroke:#337ab7;stroke-width:1;stroke-linecap:butt;stroke-linejoin:miter;stroke-miterlimit:10;stroke-dasharray:none;stroke-opacity:1"
             id="path58"
             inkscape:connector-curvature="0" />
        </g>
        <g
           id="g60"
           transform="matrix(3.1269927,0,0,3.1232946,186.7282,246.86682)">
          <text
             style="font-variant:normal;font-weight:normal;font-size:19.62999916px;font-family:Arimo;-inkscape-font-specification:Arimo;writing-mode:lr-tb;fill:#ffffff;fill-opacity:1;fill-rule:nonzero;stroke:none"
             id="text64">
            <tspan
               x="0 14.172546 25.087036 36.001526 46.916016 56.728516 62.180969 68.716248 79.630737 85.083191 95.997681 106.91217 112.36462 128.7124 139.62689 146.16217 155.97467 166.88916"
               y="0"
               sodipodi:role="line"
               id="tspan62">Cadastro de Marcas</tspan>
          </text>
        </g>
        <g
           id="g66"
           transform="matrix(3.8374352,0,0,3.8328967,271.15176,515.16962)">
          <path
             d="m 4,0 h 497 c 0.53043,0 1.04065,0.10149394 1.5307,0.30448183 0.49002,0.20298788 0.92261,0.4920182 1.2977,0.86709097 0.37506,0.3750726 0.66406,0.807637 0.86703,1.2976931 C 504.89844,2.9593222 504.99997,3.4695668 505,4 v 26 c -3e-5,0.530432 -0.10156,1.040674 -0.30457,1.530729 -0.20297,0.490057 -0.49197,0.922625 -0.86703,1.297697 -0.37509,0.375069 -0.80768,0.664097 -1.2977,0.867085 C 502.04065,33.898502 501.53043,33.999996 501,34 H 4 C 3.4695668,33.999996 2.9593222,33.898502 2.4692659,33.695515 1.9792098,33.492523 1.5466454,33.203495 1.1715728,32.828426 0.79650003,32.453354 0.50746971,32.020786 0.30448183,31.530729 0.10149394,31.040674 0,30.530432 0,30 V 4 C 0,3.4695671 0.10149396,2.9593227 0.30448189,2.4692664 0.50746983,1.9792101 0.79650015,1.5466458 1.1715729,1.1715729 1.5466458,0.79650015 1.9792101,0.50746983 2.4692664,0.30448189 2.9593227,0.10149396 3.4695671,0 4,0 Z"
             style="fill:url(#linearGradient74);fill-opacity:1;fill-rule:nonzero;stroke:none"
             id="path76"
             inkscape:connector-curvature="0" />
          <path
             d="m 4,0 h 497 c 0.53043,0 1.04065,0.10149394 1.5307,0.30448183 0.49002,0.20298788 0.92261,0.4920182 1.2977,0.86709097 0.37506,0.3750726 0.66406,0.807637 0.86703,1.2976931 C 504.89844,2.9593222 504.99997,3.4695668 505,4 v 26 c -3e-5,0.530432 -0.10156,1.040674 -0.30457,1.530729 -0.20297,0.490057 -0.49197,0.922625 -0.86703,1.297697 -0.37509,0.375069 -0.80768,0.664097 -1.2977,0.867085 C 502.04065,33.898502 501.53043,33.999996 501,34 H 4 C 3.4695668,33.999996 2.9593222,33.898502 2.4692659,33.695515 1.9792098,33.492523 1.5466454,33.203495 1.1715728,32.828426 0.79650003,32.453354 0.50746971,32.020786 0.30448183,31.530729 0.10149394,31.040674 0,30.530432 0,30 V 4 C 0,3.4695671 0.10149396,2.9593227 0.30448189,2.4692664 0.50746983,1.9792101 0.79650015,1.5466458 1.1715729,1.1715729 1.5466458,0.79650015 1.9792101,0.50746983 2.4692664,0.30448189 2.9593227,0.10149396 3.4695671,0 4,0 Z"
             style="fill:none;stroke:#cccccc;stroke-width:1;stroke-linecap:butt;stroke-linejoin:miter;stroke-miterlimit:10;stroke-dasharray:none;stroke-opacity:1"
             id="path78"
             inkscape:connector-curvature="0" />
        </g>
        <g
           id="g80"
           transform="matrix(3.1269927,0,0,3.1232946,317.20099,599.49329)">
          <text
             style="font-variant:normal;font-weight:normal;font-size:17.18000031px;font-family:Arimo;-inkscape-font-specification:Arimo;writing-mode:lr-tb;fill:#545454;fill-opacity:1;fill-rule:nonzero;stroke:none"
             id="text84">
            <tspan
               x="0 12.400986 21.951172 36.255478 45.805664 50.576569 60.126755 69.676941 74.447845 88.752151 98.302338 104.02071 112.60664 122.15683 126.92773 131.69864"
               y="0"
               sodipodi:role="line"
               id="tspan82">Nome de marca...</tspan>
          </text>
        </g>
      </g>
    </g>
    <g
       transform="matrix(0.08466666,0,0,0.08466666,-0.54175905,2.8652347)"
       id="g86">
      <g
         id="g88"
         clip-path="url(#clipPath92)">
        <g
           id="g94"
           transform="matrix(3.8374352,0,0,3.8328967,274.9892,377.18533)">
          <text
             transform="translate(0,17)"
             style="font-variant:normal;font-weight:bold;font-size:17px;font-family:'Liberation Sans';-inkscape-font-specification:LiberationSans-Bold;writing-mode:lr-tb;fill:#000000;fill-opacity:1;fill-rule:nonzero;stroke:none"
             id="text98">
            <tspan
               x="0 12.276855 22.661133 37.776855"
               y="0"
               sodipodi:role="line"
               id="tspan96">Nome</tspan>
          </text>
        </g>
      </g>
    </g>
    <g
       transform="matrix(0.08466666,0,0,0.08466666,-0.54175905,2.8652347)"
       id="g100">
      <g
         id="g102"
         clip-path="url(#clipPath106)">
        <g
           id="g108"
           transform="matrix(3.8374352,0,0,3.8328967,1307.2593,699.14868)">
          <path
             d="m 4,0 h 63 c 0.530434,0 1.040672,0.10149394 1.530731,0.30448183 0.490059,0.20298788 0.922623,0.4920182 1.297692,0.86709097 0.375068,0.3750726 0.664093,0.807637 0.867088,1.2976931 C 70.898499,2.9593222 70.999992,3.4695668 71,4 v 26 c -8e-6,0.530432 -0.101501,1.040674 -0.304489,1.530729 -0.202995,0.490057 -0.49202,0.922625 -0.867088,1.297697 -0.375069,0.375069 -0.807633,0.664097 -1.297692,0.867085 C 68.040672,33.898502 67.530434,33.999996 67,34 H 4 C 3.4695668,33.999996 2.9593222,33.898502 2.4692659,33.695515 1.9792098,33.492523 1.5466454,33.203495 1.1715728,32.828426 0.79650003,32.453354 0.50746971,32.020786 0.30448183,31.530729 0.10149394,31.040674 0,30.530432 0,30 V 4 C 0,3.4695671 0.10149396,2.9593227 0.30448189,2.4692664 0.50746983,1.9792101 0.79650015,1.5466458 1.1715729,1.1715729 1.5466458,0.79650015 1.9792101,0.50746983 2.4692664,0.30448189 2.9593227,0.10149396 3.4695671,0 4,0 Z"
             style="fill:#5cb85c;fill-opacity:1;fill-rule:nonzero;stroke:none"
             id="path110"
             inkscape:connector-curvature="0" />
          <path
             d="m 4,0 h 63 c 0.530434,0 1.040672,0.10149394 1.530731,0.30448183 0.490059,0.20298788 0.922623,0.4920182 1.297692,0.86709097 0.375068,0.3750726 0.664093,0.807637 0.867088,1.2976931 C 70.898499,2.9593222 70.999992,3.4695668 71,4 v 26 c -8e-6,0.530432 -0.101501,1.040674 -0.304489,1.530729 -0.202995,0.490057 -0.49202,0.922625 -0.867088,1.297697 -0.375069,0.375069 -0.807633,0.664097 -1.297692,0.867085 C 68.040672,33.898502 67.530434,33.999996 67,34 H 4 C 3.4695668,33.999996 2.9593222,33.898502 2.4692659,33.695515 1.9792098,33.492523 1.5466454,33.203495 1.1715728,32.828426 0.79650003,32.453354 0.50746971,32.020786 0.30448183,31.530729 0.10149394,31.040674 0,30.530432 0,30 V 4 C 0,3.4695671 0.10149396,2.9593227 0.30448189,2.4692664 0.50746983,1.9792101 0.79650015,1.5466458 1.1715729,1.1715729 1.5466458,0.79650015 1.9792101,0.50746983 2.4692664,0.30448189 2.9593227,0.10149396 3.4695671,0 4,0 Z"
             style="fill:none;stroke:#4cae4c;stroke-width:1;stroke-linecap:butt;stroke-linejoin:miter;stroke-miterlimit:10;stroke-dasharray:none;stroke-opacity:1"
             id="path112"
             inkscape:connector-curvature="0" />
        </g>
        <g
           id="g114"
           transform="matrix(3.1269927,0,0,3.1232946,1353.3085,783.47241)">
          <text
             transform="translate(4.2760134)"
             style="font-variant:normal;font-weight:normal;font-size:17.18000031px;font-family:Arimo;-inkscape-font-specification:Arimo;writing-mode:lr-tb;fill:#ffffff;fill-opacity:1;fill-rule:nonzero;stroke:none"
             id="text118">
            <tspan
               x="0 11.453506 21.003693 24.818741 33.404678 42.954865"
               y="0"
               sodipodi:role="line"
               id="tspan116">Salvar</tspan>
          </text>
        </g>
        <g
           id="g120"
           transform="matrix(3.8374352,0,0,3.8328967,1625.7665,699.14868)">
          <path
             d="m 4,0 h 63 c 0.530434,0 1.040672,0.10149394 1.530731,0.30448183 0.490059,0.20298788 0.922623,0.4920182 1.297692,0.86709097 0.375068,0.3750726 0.664093,0.807637 0.867088,1.2976931 C 70.898499,2.9593222 70.999992,3.4695668 71,4 v 26 c -8e-6,0.530432 -0.101501,1.040674 -0.304489,1.530729 -0.202995,0.490057 -0.49202,0.922625 -0.867088,1.297697 -0.375069,0.375069 -0.807633,0.664097 -1.297692,0.867085 C 68.040672,33.898502 67.530434,33.999996 67,34 H 4 C 3.4695668,33.999996 2.9593222,33.898502 2.4692659,33.695515 1.9792098,33.492523 1.5466454,33.203495 1.1715728,32.828426 0.79650003,32.453354 0.50746971,32.020786 0.30448183,31.530729 0.10149394,31.040674 0,30.530432 0,30 V 4 C 0,3.4695671 0.10149396,2.9593227 0.30448189,2.4692664 0.50746983,1.9792101 0.79650015,1.5466458 1.1715729,1.1715729 1.5466458,0.79650015 1.9792101,0.50746983 2.4692664,0.30448189 2.9593227,0.10149396 3.4695671,0 4,0 Z"
             style="fill:#ffffff;fill-opacity:1;fill-rule:nonzero;stroke:none"
             id="path122"
             inkscape:connector-curvature="0" />
          <path
             d="m 4,0 h 63 c 0.530434,0 1.040672,0.10149394 1.530731,0.30448183 0.490059,0.20298788 0.922623,0.4920182 1.297692,0.86709097 0.375068,0.3750726 0.664093,0.807637 0.867088,1.2976931 C 70.898499,2.9593222 70.999992,3.4695668 71,4 v 26 c -8e-6,0.530432 -0.101501,1.040674 -0.304489,1.530729 -0.202995,0.490057 -0.49202,0.922625 -0.867088,1.297697 -0.375069,0.375069 -0.807633,0.664097 -1.297692,0.867085 C 68.040672,33.898502 67.530434,33.999996 67,34 H 4 C 3.4695668,33.999996 2.9593222,33.898502 2.4692659,33.695515 1.9792098,33.492523 1.5466454,33.203495 1.1715728,32.828426 0.79650003,32.453354 0.50746971,32.020786 0.30448183,31.530729 0.10149394,31.040674 0,30.530432 0,30 V 4 C 0,3.4695671 0.10149396,2.9593227 0.30448189,2.4692664 0.50746983,1.9792101 0.79650015,1.5466458 1.1715729,1.1715729 1.5466458,0.79650015 1.9792101,0.50746983 2.4692664,0.30448189 2.9593227,0.10149396 3.4695671,0 4,0 Z"
             style="fill:none;stroke:#f2f2f2;stroke-width:1;stroke-linecap:butt;stroke-linejoin:miter;stroke-miterlimit:10;stroke-dasharray:none;stroke-opacity:1"
             id="path124"
             inkscape:connector-curvature="0" />
        </g>
        <g
           id="g126"
           transform="matrix(3.1269927,0,0,3.1232946,1671.8157,783.47241)">
          <text
             transform="translate(2.3681061)"
             style="font-variant:normal;font-weight:normal;font-size:17.18000031px;font-family:Arimo;-inkscape-font-specification:Arimo;writing-mode:lr-tb;fill:#333333;fill-opacity:1;fill-rule:nonzero;stroke:none"
             id="text130">
            <tspan
               x="0 9.5501862 13.365234 27.66954 37.219727 46.769913"
               y="0"
               sodipodi:role="line"
               id="tspan128">Limpar</tspan>
          </text>
        </g>
      </g>
    </g>
    <g
       transform="matrix(0.08466666,0,0,0.08466666,-0.54175905,2.8652347)"
       id="g132">
      <g
         id="g134"
         clip-path="url(#clipPath138)">
        <g
           id="g140"
           transform="matrix(3.8374352,0,0,3.8328967,263.4769,975.11731)">
          <path
             d="m 347,144 h 160 v 1 H 347 Z"
             style="fill:#dddddd;fill-opacity:1;fill-rule:nonzero;stroke:none"
             id="path142"
             inkscape:connector-curvature="0" />
          <path
             d="m 0,144 h 347 v 1 H 0 Z"
             style="fill:#dddddd;fill-opacity:1;fill-rule:nonzero;stroke:none"
             id="path144"
             inkscape:connector-curvature="0" />
          <path
             d="m 347,108 h 160 v 1 H 347 Z"
             style="fill:#dddddd;fill-opacity:1;fill-rule:nonzero;stroke:none"
             id="path146"
             inkscape:connector-curvature="0" />
          <path
             d="m 0,108 h 347 v 1 H 0 Z"
             style="fill:#dddddd;fill-opacity:1;fill-rule:nonzero;stroke:none"
             id="path148"
             inkscape:connector-curvature="0" />
          <path
             d="m 347,36 h 160 v 1 H 347 Z"
             style="fill:#dddddd;fill-opacity:1;fill-rule:nonzero;stroke:none"
             id="path150"
             inkscape:connector-curvature="0" />
          <path
             d="m 347,72 h 160 v 1 H 347 Z"
             style="fill:#dddddd;fill-opacity:1;fill-rule:nonzero;stroke:none"
             id="path152"
             inkscape:connector-curvature="0" />
          <path
             d="m 0,72 h 347 v 1 H 0 Z"
             style="fill:#dddddd;fill-opacity:1;fill-rule:nonzero;stroke:none"
             id="path154"
             inkscape:connector-curvature="0" />
          <path
             d="m 0,35 h 347 v 2 H 0 Z"
             style="fill:#dddddd;fill-opacity:1;fill-rule:nonzero;stroke:none"
             id="path156"
             inkscape:connector-curvature="0" />
          <text
             transform="translate(8,22)"
             style="font-variant:normal;font-weight:bold;font-size:14px;font-family:Arimo;-inkscape-font-specification:Arimo-Bold;writing-mode:lr-tb;fill:#333333;fill-opacity:1;fill-rule:nonzero;stroke:none"
             id="text160">
            <tspan
               x="0 11.662109 19.448242 24.896484 32.682617 40.46875 48.254883 52.144531 60.696289 64.585938 72.37207 80.923828 89.475586 98.027344 101.91699 109.70312 117.48926 121.37891"
               y="0"
               sodipodi:role="line"
               id="tspan158">Marcas disponíveis</tspan>
          </text>
          <text
             transform="translate(8,59)"
             style="font-variant:normal;font-weight:normal;font-size:14px;font-family:Arimo;-inkscape-font-specification:Arimo;writing-mode:lr-tb;fill:#333333;fill-opacity:1;fill-rule:nonzero;stroke:none"
             id="text164">
            <tspan
               x="0 10.110352 17.896484 25.682617 28.792969 36.579102"
               y="0"
               sodipodi:role="line"
               id="tspan162">Código</tspan>
          </text>
          <text
             transform="translate(355,59)"
             style="font-variant:normal;font-weight:normal;font-size:14px;font-family:Arimo;-inkscape-font-specification:Arimo;writing-mode:lr-tb;fill:#333333;fill-opacity:1;fill-rule:nonzero;stroke:none"
             id="text168">
            <tspan
               x="0 10.110352 17.896484 29.558594"
               y="0"
               sodipodi:role="line"
               id="tspan166">Nome</tspan>
          </text>
          <text
             transform="translate(8,95)"
             style="font-variant:normal;font-weight:normal;font-size:14px;font-family:Arimo;-inkscape-font-specification:Arimo;writing-mode:lr-tb;fill:#333333;fill-opacity:1;fill-rule:nonzero;stroke:none"
             id="text172">
            <tspan
               x="0"
               y="0"
               id="tspan170">1</tspan>
          </text>
          <text
             transform="translate(355,95)"
             style="font-variant:normal;font-weight:normal;font-size:14px;font-family:Arimo;-inkscape-font-specification:Arimo;writing-mode:lr-tb;fill:#333333;fill-opacity:1;fill-rule:nonzero;stroke:none"
             id="text176">
            <tspan
               x="0 11.662109 19.448242 24.110352 31.110352 38.896484 42.786133"
               y="0"
               sodipodi:role="line"
               id="tspan174">Marca 1</tspan>
          </text>
          <text
             transform="translate(8,131)"
             style="font-variant:normal;font-weight:normal;font-size:14px;font-family:Arimo;-inkscape-font-specification:Arimo;writing-mode:lr-tb;fill:#333333;fill-opacity:1;fill-rule:nonzero;stroke:none"
             id="text180">
            <tspan
               x="0"
               y="0"
               id="tspan178">2</tspan>
          </text>
          <text
             transform="translate(355,131)"
             style="font-variant:normal;font-weight:normal;font-size:14px;font-family:Arimo;-inkscape-font-specification:Arimo;writing-mode:lr-tb;fill:#333333;fill-opacity:1;fill-rule:nonzero;stroke:none"
             id="text184">
            <tspan
               x="0 11.662109 19.448242 24.110352 31.110352 38.896484 42.786133"
               y="0"
               sodipodi:role="line"
               id="tspan182">Marca 2</tspan>
          </text>
          <text
             transform="translate(8,168)"
             style="font-variant:normal;font-weight:normal;font-size:14px;font-family:Arimo;-inkscape-font-specification:Arimo;writing-mode:lr-tb;fill:#333333;fill-opacity:1;fill-rule:nonzero;stroke:none"
             id="text188">
            <tspan
               x="0"
               y="0"
               id="tspan186">3</tspan>
          </text>
          <text
             transform="translate(355,168)"
             style="font-variant:normal;font-weight:normal;font-size:14px;font-family:Arimo;-inkscape-font-specification:Arimo;writing-mode:lr-tb;fill:#333333;fill-opacity:1;fill-rule:nonzero;stroke:none"
             id="text192">
            <tspan
               x="0 11.662109 19.448242 24.110352 31.110352 38.896484 42.786133"
               y="0"
               sodipodi:role="line"
               id="tspan190">Marca 3</tspan>
          </text>
        </g>
      </g>
    </g>
    <g
       transform="matrix(0.08466666,0,0,0.08466666,-0.54175905,2.8652347)"
       id="g194">
      <g
         id="g196"
         clip-path="url(#clipPath200)">
        <g
           id="g202"
           transform="matrix(3.8374352,0,0,3.8328967,1936.5988,1285.5819)">
          <path
             d="m 4,0 h 63 c 0.530434,0 1.040672,0.10149394 1.530731,0.30448183 0.490059,0.20298788 0.922623,0.4920182 1.297692,0.86709097 0.375068,0.3750726 0.664093,0.807637 0.867088,1.2976931 C 70.898499,2.9593222 70.999992,3.4695668 71,4 v 13 c -8e-6,0.530432 -0.101501,1.040676 -0.304489,1.530731 -0.202995,0.490055 -0.49202,0.922621 -0.867088,1.297695 -0.375069,0.375071 -0.807633,0.664101 -1.297692,0.867089 C 68.040672,20.898504 67.530434,20.999998 67,21 H 4 C 3.4695668,20.999998 2.9593222,20.898504 2.4692659,20.695515 1.9792098,20.492527 1.5466454,20.203497 1.1715728,19.828426 0.79650003,19.453352 0.50746971,19.020786 0.30448183,18.530731 0.10149394,18.040676 0,17.530432 0,17 V 4 C 0,3.4695671 0.10149396,2.9593227 0.30448189,2.4692664 0.50746983,1.9792101 0.79650015,1.5466458 1.1715729,1.1715729 1.5466458,0.79650015 1.9792101,0.50746983 2.4692664,0.30448189 2.9593227,0.10149396 3.4695671,0 4,0 Z"
             style="fill:#d9534f;fill-opacity:1;fill-rule:nonzero;stroke:none"
             id="path204"
             inkscape:connector-curvature="0" />
          <path
             d="m 4,0 h 63 c 0.530434,0 1.040672,0.10149394 1.530731,0.30448183 0.490059,0.20298788 0.922623,0.4920182 1.297692,0.86709097 0.375068,0.3750726 0.664093,0.807637 0.867088,1.2976931 C 70.898499,2.9593222 70.999992,3.4695668 71,4 v 13 c -8e-6,0.530432 -0.101501,1.040676 -0.304489,1.530731 -0.202995,0.490055 -0.49202,0.922621 -0.867088,1.297695 -0.375069,0.375071 -0.807633,0.664101 -1.297692,0.867089 C 68.040672,20.898504 67.530434,20.999998 67,21 H 4 C 3.4695668,20.999998 2.9593222,20.898504 2.4692659,20.695515 1.9792098,20.492527 1.5466454,20.203497 1.1715728,19.828426 0.79650003,19.453352 0.50746971,19.020786 0.30448183,18.530731 0.10149394,18.040676 0,17.530432 0,17 V 4 C 0,3.4695671 0.10149396,2.9593227 0.30448189,2.4692664 0.50746983,1.9792101 0.79650015,1.5466458 1.1715729,1.1715729 1.5466458,0.79650015 1.9792101,0.50746983 2.4692664,0.30448189 2.9593227,0.10149396 3.4695671,0 4,0 Z"
             style="fill:none;stroke:#d4403a;stroke-width:1;stroke-linecap:butt;stroke-linejoin:miter;stroke-miterlimit:10;stroke-dasharray:none;stroke-opacity:1"
             id="path206"
             inkscape:connector-curvature="0" />
        </g>
        <g
           id="g208"
           transform="matrix(3.1269927,0,0,3.1232946,1982.6479,1346.9082)">
          <text
             transform="translate(3.8062272)"
             style="font-variant:normal;font-weight:normal;font-size:17.18000031px;font-family:Arimo;-inkscape-font-specification:Arimo;writing-mode:lr-tb;fill:#ffffff;fill-opacity:1;fill-rule:nonzero;stroke:none"
             id="text212">
            <tspan
               x="0 9.5501862 18.136124 26.722061 30.537109 40.087296 43.902344"
               y="0"
               sodipodi:role="line"
               id="tspan210">excluir</tspan>
          </text>
        </g>
        <g
           id="g214"
           transform="matrix(3.8374352,0,0,3.8328967,1936.5988,1419.7333)">
          <path
             d="m 4,0 h 63 c 0.530434,0 1.040672,0.10149394 1.530731,0.30448183 0.490059,0.20298788 0.922623,0.4920182 1.297692,0.86709097 0.375068,0.3750726 0.664093,0.807637 0.867088,1.2976931 C 70.898499,2.9593222 70.999992,3.4695668 71,4 v 13 c -8e-6,0.530432 -0.101501,1.040676 -0.304489,1.530731 -0.202995,0.490055 -0.49202,0.922621 -0.867088,1.297695 -0.375069,0.375071 -0.807633,0.664101 -1.297692,0.867089 C 68.040672,20.898504 67.530434,20.999998 67,21 H 4 C 3.4695668,20.999998 2.9593222,20.898504 2.4692659,20.695515 1.9792098,20.492527 1.5466454,20.203497 1.1715728,19.828426 0.79650003,19.453352 0.50746971,19.020786 0.30448183,18.530731 0.10149394,18.040676 0,17.530432 0,17 V 4 C 0,3.4695671 0.10149396,2.9593227 0.30448189,2.4692664 0.50746983,1.9792101 0.79650015,1.5466458 1.1715729,1.1715729 1.5466458,0.79650015 1.9792101,0.50746983 2.4692664,0.30448189 2.9593227,0.10149396 3.4695671,0 4,0 Z"
             style="fill:#d9534f;fill-opacity:1;fill-rule:nonzero;stroke:none"
             id="path216"
             inkscape:connector-curvature="0" />
          <path
             d="m 4,0 h 63 c 0.530434,0 1.040672,0.10149394 1.530731,0.30448183 0.490059,0.20298788 0.922623,0.4920182 1.297692,0.86709097 0.375068,0.3750726 0.664093,0.807637 0.867088,1.2976931 C 70.898499,2.9593222 70.999992,3.4695668 71,4 v 13 c -8e-6,0.530432 -0.101501,1.040676 -0.304489,1.530731 -0.202995,0.490055 -0.49202,0.922621 -0.867088,1.297695 -0.375069,0.375071 -0.807633,0.664101 -1.297692,0.867089 C 68.040672,20.898504 67.530434,20.999998 67,21 H 4 C 3.4695668,20.999998 2.9593222,20.898504 2.4692659,20.695515 1.9792098,20.492527 1.5466454,20.203497 1.1715728,19.828426 0.79650003,19.453352 0.50746971,19.020786 0.30448183,18.530731 0.10149394,18.040676 0,17.530432 0,17 V 4 C 0,3.4695671 0.10149396,2.9593227 0.30448189,2.4692664 0.50746983,1.9792101 0.79650015,1.5466458 1.1715729,1.1715729 1.5466458,0.79650015 1.9792101,0.50746983 2.4692664,0.30448189 2.9593227,0.10149396 3.4695671,0 4,0 Z"
             style="fill:none;stroke:#d4403a;stroke-width:1;stroke-linecap:butt;stroke-linejoin:miter;stroke-miterlimit:10;stroke-dasharray:none;stroke-opacity:1"
             id="path218"
             inkscape:connector-curvature="0" />
        </g>
        <g
           id="g220"
           transform="matrix(3.1269927,0,0,3.1232946,1982.6479,1481.0596)">
          <text
             transform="translate(3.8062272)"
             style="font-variant:normal;font-weight:normal;font-size:17.18000031px;font-family:Arimo;-inkscape-font-specification:Arimo;writing-mode:lr-tb;fill:#ffffff;fill-opacity:1;fill-rule:nonzero;stroke:none"
             id="text224">
            <tspan
               x="0 9.5501862 18.136124 26.722061 30.537109 40.087296 43.902344"
               y="0"
               sodipodi:role="line"
               id="tspan222">excluir</tspan>
          </text>
        </g>
        <g
           id="g226"
           transform="matrix(3.8374352,0,0,3.8328967,1936.5988,1553.8846)">
          <path
             d="m 4,0 h 63 c 0.530434,0 1.040672,0.10149394 1.530731,0.30448183 0.490059,0.20298788 0.922623,0.4920182 1.297692,0.86709097 0.375068,0.3750726 0.664093,0.807637 0.867088,1.2976931 C 70.898499,2.9593222 70.999992,3.4695668 71,4 v 13 c -8e-6,0.530432 -0.101501,1.040676 -0.304489,1.530731 -0.202995,0.490055 -0.49202,0.922621 -0.867088,1.297695 -0.375069,0.375071 -0.807633,0.664101 -1.297692,0.867089 C 68.040672,20.898504 67.530434,20.999998 67,21 H 4 C 3.4695668,20.999998 2.9593222,20.898504 2.4692659,20.695515 1.9792098,20.492527 1.5466454,20.203497 1.1715728,19.828426 0.79650003,19.453352 0.50746971,19.020786 0.30448183,18.530731 0.10149394,18.040676 0,17.530432 0,17 V 4 C 0,3.4695671 0.10149396,2.9593227 0.30448189,2.4692664 0.50746983,1.9792101 0.79650015,1.5466458 1.1715729,1.1715729 1.5466458,0.79650015 1.9792101,0.50746983 2.4692664,0.30448189 2.9593227,0.10149396 3.4695671,0 4,0 Z"
             style="fill:#d9534f;fill-opacity:1;fill-rule:nonzero;stroke:none"
             id="path228"
             inkscape:connector-curvature="0" />
          <path
             d="m 4,0 h 63 c 0.530434,0 1.040672,0.10149394 1.530731,0.30448183 0.490059,0.20298788 0.922623,0.4920182 1.297692,0.86709097 0.375068,0.3750726 0.664093,0.807637 0.867088,1.2976931 C 70.898499,2.9593222 70.999992,3.4695668 71,4 v 13 c -8e-6,0.530432 -0.101501,1.040676 -0.304489,1.530731 -0.202995,0.490055 -0.49202,0.922621 -0.867088,1.297695 -0.375069,0.375071 -0.807633,0.664101 -1.297692,0.867089 C 68.040672,20.898504 67.530434,20.999998 67,21 H 4 C 3.4695668,20.999998 2.9593222,20.898504 2.4692659,20.695515 1.9792098,20.492527 1.5466454,20.203497 1.1715728,19.828426 0.79650003,19.453352 0.50746971,19.020786 0.30448183,18.530731 0.10149394,18.040676 0,17.530432 0,17 V 4 C 0,3.4695671 0.10149396,2.9593227 0.30448189,2.4692664 0.50746983,1.9792101 0.79650015,1.5466458 1.1715729,1.1715729 1.5466458,0.79650015 1.9792101,0.50746983 2.4692664,0.30448189 2.9593227,0.10149396 3.4695671,0 4,0 Z"
             style="fill:none;stroke:#d4403a;stroke-width:1;stroke-linecap:butt;stroke-linejoin:miter;stroke-miterlimit:10;stroke-dasharray:none;stroke-opacity:1"
             id="path230"
             inkscape:connector-curvature="0" />
        </g>
        <g
           id="g232"
           transform="matrix(3.1269927,0,0,3.1232946,1982.6479,1615.2111)">
          <text
             transform="translate(3.8062272)"
             style="font-variant:normal;font-weight:normal;font-size:17.18000031px;font-family:Arimo;-inkscape-font-specification:Arimo;writing-mode:lr-tb;fill:#ffffff;fill-opacity:1;fill-rule:nonzero;stroke:none"
             id="text236">
            <tspan
               x="0 9.5501862 18.136124 26.722061 30.537109 40.087296 43.902344"
               y="0"
               sodipodi:role="line"
               id="tspan234">excluir</tspan>
          </text>
        </g>
        <g
           id="g238"
           transform="matrix(3.8374352,0,0,3.8328967,1602.7418,1707.2006)">
          <path
             d="m 16,0 h 45 c 1.050571,0 2.091053,0.10247849 3.121437,0.30743548 1.030388,0.20495698 2.030891,0.50845424 3.001495,0.91049182 0.970604,0.4020377 1.892662,0.8948905 2.766182,1.4785587 0.873528,0.5836682 1.681725,1.2469363 2.424591,1.9898052 0.742867,0.7428684 1.406128,1.5510631 1.9898,2.4245839 0.583664,0.8735214 1.076515,1.7955838 1.478554,2.7661887 0.402038,0.9706052 0.705536,1.9711012 0.910499,3.0014902 C 76.897522,13.908942 77,14.949424 77,16 c 0,1.050575 -0.102478,2.091057 -0.307442,3.121445 -0.204963,1.030388 -0.508461,2.030883 -0.910499,3.001489 -0.402039,0.970604 -0.89489,1.892666 -1.478554,2.766188 -0.583672,0.873522 -1.246933,1.681717 -1.9898,2.424585 -0.742866,0.742869 -1.551063,1.406136 -2.424591,1.989804 -0.87352,0.583667 -1.795578,1.076521 -2.766182,1.478557 -0.970604,0.402037 -1.971099,0.705536 -3.001487,0.910494 C 63.091053,31.897518 62.050571,31.999998 61,32 H 16 c -1.050576,-2e-6 -2.091058,-0.102482 -3.121447,-0.30744 C 11.848165,31.487602 10.847669,31.184105 9.8770638,30.782068 8.9064589,30.380032 7.9843965,29.887178 7.1108751,29.303511 6.2373543,28.719843 5.4291596,28.056576 4.6862912,27.313707 3.9434223,26.570839 3.280154,25.762644 2.6964858,24.889122 2.1128178,24.0156 1.619965,23.093538 1.2179273,22.122934 0.81588972,21.152328 0.51239246,20.151833 0.30743548,19.121445 0.10247849,18.091057 0,17.050575 0,16 0,14.949424 0.10247849,13.908942 0.30743548,12.878553 0.51239246,11.848165 0.81588972,10.847669 1.2179273,9.8770638 1.619965,8.9064589 2.1128178,7.9843965 2.696486,7.1108751 3.2801542,6.2373543 3.9434223,5.4291596 4.6862912,4.6862912 5.4291596,3.9434223 6.2373543,3.280154 7.1108751,2.6964858 7.9843965,2.1128178 8.9064589,1.619965 9.8770638,1.2179273 10.847669,0.81588972 11.848165,0.51239246 12.878554,0.30743548 13.908942,0.10247849 14.949424,0 16,0 Z"
             style="fill:#ffffff;fill-opacity:1;fill-rule:nonzero;stroke:none"
             id="path240"
             inkscape:connector-curvature="0" />
          <path
             d="m 16,0 h 45 c 1.050571,0 2.091053,0.10247849 3.121437,0.30743548 1.030388,0.20495698 2.030891,0.50845424 3.001495,0.91049182 0.970604,0.4020377 1.892662,0.8948905 2.766182,1.4785587 0.873528,0.5836682 1.681725,1.2469363 2.424591,1.9898052 0.742867,0.7428684 1.406128,1.5510631 1.9898,2.4245839 0.583664,0.8735214 1.076515,1.7955838 1.478554,2.7661887 0.402038,0.9706052 0.705536,1.9711012 0.910499,3.0014902 C 76.897522,13.908942 77,14.949424 77,16 c 0,1.050575 -0.102478,2.091057 -0.307442,3.121445 -0.204963,1.030388 -0.508461,2.030883 -0.910499,3.001489 -0.402039,0.970604 -0.89489,1.892666 -1.478554,2.766188 -0.583672,0.873522 -1.246933,1.681717 -1.9898,2.424585 -0.742866,0.742869 -1.551063,1.406136 -2.424591,1.989804 -0.87352,0.583667 -1.795578,1.076521 -2.766182,1.478557 -0.970604,0.402037 -1.971099,0.705536 -3.001487,0.910494 C 63.091053,31.897518 62.050571,31.999998 61,32 H 16 c -1.050576,-2e-6 -2.091058,-0.102482 -3.121447,-0.30744 C 11.848165,31.487602 10.847669,31.184105 9.8770638,30.782068 8.9064589,30.380032 7.9843965,29.887178 7.1108751,29.303511 6.2373543,28.719843 5.4291596,28.056576 4.6862912,27.313707 3.9434223,26.570839 3.280154,25.762644 2.6964858,24.889122 2.1128178,24.0156 1.619965,23.093538 1.2179273,22.122934 0.81588972,21.152328 0.51239246,20.151833 0.30743548,19.121445 0.10247849,18.091057 0,17.050575 0,16 0,14.949424 0.10247849,13.908942 0.30743548,12.878553 0.51239246,11.848165 0.81588972,10.847669 1.2179273,9.8770638 1.619965,8.9064589 2.1128178,7.9843965 2.696486,7.1108751 3.2801542,6.2373543 3.9434223,5.4291596 4.6862912,4.6862912 5.4291596,3.9434223 6.2373543,3.280154 7.1108751,2.6964858 7.9843965,2.1128178 8.9064589,1.619965 9.8770638,1.2179273 10.847669,0.81588972 11.848165,0.51239246 12.878554,0.30743548 13.908942,0.10247849 14.949424,0 16,0 Z"
             style="fill:none;stroke:#dddddd;stroke-width:1;stroke-linecap:butt;stroke-linejoin:miter;stroke-miterlimit:10;stroke-dasharray:none;stroke-opacity:1"
             id="path242"
             inkscape:connector-curvature="0" />
        </g>
        <g
           id="g244"
           transform="matrix(3.1269927,0,0,3.1232946,1656.4659,1787.6913)">
          <text
             transform="translate(6.5961823)"
             style="font-variant:normal;font-weight:normal;font-size:17.18000031px;font-family:Arimo;-inkscape-font-specification:Arimo;writing-mode:lr-tb;fill:#337ab7;fill-opacity:1;fill-rule:nonzero;stroke:none"
             id="text248">
            <tspan
               x="0 17.171875 21.94278 33.396286 42.946472"
               y="0"
               sodipodi:role="line"
               id="tspan246">← Ant</tspan>
          </text>
        </g>
        <g
           id="g250"
           transform="matrix(3.8374352,0,0,3.8328967,1936.5988,1707.2006)">
          <path
             d="m 16,0 h 48 c 1.050575,0 2.091049,0.10247849 3.121437,0.30743548 1.030388,0.20495698 2.030884,0.50845424 3.001495,0.91049182 0.970604,0.4020377 1.89267,0.8948905 2.766182,1.4785587 0.873528,0.5836682 1.681725,1.2469363 2.424591,1.9898052 0.742867,0.7428684 1.406128,1.5510631 1.9898,2.4245839 0.583664,0.8735214 1.076515,1.7955838 1.478554,2.7661887 0.402038,0.9706052 0.705536,1.9711012 0.910499,3.0014902 C 79.897514,13.908942 79.999992,14.949424 80,16 c -8e-6,1.050575 -0.102486,2.091057 -0.307442,3.121445 -0.204963,1.030388 -0.508461,2.030883 -0.910499,3.001489 -0.402039,0.970604 -0.89489,1.892666 -1.478554,2.766188 -0.583672,0.873522 -1.246933,1.681717 -1.9898,2.424585 -0.742866,0.742869 -1.551063,1.406136 -2.424583,1.989804 -0.87352,0.583667 -1.795586,1.076521 -2.76619,1.478557 -0.970611,0.402037 -1.971107,0.705536 -3.001495,0.910494 C 66.091049,31.897518 65.050575,31.999998 64,32 H 16 c -1.050576,-2e-6 -2.091058,-0.102482 -3.121447,-0.30744 C 11.848165,31.487602 10.847669,31.184105 9.8770638,30.782068 8.9064589,30.380032 7.9843965,29.887178 7.1108751,29.303511 6.2373543,28.719843 5.4291596,28.056576 4.6862912,27.313707 3.9434223,26.570839 3.280154,25.762644 2.6964858,24.889122 2.1128178,24.0156 1.619965,23.093538 1.2179273,22.122934 0.81588972,21.152328 0.51239246,20.151833 0.30743548,19.121445 0.10247849,18.091057 0,17.050575 0,16 0,14.949424 0.10247849,13.908942 0.30743548,12.878553 0.51239246,11.848165 0.81588972,10.847669 1.2179273,9.8770638 1.619965,8.9064589 2.1128178,7.9843965 2.696486,7.1108751 3.2801542,6.2373543 3.9434223,5.4291596 4.6862912,4.6862912 5.4291596,3.9434223 6.2373543,3.280154 7.1108751,2.6964858 7.9843965,2.1128178 8.9064589,1.619965 9.8770638,1.2179273 10.847669,0.81588972 11.848165,0.51239246 12.878554,0.30743548 13.908942,0.10247849 14.949424,0 16,0 Z"
             style="fill:#ffffff;fill-opacity:1;fill-rule:nonzero;stroke:none"
             id="path252"
             inkscape:connector-curvature="0" />
          <path
             d="m 16,0 h 48 c 1.050575,0 2.091049,0.10247849 3.121437,0.30743548 1.030388,0.20495698 2.030884,0.50845424 3.001495,0.91049182 0.970604,0.4020377 1.89267,0.8948905 2.766182,1.4785587 0.873528,0.5836682 1.681725,1.2469363 2.424591,1.9898052 0.742867,0.7428684 1.406128,1.5510631 1.9898,2.4245839 0.583664,0.8735214 1.076515,1.7955838 1.478554,2.7661887 0.402038,0.9706052 0.705536,1.9711012 0.910499,3.0014902 C 79.897514,13.908942 79.999992,14.949424 80,16 c -8e-6,1.050575 -0.102486,2.091057 -0.307442,3.121445 -0.204963,1.030388 -0.508461,2.030883 -0.910499,3.001489 -0.402039,0.970604 -0.89489,1.892666 -1.478554,2.766188 -0.583672,0.873522 -1.246933,1.681717 -1.9898,2.424585 -0.742866,0.742869 -1.551063,1.406136 -2.424583,1.989804 -0.87352,0.583667 -1.795586,1.076521 -2.76619,1.478557 -0.970611,0.402037 -1.971107,0.705536 -3.001495,0.910494 C 66.091049,31.897518 65.050575,31.999998 64,32 H 16 c -1.050576,-2e-6 -2.091058,-0.102482 -3.121447,-0.30744 C 11.848165,31.487602 10.847669,31.184105 9.8770638,30.782068 8.9064589,30.380032 7.9843965,29.887178 7.1108751,29.303511 6.2373543,28.719843 5.4291596,28.056576 4.6862912,27.313707 3.9434223,26.570839 3.280154,25.762644 2.6964858,24.889122 2.1128178,24.0156 1.619965,23.093538 1.2179273,22.122934 0.81588972,21.152328 0.51239246,20.151833 0.30743548,19.121445 0.10247849,18.091057 0,17.050575 0,16 0,14.949424 0.10247849,13.908942 0.30743548,12.878553 0.51239246,11.848165 0.81588972,10.847669 1.2179273,9.8770638 1.619965,8.9064589 2.1128178,7.9843965 2.696486,7.1108751 3.2801542,6.2373543 3.9434223,5.4291596 4.6862912,4.6862912 5.4291596,3.9434223 6.2373543,3.280154 7.1108751,2.6964858 7.9843965,2.1128178 8.9064589,1.619965 9.8770638,1.2179273 10.847669,0.81588972 11.848165,0.51239246 12.878554,0.30743548 13.908942,0.10247849 14.949424,0 16,0 Z"
             style="fill:none;stroke:#dddddd;stroke-width:1;stroke-linecap:butt;stroke-linejoin:miter;stroke-miterlimit:10;stroke-dasharray:none;stroke-opacity:1"
             id="path254"
             inkscape:connector-curvature="0" />
        </g>
        <g
           id="g256"
           transform="matrix(3.1269927,0,0,3.1232946,1990.3229,1787.6913)">
          <text
             transform="translate(3.2597413)"
             style="font-variant:normal;font-weight:normal;font-size:17.18000031px;font-family:Arimo;-inkscape-font-specification:Arimo;writing-mode:lr-tb;fill:#337ab7;fill-opacity:1;fill-rule:nonzero;stroke:none"
             id="text260">
            <tspan
               x="0 11.453506 17.171875 26.722061 35.307999 40.078903"
               y="0"
               sodipodi:role="line"
               id="tspan258">Próx →</tspan>
          </text>
        </g>
        <g
           id="g262"
           transform="matrix(3.8374352,0,0,3.8328967,1936.5988,699.14868)">
          <path
             d="m 4,0 h 63 c 0.530434,0 1.040672,0.10149394 1.530731,0.30448183 0.490059,0.20298788 0.922623,0.4920182 1.297692,0.86709097 0.375068,0.3750726 0.664093,0.807637 0.867088,1.2976931 C 70.898499,2.9593222 70.999992,3.4695668 71,4 v 26 c -8e-6,0.530432 -0.101501,1.040674 -0.304489,1.530729 -0.202995,0.490057 -0.49202,0.922625 -0.867088,1.297697 -0.375069,0.375069 -0.807633,0.664097 -1.297692,0.867085 C 68.040672,33.898502 67.530434,33.999996 67,34 H 4 C 3.4695668,33.999996 2.9593222,33.898502 2.4692659,33.695515 1.9792098,33.492523 1.5466454,33.203495 1.1715728,32.828426 0.79650003,32.453354 0.50746971,32.020786 0.30448183,31.530729 0.10149394,31.040674 0,30.530432 0,30 V 4 C 0,3.4695671 0.10149396,2.9593227 0.30448189,2.4692664 0.50746983,1.9792101 0.79650015,1.5466458 1.1715729,1.1715729 1.5466458,0.79650015 1.9792101,0.50746983 2.4692664,0.30448189 2.9593227,0.10149396 3.4695671,0 4,0 Z"
             style="fill:#ffffff;fill-opacity:1;fill-rule:nonzero;stroke:none"
             id="path264"
             inkscape:connector-curvature="0" />
          <path
             d="m 4,0 h 63 c 0.530434,0 1.040672,0.10149394 1.530731,0.30448183 0.490059,0.20298788 0.922623,0.4920182 1.297692,0.86709097 0.375068,0.3750726 0.664093,0.807637 0.867088,1.2976931 C 70.898499,2.9593222 70.999992,3.4695668 71,4 v 26 c -8e-6,0.530432 -0.101501,1.040674 -0.304489,1.530729 -0.202995,0.490057 -0.49202,0.922625 -0.867088,1.297697 -0.375069,0.375069 -0.807633,0.664097 -1.297692,0.867085 C 68.040672,33.898502 67.530434,33.999996 67,34 H 4 C 3.4695668,33.999996 2.9593222,33.898502 2.4692659,33.695515 1.9792098,33.492523 1.5466454,33.203495 1.1715728,32.828426 0.79650003,32.453354 0.50746971,32.020786 0.30448183,31.530729 0.10149394,31.040674 0,30.530432 0,30 V 4 C 0,3.4695671 0.10149396,2.9593227 0.30448189,2.4692664 0.50746983,1.9792101 0.79650015,1.5466458 1.1715729,1.1715729 1.5466458,0.79650015 1.9792101,0.50746983 2.4692664,0.30448189 2.9593227,0.10149396 3.4695671,0 4,0 Z"
             style="fill:none;stroke:#f2f2f2;stroke-width:1;stroke-linecap:butt;stroke-linejoin:miter;stroke-miterlimit:10;stroke-dasharray:none;stroke-opacity:1"
             id="path266"
             inkscape:connector-curvature="0" />
        </g>
        <g
           id="g268"
           transform="matrix(3.1269927,0,0,3.1232946,1982.6479,783.47241)">
          <text
             transform="translate(-5.7524843)"
             style="font-variant:normal;font-weight:normal;font-size:17.18000031px;font-family:Arimo;-inkscape-font-specification:Arimo;writing-mode:lr-tb;fill:#333333;fill-opacity:1;fill-rule:nonzero;stroke:none"
             id="text272">
            <tspan
               x="0 12.400986 21.951172 31.501358 40.087296 49.637482 53.45253 63.002716"
               y="0"
               sodipodi:role="line"
               id="tspan270">Cancelar</tspan>
          </text>
        </g>
      </g>
    </g>
  </g>
</svg>
